<svg xmlns="http://www.w3.org/2000/svg" width="400" height="184" viewBox="0 0 400 184">
    <path data-name="パス 918" d="M1048.214 551.616c2.215-.893 3.385.352 4.586 2.459 14.508-32.708 71.3-44.366 95.477-12.826 11.365-13.742 22.227-28.994 43.348-32.361 39.962-14.336 67.534 5.161 85.087 38.676 5.742-6.522 9.607-14.787 20.58-17.784 17.094.438 33.03 2.521 47.446 12.849 42.772 24.287 43.65 79.727 19.06 115.518-17.444 18.2-50.336 19.847-73.271 9.517-5.414-2.2-7.853 9.7-13.737 11.824-24.167 15.54-56.183 5.524-84.586 4.706a102.841 102.841 0 0 1-30-17.145c-4.295-1.881-6.585-9.845-11.59-9.143-8.027 4.083-13.278 12.636-23.349 13.824-21.742 2.637-45.3-4.381-60.071-21.352-29.982 30.806-76.96-4.954-85.7-37.3-3.612-22.722-2.613-66.316 31.943-64.789 10.065-2.954 25.4-3.945 34.776 3.321" transform="translate(-980.087 -504.124)" style="fill:#00efb8"/>
</svg>
