<svg xmlns="http://www.w3.org/2000/svg" width="940" height="588" viewBox="0 0 940 588">
    <defs>
        <clipPath id="whmdyuww2a">
            <path data-name="長方形 1163" style="fill:#00efb8" d="M0 0h220v240H0z"/>
        </clipPath>
        <clipPath id="ff94htuoxb">
            <path data-name="長方形 1158" style="fill:#00efb8" d="M0 0h605v454H0z"/>
        </clipPath>
    </defs>
    <g data-name="グループ 62703">
        <g data-name="グループ 682">
            <g data-name="グループ 681" style="clip-path:url(#whmdyuww2a)" transform="translate(720 348)">
                <path data-name="パス 927" d="M136.617 31.319C151.988 49.446 159.6 72.951 174 91.852c8.63 11.326 19.5 20.752 28.7 31.624s16.909 23.916 17.285 38.128c.351 13.247-5.75 25.929-13.75 36.516a107.264 107.264 0 0 1-80.345 41.809 107.322 107.322 0 0 1-83.26-35.688 106.459 106.459 0 0 1-24.771-86.867c1.2-7.1 3.148-14.24 2.372-21.4-1.6-14.776-14.17-26.037-18.574-40.235A38.533 38.533 0 0 1 6.335 23.42C16.483 8.2 39.636 2.344 56.987.509a95.26 95.26 0 0 1 54.53 10.718 86.206 86.206 0 0 1 25.1 20.091" transform="translate(0 .001)" style="fill:#00efb8"/>
            </g>
        </g>
        <g data-name="グループ 62671">
            <g data-name="グループ 670" style="clip-path:url(#ff94htuoxb)">
                <path data-name="パス 917" d="M417.345 30.5c81.78 30.349 154.528 93.765 179.448 177.153s-7.876 185-85.184 225.359c-69.391 36.216-153.86 18.575-228.736-4.327C212.3 407.1 141.246 380.592 85.3 332.573S-9.377 210.883 1.983 138.147C28.811-33.708 299.652-13.174 417.349 30.5" style="fill:#00efb8"/>
            </g>
        </g>
    </g>
</svg>
