<svg xmlns="http://www.w3.org/2000/svg" width="320" height="300" viewBox="0 0 320 300">
    <path data-name="パス 1148" d="M541.125 0c2.55 1.184 5.427 1.668 7.4 4.064 1.914 2.319 4.161 4.377 5.823 6.874 3.069 4.607 5.939 9.376 8.659 14.223 2.028 3.617 3.606 7.511 5.536 11.194 1.872 3.579 1.94 5.29 6.641 4.869 4.81-.43 9.594-1.192 14.385-1.84 1.273-.172 2.531-.452 3.8-.686 7.254-1.34 14.5-2.706 21.764-4.013 5.75-1.036 11.487-2.255 17.278-2.909a43.3 43.3 0 0 1 12.653-.013c4.69.879 6.835 4.941 7.058 9.964.272 6.076-2.208 11.342-4.116 16.737-2.745 7.758-6.054 15.294-8.809 23.048-1.084 3.048-2.347 6.612.041 9.585a18.422 18.422 0 0 0 5.692 4.672c8.64 4.51 17.432 8.69 26.094 13.149 3.379 1.737 6.818 3.506 8.69 7.372a8.684 8.684 0 0 1-.565 9.338c-2.9 4.088-5.95 8.076-9.164 11.891q-5.126 6.082-10.7 11.737c-4.4 4.468-9.09 8.613-13.476 13.092a26.836 26.836 0 0 0-3.535 5.433c-1.337 2.306-.532 4.593.722 6.473a60.764 60.764 0 0 0 5.744 7.212c4.329 4.737 8.929 9.206 13.155 14.04a98.723 98.723 0 0 1 9 11.743c3.492 5.47 2.742 10.333-3.1 14.461-4.935 3.487-10.561 5.131-16.231 6.531-5.536 1.367-11.139 2.435-16.713 3.626-4.64.994-9.263 2.1-13.928 2.94-8.6 1.543-13.256 7.575-16.2 15.583-3.13 8.506-4.787 17.4-6.315 26.356a103.177 103.177 0 0 1-3.346 13.892c-2.132 6.7-7.24 9.757-14.847 7.254a26.774 26.774 0 0 1-10.065-6.3c-3.48-3.317-6.7-6.938-10.2-10.233-4.512-4.25-9.244-8.239-13.772-12.468-4.19-3.914-8.624-3.562-12.982-.789-5.624 3.579-11.1 7.423-16.545 11.311-8.534 6.1-16.8 12.636-25.529 18.4a12.447 12.447 0 0 1-17.023-2.85 51.807 51.807 0 0 1-4.947-9.069c-1.891-4.025-3.575-8.162-5.285-12.279-2.314-5.567-4.576-11.155-6.845-16.742q-4.23-10.409-8.435-20.83c-1.315-3.255-1.309-3.257.13-8.448-.861.081-1.722.229-2.583.232-6.658.018-13.316.066-19.975 0-8.7-.09-17.4-.1-26.094-.481-6.963-.308-13.923-.963-20.853-1.766-3.431-.4-6.755-1.42-8.861-4.908-1.46-2.416-1.112-5.045-.691-7.4a53.9 53.9 0 0 1 8.318-20.1c4.166-6.359 8.174-12.832 12.3-19.223 2.177-3.374 4.332-6.773 6.712-9.982a7.988 7.988 0 0 0-.878-10.919c-5.108-5.122-10.438-10-15.5-15.168-6.268-6.4-13.147-12.206-18.107-19.944-2.51-3.916-2.879-9.986 3.455-13.222 3.781-1.931 8.034-2.839 12.083-4.177 1.678-.553 3.39-.994 5.07-1.545 5.091-1.669 10.228-3.2 15.244-5.1 5.279-2 10.484-4.238 15.639-6.577 4-1.816 5.08-5.8 5.311-9.836.386-6.769.388-13.564.471-20.35q.1-8.2 0-16.4c-.052-5.028-.475-10.068-.248-15.078.21-4.639.088-9.479 4.14-12.993 1.84-1.6 3.679-2.264 5.633-1.431 5.068 2.16 10.245 4.221 14.957 7.093 7.739 4.717 15.171 10 22.68 15.133 4.041 2.762 8.063 5.578 11.929 8.6 4.457 3.487 8.988 3.573 13.457.5a103.161 103.161 0 0 0 11.964-9.277c3.947-3.672 7.4-7.945 11.051-11.966 2.971-3.269 5.841-6.647 8.9-9.812a171.275 171.275 0 0 1 9.175-8.772A29.288 29.288 0 0 1 537.8 0z" transform="translate(-360.804)" style="fill:#fff"/>
</svg>
