<svg xmlns="http://www.w3.org/2000/svg" width="175" height="164" viewBox="0 0 175 164">
    <path data-name="パス 1264" d="M298.3 59.572c.83-.212 1.587-.427 2.351-.595 6.843-1.513 13.235.343 19.352 4.274a31.547 31.547 0 0 1 11.078 12.776 27.413 27.413 0 0 1 2.543 9.458c.582 5.475.445 10.863-1.488 15.941a43.976 43.976 0 0 1-5.492 9.526 62.4 62.4 0 0 1-8.1 9.3c-1.409 1.355-1.4 1.67-.645 3.675a30.687 30.687 0 0 1 1.693 14.79 35.415 35.415 0 0 1-12.276 23.214 48.651 48.651 0 0 1-21.456 11.272c-6.336 1.434-12.675.921-18.579-2.754a42.944 42.944 0 0 1-6.185-5.22c-2.372-2.215-2.684-2.29-5.061-.095-4.254 3.929-8.494 7.957-13.51 10.129a87.639 87.639 0 0 1-11.457 4.09 30.384 30.384 0 0 1-9.135 1.334c-7.818-.308-15.238-2.719-21.245-9.59-5.355-6.125-8.071-13.874-7.909-23.293a152.875 152.875 0 0 1 1.328-15.627 3.91 3.91 0 0 0 .049-.409c.053-4.53.279-3.649-2.579-3.729-2.8-.079-5.611.037-8.393-.282-4.829-.556-9.631-1.617-13.879-4.8-4.973-3.726-8.154-9.324-9.431-16.608-.306-1.746-.678-3.489-.83-5.261a41.192 41.192 0 0 1 2.469-16.909c1.329-3.925 2.727-7.827 4.318-11.583.951-2.243 2.453-4.09 3.5-6.279a61.156 61.156 0 0 1 7.667-12.439c4.637-5.665 9.951-9.976 16.084-12.2 5.351-1.94 10.6-1.172 15.487 2.733a31 31 0 0 1 5.339 5.941c.817 1.1 1.5 1.109 2.3.23 1.579-1.738 3.162-3.473 4.686-5.289a110.359 110.359 0 0 1 14.246-14.515A63.825 63.825 0 0 1 251.6 20.69a66.6 66.6 0 0 1 11.3-3.346 26.7 26.7 0 0 1 18.064 2.285 34.159 34.159 0 0 1 16.3 17.042c2.652 5.945 2.877 12.345 1.845 18.91-.2 1.3-.513 2.565-.8 3.992" transform="translate(-158.93 -16.705)" style="fill:#fff"/>
</svg>
