<svg xmlns="http://www.w3.org/2000/svg" width="360" height="270" viewBox="0 0 360 270">
    <path data-name="パス 910" d="M746.868 297.429c-.882-3.019-1.417-6.205-2.736-9.015a39.625 39.625 0 0 0-5.913-9.591 94.924 94.924 0 0 0-11.962-11.223 35.734 35.734 0 0 0-15.161-6.688c-5.81-1.174-11.757-1.72-17.664-2.342-10.024-1.055-20.176-.829-30.028-3.554a53.924 53.924 0 0 1-19.993-10.066c-4.6-3.749-8.915-7.86-13.222-11.954-7.194-6.835-14-14.116-21.485-20.6-8.458-7.331-17.319-14.218-26.308-20.884a110.442 110.442 0 0 0-29.8-15.347c-5.227-1.817-10.482-3.833-15.891-4.757-5.033-.861-10.3-.613-15.445-.447-6.738.216-12.836 2.879-18.513 6.287a86.174 86.174 0 0 0-11.995 8.607c-10.421 9.019-21.554 16.654-35.115 19.974-7.484 1.834-15.028 3.419-22.476 5.384-9.009 2.374-17.948 4.975-25.663 10.635a40.925 40.925 0 0 0-9.723 10.815 70.025 70.025 0 0 0-8.674 16.793 43.354 43.354 0 0 0-1.629 20.872c.624 3.714 1.779 7.333 2.589 11.017.948 4.323 1.764 8.676 2.675 13.009.882 4.2 1.435 8.518 2.8 12.55q3.769 11.119 8.391 21.938c1.9 4.463 4.7 8.533 6.771 12.932a100.638 100.638 0 0 0 15.9 23.666 111.673 111.673 0 0 0 21.209 19 69.542 69.542 0 0 0 21.827 9.815 65.646 65.646 0 0 0 18.746 2.43c8.576-.334 17.113-.436 25.546-2.585 7.959-2.027 16.037-3.714 24.153-4.951a48.093 48.093 0 0 1 27.773 4.036c6.567 3 11.823 7.69 17.456 11.939 2.439 1.839 4.97 3.552 7.4 5.4 3.378 2.575 6.6 5.37 10.072 7.81 3.332 2.344 6.888 4.368 10.36 6.505 1.727 1.062 3.452 2.139 5.242 3.084A120.636 120.636 0 0 0 648.539 439a90.387 90.387 0 0 0 9.766.986c2.893.274 5.781.7 8.677.775a48.843 48.843 0 0 0 8.956-.4 136.419 136.419 0 0 0 14.8-3.108 43.164 43.164 0 0 0 19.1-11.19c4.4-4.414 7.648-9.7 8.251-16.227.256-2.771.8-5.531.849-8.3.12-7.372-.148-14.751.094-22.115a49.128 49.128 0 0 1 4.657-20.324c4.528-9.163 9.508-18.1 14.048-27.258 4.041-8.147 7.487-16.553 8.8-25.68.013-.1.218-.162.332-.24z" transform="translate(-386.868 -170.797)" style="fill:#ff654a"/>
</svg>
