<svg xmlns="http://www.w3.org/2000/svg" width="120" height="120.003" viewBox="0 0 120 120.003">
    <defs>
        <clipPath id="ammtbjtewa">
            <path data-name="長方形 1155" style="fill:none" d="M0 0h120v120.003H0z"/>
        </clipPath>
    </defs>
    <g data-name="グループ 669">
        <g data-name="グループ 659" style="clip-path:url(#ammtbjtewa)">
            <path data-name="パス 873" d="M62.632 0h15.342a7.743 7.743 0 0 0 1.264.26c2.815.109 5.629.18 8.444.279 4.953.174 9.909.275 14.854.579 2.1.128 4.072.57 5.6 2.522 1.321 1.688 1.413 3.513 1.556 5.359.183 2.369.066 4.763.048 7.146-.041 5.637-.074 11.274-.156 16.911-.087 5.991-.316 11.984-.322 17.975-.009 8.2.1 16.406.23 24.609.031 2 .419 4 .434 6a4.321 4.321 0 0 1-.812 2.686 5.817 5.817 0 0 1-4.415 1.835c-5.239.107-10.478.208-15.717.266-2.853.032-5.707-.03-8.562-.045-1.057-.006-2.114 0-3.257 0 0 2.7.052 5.138-.01 7.577-.147 5.813-.266 11.63-.557 17.437-.207 4.14-1.66 5.965-5.66 7a37.716 37.716 0 0 1-8.2.863c-5.995.191-11.993.195-17.99.31-2.231.042-4.458.213-6.687.272-2.859.075-5.727.263-8.575.1-4.654-.267-9.291-.805-13.94-1.178-2.308-.186-3.809-1.3-4.038-3.325-.323-2.865-.638-5.738-.784-8.617-.192-3.768-.211-7.545-.315-11.318-.086-3.114-.17-6.228-.282-9.342-.244-6.968-.587-13.931-.739-20.898-.1-4.383.165-8.772.121-13.157-.035-3.573-.278-7.145-.45-10.716a8.183 8.183 0 0 0-.258-1.269v-1.076a8.767 8.767 0 0 0 .22-1.279c.041-1.611 0-3.225.068-4.834.074-1.742 1.406-3.691 2.6-3.808 3.82-.371 7.638-.807 11.468-1.015 5.657-.308 11.324-.427 16.985-.659 1.771-.073 3.537-.254 5.408-.393 0-.355.022-.7 0-1.049-.21-2.741-.484-5.479-.632-8.224-.229-4.224-1.117-8.418-.592-12.678a3.221 3.221 0 0 0-.023-.8 2.89 2.89 0 0 1 2.123-3.156A13.214 13.214 0 0 1 48.67.839c4.271-.21 8.543-.386 12.814-.592A6.84 6.84 0 0 0 62.632 0M13.375 32.972a12.5 12.5 0 0 1 .3 1.622c.23 4.641.469 9.281.641 13.924.249 6.694.42 13.392.672 20.087.228 6.075.553 12.145.768 18.22.159 4.517.2 9.038.315 13.556.076 3.13.128 6.264.29 9.391.077 1.482.386 2.951.593 4.444 1.119 0 2.1-.069 3.062.011 4.919.41 9.831 1.188 14.75 1.214 7.045.04 14.093-.454 21.14-.73 4.327-.169 8.654-.414 12.983-.5 1.491-.032 1.964-.866 2.072-2.04.241-2.617.492-5.241.531-7.865.088-5.716.09-11.434.046-17.15-.047-6.047-.2-12.095-.287-18.142-.048-3.316.044-6.637-.114-9.948-.234-4.857-.59-9.711-.982-14.558q-.421-5.2-1.094-10.373c-.288-2.186-.91-2.6-3.151-2.622a148.616 148.616 0 0 0-4.116 0q-5.976.115-11.952.266c-5.813.154-11.625.335-17.437.491-4.565.122-9.13.2-13.694.342-1.735.054-3.466.232-5.335.364m86.047 34.4c-.717.75-1.192 1.587-1.905 1.938-4.324 2.127-7.62 2.3-11.706-.967a2.136 2.136 0 0 0-1.682-.41c-2.285.733-4.522 1.615-6.841 2.468v11.22h27.069c-1.584-25.339-.1-50.465-.324-75.725-17.38-.968-34.427-1.636-51.512-.518 3.477 3.844 6.946 7.484 10.184 11.318 2.944 3.49 5.678 7.164 8.421 10.819 1.344 1.791 3 3.465 3.338 5.815.586 4.051 1.143 8.107 1.6 12.175.23 2.04.143 4.116.328 6.164.2 2.235 1.763 3.175 3.543 1.744 1.713-1.377 3.755-2.444 6.016-1.929a33.823 33.823 0 0 1 4.97 2.01 3.388 3.388 0 0 0 1.42.389c1.01-.082 2.005-.334 3.008-.5a2.656 2.656 0 0 1 2.664 1.872c.214 1-.432 1.614-1.3 2.056a8.632 8.632 0 0 1-9.619-.671c-.62-.448-1.171-.891-2.026-.4-2.5 1.433-5.068 2.716-8.245 2.107l.427 7.234a21.207 21.207 0 0 0 2.021-.763c3.46-1.728 6.961-2.449 10.284.135 1.606 1.248 2.958 1.691 4.876.642.8-.437 2.272-1.2 3.035.6.192.455 1.025.64 1.95 1.17M50.231 9.894l.658 17.022h13.7c-4.135-6.132-9.409-11.491-14.362-17.022"/>
            <path data-name="パス 874" d="M4.161 30.111c1.868-.131 3.6-.31 5.335-.364 4.564-.142 9.129-.22 13.693-.341 5.813-.155 11.625-.338 17.437-.492q5.976-.157 11.953-.266c1.372-.026 2.744-.014 4.116 0 2.242.021 2.863.437 3.151 2.622q.683 5.169 1.094 10.373c.393 4.848.748 9.7.981 14.559.159 3.31.067 6.631.115 9.946.088 6.047.24 12.095.286 18.142.045 5.716.043 11.435-.045 17.15-.041 2.624-.29 5.249-.531 7.865-.108 1.175-.581 2.008-2.072 2.04-4.33.092-8.656.335-12.984.5-7.046.276-14.094.77-21.139.731-4.919-.028-9.832-.805-14.75-1.215-.966-.08-1.944-.011-3.062-.011-.207-1.493-.517-2.962-.594-4.444-.162-3.127-.213-6.26-.289-9.391C6.744 93 6.7 88.481 6.54 83.964c-.215-6.075-.54-12.145-.769-18.22-.251-6.694-.422-13.391-.671-20.087-.173-4.643-.411-9.283-.641-13.924a12.532 12.532 0 0 0-.3-1.622m39.371 26a7.637 7.637 0 0 0 8.017-.675c5.616-3.979 5.678-11.209 1.3-15.728-2.1-2.166-4.876-3.218-7.816-1.982-1.726.726-3.151 2.168-4.762 3.323-4.994-4.764-12.459-3.285-15.285 5.937-6.285-2.263-10.654.075-12.345 4.766-1.728 4.789-1.611 9.229 2.455 11.929 5 3.32 10.363 2.181 14.771-2.889 4.463 4.192 11.894 1.289 13.664-4.68m-3.75 16.846c-2.228.136-4.27.267-6.312.384-4.8.275-9.6.532-14.4.823a2.417 2.417 0 0 0-2.38 2.395c.069.646 1.091 1.409 1.846 1.706a7.7 7.7 0 0 0 3.014.373c2.083-.073 4.159-.316 6.241-.44 2.182-.131 4.367-.269 6.552-.29 4.372-.041 8.746.023 13.12-.009a50.749 50.749 0 0 0 5.332-.283 1.572 1.572 0 0 0 1.008-2.695 3.854 3.854 0 0 0-2.178-1.262c-4-.332-8.011-.492-11.845-.7M15.918 87.073a5.6 5.6 0 0 0 1.44.731 13.928 13.928 0 0 0 2.919.337q14.093.167 28.185.257a8.955 8.955 0 0 0 2.7-.529c.8-.255 1.123-.651.664-1.695a3.339 3.339 0 0 0-3.294-2.03q-8.81-.363-17.627-.553c-3.179-.073-6.362-.089-9.537.021a20.228 20.228 0 0 0-4.155.768c-.327.081-.606.593-.784.966a12.558 12.558 0 0 0-.515 1.728m.066 11.971a6.026 6.026 0 0 0 1.834.656c3.474.161 6.953.2 10.429.3 2.629.076 5.255.194 7.884.262 4.066.106 8.132.22 12.2.243a5.59 5.59 0 0 0 2.409-.63 1.28 1.28 0 0 0 .57-2.007 4.446 4.446 0 0 0-2.444-1.569c-3.185-.349-6.4-.495-9.6-.591q-7.571-.224-15.148-.267c-2.314-.015-4.63.167-6.944.247-.956.033-1.209.541-1.11 1.42a14.452 14.452 0 0 1-.074 1.934" transform="translate(9.215 2.861)" style="fill:#fff"/>
            <path data-name="パス 875" d="M86.651 66.931c-.925-.53-1.758-.715-1.95-1.17-.762-1.8-2.234-1.034-3.035-.6-1.918 1.048-3.27.606-4.875-.642-3.323-2.584-6.824-1.863-10.285-.135a21.211 21.211 0 0 1-2.021.763l-.427-7.234c3.177.608 5.742-.674 8.245-2.107.856-.489 1.406-.045 2.027.4a8.632 8.632 0 0 0 9.619.671c.863-.442 1.51-1.056 1.3-2.056a2.658 2.658 0 0 0-2.664-1.872c-1 .168-2 .419-3.009.5a3.392 3.392 0 0 1-1.42-.389 33.894 33.894 0 0 0-4.97-2.01c-2.261-.515-4.3.552-6.015 1.929-1.781 1.431-3.342.491-3.544-1.744-.185-2.048-.1-4.122-.328-6.164-.458-4.066-1.014-8.124-1.6-12.174-.341-2.352-1.994-4.026-3.338-5.816-2.743-3.655-5.475-7.329-8.421-10.819C46.7 12.43 43.227 8.79 39.751 4.947c17.085-1.119 34.132-.451 51.512.517.22 25.262-1.259 50.387.326 75.725H64.517V69.96c2.321-.854 4.557-1.736 6.841-2.468a2.135 2.135 0 0 1 1.682.41c4.086 3.268 7.383 3.094 11.706.967.714-.351 1.188-1.187 1.905-1.938m-19.7-35.219h-.2c0 1.255-.029 2.512.008 3.767s.261 2.509.192 3.752c-.2 3.711 2.578 5.055 5.162 4.875a98.76 98.76 0 0 0 8.6-.965c2.694-.426 4.182-1.782 4.373-3.668.112-1.1.177-2.217.2-3.328.054-2.6.157-5.2.079-7.8a77.048 77.048 0 0 0-.619-9.45 5.265 5.265 0 0 0-5-4.788 45.693 45.693 0 0 0-3.808-.181c-2.167-.015-4.344-.368-6.476.472-1.809.713-2.595 1.6-2.6 3.516 0 1.957.068 3.912.08 5.869.014 2.642 0 5.284 0 7.926" transform="translate(12.771 .436)" style="fill:#fff"/>
            <path data-name="パス 876" d="M37.669 8.995c4.953 5.531 10.227 10.89 14.362 17.022h-13.7l-.658-17.022" transform="translate(12.563 .899)" style="fill:#00efb8"/>
            <path data-name="パス 877" d="M52.747 58.972c-1.77 5.968-9.2 8.871-13.664 4.679-4.407 5.071-9.772 6.209-14.771 2.891-4.066-2.7-4.183-7.14-2.456-11.93 1.693-4.691 6.06-7.027 12.345-4.765 2.828-9.224 10.293-10.7 15.287-5.937 1.61-1.156 3.036-2.6 4.762-3.324 2.939-1.235 5.717-.184 7.816 1.982 4.377 4.518 4.315 11.748-1.3 15.728a7.637 7.637 0 0 1-8.017.676m2.948-3.051a9.928 9.928 0 0 0 1.631-.711c3.148-2.128 3.7-6.118 1.361-9.551-.987-1.445-2.4-1.751-3.728-.649a15.341 15.341 0 0 0-2.672 2.768 2.524 2.524 0 0 1-2.451 1.242 3.365 3.365 0 0 1-2.768-1.581c-1.149-1.776-3.564-2.93-5.355-1.555a8.09 8.09 0 0 0-3.559 6.387 2.665 2.665 0 0 1-3.629 2.519 5.961 5.961 0 0 1-1.985-1.051c-2.9-2.386-6.973.181-7.052 2.96a18.2 18.2 0 0 0 .032 3.03 5.166 5.166 0 0 0 4 4.3 4.507 4.507 0 0 0 4.9-2.242c.428-.716.972-1.363 1.433-2.06a2.723 2.723 0 0 1 3.78-.992 8.181 8.181 0 0 1 1.507 1.3c.955.931 1.96 1.785 3.4 1.23a4.251 4.251 0 0 0 2.695-2.414c.426-1.127.876-2.245 1.337-3.358a2.707 2.707 0 0 1 4.027-1.383c.463.261.846.661 1.306.928.557.324 1.156.576 1.786.883"/>
            <path data-name="パス 878" d="M48.994 75.819c3.834.21 7.847.371 11.845.7a3.854 3.854 0 0 1 2.178 1.268 1.572 1.572 0 0 1-1.008 2.695 50.45 50.45 0 0 1-5.332.283c-4.373.032-8.748-.031-13.12.01-2.186.02-4.37.158-6.552.289-2.082.124-4.158.367-6.241.44a7.678 7.678 0 0 1-3.014-.373c-.755-.3-1.776-1.06-1.846-1.706a2.417 2.417 0 0 1 2.38-2.394c4.8-.289 9.6-.548 14.4-.823 2.043-.117 4.084-.247 6.312-.384"/>
            <path data-name="パス 879" d="M25.133 89.934a12.533 12.533 0 0 1 .514-1.728c.178-.373.459-.884.785-.967a20.277 20.277 0 0 1 4.154-.767c3.177-.11 6.36-.093 9.537-.021q8.817.2 17.628.553a3.339 3.339 0 0 1 3.294 2.03c.459 1.044.136 1.44-.664 1.695a8.955 8.955 0 0 1-2.706.529q-14.091-.076-28.184-.257a13.912 13.912 0 0 1-2.919-.337 5.576 5.576 0 0 1-1.44-.731"/>
            <path data-name="パス 880" d="M25.199 101.905a14.452 14.452 0 0 0 .074-1.934c-.1-.879.154-1.387 1.11-1.42 2.314-.08 4.63-.263 6.944-.247q7.575.048 15.148.267c3.206.1 6.418.242 9.6.591a4.446 4.446 0 0 1 2.448 1.567 1.28 1.28 0 0 1-.57 2.007 5.59 5.59 0 0 1-2.409.63c-4.066-.023-8.132-.137-12.2-.243-2.629-.068-5.255-.186-7.884-.262-3.477-.1-6.956-.144-10.429-.3a6.026 6.026 0 0 1-1.834-.656"/>
            <path data-name="パス 881" d="M79.722 32.147c0-2.642.011-5.284 0-7.925-.011-1.957-.082-3.913-.079-5.869 0-1.919.789-2.8 2.6-3.516 2.134-.841 4.309-.487 6.477-.472a46.08 46.08 0 0 1 3.807.18 5.267 5.267 0 0 1 5 4.788 76.852 76.852 0 0 1 .618 9.452c.079 2.595-.024 5.2-.078 7.8a41.58 41.58 0 0 1-.2 3.329c-.192 1.885-1.68 3.241-4.373 3.668a99.414 99.414 0 0 1-8.6.965c-2.584.179-5.366-1.165-5.162-4.876.069-1.243-.154-2.5-.191-3.752s-.019-2.516-.019-3.772h.2m5.038-3.068h-.135c0 2.013-.01 4.025 0 6.036.01 1.474.034 2.948.087 4.421a1 1 0 0 0 1.312 1.086c1.754-.288 3.51-.57 5.263-.862a1.287 1.287 0 0 0 1.235-1.563 29.133 29.133 0 0 1 .041-4.028 64.146 64.146 0 0 0-.363-14.572 1.407 1.407 0 0 0-.956-.942 65.12 65.12 0 0 0-5.727.054c-.264.013-.716.554-.72.857-.053 3.171-.033 6.343-.033 9.514"/>
            <path data-name="パス 882" d="M45.384 51.892c-.63-.307-1.23-.559-1.786-.883-.46-.267-.843-.668-1.306-.928a2.707 2.707 0 0 0-4.027 1.383 110.099 110.099 0 0 0-1.337 3.358 4.251 4.251 0 0 1-2.695 2.414c-1.442.555-2.447-.3-3.4-1.23a8.182 8.182 0 0 0-1.507-1.3 2.723 2.723 0 0 0-3.78.992c-.461.7-1.005 1.344-1.433 2.06a4.507 4.507 0 0 1-4.9 2.242 5.166 5.166 0 0 1-4-4.3 18.2 18.2 0 0 1-.032-3.03c.078-2.778 4.154-5.346 7.052-2.96a5.961 5.961 0 0 0 1.984 1.047 2.665 2.665 0 0 0 3.629-2.519 8.09 8.09 0 0 1 3.554-6.386c1.792-1.375 4.206-.221 5.355 1.555a3.365 3.365 0 0 0 2.764 1.584 2.524 2.524 0 0 0 2.451-1.242 15.341 15.341 0 0 1 2.674-2.767c1.33-1.1 2.741-.8 3.728.649 2.342 3.433 1.787 7.422-1.361 9.551a9.927 9.927 0 0 1-1.631.711" transform="translate(10.311 4.028)" style="fill:#ff438e"/>
            <path data-name="パス 883" d="M69.078 27.389c0-3.171-.02-6.343.033-9.514 0-.3.456-.844.72-.857a65.51 65.51 0 0 1 5.727-.054 1.407 1.407 0 0 1 .956.942 64.147 64.147 0 0 1 .357 14.575 29.132 29.132 0 0 0-.041 4.028 1.287 1.287 0 0 1-1.223 1.561c-1.753.293-3.509.574-5.263.862a1 1 0 0 1-1.312-1.086 151.54 151.54 0 0 1-.087-4.421c-.013-2.012 0-4.023 0-6.036h.135" transform="translate(15.687 1.691)" style="fill:#9a86ff"/>
        </g>
    </g>
</svg>
