<svg xmlns="http://www.w3.org/2000/svg" width="120" height="120" viewBox="0 0 120 120">
    <defs>
        <clipPath id="q0mcbqc5wa">
            <path data-name="長方形 1156" transform="translate(0 -11)" style="fill:none" d="M0 0h120v120H0z"/>
        </clipPath>
    </defs>
    <g data-name="グループ 667">
        <g data-name="グループ 661" transform="translate(0 11)" style="clip-path:url(#q0mcbqc5wa)">
            <path data-name="パス 884" d="M56.268 0h7.354a7.361 7.361 0 0 0 1.006.22A33.505 33.505 0 0 1 69 .568c4 .873 7.994 1.794 11.936 2.891a75.785 75.785 0 0 1 17.813 8.022c4.453 2.6 7.808 6.381 11.058 10.283a42.318 42.318 0 0 1 9.46 19.315c.285 1.489.494 2.993.738 4.49v1.715c-2.411 2.777-4.8 5.573-7.238 8.328-3.979 4.5-7.992 8.969-11.983 13.458-3.157 3.552-6.387 7.045-9.434 10.691-3.144 3.76-6.063 7.708-9.172 11.5-1.015 1.238-2.093 2.557-3.987 2.583a45.207 45.207 0 0 0-4.65.262c-3.683.436-7.348 1.028-11.035 1.424a49.423 49.423 0 0 1-13.444-.522c-5.257-.878-10.487-1.962-15.681-3.164-5.854-1.356-11.5-3.245-16.24-7.212a57.207 57.207 0 0 1-9.551-9.873A40.2 40.2 0 0 1 .157 54.062a52.566 52.566 0 0 1 1.01-14.605A43.586 43.586 0 0 1 6.664 25.7a39.894 39.894 0 0 1 8.2-9.877A57.274 57.274 0 0 1 28.93 7.112c2.706-1.246 5.57-2.145 8.37-3.174A51.411 51.411 0 0 1 49.661.959C51.872.725 54.067.324 56.268 0m47.262 43.658a7.347 7.347 0 0 0-.008-1.13 25.768 25.768 0 0 0-3.856-9.946c-2.342-3.728-4.818-7.332-8.52-9.878-3.78-2.6-8.052-4.132-12.358-5.542a65.889 65.889 0 0 0-14.178-2.733 53.14 53.14 0 0 0-14.793.69c-4.254.778-8.084 2.758-11.955 4.475a40.636 40.636 0 0 0-15.411 11.657 24.251 24.251 0 0 0-4.678 8.535 33.479 33.479 0 0 0-1.014 12.245 41.81 41.81 0 0 0 2.787 12.86 16.848 16.848 0 0 0 2.854 4.455 31.436 31.436 0 0 0 10.749 7.58 51.326 51.326 0 0 0 25.515 4.682c4.095-.295 8.2-.375 12.31-.5 2.009-.062 1.98-.139 1.974-2.174a40.081 40.081 0 0 1 .46-7.365 34.538 34.538 0 0 1 6.019-13.988 1.7 1.7 0 0 0 .089-1.269c-.427-1.544-1.03-3.046-1.377-4.605A21.617 21.617 0 0 1 78 48.655a14.613 14.613 0 0 1 2.375-9.835 7.515 7.515 0 0 1 7.005-3.433c4.31.381 7.078 2.944 8.56 6.914a26.347 26.347 0 0 1 .775 3.283l6.812-1.926m11.449-.462c-.427-1.986-.759-4-1.3-5.959A36.383 36.383 0 0 0 106.7 24.4a39.738 39.738 0 0 0-12.9-11.041C84.947 8.79 75.648 5.615 65.673 4.98a80.714 80.714 0 0 0-13.51.469 63.77 63.77 0 0 0-15.72 3.639 62.347 62.347 0 0 0-19.918 11.918A29.8 29.8 0 0 0 8.951 32.2a47.659 47.659 0 0 0-3.446 23.175 40.4 40.4 0 0 0 4.142 13.88 31.837 31.837 0 0 0 6.125 7.945c2.683 2.759 5.259 5.723 8.932 7.227a77.2 77.2 0 0 0 9.032 3.236 119.11 119.11 0 0 0 12.372 2.681 71.683 71.683 0 0 0 12.177 1.146c4.629-.068 9.249-.85 13.869-1.352.85-.092 1.686-.323 2.575-.5-.422-1.748-.8-3.316-1.2-4.989a54.014 54.014 0 0 1-7.629 1.036c-6.22-.008-12.476.627-18.658-.45a106.027 106.027 0 0 1-10.583-2.321 44.863 44.863 0 0 1-12.934-6.345 24.677 24.677 0 0 1-7.193-6.853c-3.654-5.683-4.711-12.119-5.081-18.7a56.243 56.243 0 0 1 .2-6.332 24.706 24.706 0 0 1 3-10.474A40.607 40.607 0 0 1 26.5 20.729a61.89 61.89 0 0 1 15.773-8.151c3.925-1.416 8.041-1.719 12.108-2.245a46.461 46.461 0 0 1 13.113.237 87.584 87.584 0 0 1 16.252 3.869c7.48 2.68 14.046 6.549 18.545 13.32 1.9 2.863 3.964 5.662 4.881 9.038.555 2.041.886 4.142 1.357 6.4zM79.42 86.716c10.61-13.658 22.385-26.116 33.8-39.338-2.277.2-4.279.2-6.21.574-2.792.539-5.55 1.28-8.291 2.049a26.9 26.9 0 0 0-11.142 5.842 28.62 28.62 0 0 0-9.45 18.946 32.832 32.832 0 0 0 1.293 11.927m12.238-39.571c-.021-.363-.042-.962-.094-1.558a8.263 8.263 0 0 0-1.841-5.008c-.78-.878-1.8-1.541-2.859-1.048a6.228 6.228 0 0 0-2.837 2.28c-1.955 3.6-1.815 7.466-1.064 11.13l8.7-5.8"/>
            <path data-name="パス 885" d="m103.15 43.333-6.812 1.927a26.347 26.347 0 0 0-.775-3.283c-1.482-3.97-4.25-6.534-8.56-6.914A7.515 7.515 0 0 0 80 38.495a14.613 14.613 0 0 0-2.375 9.835 21.617 21.617 0 0 0 .134 3.049c.347 1.56.95 3.061 1.377 4.605a1.7 1.7 0 0 1-.089 1.269 34.538 34.538 0 0 0-6.019 13.988 40.081 40.081 0 0 0-.46 7.365c.006 2.036.035 2.111-1.974 2.174-4.1.129-8.215.209-12.31.5a51.326 51.326 0 0 1-25.517-4.68 31.436 31.436 0 0 1-10.749-7.58 16.848 16.848 0 0 1-2.852-4.454 41.81 41.81 0 0 1-2.787-12.86 33.457 33.457 0 0 1 1.014-12.245 24.251 24.251 0 0 1 4.678-8.535 40.623 40.623 0 0 1 15.412-11.655c3.871-1.718 7.7-3.7 11.955-4.476A53.14 53.14 0 0 1 64.23 14.1a65.9 65.9 0 0 1 14.178 2.734c4.306 1.41 8.578 2.943 12.358 5.542 3.7 2.546 6.178 6.15 8.52 9.878a25.768 25.768 0 0 1 3.856 9.946 7.347 7.347 0 0 1 .008 1.13m-45.773 6.797A15.627 15.627 0 0 0 55.15 41.8a10.955 10.955 0 0 0-5.23-4.872c-4.37-1.81-9.189 1.049-10.976 4.888a22.794 22.794 0 0 0-1.421 3.984 17.4 17.4 0 0 0 .416 8.985 9.185 9.185 0 0 0 6.627 6.775 8.846 8.846 0 0 0 9.034-2.408 12.057 12.057 0 0 0 3.776-9.025m14.974 2.214c-.4 1.027-.673 1.915-1.073 2.744-.762 1.583-2.636 2.742-3.873 2.362a4.1 4.1 0 0 1-3.11-2.96 19.363 19.363 0 0 1 1-12.586c.809-1.826 3-3.662 4.916-3.252a25.077 25.077 0 0 0 2.617.829 2.742 2.742 0 0 0 1.852-.7 1.577 1.577 0 0 0-.043-1.491 6.921 6.921 0 0 0-5.836-2.82c-3.581-.127-6.006 1.779-7.635 4.7a23.77 23.77 0 0 0-2.637 12.592c.125 4.355 2 7.922 6.657 9.263 3.65 1.05 6.89.468 9.491-2.369 1.476-1.61 1.97-3.662 2.42-5.817a3.556 3.556 0 0 0-2.25-4.136 18.1 18.1 0 0 0-7.92-.581 1.524 1.524 0 0 0-.982.962c-.551 2.192-.412 2.394 1.954 2.864a22.374 22.374 0 0 0 2.55.169c.594.047 1.183.141 1.9.231M29.465 57.6c0-5.415.018-10.568-.012-15.722a16.245 16.245 0 0 0-.332-4.044c-.227-.847-1.085-1.527-1.619-2.228a5.443 5.443 0 0 0-1.011.18c-.345.13-.8.283-.948.563a6.2 6.2 0 0 0-.737 2.054 75.565 75.565 0 0 0-.753 7.591c-.079 3.313.078 6.635.222 9.949.06 1.4.39 2.785.522 4.183.129 1.365.425 1.717 1.785 1.777.651.029 1.3.036 1.957.034 2.422-.005 4.849.064 7.262-.08a3.594 3.594 0 0 0 2.049-1.118c.207-.206-.178-1.039-.339-1.572a2.915 2.915 0 0 0-3.064-1.91c-1.607.172-3.225.227-4.982.343" transform="translate(.38 .325)" style="fill:#ff438e"/>
            <path data-name="パス 886" d="M114.859 43.086H108.4c-.47-2.259-.8-4.36-1.357-6.4-.917-3.376-2.978-6.174-4.881-9.037-4.5-6.771-11.064-10.641-18.545-13.32a87.668 87.668 0 0 0-16.252-3.87 46.536 46.536 0 0 0-13.113-.237c-4.067.527-8.183.83-12.108 2.246a61.842 61.842 0 0 0-15.773 8.151A40.607 40.607 0 0 0 14.526 34.1a24.7 24.7 0 0 0-3 10.474 56.47 56.47 0 0 0-.2 6.332c.37 6.58 1.428 13.016 5.082 18.7a24.674 24.674 0 0 0 7.192 6.852A44.889 44.889 0 0 0 36.537 82.8a106.084 106.084 0 0 0 10.583 2.32c6.183 1.079 12.439.442 18.659.451a54.205 54.205 0 0 0 7.629-1.037c.4 1.673.781 3.241 1.2 4.989-.889.177-1.724.408-2.575.5-4.621.5-9.241 1.283-13.869 1.351a71.693 71.693 0 0 1-12.177-1.146 118.619 118.619 0 0 1-12.371-2.681 77.02 77.02 0 0 1-9.033-3.235c-3.672-1.5-6.249-4.468-8.931-7.227a31.817 31.817 0 0 1-6.126-7.945 40.408 40.408 0 0 1-4.141-13.88A47.671 47.671 0 0 1 8.83 32.088a29.839 29.839 0 0 1 7.57-11.194A62.359 62.359 0 0 1 36.324 8.977a63.852 63.852 0 0 1 15.72-3.639 80.924 80.924 0 0 1 13.509-.469c9.974.636 19.273 3.81 28.129 8.379a39.75 39.75 0 0 1 12.9 11.047 36.362 36.362 0 0 1 6.979 12.832c.54 1.958.873 3.973 1.3 5.96" transform="translate(.12 .111)" style="fill:#fff"/>
            <path data-name="パス 887" d="M77.634 85.632A32.832 32.832 0 0 1 76.346 73.7 28.622 28.622 0 0 1 85.8 54.759a26.888 26.888 0 0 1 11.142-5.841c2.741-.77 5.5-1.511 8.291-2.049 1.931-.373 3.933-.379 6.21-.575-11.419 13.222-23.195 25.68-33.8 39.338" transform="translate(1.786 1.084)" style="fill:#fff"/>
            <path data-name="パス 888" d="m89.771 46.244-8.7 5.8c-.75-3.664-.89-7.531 1.064-11.13a6.228 6.228 0 0 1 2.837-2.28c1.064-.493 2.08.17 2.859 1.048a8.263 8.263 0 0 1 1.841 5.008c.052.6.073 1.194.094 1.558" transform="translate(1.887 .901)" style="fill:#ff438e"/>
            <path data-name="パス 889" d="M57.758 50.452a12.055 12.055 0 0 1-3.776 9.025 8.845 8.845 0 0 1-9.036 2.406 9.186 9.186 0 0 1-6.628-6.775 17.412 17.412 0 0 1-.414-8.985 22.794 22.794 0 0 1 1.42-3.983c1.786-3.838 6.606-6.7 10.976-4.888a10.946 10.946 0 0 1 5.229 4.873 15.615 15.615 0 0 1 2.229 8.327m-15.7-2.3c.244 2.469.348 5.209 1.959 7.646 2.218 3.352 5.6 3.272 7.528-.254.058-.107.1-.223.158-.332a9.943 9.943 0 0 0 .765-5.54 15.5 15.5 0 0 0-2.125-7.115c-1.446-2.384-3.32-2.563-5.406-.75a8.767 8.767 0 0 0-2.879 6.341"/>
            <path data-name="パス 890" d="M72.731 52.665c-.72-.09-1.31-.184-1.9-.232a22.157 22.157 0 0 1-2.55-.168c-2.366-.471-2.5-.671-1.954-2.864a1.524 1.524 0 0 1 .982-.962 18.1 18.1 0 0 1 7.92.581 3.556 3.556 0 0 1 2.246 4.142c-.45 2.155-.945 4.207-2.42 5.817-2.6 2.837-5.842 3.419-9.491 2.369-4.66-1.342-6.533-4.909-6.657-9.263a23.77 23.77 0 0 1 2.634-12.589c1.628-2.924 4.054-4.83 7.635-4.7a6.923 6.923 0 0 1 5.844 2.822 1.579 1.579 0 0 1 .043 1.492 2.742 2.742 0 0 1-1.852.7 25.324 25.324 0 0 1-2.617-.829c-1.914-.409-4.107 1.426-4.916 3.251a19.36 19.36 0 0 0-1 12.587 4.1 4.1 0 0 0 3.109 2.96c1.236.38 3.11-.779 3.873-2.362.4-.829.676-1.717 1.073-2.744"/>
            <path data-name="パス 891" d="M29.845 57.922c1.757-.116 3.375-.171 4.982-.343a2.915 2.915 0 0 1 3.064 1.91c.161.533.545 1.366.339 1.572a3.594 3.594 0 0 1-2.049 1.118c-2.413.144-4.84.075-7.262.08a44.02 44.02 0 0 1-1.957-.034c-1.36-.059-1.656-.411-1.785-1.777-.132-1.4-.462-2.784-.522-4.183-.144-3.314-.3-6.636-.222-9.949a75.565 75.565 0 0 1 .753-7.591 6.2 6.2 0 0 1 .737-2.054c.148-.279.6-.433.948-.563a5.443 5.443 0 0 1 1.011-.18c.534.7 1.392 1.381 1.619 2.228a16.245 16.245 0 0 1 .332 4.044c.031 5.154.012 10.307.012 15.722"/>
            <path data-name="パス 892" d="M41.093 47.219a8.767 8.767 0 0 1 2.879-6.344c2.086-1.812 3.96-1.633 5.406.75A15.5 15.5 0 0 1 51.5 48.74a9.943 9.943 0 0 1-.765 5.54c-.056.108-.1.224-.158.332-1.924 3.526-5.311 3.606-7.528.254-1.611-2.437-1.715-5.178-1.959-7.646" transform="translate(.963 .929)" style="fill:#ff438e"/>
        </g>
    </g>
</svg>
