<svg xmlns="http://www.w3.org/2000/svg" width="120" height="120" viewBox="0 0 120 120">
    <defs>
        <clipPath id="eld5us25ea">
            <path data-name="長方形 1191" style="fill:none" d="M0 0h120v120H0z"/>
        </clipPath>
    </defs>
    <g data-name="グループ 62687" style="clip-path:url(#eld5us25ea)">
        <path data-name="パス 1168" d="M82.208 45.447c0 .876.028 1.714-.02 2.547-.135 2.361-.356 4.717-.444 7.08-.135 3.619-.186 7.241-.274 10.863-.083 3.4-.159 6.807-.258 10.211-.053 1.87-.171 3.739-.208 5.609-.012.619-.244.807-.834.846-2.377.161-4.752.37-7.128.554-2.537.2-5.072.443-7.614.554-2.02.089-4.049-.009-6.074.008-1.074.008-2.149.073-3.223.126-1 .05-2 .122-3 .177-3.559.2-7.118.391-10.82.594-.023-.4-.077-.788-.062-1.171.139-3.6.452-7.2.4-10.8-.063-4.064-.3-8.142-.766-12.179a10.75 10.75 0 0 0-10.237-10.224 11.192 11.192 0 0 0-6.416 1.271 7.644 7.644 0 0 0-3.477 4.022 73.733 73.733 0 0 0-2.538 7.095 28.414 28.414 0 0 0-.459 4.786c-.124 1.3-.394 2.6-.406 3.909-.024 2.6.05 5.2.152 7.791.085 2.174.268 4.343.418 6.667-1.479-.008-3.01 0-4.54-.027-1.238-.024-1.451-.321-1.588-1.542-.141-1.263-.462-2.5-.62-3.767-.164-1.3-.239-2.613-.335-3.923-.193-2.649-.4-5.3-.549-7.95-.165-3.032-.257-6.069-.394-9.1-.167-3.7-.364-7.406-.51-11.11-.052-1.305 0-2.616.011-4.027a14.045 14.045 0 0 0 12.478-6.15c2.182 5.206 6.719 6.689 11.778 6.877 5.314.2 9.041-2.741 11.809-6.591.9.768 1.892 1.65 2.915 2.5 3.7 3.065 9.939 4.749 14.8 1.943a12.032 12.032 0 0 0 4.282-4.728c3.419 4.606 7.641 7.608 13.754 7.267M48.5 57.807a47.17 47.17 0 0 0 1.27 10.33 4.7 4.7 0 0 0 3.542 3.347 22.657 22.657 0 0 0 2.8.216c3.674-.023 7.346-.094 11.019-.139a17.714 17.714 0 0 0 2.392-.009 15.376 15.376 0 0 0 3.276-.791 2.755 2.755 0 0 0 1.769-2.384 30.67 30.67 0 0 0 .194-3.189c-.011-1.855-.029-3.714-.177-5.56a56.147 56.147 0 0 0-.816-6.886c-.433-2.087-1.529-3.957-3.766-4.561a12.145 12.145 0 0 0-3.644-.141c-1.882.085-3.771.187-5.633.456-2.324.336-4.625.83-6.929 1.291-2.211.441-4.186 1.3-4.768 3.736a37.023 37.023 0 0 0-.531 4.284" transform="translate(13.996 15.72)" style="fill:#fff"/>
        <path data-name="パス 1169" d="M37.96 83.509c-4.038.155-7.9.3-11.77.456-1.309.053-2.623.1-3.924.247-.591.067-.809-.071-.849-.635-.183-2.549-.467-5.093-.544-7.644a83.3 83.3 0 0 1 .059-8.678c.281-3.769.756-7.559 2.478-11a7.442 7.442 0 0 1 8.316-3.949 4.931 4.931 0 0 1 3.987 3.546 32.993 32.993 0 0 1 1.187 6.282c.284 3.889.3 7.8.442 11.7q.155 4.162.367 8.323a10.186 10.186 0 0 0 .251 1.355m-14.846-14.09c-.01 1.256.907 2.077 2.366 2.12a3.067 3.067 0 0 0 2.9-2.777 3.075 3.075 0 0 0-2.632-2.49c-1.787-.073-2.316.69-2.636 3.147" transform="translate(14.919 16.954)" style="fill:#ff654a"/>
        <path data-name="パス 1170" d="m42.446 31.6-19.4.476L30.024 4.79l11.47 1.635a3 3 0 0 1 .295.058c1.566.373 1.546.371 1.315 1.992a11.578 11.578 0 0 0-.012 1.591c-.009 3.258.057 6.515-.046 9.768-.122 3.871-.387 7.736-.6 11.769" transform="translate(15.119 12.767)" style="fill:#fff"/>
        <path data-name="パス 1171" d="M4.553 32.491c1.125-2.093 2.22-4 3.2-5.975 2.439-4.909 4.761-9.877 7.26-14.754A72.721 72.721 0 0 1 19 5.175a3.576 3.576 0 0 1 3.814-1.616c1.97.309 3.957.508 6.118.778-.378 1.053-.748 1.9-.985 2.777Q26.151 13.8 24.412 20.5c-.313 1.2-.581 2.405-.861 3.611-.545 2.339-1.118 4.674-1.6 7.026-.139.675-.392.879-1.056.862-1.858-.047-3.72-.1-5.575-.026-2.917.12-5.829.352-8.742.519-.605.035-1.214 0-2.021 0" transform="translate(13.483 12.652)" style="fill:#00efb8"/>
        <path data-name="パス 1172" d="m62.444 31.7-18.079-.09.123-24.577c1.034.15 2.177.309 3.318.483 1.709.261 3.413.55 5.124.8 1.187.171 2.386.266 3.569.456a.866.866 0 0 1 .533.567c.932 4.01 1.809 8.033 2.755 12.039.431 1.823 1.01 3.611 1.481 5.427.413 1.588.768 3.191 1.176 4.9" transform="translate(17.004 12.965)" style="fill:#00efb8"/>
        <path data-name="パス 1173" d="M82.164 32.073c-1.341-.1-2.5-.23-3.664-.267-3.436-.107-6.872-.182-10.309-.259-.98-.023-1.96-.042-2.939-.007-.546.021-.761-.2-.884-.705q-2.637-10.818-5.306-21.65c1.259.217 2.694.447 4.123.711 2.03.373 4.058.758 6.079 1.177a1.256 1.256 0 0 1 .727.528q4.772 7.9 9.505 15.816c.884 1.481 1.715 2.992 2.667 4.656" transform="translate(18.304 13.155)" style="fill:#fff"/>
        <path data-name="パス 1174" d="M42.838 32.518c.764 5.326-5.019 10-8.484 10.069-5.5.111-9.782-2.068-10.661-9.616l19.146-.453" transform="translate(15.176 15.219)" style="fill:#fff"/>
        <path data-name="パス 1175" d="M65.311 32.883c1.709.009 3.283.013 4.858.025 2.387.019 4.774.021 7.161.071 1.855.038 3.711.116 5.561.247.208.014.526.467.554.74a7.225 7.225 0 0 1-2.929 6.772 10.112 10.112 0 0 1-3.259 1.894c-2.6.731-4.878-.282-6.933-1.85a11.513 11.513 0 0 1-4.537-6.926 5.162 5.162 0 0 0-.476-.973" transform="translate(18.857 15.252)" style="fill:#fff"/>
        <path data-name="パス 1176" d="M3.817 33.23c1.571-.085 2.938-.18 4.307-.227 3.663-.128 7.325-.276 10.989-.342 2.686-.048 2.7.078 2.047 2.63-.853 3.355-3.323 4.949-6.3 6.067-2.575.968-5.071.386-7.554-.379-1.979-.611-2.81-2.193-3.178-4.036a32.348 32.348 0 0 1-.315-3.713" transform="translate(13.417 15.231)" style="fill:#00efb8"/>
        <path data-name="パス 1177" d="m45.234 32.785 15.6.077c.54 0 1.083.034 1.62 0a.692.692 0 0 1 .783.956c-.825 2.9-2.064 5.551-4.86 7.1s-5.454.9-7.969-.665a10.96 10.96 0 0 1-5.174-7.464" transform="translate(17.081 15.243)" style="fill:#00efb8"/>
        <path data-name="パス 1178" d="M66.853 61.616c.086 1.441.16 2.884.265 4.324.06.838-.524 1.02-1.132 1.12a11.038 11.038 0 0 1-1.316.013c-3.584.153-7.169.322-10.753.468-.8.033-1.609.016-2.411-.023a1.207 1.207 0 0 1-1.239-1.1c-.325-2.022-.679-4.041-.95-6.071-.2-1.534-.224-3.093-.458-4.622-.451-2.944-.072-3.274 2.69-4.064a53.684 53.684 0 0 1 7.691-1.241c1.525-.2 3.068-.287 4.605-.373 1.367-.077 1.73.132 2.125 1.27.934 2.687.849 5.488.974 8.267.03.675 0 1.352-.005 2.029h-.085" transform="translate(17.387 16.769)" style="fill:#fff"/>
        <path data-name="パス 1179" d="M106.911 50.592a12.292 12.292 0 0 0-.179-.833 4.6 4.6 0 0 1-.2-1.552 5.019 5.019 0 0 0-1.041-3.385c-.127-.208-.255-.413-.372-.624a324.912 324.912 0 0 0-5.067-8.685c-.906-1.5-1.838-2.981-2.772-4.464a325.392 325.392 0 0 1-2.417-3.881c-.442-.724-.849-1.469-1.256-2.213a62.276 62.276 0 0 0-1.109-1.972 4.334 4.334 0 0 0-2.93-2.188c-1.317-.26-2.632-.53-3.946-.8-2.746-.564-5.586-1.147-8.4-1.625-2.142-.362-4.335-.639-6.452-.907-1.518-.193-3.038-.384-4.552-.608s-3.028-.49-4.539-.754c-1.275-.223-2.549-.446-3.826-.647-1.147-.18-2.3-.328-3.451-.476a147.847 147.847 0 0 1-3.1-.422c-1.116-.169-2.228-.358-3.34-.547-1.686-.286-3.429-.582-5.158-.8-.724-.095-1.455-.209-2.183-.322a26.147 26.147 0 0 0-7.222-.434 4.511 4.511 0 0 0-3.209 1.924 91.824 91.824 0 0 0-9.443 16.671c-.747 1.681-1.6 3.356-2.421 4.977-.559 1.1-1.118 2.2-1.652 3.314l-.346.722a55.171 55.171 0 0 0-2.317 5.275 13.233 13.233 0 0 0-.838 6.272 8.789 8.789 0 0 0 2.969 6.01 15.175 15.175 0 0 0 3.487 1.988c.52.222.538.279.525.65-.086 2.359-.137 4.8-.157 7.471a12.016 12.016 0 0 0 .1 1.416c.038.356.077.712.088 1.067s-.008.7-.025 1.047a12.376 12.376 0 0 0-.019 1.317c.138 2.921.282 5.943.489 8.913.213 3.056.447 5.731.717 8.175.226 2.065.49 4.126.754 6.188.169 1.318.337 2.638.5 3.96.041.333.053.672.065 1.01a8.323 8.323 0 0 0 .195 1.765 3.36 3.36 0 0 0 1.291 1.882 8.714 8.714 0 0 0 1.876.832c.255.089.51.179.76.279l8.8.081.082-.024c.079-.026.16-.057.239-.087a1.034 1.034 0 0 1 .251-.081q5.161-.18 10.321-.334l4.491-.137q3.809-.113 7.619-.243c2.626-.094 5.448-.2 8.283-.368a879.72 879.72 0 0 0 10.008-.656l3.008-.208c2.969-.2 5.939-.408 8.9-.653 2.663-.22 5.354-.518 7.727-.782 1.29-.144 2.583-2.141 2.607-3.527.011-.622-.013-1.244-.037-1.866-.025-.679-.052-1.382-.029-2.06.044-1.256.121-2.511.2-3.766.06-.987.121-1.973.164-2.961.089-1.989.168-3.978.246-5.968.149-3.771.3-7.673.53-11.5a71.141 71.141 0 0 0 .06-9.825c0-.063.054-.216.037-.222a11.235 11.235 0 0 0 6.472-8.91l.15-.248v-.593zM56.418 76.123a11.777 11.777 0 0 0-2.538-6.571 11.477 11.477 0 0 0-8.209-4.133 11.737 11.737 0 0 0-6.716 1.339 8.238 8.238 0 0 0-3.718 4.3l-.42 1.085a61.151 61.151 0 0 0-2.131 6.064 14.763 14.763 0 0 0-.385 3.3c-.022.527-.042 1.054-.091 1.574-.045.466-.108.931-.171 1.394a20.413 20.413 0 0 0-.237 2.56c-.026 2.833.069 5.666.153 7.818.059 1.506.164 3.012.273 4.568.036.505.072 1.014.107 1.531h-.767c-1.048 0-2.115 0-3.182-.023-.914-.017-.944-.047-1.057-1.059a25.57 25.57 0 0 0-.328-2.018c-.11-.583-.22-1.168-.294-1.757-.132-1.046-.208-2.124-.281-3.167l-.182-2.495c-.153-2.057-.306-4.113-.418-6.173-.1-1.878-.176-3.756-.25-5.636-.046-1.154-.09-2.308-.143-3.461l-.2-4.27c-.109-2.279-.219-4.558-.31-6.835a43.662 43.662 0 0 1 0-2.684c0-.251.008-.506.011-.763a14.423 14.423 0 0 0 11.814-5.668c2.722 5.4 8.039 6.236 11.878 6.379 4.657.172 8.569-1.9 11.919-6.338l.386.334c.666.578 1.371 1.19 2.092 1.785 3.854 3.19 10.388 4.9 15.418 2a11.84 11.84 0 0 0 4.064-4.231c3.767 4.789 7.975 6.971 13.157 6.861v.258c.005.573.011 1.133-.022 1.693-.053.926-.12 1.854-.186 2.78-.1 1.41-.206 2.868-.259 4.309a459.834 459.834 0 0 0-.2 7.519l-.13 5.664q-.095 3.948-.2 7.9c-.023.826-.059 1.651-.1 2.476a131.362 131.362 0 0 0-.112 3.138.877.877 0 0 1-.033.258.708.708 0 0 1-.293.055c-1.543.1-3.086.229-4.627.354l-2.508.2q-1.055.082-2.109.17c-1.8.149-3.658.3-5.486.384-1.241.052-2.514.036-3.745.021-.77-.011-1.538-.02-2.308-.015-.891.007-1.782.052-2.672.1l-.575.03c-.57.027-1.139.063-1.708.1l-11.582.642a5.128 5.128 0 0 1-.021-.577c.045-1.147.107-2.293.169-3.441.131-2.42.266-4.923.227-7.39-.067-4.287-.327-8.4-.77-12.232M36.393 84.25c.251-3.385.666-7.29 2.422-10.8a6.833 6.833 0 0 1 6.165-3.826 7.314 7.314 0 0 1 1.552.168 4.433 4.433 0 0 1 3.579 3.159 32.212 32.212 0 0 1 1.169 6.176c.189 2.6.259 5.267.327 7.842.034 1.278.067 2.557.115 3.835q.155 4.167.366 8.329a4.837 4.837 0 0 0 .123.81l-3.074.119c-2.72.1-5.383.2-8.046.313l-.328.013c-1.192.048-2.425.1-3.637.236-.126.015-.2.014-.223.024a.927.927 0 0 1-.022-.157c-.06-.838-.132-1.678-.2-2.517-.141-1.674-.288-3.406-.34-5.1a82.6 82.6 0 0 1 .058-8.621m21.255-61.91c.005.164.012.327.012.49 0 1 0 2 .005 3 .009 2.216.019 4.506-.051 6.753-.085 2.68-.236 5.313-.4 8.1q-.09 1.562-.176 3.153l-18.175.445 6.683-26.118 10.98 1.562c.085.013.17.032.249.05a4.933 4.933 0 0 1 1 .29 4.485 4.485 0 0 1-.095 1.1 6.5 6.5 0 0 0-.032 1.175m-8.137 34.918c-5.953.169-9.163-2.6-10.032-8.542l18.039-.427a7.879 7.879 0 0 1-2.076 5.54c-1.684 1.982-4.123 3.393-5.931 3.429m-7.974-39.484a19.471 19.471 0 0 0-.636 1.847q-1.8 6.689-3.54 13.393c-.244.933-.46 1.874-.677 2.815l-.591 2.528c-.41 1.74-.835 3.54-1.2 5.323-.09.439-.128.438-.508.428l-.294-.007c-1.74-.045-3.542-.091-5.318-.02-1.878.077-3.754.2-5.629.323-1.041.069-2.081.137-3.122.2-.346.02-.694.014-1.084.008q.315-.578.626-1.143c.761-1.389 1.48-2.7 2.155-4.059.97-1.953 1.921-3.914 2.872-5.875 1.417-2.919 2.881-5.939 4.384-8.872a72.693 72.693 0 0 1 3.963-6.537 3.056 3.056 0 0 1 3.273-1.377c1.382.217 2.757.378 4.213.55.408.048.822.1 1.241.147l-.126.331M23.47 48.709c2.974-.108 6.047-.219 9.07-.273a5.771 5.771 0 0 1 1.828.12 5.889 5.889 0 0 1-.317 1.832c-.856 3.362-3.494 4.763-5.961 5.69s-4.913.317-7.2-.389c-1.517-.466-2.41-1.617-2.81-3.621a16.709 16.709 0 0 1-.232-2.414l-.036-.681.922-.052c.983-.057 1.9-.11 2.825-.143zm51.251-20.966a673.02 673.02 0 0 0 1.541 6.719c.253 1.069.558 2.136.854 3.168.216.755.432 1.51.629 2.269.283 1.087.538 2.181.8 3.312l.212.9-16.842-.078.118-23.409.456.066c.725.1 1.482.211 2.238.328.667.1 1.332.208 2 .315 1.043.165 2.085.331 3.131.482.532.076 1.067.138 1.6.2.655.075 1.309.149 1.9.237a.489.489 0 0 1 .146.17c.413 1.773.813 3.547 1.215 5.323m3.192 20.9.475.008c.4.008.793.016 1.185-.013.156-.016.213.022.222.03a.333.333 0 0 1 0 .234c-.706 2.481-1.8 5.225-4.6 6.771-2.3 1.272-4.659 1.068-7.418-.651a10.345 10.345 0 0 1-4.771-6.453zm21.347-4.062c-.849-.072-1.642-.14-2.437-.164-3.045-.095-6.09-.164-9.135-.234l-1.179-.027c-.557-.011-1.16-.025-1.774-.025-.4 0-.8.007-1.2.02-.246.013-.263.01-.335-.29q-2.093-8.586-4.208-17.177l-.9-3.669.369.061c.938.158 1.935.325 2.93.509 2.026.373 4.049.755 6.067 1.176a.7.7 0 0 1 .37.275q4.774 7.894 9.5 15.814c.6 1 1.17 2.013 1.772 3.077l.382.675-.23-.021m-9.741 11.018a10.928 10.928 0 0 1-4.334-6.6 1.625 1.625 0 0 0-.1-.313h.6c1.144 0 2.243.01 3.343.019l1.792.012c1.787.011 3.574.021 5.362.059 1.923.04 3.7.119 5.431.237a.77.77 0 0 1 .155.261 6.683 6.683 0 0 1-2.722 6.287 9.678 9.678 0 0 1-3.072 1.8c-2.067.584-4.12.026-6.457-1.758"/>
        <path data-name="パス 1180" d="M63.239 83.99a5.218 5.218 0 0 0 4 3.755 23.827 23.827 0 0 0 2.8.22h.069c2.415-.015 4.831-.05 7.246-.086l3.777-.053c.27 0 .543.01.816.021a8.492 8.492 0 0 0 1.651-.036 15.882 15.882 0 0 0 3.393-.823 3.285 3.285 0 0 0 2.112-2.835 30.716 30.716 0 0 0 .2-3.248c-.011-1.984-.033-3.776-.18-5.6l-.041-.517a52.115 52.115 0 0 0-.784-6.435c-.555-2.67-1.992-4.39-4.157-4.975a10.819 10.819 0 0 0-3.379-.181l-.433.021c-1.837.084-3.789.186-5.686.46-1.918.279-3.845.668-5.708 1.044l-1.25.253c-2.055.41-4.5 1.251-5.191 4.143a20.693 20.693 0 0 0-.415 3.028 44.32 44.32 0 0 1-.128 1.32v.077a47.222 47.222 0 0 0 1.285 10.448m20.532-4.29c.059 1.018.116 2.033.19 3.05.021.294 0 .43-.677.543a3.637 3.637 0 0 1-.687.013 7.099 7.099 0 0 0-.565-.008l-4.185.185q-3.283.145-6.567.283c-.7.032-1.475.021-2.362-.022a.672.672 0 0 1-.728-.639l-.256-1.566a150.71 150.71 0 0 1-.693-4.492c-.093-.7-.147-1.406-.2-2.112-.063-.826-.128-1.679-.257-2.52-.411-2.681-.207-2.74 2.3-3.458a37.607 37.607 0 0 1 5.832-1.009c.6-.071 1.19-.143 1.782-.222 1.462-.2 2.974-.28 4.435-.361l.128-.008c.179-.01.333-.016.467-.016.742 0 .858.188 1.112.922a22.058 22.058 0 0 1 .893 6.681c.015.477.03.955.052 1.431.021.451.011.9 0 1.352v.13l-.126.005z"/>
        <path data-name="パス 1181" d="M40.382 89.041h.072a3.486 3.486 0 0 0 2.366-1.073 3.186 3.186 0 0 0 1.024-2.262 3.577 3.577 0 0 0-3.153-3.022c-2.312-.1-2.876 1.146-3.2 3.62l-.005.066a2.683 2.683 0 0 0 2.894 2.669"/>
    </g>
</svg>
