<svg xmlns="http://www.w3.org/2000/svg" width="120" height="120" viewBox="0 0 120 120">
    <defs>
        <clipPath id="13x7h6z8ca">
            <path data-name="長方形 1154" style="fill:none" d="M0 0h120v120H0z"/>
        </clipPath>
    </defs>
    <g data-name="グループ 666">
        <g data-name="グループ 657" style="clip-path:url(#13x7h6z8ca)">
            <path data-name="パス 863" d="M23.277 2.957H37.01a8.811 8.811 0 0 0 1.254.239c2.278.107 4.558.169 6.836.279 2.887.14 5.769.4 8.654.444 2.711.041 5.426-.192 8.14-.2 3.775-.012 7.546.094 11.316.111 2.9.012 5.8-.126 8.689-.037 5.3.161 10.6.478 15.9.656 2.6.087 5.2.031 7.8 0a8.721 8.721 0 0 1 8.884 6.9c.195 1.031.458 2.049.691 3.073v6.229c-.415 3.641-.918 7.274-1.223 10.924-.271 3.209-.369 6.435-.461 9.656-.291 10.335-.54 20.671-.822 31.008a41.163 41.163 0 0 1-.262 3.576 5.385 5.385 0 0 1-3.7 4.815 36.283 36.283 0 0 1-6.672 1.527c-3.548.476-7.129.723-10.7 1.027-5.464.465-10.932.9-16.458 1.345 1.454 3.643 2.9 7.294 4.389 10.928a1.056 1.056 0 0 0 .771.427c1.232.123 2.468.2 3.7.264a12.629 12.629 0 0 1 8.745 4.238c2.233 2.39 3.127 5.42 3.971 8.483.966 3.506-1.225 6-4.189 6.731a62.88 62.88 0 0 1-14.747 1.431c-13.123.065-26.249-.093-39.373-.22a17.584 17.584 0 0 1-7.5-1.742c-1.481-.713-2.587-2.28-2.339-3.5a9.076 9.076 0 0 1 .848-2.689c1.713-3 3.43-6.012 5.347-8.886a7.79 7.79 0 0 1 5.162-3.791c1.956-.3 3.952-.346 5.922-.576.4-.046.989-.334 1.094-.644.756-2.233 1.379-4.512 2.111-6.754.352-1.075.849-2.1 1.288-3.169-2.647-.13-5.129-.282-7.614-.365q-5.022-.17-10.046-.253c-5.983-.1-11.966-.162-17.949-.264a13.062 13.062 0 0 1-2.573-.264 4.522 4.522 0 0 1-3.712-5.6 12.615 12.615 0 0 0 .165-5.494 28.525 28.525 0 0 1-.79-5.043c-.172-2.311-.111-4.637-.236-6.953-.105-1.98-.416-3.949-.485-5.927-.141-4.113-.162-8.231-.274-12.345-.13-4.761-.352-9.522-.445-14.283-.047-2.478.13-4.96.158-7.441.035-3.116-.081-6.236.057-9.347.1-2.323 1.641-5.833 5.126-6.6 2.213-.488 4.434-.95 6.668-1.324 1.7-.283 3.433-.407 5.151-.6m40.224 59.884c-.181-2.362-.372-4.57-.513-6.78a54.188 54.188 0 0 0-.34-6.06c-.621-3.491.175-6.763 1.315-9.937q2.948-8.216 6.333-16.273a82.135 82.135 0 0 1 4.141-7.718c.157-.284.551-.636.826-.628a3.9 3.9 0 0 1 3.556 2.093c1.219 2.287 2.509 4.547 3.58 6.9 2.2 4.848 4.251 9.767 6.434 14.625a14.305 14.305 0 0 1 1.4 6.787c-.206 3.849-.179 7.709-.291 11.564-.048 1.589-.2 3.176-.307 4.723l17.818-.467c.078-.808.194-1.589.219-2.372.172-5.17.307-10.341.489-15.512.149-4.167.3-8.335.543-12.5.176-3.011.381-6.031.8-9.015a35.244 35.244 0 0 0 .188-10.311c-.355-2.303-.982-2.929-3.316-3.003a28.542 28.542 0 0 0-1.372-.008c-2.065.026-4.132.129-6.194.072-5.689-.164-11.375-.472-17.064-.564-13.085-.207-26.178.364-39.255-.509-2.36-.157-4.729-.148-7.09-.283a117.587 117.587 0 0 0-21.843.537c-2.487.32-3.282 1.274-3.256 3.782q.075 7.323.238 14.644c.121 5.328.25 10.657.456 15.982.22 5.671.506 11.339.822 17.006.1 1.765.389 3.518.587 5.234l22.89-1.415c-.351-5.194-.7-10.326.369-15.057-1.612-1.509-3.4-2.682-4.509-4.315-3.648-5.366-2.944-11-.419-16.587 2.3-5.091 5.974-9.019 10.274-12.536 3.245-2.655 6.812-1.131 7.808 2.187a13.014 13.014 0 0 0 .442 1.669 8.654 8.654 0 0 0 1.44 2.609 45.733 45.733 0 0 0 4.094 3.374c3.846 3.022 4.946 7.254 4.291 11.7a14.755 14.755 0 0 1-7.938 11.141 1.569 1.569 0 0 0-.621 1.235c.214 3.753.519 7.5.766 11.254.061.93.01 1.869.01 2.731zm33.578 15.616c.722-.1 1.289-.148 1.844-.256 2.047-.4 4.116-.72 6.125-1.261 1.851-.5 2.016-.858 2.131-2.765.022-.371.033-.745.035-1.117v-7.166c-2.4.113-4.831.255-7.263.337-3.348.112-6.7.187-10.046.263-3.775.085-7.551.154-11.324.231-4.319.088-8.638.186-12.957.267-4.2.08-8.392.112-12.586.224-5.426.145-10.855.307-16.279.538-4.337.185-8.668.492-13 .731-3.221.178-6.441.359-9.665.489-.985.04-1.4.361-1.318 1.41.245 3.156.416 6.317.636 9.782 2.747 0 5.267-.042 7.787.007 7.178.142 14.355.333 21.534.477q5.387.109 10.778.118c4.265.006 8.535.072 12.8-.1 5.415-.214 10.822-.639 16.231-.971.809-.05 1.293-.339 1.186-1.285a13.733 13.733 0 0 1-.144-3.091 15.975 15.975 0 0 1 .968-4.254c.171-.409 1.449-.359 2.222-.516a.812.812 0 0 1 .2.044c.209.385.346 1.058.7 1.2a1.53 1.53 0 0 1 1.001 1.564c.053 1.508-.019 3.022.072 4.526a1.361 1.361 0 0 0 .738 1.022 5.087 5.087 0 0 0 1.979 0 .964.964 0 0 0 .612-.679c.1-1.144.039-2.3.14-3.44.087-.972.317-1.93.488-2.894.25-1.4 1.483-.7 2.246-.971.114-.041.512.737.786 1.132a.822.822 0 0 0 .169.147l.278.273.39-.7a1.949 1.949 0 0 1 .563.369 1.247 1.247 0 0 1 .276.723c-.087 1.841-.213 3.679-.332 5.592m-21.624 34.624.006-.14c3.631-.2 7.268-.348 10.891-.625a20.556 20.556 0 0 0 3.957-.8c.778-.218 1.436-.677.95-1.74a9.34 9.34 0 0 1-.315-1.568c-1.484-5.85-3.935-8.311-10.186-8.07-1.689.066-3.381.147-5.068.106-7.336-.178-14.67-.452-22.007-.581-3.281-.057-6.568.256-9.847.178a4.545 4.545 0 0 0-3.913 1.7c-2.09 2.73-4.041 5.576-5.882 8.48-.967 1.523-.544 2.093 1.285 2.321.124.016.25 0 .375.009 2.69.13 5.378.328 8.069.378 8.015.151 16.03.252 24.044.354 2.548.032 5.094.005 7.641.005m9.259-50.713V45.536H67.72c.3 5.59.6 11.227.9 16.832zM69.763 85.08c-2.991 0-6.018.016-9.047-.006-1.531-.01-3.061-.125-4.59-.113-.37 0-.986.235-1.075.5-1.1 3.271-2.118 6.568-3.193 9.964l22.12.622c-1.46-3.8-2.849-7.416-4.215-10.966M33.688 36.396a19.474 19.474 0 0 0 .337 2.134c.623 2.266 1.465 4.486 3.776 5.52a10.925 10.925 0 0 0 11.934-1.344 9.468 9.468 0 0 0 4-6.351 2.779 2.779 0 0 0-.157-1.351c-.885-.095-1.6-1.163-2.71-.208a6.9 6.9 0 0 1-7.616 1.212 19.178 19.178 0 0 1-3.006-2.032 6.842 6.842 0 0 1-6.557 2.42m1.152-3.839c.735-.6 1.366-1.05 1.931-1.576a4.132 4.132 0 0 1 3.338-1.224 6.111 6.111 0 0 1 4.069 1.857c1.066 1.08 1.893.931 3.082.187a10.32 10.32 0 0 1 3.505-1.285 9.272 9.272 0 0 1 2.668.269 7.787 7.787 0 0 0-3.924-4.89 12 12 0 0 1-4.343-4.255 30.664 30.664 0 0 1-1.3-3.08 13.7 13.7 0 0 0-1.294.828 26.686 26.686 0 0 0-7.128 9.228c-.526 1.089-1.39 2.282-.61 3.944m49.395 8.888c-.316-.68-.72-1.442-1.033-2.238-.873-2.219-1.691-4.462-2.583-6.674-.145-.359-.555-.873-.841-.873-1.936 0-3.873.1-5.8.208a2.037 2.037 0 0 0-2.117 1.486c-.48 1.565-1.1 3.088-1.67 4.625-.4 1.087-.823 2.167-1.318 3.469zm-43.429 7.716a60.1 60.1 0 0 0-.279 14.137l6-.35c-.429-4.335-.9-8.613-1.24-12.9-.078-.98-.333-1.372-1.306-1.249-1.017.13-2.036.234-3.18.363"/>
            <path data-name="パス 864" d="M57.229 59.711H45.03c0-.864.052-1.8-.008-2.731-.248-3.752-.551-7.5-.767-11.254a1.573 1.573 0 0 1 .622-1.235 14.757 14.757 0 0 0 7.938-11.141c.653-4.448-.446-8.68-4.292-11.7a45.867 45.867 0 0 1-4.093-3.374 8.656 8.656 0 0 1-1.441-2.609A13.185 13.185 0 0 1 42.548 14c-1-3.318-4.563-4.842-7.809-2.187-4.3 3.52-7.976 7.445-10.275 12.536-2.525 5.59-3.23 11.222.418 16.587 1.11 1.633 2.9 2.806 4.51 4.315-1.073 4.731-.721 9.863-.37 15.057L6.133 61.72c-.2-1.716-.489-3.469-.588-5.234-.316-5.667-.6-11.335-.822-17.006-.206-5.325-.334-10.654-.456-15.982q-.167-7.32-.238-14.643C4 6.347 4.8 5.394 7.285 5.073a117.592 117.592 0 0 1 21.843-.537c2.361.135 4.731.126 7.09.283 13.077.873 26.172.3 39.255.509 5.69.091 11.376.4 17.065.561 2.061.057 4.127-.046 6.192-.072.458-.006.916-.006 1.373.008 2.332.076 2.961.7 3.314 3.011a35.353 35.353 0 0 1-.188 10.311c-.417 2.984-.623 6-.8 9.015-.243 4.162-.394 8.33-.542 12.5-.184 5.17-.317 10.341-.49 15.512-.026.783-.14 1.564-.217 2.372l-17.818.467c.1-1.547.258-3.134.3-4.724.113-3.854.086-7.714.292-11.563a14.328 14.328 0 0 0-1.4-6.787c-2.183-4.858-4.229-9.777-6.434-14.625-1.072-2.357-2.36-4.617-3.579-6.9a3.9 3.9 0 0 0-3.558-2.093c-.274-.007-.667.344-.825.628a81.886 81.886 0 0 0-4.14 7.718Q60.632 28.7 57.69 36.935c-1.139 3.173-1.937 6.446-1.315 9.937a54.438 54.438 0 0 1 .341 6.06c.139 2.21.332 4.417.513 6.78" transform="translate(6.273 3.13)" style="fill:#0099e7"/>
            <path data-name="パス 865" d="M90.711 73.052c.119-1.912.243-3.751.331-5.592a1.24 1.24 0 0 0-.276-.723 1.95 1.95 0 0 0-.563-.369l-.39.7-.277-.273a.9.9 0 0 1-.171-.147c-.272-.4-.669-1.173-.783-1.133-.765.266-2-.423-2.246.972-.172.964-.4 1.922-.489 2.893-.1 1.142-.044 2.3-.139 3.44a.964.964 0 0 1-.612.68 5.086 5.086 0 0 1-1.979 0 1.364 1.364 0 0 1-.739-1.022c-.091-1.5-.02-3.018-.072-4.527a1.53 1.53 0 0 0-1.006-1.558c-.353-.143-.49-.816-.7-1.2a.814.814 0 0 0-.2-.044c-.772.157-2.051.107-2.221.516a15.937 15.937 0 0 0-.968 4.254 13.674 13.674 0 0 0 .144 3.091c.106.946-.377 1.235-1.186 1.285-5.41.332-10.817.756-16.231.97-4.261.169-8.531.1-12.8.1q-5.389-.008-10.778-.118c-7.178-.145-14.355-.336-21.534-.477-2.519-.05-5.04-.008-7.787-.008-.22-3.465-.39-6.626-.636-9.781-.081-1.049.334-1.37 1.319-1.41 3.222-.13 6.444-.311 9.664-.489 4.335-.24 8.666-.546 13-.731 5.425-.231 10.852-.393 16.28-.538 4.194-.111 8.39-.145 12.585-.224 4.319-.082 8.638-.179 12.956-.267 3.776-.077 7.552-.146 11.326-.231 3.348-.076 6.7-.151 10.046-.263 2.433-.082 4.863-.224 7.262-.337v7.165q0 .56-.034 1.119c-.114 1.905-.28 2.266-2.13 2.765-2.009.541-4.079.862-6.125 1.261-.556.108-1.124.158-1.844.256" transform="translate(6.369 5.406)" style="fill:#fff"/>
            <path data-name="パス 866" d="M68.281 106.362c-2.547 0-5.094.027-7.641-.005-8.015-.1-16.029-.2-24.044-.354-2.691-.051-5.379-.248-8.069-.378-.125-.006-.252.006-.375-.009-1.829-.228-2.252-.8-1.286-2.321 1.842-2.9 3.792-5.75 5.882-8.48a4.547 4.547 0 0 1 3.914-1.7c3.278.078 6.566-.235 9.847-.178 7.336.129 14.669.4 22 .581 1.689.041 3.38-.041 5.069-.106 6.252-.241 8.7 2.22 10.186 8.07a9.339 9.339 0 0 0 .316 1.568c.485 1.062-.172 1.521-.95 1.74a20.586 20.586 0 0 1-3.957.8c-3.626.278-7.261.427-10.892.625 0 .047 0 .094-.005.14" transform="translate(7.177 6.72)" style="fill:#fff"/>
            <path data-name="パス 867" d="M76.21 57.754H60.116c-.3-5.605-.6-11.242-.9-16.832h17z" transform="translate(8.505 4.614)" style="fill:#ff1d8f"/>
            <path data-name="パス 868" d="M61.875 78.933 66.09 89.9l-22.12-.622c1.074-3.4 2.094-6.692 3.192-9.964.089-.264.7-.5 1.076-.5 1.529-.011 3.059.1 4.589.113 3.028.022 6.056.006 9.048.006" transform="translate(7.889 6.148)" style="fill:#fff"/>
            <path data-name="パス 869" d="M26.507 32.232a6.842 6.842 0 0 0 6.557-2.42 19.128 19.128 0 0 0 3.006 2.032 6.9 6.9 0 0 0 7.616-1.212c1.11-.954 1.824.114 2.71.208a2.8 2.8 0 0 1 .157 1.351 9.472 9.472 0 0 1-4 6.351 10.927 10.927 0 0 1-11.933 1.345c-2.311-1.035-3.153-3.255-3.776-5.521a19.4 19.4 0 0 1-.337-2.134" transform="translate(7.182 4.164)" style="fill:#fff"/>
            <path data-name="パス 870" d="M27.626 29c-.78-1.663.083-2.855.61-3.944a26.686 26.686 0 0 1 7.128-9.228A13.7 13.7 0 0 1 36.658 15a30.668 30.668 0 0 0 1.3 3.08 11.989 11.989 0 0 0 4.342 4.249 7.8 7.8 0 0 1 3.917 4.892 9.306 9.306 0 0 0-2.668-.268 10.341 10.341 0 0 0-3.506 1.285c-1.188.744-2.015.893-3.081-.188a6.114 6.114 0 0 0-4.069-1.856 4.131 4.131 0 0 0-3.335 1.226c-.565.528-1.2.982-1.931 1.577" transform="translate(7.215 3.564)" style="fill:#ffd600"/>
            <path data-name="パス 871" d="M75.679 37.374H60.318c.5-1.3.916-2.382 1.318-3.469.57-1.537 1.19-3.06 1.67-4.625a2.036 2.036 0 0 1 2.111-1.48c1.933-.113 3.869-.209 5.806-.208.286 0 .7.513.841.873.892 2.212 1.709 4.454 2.583 6.674.313.8.716 1.558 1.032 2.238" transform="translate(8.55 4.074)" style="fill:#fff"/>
            <path data-name="パス 872" d="M33.364 44.424c1.143-.129 2.163-.233 3.18-.363.973-.124 1.228.268 1.306 1.249.344 4.289.812 8.567 1.24 12.9l-6 .35a60.1 60.1 0 0 1 .279-14.137" transform="translate(7.436 4.74)" style="fill:#fff"/>
        </g>
    </g>
</svg>
