<svg xmlns="http://www.w3.org/2000/svg" width="265" height="106" viewBox="0 0 265 106">
    <defs>
        <clipPath id="kwscew65ja">
            <path data-name="長方形 1145" style="fill:none" d="M0 0h118v106H0z"/>
        </clipPath>
    </defs>
    <g data-name="グループ 62702">
        <g data-name="グループ 582">
            <g data-name="グループ 575">
                <path data-name="パス 557" d="M179.622 54.103a20.091 20.091 0 0 0-4.01-8.081 12.884 12.884 0 0 0-3.475-3.4 9.179 9.179 0 0 0-4.335-1.269c-1.64-.073-3.29.087-4.936.137-.755.022-1.51.039-2.265.031-1.47-.017-2.943.006-4.406-.107a6.775 6.775 0 0 1-2-.6c-.791-.329-.92-.81-.721-1.663a24.357 24.357 0 0 0 1.006-4.976 7.81 7.81 0 0 0-3.67-6.936c-2.411-1.611-4.907-1.344-7.48-.583a3.073 3.073 0 0 1-2.894-.139 2.173 2.173 0 0 1-1.016-1.974c.04-.986.116-1.971.144-2.957a20.424 20.424 0 0 0 .008-3.793 12.934 12.934 0 0 0-1.224-3.583 12.5 12.5 0 0 0-5.2-5.526 10.883 10.883 0 0 0-6.333-1.192 17.672 17.672 0 0 0-5.052 1.035 10.664 10.664 0 0 0-4.006 2.827c-1.98 2.124-3.642 4.547-5.9 6.411-1.5 1.238-3.087 2.237-5.155 2.008a8.141 8.141 0 0 1-4.612-2.33c-1.654-1.5-3.335-2.972-5.108-4.318a7.726 7.726 0 0 0-4.373-1.344 14.53 14.53 0 0 0-7.3 1.385 7.576 7.576 0 0 0-1.932 1.268 11.013 11.013 0 0 1-7.747 3.152 7.546 7.546 0 0 1-4.414-1.218 3.332 3.332 0 0 1-1.049-1.207c-.96-1.854-1.825-3.758-2.782-5.613a19.734 19.734 0 0 0-5.251-6.439A13.338 13.338 0 0 0 56.48.287a27.746 27.746 0 0 0-3.86-.264 13.077 13.077 0 0 0-4.708.62 15.432 15.432 0 0 0-6.174 3.551 12.872 12.872 0 0 0-3.288 5.9 20.026 20.026 0 0 0-.863 6.122c.038 1.7.259 3.392.394 5.088a15.851 15.851 0 0 1-.278 6.29 1.524 1.524 0 0 1-1.135 1.127c-1.647.416-3.3.822-4.924 1.314a8.473 8.473 0 0 0-5.138 3.6 12.56 12.56 0 0 0-1.146 3.074c-.541 1.945.124 3.922-.051 5.878a2.989 2.989 0 0 1-.568 1.627 5.72 5.72 0 0 1-4.435 2.285c-2.152-.027-4.3-.061-6.457-.045-2.9.022-5.739.281-8.288 1.921a11.638 11.638 0 0 0-5.293 7.773c-.011.054-.088.094-.134.141l-.14 2.741c.187 1 .347 2.013.566 3.01a10.609 10.609 0 0 0 3.339 5.616 12.328 12.328 0 0 0 6.268 3.232 29.059 29.059 0 0 0 6.064.389c2.469-.09 4.926-.5 7.391-.738a14 14 0 0 1 2.881-.116 5.275 5.275 0 0 1 3.749 1.848 9.574 9.574 0 0 1 1.88 4.58 4.355 4.355 0 0 1-.463 1.822 36.543 36.543 0 0 0-1.464 4.181 6.57 6.57 0 0 0 1.4 6 9.893 9.893 0 0 0 7.159 3.441 10.439 10.439 0 0 0 6.035-1.229 11.07 11.07 0 0 0 3.58-3.475 8.417 8.417 0 0 1 4.552-3.574 4.238 4.238 0 0 1 5.323 4.087c-.04 1.739-.063 3.484.027 5.22a13.764 13.764 0 0 0 1.977 6.9 10.718 10.718 0 0 0 2.9 3.345 15.165 15.165 0 0 0 5.431 2.133 1.776 1.776 0 0 1 .353.159l2.429.127a24.659 24.659 0 0 0 3.361-1.001 11.53 11.53 0 0 0 6.043-5.465 45.507 45.507 0 0 0 1.624-4.711 1.167 1.167 0 0 1 .226-.493 2.847 2.847 0 0 0 .928-2.064c.078-1.019.921-1.522 1.725-1.86a17.483 17.483 0 0 1 3.7-1.208 4 4 0 0 1 2.916 1.005 19.57 19.57 0 0 0 4.593 2.939c3.514 1.295 6.9.791 9.051-2.815.4-.667.758-1.359 1.194-2a3.689 3.689 0 0 1 4.211-1.454 8.369 8.369 0 0 1 2.471 1.233 4.384 4.384 0 0 1 1.383 3.232 18.6 18.6 0 0 0 .9 5.2 9.3 9.3 0 0 0 5.887 5.593 8.6 8.6 0 0 0 6.088-.087 11.223 11.223 0 0 0 5.459-4.4 8.074 8.074 0 0 0 1.1-3.015 11.37 11.37 0 0 0-.66-5.869c-.569-1.615-1.146-3.229-1.649-4.866a2.37 2.37 0 0 1 .1-1.3c.259-.841.474-.955 1.262-.68 1.736.606 3.461 1.244 5.185 1.885a14.805 14.805 0 0 0 5.132 1.084 9.165 9.165 0 0 0 4.589-.735 6.718 6.718 0 0 0 3.3-4.446c.182-.682.2-1.413.425-2.076a4 4 0 0 1 .868-1.494 6.731 6.731 0 0 1 5.17-2.336c1.029.042 2.058.161 3.086.148a25.676 25.676 0 0 0 4.5-.237 32.8 32.8 0 0 0 5.629-1.608 12.772 12.772 0 0 0 5.8-5.184 18.644 18.644 0 0 0 2.7-6.3 14.839 14.839 0 0 0-.046-6.5z"/>
                <path data-name="パス 558" d="M6.122 35.347a6.767 6.767 0 0 0 4.477 1.944 4.454 4.454 0 0 1 1.325.264 6.329 6.329 0 0 0 3.553.539 5.1 5.1 0 0 0 3.875-3.448 11.644 11.644 0 0 0 .682-6.2c-.179-.714-.312-1.443-.545-2.138a7.637 7.637 0 0 0-4.269-5.033c-1.273-.526-2.574-.982-3.867-1.458a6.076 6.076 0 0 0-4.43-.03 7.47 7.47 0 0 0-4.454 9.39 13.712 13.712 0 0 0 3.653 6.17z"/>
            </g>
            <path data-name="パス 1350" d="M-28.944-8.064c0-1.782-2.2-3.816-3.492-3.816a9.08 9.08 0 0 0-3.042.666l-.2.126-.432.126-.432.45-.414.306-.216.306a5.773 5.773 0 0 0-1.584 4.1c0 1.476.54 3.168 1.008 3.4l.18.108.45.558a4.144 4.144 0 0 0 2.5.828 5 5 0 0 0 3.546-1.458l.99-1.206.144-.4a8.779 8.779 0 0 0 .994-4.094zm-2.034.432a9.244 9.244 0 0 1-.612 2.61l-.2.18-.234.4-.522.414-.306.522a3.192 3.192 0 0 1-1.728.522c-1.674 0-2.214-.936-2.214-3.24a3.368 3.368 0 0 1 .738-2.034c.612-.81 1.17-1.53 2.16-1.53h.108l.936.054.72.324.486.036s.668.32.668 1.742zm18.648-1.3a1.682 1.682 0 0 0 .108-.612c0-.648-.324-1.278-.828-1.278a1.075 1.075 0 0 0-1.134 1.044c-.054.162-.2.594-.288.882-.036.252-.072.5-.09.612l-.18.378-.144.792a25.3 25.3 0 0 1-1.026 2.862c-.18.378-.36.5-.4.846-.018.18-.108.378-.216.378-.54 0-.648-.756-.99-1.152a17.118 17.118 0 0 1-1.674-1.98l-1.652-2.48-.324-1.242a2.666 2.666 0 0 0-.832-.306c-.468 0-.99.828-.99.828s0 .846-.036 1.278c-.018.27-.306.54-.324 1.008l-.036 1.062c-.054.846-.54 3.456-.54 3.456l.018.288-.234.594v.612s.36.666.684.666a2.675 2.675 0 0 0 .72-.216l.5-1.188.414-1.836.09-1.206-.018-.738a.317.317 0 0 1 .288-.324.108.108 0 0 1 .072.018l.18.108.18.234.126.4.54.612.576.936.738.666 1.674 2.07c.288.4.522.846 1.044.846.288 0 .792-.576 1.062-1.062l.378-.774.252-.378.18-.738.738-1.386.234-1.134.45-1.152.018-.432zM.036-1.458c0-.4-.414-1.278-1.062-1.278-.414 0-.63.216-1.062.216-.45 0-.846-.216-1.188-.216h-.036l-1.782.054c-.18 0-.216-.2-.234-.306l.054-.378-.072-.792-.036-1.042c.018-.108.144-.99.234-1.548a5.741 5.741 0 0 0 .054-.756c0-.5-.072-.936-.09-1.4 0-.612.09-1.044.09-1.314a3.884 3.884 0 0 0-.072-.558l-.018-.612-.414-.2-.252-.414s-1.188.342-1.206.882l-.036.27-.108.55a8.892 8.892 0 0 1 .252 2.178 14.237 14.237 0 0 1-.09 1.764l-.216.5-.18 2.664.162.936s.108 1.476.756 1.476h.054l.648-.072 1.134.2.432-.108c.054 0 1.134.036 1.818.036A5.821 5.821 0 0 1-.936-.54a.894.894 0 0 0 .972-.918zm8.64-8.568a.855.855 0 0 0-.882-.9c-.612 0-.864.612-1.152 1.08a1.807 1.807 0 0 0-.27 1.008l-.108 2.124-.27 1.242-.036.572-.288 1.084-.144.342v.666l-.252 1.44-.09 1.242.252.27.288.576S6.93.378 7-.054l.036-.468a4.57 4.57 0 0 0 .2-.522 4.575 4.575 0 0 0 .144-1.35c0-.576.432-2.736.432-2.736l.09-.648.108-1.008.144-.54.09-1.474a3.482 3.482 0 0 0 .432-1.226zm17.352 1.1a1.682 1.682 0 0 0 .108-.612c0-.648-.324-1.278-.828-1.278a1.075 1.075 0 0 0-1.134 1.044c-.054.162-.2.594-.288.882-.036.252-.072.5-.09.612l-.18.378-.144.792a25.3 25.3 0 0 1-1.026 2.862c-.18.378-.36.5-.4.846-.018.18-.108.378-.216.378-.54 0-.648-.756-.99-1.152a17.118 17.118 0 0 1-1.674-1.98L17.514-8.64l-.324-1.242a2.666 2.666 0 0 0-.828-.306c-.468 0-.99.828-.99.828s0 .846-.036 1.278c-.018.27-.306.54-.324 1.008l-.036 1.062c-.054.846-.54 3.456-.54 3.456l.018.288-.234.594v.612s.36.666.684.666a2.675 2.675 0 0 0 .72-.216l.5-1.188.414-1.836.09-1.206-.018-.738a.317.317 0 0 1 .29-.32.108.108 0 0 1 .072.018l.18.108.18.234.126.4.54.612.576.936.738.666 1.674 2.07c.288.4.522.846 1.044.846.288 0 .792-.576 1.062-1.062l.378-.774.252-.378.18-.738.738-1.386.234-1.134.45-1.152.018-.432zM39.186-10.4a.632.632 0 0 0 .09-.36c0-.486-.432-.99-.684-.99l-.918.036-1.026-.108h-1.566l-.54.09-.792-.144-.378.09-.486-.036h-.054a1.251 1.251 0 0 0-1.206 1.3l-.09 2.124-.36 2.268-.054 1.53-.144.306-.126 1.656-.216.54-.09 2.052v.064a1.06 1.06 0 0 0 1.044 1.116c.468 0 2.79-.54 2.79-.54L36.9.486l.4-.2.2.036h.018c.2 0 1.062-.54 1.062-.936a1.542 1.542 0 0 0-1.3-.954h-.054l-.666.036-.486-.036-.81.288c-.18.018-.774.054-1.44.054-.342 0-1.008.072-1.17.09-.072-.036-.072-.162-.072-.324a5.324 5.324 0 0 1 .162-.954l.126-2.3.216-.18.126-.18.18-.054 1.926-.108.864.108h.036c.342 0 1.062-.468 1.062-.972a1.239 1.239 0 0 0-1.152-1.152l-.954-.108-.612.252-.4-.036-.882.126c-.108 0-.144-.054-.144-.216 0-.108.018-.252.036-.432l.108-.99.2-.486.036-.684c.018-.126.054-.162.288-.162a4.1 4.1 0 0 1 .432.018l.414.036.666.018.306.126 1.386.018c.234 0 .846.144 1.044.144a1.361 1.361 0 0 0 1.134-.772zm-56.763 22.45c0-1.08-1.3-1.908-3.276-1.908a6.229 6.229 0 0 0-.936.108l-.432.234-.792.378a2.871 2.871 0 0 0-.954 2.034c0 1.314 1.4 2.664 2.394 3.168l.54.252.414.594.306.252a1.148 1.148 0 0 1 .108.414 1.213 1.213 0 0 1-1.35 1.134 4.058 4.058 0 0 1-2.592-.846c-.45 0-.81.342-.81 1.152 0 .594.684 1.044.882 1.17l.306.27.846.234a7.955 7.955 0 0 0 1.728.216 3.24 3.24 0 0 0 3.1-2.79 1.838 1.838 0 0 0-.126-.684l-.288-.738-.324-.9-.4-.45-.252-.324-.594-.4-.414-.432-1.152-.72-.252-.306-.072-.45a1.892 1.892 0 0 1 1.4-.756c.792 0 1.98 1.206 1.98 1.206s.5-.594.522-.594c.167-.144.49-.414.49-.522zm14.9-1.4v-.054c0-.414-.36-.774-.972-.774-.5 0-.99.72-1.044 1.44l-.072 2-.162.936.018.414a.293.293 0 0 1-.306.306l-.864.036-2.34-.036-.432-.054-.684.108-.432-.036-.2-.2-.036-.63.108-.306-.036-.846c0-.108.036-.5.036-.792 0-.252.126-.522.126-.774a.766.766 0 0 0-.036-.2l-.072-.2v-.45a2.661 2.661 0 0 0-.7-.306 2.391 2.391 0 0 0-.648.216l-.4 1.152-.036 2.268-.2.594-.108 1.926-.09 1.152.072.576-.126.576-.072 1.17.072.612s.45.684.864.684c.72 0 1.35-1.026 1.35-2.952 0-.288-.162-.666-.162-.972 0-.09.2-.2.36-.2l1.476-.018 1.242-.108 1.422.252a3.026 3.026 0 0 1 .54-.126c.2 0 .288.5.288.882 0 .09-.018.162-.018.234l-.2 1.476v1.242c0 .7.126.828.99.828a2.662 2.662 0 0 0 .7-.414 4.958 4.958 0 0 0 .486-1.314l.072-1.134v-.684L-3 17.806l-.036-1.26.072-1.242-.108-.63.072-.306.144-1.656.108-.72-.036-.378zm15.228 3.294c0-1.782-2.2-3.816-3.492-3.816a9.08 9.08 0 0 0-3.042.666l-.2.126-.432.126-.432.45-.414.306-.216.306a5.773 5.773 0 0 0-1.584 4.1c0 1.476.54 3.168 1.008 3.4l.18.108.45.558a4.144 4.144 0 0 0 2.5.828 5 5 0 0 0 3.546-1.458l.99-1.206.144-.4a8.779 8.779 0 0 0 .998-4.102zm-2.034.432a9.244 9.244 0 0 1-.612 2.61l-.2.18-.234.4-.522.414-.306.522a3.192 3.192 0 0 1-1.728.522c-1.674 0-2.214-.936-2.214-3.24a3.368 3.368 0 0 1 .738-2.034c.612-.81 1.17-1.53 2.16-1.53h.108l.936.054.72.324.486.036s.672.312.672 1.734zm15.048-2.052c0-.936-1.746-2.034-2.106-2.124l-1.782-.54a8.382 8.382 0 0 0-.99-.09c-1.71 0-2.3.558-2.3 2.124v.99a4.2 4.2 0 0 1-.072 1.008c-.036.234-.108.576-.108.576l-.018 1.08-.2 1.044.018.81-.162.63v1.828l-.216.684.036.756-.126.5.2.45c.054.162.288.774.792.774.234 0 .486-.288.612-.432.054-.036.576-.558.576-.9l.018-1.008v-.914l.09-.81-.09-.4.018-.774.252-.468.522-.162 1.188-.18.576-.342c.414-.194 3.276-1.634 3.276-4.118zm-2.106.378c0 .972-2.268 2.214-3.276 2.214-.072 0-.216-.144-.216-.36a.4.4 0 0 1 .018-.144l.18-.594-.054-.468.18-1.1c.072-.414.09-.738.81-.738h.306l.378.2 1.008.144a.907.907 0 0 1 .67.838z" transform="translate(90 48)" style="fill:#fff"/>
        </g>
        <g data-name="グループ 638">
            <g data-name="グループ 637" transform="translate(147)" style="clip-path:url(#kwscew65ja)">
                <path data-name="パス 686" d="M95.16 106.001c-.22-.02-.44-.048-.661-.06a10.191 10.191 0 0 1-3.795-.979 3.22 3.22 0 0 1-1.04-.836 20.359 20.359 0 0 1-1.407-2.071 3.773 3.773 0 0 1-.324-.783c-.186-.483-.376-.964-.548-1.451a5.649 5.649 0 0 1-.362-2.52 8.646 8.646 0 0 1 .323-1.364 5.4 5.4 0 0 1 1.669-2.478 3.432 3.432 0 0 1 1.39-.747.6.6 0 0 0 .425-.392.981.981 0 0 1 .122-.244 2.412 2.412 0 0 0 .4-1.415 3.035 3.035 0 0 0-.015-.308 3.428 3.428 0 0 1-1.015-1 .88.88 0 0 1-.064-.1l-.478-1.146c-.023-.056-.053-.109-.088-.179a4.94 4.94 0 0 0-.6 0 14.159 14.159 0 0 1-1.983.015 21.771 21.771 0 0 1-3.1-.251 20.068 20.068 0 0 1-3.874-.981 13.682 13.682 0 0 1-2.25-1.1c-.489-.294-.991-.571-1.45-.907a6.488 6.488 0 0 1-1.754-1.764c-.231-.371-.474-.735-.7-1.108a8.682 8.682 0 0 1-.352-.642c-.4-.8-.8-1.6-1.186-2.407-.2-.411-.361-.836-.539-1.256-.107-.252-.214-.5-.316-.757a10.933 10.933 0 0 1-.623-1.849c-.067-.327-.182-.644-.271-.966a15.6 15.6 0 0 1-.494-2.794c-.063-.7-.112-1.4-.181-2.093a14.216 14.216 0 0 0-.237-1.56c-.088.176-.183.35-.263.53-.51 1.144-1.03 2.285-1.521 3.437-.347.815-.655 1.646-.979 2.47-.134.341-.258.687-.4 1.024a3.886 3.886 0 0 0-.248 1.979 5.609 5.609 0 0 0 .273 1.032 9.932 9.932 0 0 1 .391 2.985 15.38 15.38 0 0 1-.212 2.279 8.587 8.587 0 0 1-.635 2.006 12.669 12.669 0 0 1-1.529 2.674 8.35 8.35 0 0 1-.772.907 3.257 3.257 0 0 1-2.169.945 1.8 1.8 0 0 1-1.856-.992c-.285.17-.548.34-.823.489a3.586 3.586 0 0 1-1.388.443 1.847 1.847 0 0 1-1.915-1.033 1.993 1.993 0 0 1-.129-.958c0-.1.022-.2.042-.369l-.3.21a3.026 3.026 0 0 1-1.919.6 2.015 2.015 0 0 1-1.686-.9 2.055 2.055 0 0 1-.354-1.365 4.281 4.281 0 0 1 .339-1.356 13.787 13.787 0 0 1 1.171-2.044c.132-.193.275-.379.423-.56a12.139 12.139 0 0 0 1.152-1.89c-.437.02-.849.049-1.261.055a4.511 4.511 0 0 1-2.566-.522 2.23 2.23 0 0 1-.991-1.085 1.147 1.147 0 0 1 0-.86 3.459 3.459 0 0 1 .987-1.3 6.791 6.791 0 0 1 2.015-1.194 10.971 10.971 0 0 1 3.381-.781 5.967 5.967 0 0 1 .855 0 .363.363 0 0 0 .395-.217c.121-.246.249-.49.353-.743.2-.49.374-.992.587-1.477.13-.3.328-.56.466-.852.252-.534.48-1.079.722-1.617a5.786 5.786 0 0 0 .332-.831c-.229.1-.46.191-.686.3a6.064 6.064 0 0 1-2.48.573 1.853 1.853 0 0 0-.363.044 5.83 5.83 0 0 1-1.517.122 15.616 15.616 0 0 1-2.064-.215c-.579-.1-1.172-.132-1.758-.2a6.208 6.208 0 0 1-.722-.113 23.633 23.633 0 0 1-2.93-.856c-.16-.061-.315-.135-.486-.209-.2.216-.387.431-.59.629q-1.292 1.259-2.594 2.51a44.108 44.108 0 0 0-2.752 2.951c-.739.857-1.521 1.676-2.275 2.521-.441.494-.862 1.006-1.294 1.508l-3.871 4.5c-.7.82-1.4 1.65-2.1 2.472q-.516.6-1.049 1.195a.613.613 0 0 0-.174.494 4.358 4.358 0 0 1-.434 2.284 7.465 7.465 0 0 1-1.488 2.225 12.857 12.857 0 0 1-1.189.957 1.744 1.744 0 0 1-.517.258.406.406 0 0 0-.3.341c-.13.587-.253 1.176-.4 1.758a10.549 10.549 0 0 1-.806 2.078c-.095.192-.194.382-.279.578a10.236 10.236 0 0 1-1.306 2.129 1.8 1.8 0 0 1-.73.621 2.432 2.432 0 0 0-.7.541 3.877 3.877 0 0 1-2.037.978 4.314 4.314 0 0 1-1.608.071.509.509 0 0 0-.122-.009 6.116 6.116 0 0 1-2.615-.51 17.491 17.491 0 0 1-2.714-1.332 3.823 3.823 0 0 1-.419-.306c-.438-.348-.879-.693-1.309-1.052a14.2 14.2 0 0 1-1.651-1.4c-.445-.5-.886-1.012-1.346-1.5a15.774 15.774 0 0 0-2.008-1.872 30.417 30.417 0 0 1-1.8-1.46 5.2 5.2 0 0 1-1.008-1.219c-.21-.345-.474-.656-.712-.985-.131-.181-.265-.361-.382-.551q-.435-.7-.856-1.411a4.8 4.8 0 0 1-.55-1.355c-.176-.742-.386-1.479-.511-2.23a10.244 10.244 0 0 1-.175-3.279 9.731 9.731 0 0 1 .938-2.917 5.347 5.347 0 0 1 1.766-1.913 8.243 8.243 0 0 0 .671-.576 5.814 5.814 0 0 1 .506-.386 13.77 13.77 0 0 1 1.237-.786 9.555 9.555 0 0 1 3.216-1.016 11.368 11.368 0 0 1 2.864-.054 9.867 9.867 0 0 1 5.029 1.948 11.616 11.616 0 0 1 1.168 1.155 4.936 4.936 0 0 1 1.282 3.189 1.863 1.863 0 0 0 .042.214c.25-.2.473-.385.7-.564a3.327 3.327 0 0 1 2.628-.614c.321.044.645.072.926.1.4-.468.789-.912 1.167-1.362.1-.123.172-.274.271-.4.224-.29.45-.578.688-.857.394-.461.8-.914 1.2-1.369.08-.091.175-.168.255-.259.18-.2.353-.415.532-.62.24-.276.485-.548.726-.823.359-.409.713-.822 1.075-1.229q.625-.7 1.259-1.394c.3-.322.6-.634.9-.957.164-.18.307-.378.468-.56.121-.137.257-.26.384-.393.327-.344.648-.693.979-1.033.227-.233.471-.448.7-.679.471-.479.921-.979 1.41-1.439.421-.4.881-.749 1.328-1.117.218-.18.444-.349.7-.549a5.566 5.566 0 0 0-2.021-.2c-.666.083-1.341.088-2.012.129-1.006.062-2.015.1-3.017.2-.8.08-1.588.244-2.382.369-1.459.231-2.9.548-4.332.908-.71.179-1.4.439-2.1.636q-1.352.379-2.717.713c-.642.158-1.295.271-1.938.427a5.512 5.512 0 0 1-1.795.083 17.807 17.807 0 0 1-2.257-.352 3.506 3.506 0 0 1-1.944-1.153 1.149 1.149 0 0 1-.15-.193 11.315 11.315 0 0 1-.77-1.485A3.839 3.839 0 0 1 9.5 62.76a5.341 5.341 0 0 1 .5-2.066.7.7 0 0 0 .06-.14 5.981 5.981 0 0 1 .87-1.661 11.823 11.823 0 0 1 .712-1.1.917.917 0 0 1 .07-.1c.268-.306.535-.612.805-.915a7.71 7.71 0 0 1 1.708-1.4c.648-.4 1.279-.832 1.922-1.243.325-.208.66-.4.991-.6a20.077 20.077 0 0 1 4.332-1.72c.754-.243 1.516-.462 2.314-.7.031-.192.066-.431.109-.668.068-.38.131-.762.212-1.14.171-.8.334-1.595.532-2.384a22.924 22.924 0 0 1 .907-2.973c.2-.51.376-1.034.57-1.548.1-.267.217-.527.329-.789.164-.383.349-.758.49-1.149a11.686 11.686 0 0 1 .787-1.721c.049-.088.093-.179.157-.3-.283-.035-.544-.053-.8-.1a21.111 21.111 0 0 1-3.123-.706 7.955 7.955 0 0 1-1.793-.84c-.38-.254-.8-.454-1.18-.7a6.929 6.929 0 0 1-1.615-1.524c-.248-.309-.525-.6-.78-.9a7.065 7.065 0 0 1-.787-1.155 10.767 10.767 0 0 1-.83-2.063c-.342-1.121-.6-2.264-.825-3.411-.11-.549-.155-1.11-.266-1.658a16.252 16.252 0 0 1-.2-3.075c-.009-.9.1-1.81.114-2.715a18.036 18.036 0 0 1 .406-2.777 2.243 2.243 0 0 1 .114-.335 4.167 4.167 0 0 1-.527-.218 3.479 3.479 0 0 1-.7-.475 16.633 16.633 0 0 1-1.74-1.919 4.485 4.485 0 0 1-.708-1.512 13.609 13.609 0 0 1-.5-2.3c-.055-.547-.112-1.094-.154-1.642s-.087-1.1-.095-1.646A6.356 6.356 0 0 1 12.3 4.31a3.192 3.192 0 0 1 .617-1.079 2.1 2.1 0 0 1 2.649-.493c.079.041.16.077.266.127.1-.309.2-.6.293-.884a3.5 3.5 0 0 1 .655-1.2 2.187 2.187 0 0 1 2.057-.756 2.37 2.37 0 0 1 1.94 1.448q.038.083.079.165c0 .009.014.015.054.054.07-.113.137-.219.2-.325A3.371 3.371 0 0 1 22.133.29a1.772 1.772 0 0 1 1.223-.266 2.083 2.083 0 0 1 1.527.962 4.014 4.014 0 0 1 .617 1.647 9.015 9.015 0 0 1 .069 2.315c-.06.72-.123 1.441-.182 2.161-.007.087 0 .175 0 .307.154-.091.274-.161.394-.234a4.364 4.364 0 0 1 2.526-.7 2.323 2.323 0 0 1 2.236 1.788 2.585 2.585 0 0 1-.012.938 4.032 4.032 0 0 1-1.095 1.993 19.7 19.7 0 0 1-1.622 1.531c-.465.393-.985.721-1.481 1.076q-.782.561-1.566 1.12c-.224.16-.453.311-.675.474-.238.174-.466.359-.7.533a.264.264 0 0 0-.092.27c.1 1.525.178 3.052.306 4.575a29.453 29.453 0 0 0 .528 4.274 12.644 12.644 0 0 0 1.413 3.66 8.016 8.016 0 0 0 2.687 2.662 4.858 4.858 0 0 0 2.541.763 2.989 2.989 0 0 1 .421.057.282.282 0 0 0 .318-.122c.1-.162.217-.318.324-.478a18.28 18.28 0 0 1 1.458-1.873c.436-.495.835-1.024 1.282-1.507.5-.536 1.032-1.034 1.543-1.556a39.934 39.934 0 0 1 3.586-3.268q1.02-.82 2.069-1.6c.447-.333.95-.595 1.376-.951a15.065 15.065 0 0 1 1.307-.84.514.514 0 0 1 .246-.115.839.839 0 0 0 .442-.183 10.486 10.486 0 0 1 1.6-.867c.517-.206 1-.493 1.519-.7.68-.271 1.378-.5 2.068-.745a4.164 4.164 0 0 0 .909-.352 6.328 6.328 0 0 1 1.108-.463.435.435 0 0 0 .193-.176c.246-.434.469-.881.726-1.308.167-.278.4-.516.567-.794a18.508 18.508 0 0 1 1.635-2.2 25.688 25.688 0 0 1 1.9-2.067A8.6 8.6 0 0 1 58.8 8.818c.394-.245.727-.588 1.112-.851.461-.316.948-.594 1.425-.887A18.521 18.521 0 0 1 64.4 5.63a24.442 24.442 0 0 1 3.625-1.092 17.345 17.345 0 0 1 2.291-.352 20.312 20.312 0 0 1 2.9-.06 18.806 18.806 0 0 1 2.467.369 2.5 2.5 0 0 1 1.894-1.3 4.187 4.187 0 0 1 3.444.6 3.158 3.158 0 0 1 1.312 1.644 1.775 1.775 0 0 1-.058 1.4l1.079.683a19.665 19.665 0 0 1 2.006 1.491 9.7 9.7 0 0 1 1.24 1.214c.3.358.574.739.852 1.116.393.533.778 1.072 1.167 1.608a13.313 13.313 0 0 1 1.575 2.789c.261.64.543 1.276.752 1.934.2.639.33 1.3.482 1.958.084.365.151.735.222 1.079a10.473 10.473 0 0 0 2.3.795c1.225.347 2.443.717 3.666 1.074a17.122 17.122 0 0 1 2.636 1.045 9.949 9.949 0 0 1 2.072 1.4 2.609 2.609 0 0 1 .779 1.114 1.79 1.79 0 0 1-.443 1.892 2.162 2.162 0 0 1-.871.607c-.545.2-1.093.394-1.65.555a10.609 10.609 0 0 1-2.644.455c-.642.018-1.285.009-1.928.014a23.963 23.963 0 0 1-3.288-.253 2.94 2.94 0 0 0-1.06-.041 2.778 2.778 0 0 1-.592.007c.01.055.007.1.022.106a3.682 3.682 0 0 1 1.1 1.088 33.355 33.355 0 0 1 2.4 3.426c.34.58.654 1.175.99 1.757.316.547.657 1.079.967 1.629.42.745.859 1.484 1.222 2.257a91.186 91.186 0 0 1 1.583 3.612 28.474 28.474 0 0 1 1.134 3.455c.2.727.367 1.463.555 2.193.176.681.367 1.358.538 2.039.415 1.651.84 3.3 1.118 4.982.055.331.119.661.161.994.024.19.009.384.015.576a1.315 1.315 0 0 0 .023.24c.088.408.185.815.27 1.224a3.916 3.916 0 0 1 .04.422l1.325-.449c.287-.1.579-.176.862-.283.214-.081.41-.208.624-.29.436-.166.879-.316 1.319-.471a6.024 6.024 0 0 1 1.015-.322 2.946 2.946 0 0 0 .5-.217c.236-.089.485-.146.716-.244a12.094 12.094 0 0 1 1.883-.558 6.144 6.144 0 0 1 1.145-.148 7.848 7.848 0 0 1 2.277.178 4.42 4.42 0 0 1 1.8.806c.142.115.3.207.442.326a2.213 2.213 0 0 1 .4.413 5.833 5.833 0 0 1 .842 1.755 2.543 2.543 0 0 1 .08.571 6.24 6.24 0 0 1-.19 2.091 13.31 13.31 0 0 1-.59 1.405 9.486 9.486 0 0 1-.545 1.091 8.071 8.071 0 0 1-.765 1.028 13.765 13.765 0 0 1-1.022 1.054 7.6 7.6 0 0 1-1.64 1.112c-.2.105-.4.207-.587.326a15.491 15.491 0 0 1-2.209 1.111c-.976.413-1.935.865-2.908 1.284a12.75 12.75 0 0 1-2.246.681 15.316 15.316 0 0 1-2.211.26c-.67.052-1.339.135-2.01.166a16.706 16.706 0 0 1-1.8 0 17.065 17.065 0 0 1-2.072-.23c-1.09-.2-2.176-.438-3.25-.714-.6-.154-1.166-.422-1.751-.631-.285-.1-.585-.169-.864-.284-.876-.36-1.737-.761-2.622-1.1-1.8-.686-3.505-1.592-5.264-2.374-.79-.351-1.6-.666-2.423-1.008a1.173 1.173 0 0 0 0 .193c.21 1.12.417 2.241.636 3.359.16.819.326 1.637.508 2.452a13.716 13.716 0 0 0 .961 2.924 5.057 5.057 0 0 0 1.269 1.633c.444.388.89.776 1.361 1.128a6.763 6.763 0 0 0 2.857 1.245 25.874 25.874 0 0 0 2.7.328.985.985 0 0 0 .111 0 5.1 5.1 0 0 1 3.3-2.269 6.235 6.235 0 0 1 3.458.255 2.152 2.152 0 0 1 .477.2 4.149 4.149 0 0 0 1.878.552c.637.07 1.275.139 1.91.225a4.536 4.536 0 0 1 1.975.844 8.5 8.5 0 0 1 1.779 1.746 3.58 3.58 0 0 1 .748 1.422 4.578 4.578 0 0 0 .189.516 12.992 12.992 0 0 1 .629 2.86 20.136 20.136 0 0 1 .1 4.117c-.053.609-.073 1.221-.143 1.828a23.725 23.725 0 0 1-.838 3.976c-.276.938-.614 1.857-.932 2.782-.146.424-.294.849-.476 1.259a11.6 11.6 0 0 1-1.535 2.738 9.974 9.974 0 0 1-3.806 3.046 11.007 11.007 0 0 1-3.188.8c-.476.048-.955.059-1.432.09-.1.006-.2.025-.3.038zm6.25-46.29c-.076-.449-.146-.838-.2-1.23-.019-.129.009-.265-.015-.393-.13-.7-.3-1.394-.4-2.1a38.865 38.865 0 0 0-.934-4.205c-.167-.652-.353-1.3-.522-1.949-.215-.828-.408-1.662-.636-2.486-.2-.715-.421-1.425-.654-2.129-.2-.609-.417-1.214-.656-1.809-.293-.727-.639-1.434-.925-2.164a17.838 17.838 0 0 0-1.11-2.245c-.606-1.074-1.243-2.131-1.843-3.208a32.025 32.025 0 0 0-2.392-3.8 23.911 23.911 0 0 0-1.763-2.152 1.322 1.322 0 0 0-.669-.4 5.162 5.162 0 0 1-.609-.2 22.344 22.344 0 0 0-2.744-.938c-.407-.093-.82-.171-1.216-.3-.717-.232-1.425-.492-2.133-.749-.564-.2-1.12-.433-1.686-.631-1.077-.378-2.169-.717-3.238-1.118-1.9-.713-3.779-1.473-5.676-2.188-1.516-.572-3.05-1.1-4.569-1.659a66.962 66.962 0 0 0-6.318-2.006 48.952 48.952 0 0 1-5.127-1.61 3.071 3.071 0 0 0-.79-.226 3.411 3.411 0 0 0-.849.071 17.04 17.04 0 0 0-2.608.656 33.132 33.132 0 0 0-8.513 4.37c-.488.351-.969.714-1.436 1.093-.752.61-1.523 1.2-2.227 1.864-1.046.985-2.04 2.026-3.059 3.039a27.192 27.192 0 0 0-2.575 3.065q-.622.833-1.2 1.7c-.334.5-.661 1.007-.948 1.535a68.9 68.9 0 0 0-1.4 2.716 182.522 182.522 0 0 0-1.574 3.279 17.382 17.382 0 0 0-.733 1.679 76.286 76.286 0 0 0-1 3.15c-.232.782-.444 1.57-.626 2.365a13.266 13.266 0 0 1-.372 1.509c-.11.31-.176.636-.272.993l.58-.088c.785-.116 1.571-.228 2.356-.349a14.07 14.07 0 0 1 2.4-.175c.692.013 1.383.073 2.075.093a15.968 15.968 0 0 1 2.572.328c.619.12 1.237.255 1.843.428.635.181 1.265.388 1.878.631s1.225.553 1.838.831c.963.438 1.935.858 2.889 1.314 1.591.76 3.193 1.493 4.851 2.094a11.7 11.7 0 0 0 2.838.706c.657.065 1.317.123 1.977.136a15.654 15.654 0 0 0 1.982-.065 14.18 14.18 0 0 0 2.868-.722c.464-.152.927-.306 1.386-.475.743-.273 1.488-.544 2.221-.844.525-.214 1.027-.485 1.549-.707a11.389 11.389 0 0 1 1.119-.4 4.479 4.479 0 0 1 1.093-.306 3.249 3.249 0 0 0 .83-.288c.739-.261 1.474-.535 2.222-.768a.863.863 0 0 0 .472-.34c.544-.737 1.079-1.481 1.644-2.2q1.148-1.465 2.338-2.9a11.042 11.042 0 0 1 .947-.993 7.024 7.024 0 0 1 .77-.594 10.417 10.417 0 0 1 1.614-1.087c.175-.08.344-.176.514-.268a2.671 2.671 0 0 1 2.026-.336 2.126 2.126 0 0 1 1.409 1.037 2.281 2.281 0 0 1 .185 1.691 8.071 8.071 0 0 1-.464 1.358c-.542 1.208-1.115 2.4-1.675 3.6-.031.067-.051.139-.078.214.152.035.27.067.389.09a13.091 13.091 0 0 1 3.7 1.214c1 .527 2.031 1 3.027 1.529 1.04.557 2.058 1.156 3.081 1.743.511.293 1.008.614 1.523.9.783.433 1.57.861 2.37 1.262a17.726 17.726 0 0 0 1.73.766c.666.249 1.347.461 2.032.651a8.968 8.968 0 0 0 1.435.282 12.654 12.654 0 0 0 3.318-.119c.167-.026.337-.042.541-.067m-33.7-5.72-.044-.038-.311.114-2.035.75c-.526.19-1.063.354-1.583.559-.71.281-1.4.6-2.111.886-1.326.527-2.678.98-4.045 1.386a10.7 10.7 0 0 1-1.911.4 17.7 17.7 0 0 1-2.775.061 16.3 16.3 0 0 1-1.67-.162 22.289 22.289 0 0 1-5.282-1.691c-.823-.351-1.621-.763-2.434-1.139-.5-.231-1.008-.441-1.507-.672-.906-.42-1.806-.852-2.711-1.272a16.373 16.373 0 0 0-3.481-1.125 21.847 21.847 0 0 0-2.168-.354c-.779-.086-1.565-.1-2.347-.161a14.576 14.576 0 0 0-2.952.158c-.676.085-1.349.189-2.021.3-.852.144-1.716.254-2.549.472-1.17.307-2.321.691-3.474 1.061a13.906 13.906 0 0 0-3.092 1.378c-.806.5-1.6 1.019-2.4 1.533a5.963 5.963 0 0 0-.91.617 7.91 7.91 0 0 0-1.454 1.766 31.13 31.13 0 0 0-1.094 2.117 6.814 6.814 0 0 0-.566 1.738 1.273 1.273 0 0 0-.012.572 10.112 10.112 0 0 0 .458 1.13.89.89 0 0 0 .251.3c.237.193.486.371.732.552a4.844 4.844 0 0 0 2.46.828 7.07 7.07 0 0 0 1.491-.084 14.325 14.325 0 0 0 2.5-.573 102.7 102.7 0 0 0 2.824-.89c.967-.322 1.958-.551 2.942-.812 1.4-.371 2.82-.631 4.245-.865.743-.122 1.5-.182 2.244-.269.374-.044.748-.083 1.121-.132s.722-.137 1.086-.156a14.762 14.762 0 0 1 2.744.122 11.182 11.182 0 0 1 2.48.627c1.132.43 2.237.931 3.347 1.416a56.91 56.91 0 0 1 2.33 1.068 36.486 36.486 0 0 0 3.3 1.443 21.936 21.936 0 0 0 2.152.675 15.242 15.242 0 0 0 4.842.469c.712-.044 1.426-.068 2.134-.147a5.817 5.817 0 0 0 1.58-.327c.743-.3 1.5-.568 2.253-.854a1.041 1.041 0 0 0 .742-.7 1.019 1.019 0 0 1 .083-.163c.231-.5.463-.991.691-1.488.151-.329.285-.667.447-.991.181-.362.387-.711.58-1.067.174-.322.337-.651.517-.97.446-.789.9-1.573 1.351-2.359.1-.176.193-.357.3-.53.261-.424.557-.83.786-1.27.48-.922 1.04-1.794 1.6-2.667.12-.187.221-.385.33-.578m9.811-1.183a98.968 98.968 0 0 0-5.481 10.118 23.193 23.193 0 0 1 3.375-.086 11.291 11.291 0 0 1 2.769.418c.706.229 1.413.463 2.1.738.879.351 1.742.741 2.609 1.123.8.353 1.607.7 2.392 1.083 1.088.536 2.183 1.051 3.316 1.487.475.182.945.378 1.416.57.6.246 1.2.5 1.808.742q.833.342 1.668.681a6 6 0 0 0 1.539.485 23.711 23.711 0 0 1 2.552.464 12.835 12.835 0 0 0 1.685.28 9.652 9.652 0 0 0 1.493 0 85.808 85.808 0 0 0 3.2-.254 11.3 11.3 0 0 0 3.563-1.027c.361-.165.709-.358 1.072-.517.485-.212.985-.389 1.467-.607a14.888 14.888 0 0 0 1.612-.8c.643-.391 1.247-.848 1.863-1.282a6.01 6.01 0 0 0 1.573-1.511c.392-.581.728-1.2 1.075-1.81a1.676 1.676 0 0 0 .216-.567 14.874 14.874 0 0 0 .16-1.577 1.934 1.934 0 0 0-.2-1.01c-.214-.393-.446-.777-.65-1.174a1.229 1.229 0 0 0-.669-.548 5.469 5.469 0 0 0-1.267-.328 7.054 7.054 0 0 0-3.952.448c-.527.217-1.059.424-1.592.626-1.132.429-2.265.859-3.4 1.275-.583.213-1.171.42-1.767.591a15.333 15.333 0 0 1-3.976.594 9.534 9.534 0 0 1-1.946-.128 19.514 19.514 0 0 1-1.221-.266 15.937 15.937 0 0 1-2.746-.928c-.858-.4-1.7-.831-2.531-1.293-1.423-.8-2.826-1.628-4.239-2.441q-2.067-1.19-4.21-2.236a13.04 13.04 0 0 0-4.676-1.335m-16.725 35c.078.2.147.395.225.581a.484.484 0 0 0 .621.3 2.044 2.044 0 0 0 .98-.539c.275-.284.517-.6.765-.906a8.845 8.845 0 0 0 1.111-2.04 16.4 16.4 0 0 0 .6-1.944 2.624 2.624 0 0 0 .1-.508 22.428 22.428 0 0 0 .143-2.773 8.6 8.6 0 0 0-.266-1.964 4.412 4.412 0 0 1-.154-1.778 7.008 7.008 0 0 1 .272-1.19c.188-.58.42-1.147.632-1.719.244-.658.521-1.307.717-1.979.134-.462.373-.869.543-1.31.163-.425.4-.822.583-1.239.227-.511.418-1.037.655-1.543.313-.671.657-1.328.983-1.992.075-.153.125-.318.2-.469s.194-.31.273-.473c.288-.593.569-1.191.852-1.786l.822-1.728c.145-.3.287-.607.442-.9.226-.433.467-.857.691-1.29s.437-.894.669-1.334c.28-.529.575-1.05.865-1.574.167-.3.336-.6.5-.9.285-.516.561-1.036.854-1.548.394-.689.812-1.364 1.195-2.058.329-.6.631-1.209.931-1.82.26-.529.51-1.064.746-1.6s.465-1.086.661-1.642a3.551 3.551 0 0 0 .171-.894.433.433 0 0 0-.467-.516 2.214 2.214 0 0 0-.721.09 6.034 6.034 0 0 0-.959.4 10.935 10.935 0 0 0-3.414 2.876c-1.052 1.284-2.031 2.629-3.037 3.952-.766 1.008-1.418 2.092-2.08 3.168-.395.641-.744 1.31-1.129 1.958q-1.211 2.037-2.438 4.064c-.6.986-1.1 2.021-1.615 3.051-.686 1.378-1.345 2.768-2.033 4.144-.88 1.759-1.762 3.516-2.5 5.342a7.076 7.076 0 0 1-.673 1.433.856.856 0 0 1-.971.374 1.578 1.578 0 0 0-.416-.05 9.722 9.722 0 0 0-2.72.536 7.941 7.941 0 0 0-2.268 1.115 2.089 2.089 0 0 0-.8.824.375.375 0 0 0 .131.509 1.4 1.4 0 0 0 .491.237 5.652 5.652 0 0 0 1.178.115c.63-.027 1.257-.119 1.884-.186a.643.643 0 0 1 .413.044 3.943 3.943 0 0 0 .562.226.488.488 0 0 1 .324.574 13.97 13.97 0 0 1-.722 1.748c-.379.7-.842 1.347-1.281 2.009a8.024 8.024 0 0 0-1.038 1.83 2.46 2.46 0 0 0-.133 1.2c.109.639.443.81 1.089.571a1.093 1.093 0 0 0 .135-.073 4.535 4.535 0 0 0 .994-.754 21.1 21.1 0 0 0 2.465-3.058c.088-.125.158-.261.236-.393a1.27 1.27 0 0 1 .579-.564.41.41 0 0 1 .576.142 1 1 0 0 1 .14 1.027c-.069.124-.106.268-.184.386-.339.509-.658 1.035-1.042 1.508a3.265 3.265 0 0 0-.724 1.421c-.03.149-.086.294-.115.443a2.527 2.527 0 0 0-.075 1.178c.105.389.308.526.675.383a6.066 6.066 0 0 0 .983-.485 4.791 4.791 0 0 0 1.231-1.179 3.581 3.581 0 0 0 .477-.84 13.5 13.5 0 0 1 .88-1.8.744.744 0 0 1 .912-.434 3.14 3.14 0 0 1 .287.352.984.984 0 0 1 0 .989 12.029 12.029 0 0 1-1.473 2.7M30.328 33.673c-.035-.023-.05-.041-.067-.043a9.168 9.168 0 0 1-2.451-.729 3.646 3.646 0 0 1-1.124-.718c-.309-.31-.63-.608-.964-.891a7.992 7.992 0 0 1-1.855-2.368 14.134 14.134 0 0 1-1.306-3.823 20.31 20.31 0 0 1-.371-2.842c-.045-.689-.07-1.379-.1-2.069-.018-.448-.021-.9-.035-1.345a14.781 14.781 0 0 1 .172-3.134 5.035 5.035 0 0 1 .211-.731.388.388 0 0 1 .165-.163c.318-.2.652-.378.957-.6.953-.681 1.895-1.379 2.844-2.066a10.788 10.788 0 0 0 1.635-1.458 6.264 6.264 0 0 0 .7-.96 2.029 2.029 0 0 0 .319-1.368c-.064-.454-.221-.615-.684-.666a1.3 1.3 0 0 0-.274 0 4.5 4.5 0 0 0-1.749.607c-.541.306-1.066.639-1.593.969a.942.942 0 0 1-.49.145c-.156 0-.41-.151-.43-.286a2.039 2.039 0 0 1-.043-.689 16.354 16.354 0 0 0 .153-1.944c.054-.607.02-1.221.047-1.831a9.211 9.211 0 0 0-.173-2.279 4.272 4.272 0 0 0-.328-.917c-.138-.3-.354-.328-.626-.149a1.672 1.672 0 0 0-.832 1.218 2.221 2.221 0 0 1-.069.266 10.256 10.256 0 0 0-.29 1.93c-.037.63-.093 1.26-.174 1.886a.918.918 0 0 1-.755.918c-.343.064-.712-.063-.748-.467a5.715 5.715 0 0 1-.034-.818c.027-.488.115-.975.119-1.462a9.717 9.717 0 0 0-.226-2.277 2.567 2.567 0 0 0-.459-1.028.921.921 0 0 0-.966-.386 1.112 1.112 0 0 0-.659.466 3.443 3.443 0 0 0-.621 1.481 15.42 15.42 0 0 0-.179 2.682c0 .53 0 1.061.029 1.591a.685.685 0 0 1-.564.806.7.7 0 0 1-.805-.5 3.413 3.413 0 0 1-.107-.688c-.015-.191.02-.386.01-.578a14.365 14.365 0 0 1 .074-2.3c-.057-.048-.14-.109-.212-.18a.892.892 0 0 0-1.6.25 4.42 4.42 0 0 0-.436 1.922c-.014.961.1 1.913.172 2.868a14.982 14.982 0 0 0 .5 3.008 5.094 5.094 0 0 0 .745 1.6 15.764 15.764 0 0 0 1.04 1.2.857.857 0 0 0 .243.182c.288.149.581.29.873.432a.55.55 0 0 1 .352.6c-.068.689-.125 1.379-.183 2.069-.053.63-.131 1.259-.147 1.889a30.507 30.507 0 0 0 .139 4.183c.084.748.2 1.495.347 2.232.156.778.36 1.546.561 2.315a17.964 17.964 0 0 0 .892 2.791 4.744 4.744 0 0 0 .8 1.3c.57.624 1.182 1.209 1.766 1.82a7.032 7.032 0 0 0 2.946 1.739 20.335 20.335 0 0 0 4.1.889c.03-.048.08-.122.123-.2l.6-1.1a2.877 2.877 0 0 0 .257-.45 8.223 8.223 0 0 1 .762-1.594 1.213 1.213 0 0 0 .065-.154m40.948 30.7c-.192.407-.395.817-.578 1.235a.648.648 0 0 0-.018.329c.052.383.12.765.176 1.148.192 1.309.36 2.623.58 3.927a19.781 19.781 0 0 0 .788 3.478q.41 1.132.857 2.252c.227.566.479 1.123.73 1.679.188.417.379.834.592 1.238.333.629.7 1.24 1.026 1.871a6.124 6.124 0 0 0 1.664 2.007 13.744 13.744 0 0 0 3.835 2.113 19.632 19.632 0 0 0 2.95.777.38.38 0 0 0 .341-.072c.236-.194.478-.382.7-.593a7.14 7.14 0 0 0 1.39-2.034 7.845 7.845 0 0 0 .354-.84c.072-.2.1-.415.162-.616a4.743 4.743 0 0 0 .182-1.171 1.465 1.465 0 0 0-.14-.92c-.19-.3-.38-.6-.582-.9a.719.719 0 0 0-.225-.19c-.366-.221-.747-.418-1.1-.655a12.635 12.635 0 0 1-1.634-1.375 7.074 7.074 0 0 1-2-3.23 30.891 30.891 0 0 1-.7-3.091c-.191-1.07-.408-2.136-.615-3.2a11.342 11.342 0 0 1-.3-2.393c-.085-.04-.166-.08-.248-.115a11.857 11.857 0 0 0-4.374-.873 23.6 23.6 0 0 0-2.714.133c-.355.029-.71.052-1.1.081m1.031-52.022c.172.077.305.129.431.194.488.253 1 .474 1.456.773a6.067 6.067 0 0 1 2.148 2.533 8.006 8.006 0 0 1 .64 2.377 10.753 10.753 0 0 1 0 3.2 9.522 9.522 0 0 1-.738 2.54 90.154 90.154 0 0 0 6.432 2.178c.033-.14.053-.237.077-.333a19.3 19.3 0 0 0 .608-2.522c.027-.24.11-.473.15-.713a8.862 8.862 0 0 0 .116-.907c.036-.6.072-1.2.069-1.8 0-.814-.019-1.63-.077-2.442-.054-.751-.163-1.5-.266-2.244-.135-.977-.255-1.956-.484-2.919a21.224 21.224 0 0 0-1.167-3.627.753.753 0 0 0-.144-.228c-.237-.238-.5-.453-.722-.7a4.074 4.074 0 0 0-1.524-.997c-.514-.217-1.063-.351-1.6-.525a.433.433 0 0 0-.379.046 7.381 7.381 0 0 0-1.958 1.6c-.586.705-1.145 1.434-1.749 2.123a9.842 9.842 0 0 0-1.315 2.4M26.444 91.188l.064.023a2.6 2.6 0 0 0 .321-.275c.27-.317.548-.631.786-.972a4.691 4.691 0 0 0 .8-1.8 5.393 5.393 0 0 0-.457-3.331 8.983 8.983 0 0 0-1.33-1.968q-.273-.329-.568-.639a9.343 9.343 0 0 0-1.432-1.138 4.68 4.68 0 0 0-2.378-.873 4.046 4.046 0 0 0-1.9.353 1.3 1.3 0 0 0-.554.3c.072.068.127.129.191.178.428.328.856.655 1.287.978a1.713 1.713 0 0 1 .578.691c.211.478.012.812-.5.761a2.408 2.408 0 0 1-1.177-.475 11.4 11.4 0 0 1-1.766-1.5c-.038-.042-.083-.078-.12-.112a15.841 15.841 0 0 1-3.56 2.733c.031.088.061.182.1.275.1.276.2.557.32.827a12.583 12.583 0 0 0 1.164 2.351c.326.454.677.892 1.036 1.321.417.5.838 1 1.286 1.468.286.3.634.543.936.83.745.71 1.5 1.408 2.305 2.05a6.536 6.536 0 0 1 1.885 2.288c.063.131.12.265.18.4a6.431 6.431 0 0 0 .428-1.127 24.507 24.507 0 0 0 .524-2.654c.1-.671.232-1.339.353-2.008.036-.2.086-.4.124-.6.073-.39.141-.781.214-1.17a.814.814 0 0 1 .061-.139c.09-.226.318-.176.481-.256.07.072.133.188.192.186.162-.006.193.114.221.2a1.46 1.46 0 0 1 .078.477c-.02.56-.055 1.119-.093 1.678-.015.221-.051.442-.078.662m74.323-12.3c.048.1.069.149.1.2a9.214 9.214 0 0 1 1.113 2.534 2.671 2.671 0 0 1 .038 1.331.944.944 0 0 1-.611.707.582.582 0 0 1-.79-.4 4.856 4.856 0 0 1-.081-.6 7.206 7.206 0 0 0-.54-2.31 4.252 4.252 0 0 0-1.835-2.1 4.522 4.522 0 0 0-3.312-.457 4.465 4.465 0 0 0-1.963 1.077 1.724 1.724 0 0 0-.136.161c.386-.041.738-.084 1.091-.114a4.487 4.487 0 0 1 .818-.036 10.841 10.841 0 0 1 1.911.377.918.918 0 0 1 .333.144 6.175 6.175 0 0 1 .811.738 4.091 4.091 0 0 1 .843 3.836 5.847 5.847 0 0 1-.349.845 2.654 2.654 0 0 1-.577.923c-.126.118-.227.261-.344.389a.912.912 0 0 1-.161.135c-.185.125-.378.238-.557.37a4.183 4.183 0 0 1-1.6.738 7.671 7.671 0 0 0-1.256.237 1.3 1.3 0 0 1-.424.038c-.346.012-.694.007-1.039.032-.373.027-.743.08-1.121.122-.006.086-.015.146-.013.206a.4.4 0 0 0 .027.15 2.318 2.318 0 0 0 1.128 1.193 3.865 3.865 0 0 0 1.779.328 5.069 5.069 0 0 0 1.9-.407 9.134 9.134 0 0 0 2.718-1.843c.249-.239.465-.513.694-.773a.921.921 0 0 1 .63-.264.4.4 0 0 1 .413.188c.017.025.078.018.118.027s.078.005.1.026a.557.557 0 0 1 .112.765 4.353 4.353 0 0 1-.4.537 9.43 9.43 0 0 1-3.944 2.64 7.1 7.1 0 0 1-3.368.366c-.13-.018-.258-.041-.367-.058l-.23 1.525c.194.014.405.033.616.045.447.025.9.012 1.341.074.867.122 1.735.252 2.59.437a12.13 12.13 0 0 1 2.329.911 6.384 6.384 0 0 1 1.927 1.27c.2.2.385.41.614.655.111-.249.223-.454.3-.673.249-.743.52-1.481.717-2.239.256-.984.583-1.947.793-2.946a11.815 11.815 0 0 0 .252-2.167c.021-.934-.047-1.87-.1-2.8a13.537 13.537 0 0 0-.359-2.44 6 6 0 0 0-1.38-2.846 2.971 2.971 0 0 0-1.3-.8M45.69 67.601c-.6-.273-1.136-.514-1.671-.763-.747-.348-1.437-.8-2.207-1.114-.944-.38-1.865-.818-2.8-1.224-.249-.108-.509-.192-.763-.287a1.51 1.51 0 0 1-.52.73c-.684.626-1.385 1.236-2.043 1.889-.781.775-1.531 1.582-2.283 2.386-1.103 1.183-2.203 2.383-3.303 3.57-.122.132-.23.276-.361.434.1.03.163.054.231.07a6.473 6.473 0 0 1 2.721 1.456 15.011 15.011 0 0 1 2.791 3.142c.055.083.117.162.22.3a.974.974 0 0 1 .089-.167c.707-.815 1.41-1.633 2.127-2.44.452-.509.928-1 1.39-1.5q.425-.46.839-.93c.27-.306.532-.617.8-.926.178-.206.345-.423.538-.614.563-.557 1.138-1.1 1.706-1.653.262-.254.518-.513.783-.763.414-.392.833-.779 1.249-1.168l.466-.435M82.676 8.413c.29.736.574 1.39.805 2.062a18.012 18.012 0 0 1 .79 3.135c.148.966.307 1.931.43 2.9a20.2 20.2 0 0 1 .166 2.038c.019.753-.035 1.508-.043 2.262a12.34 12.34 0 0 1-.224 2.031c-.189 1.062-.522 2.094-.663 3.166a4.767 4.767 0 0 1-.112.474 1.031 1.031 0 0 0 .13.059c.923.251 1.85.489 2.769.753.685.2 1.36.427 2.042.637a3.029 3.029 0 0 0 .5.121c.293.038.588.057.883.078.129.009.258 0 .395 0a3.826 3.826 0 0 0 .07-.45 18.132 18.132 0 0 0 .055-2.2c-.093-1.076-.14-2.156-.238-3.231a27.242 27.242 0 0 0-.414-2.78 16.131 16.131 0 0 0-1.817-4.903c-.457-.8-1.021-1.546-1.539-2.316a11.317 11.317 0 0 0-2.8-3c-.379-.269-.761-.535-1.184-.832m18.243 88.225c-.212-.2-.417-.4-.626-.586a8.389 8.389 0 0 0-1.931-1.22 9.821 9.821 0 0 0-2.7-.946c-.74-.132-1.493-.2-2.242-.278a8.977 8.977 0 0 0-1.829-.034 2.576 2.576 0 0 0-1.049.308 4.351 4.351 0 0 0-2.118 2.861 3.164 3.164 0 0 0-.04 1.543 8.08 8.08 0 0 0 .856 2.183 2.733 2.733 0 0 0 .8.869 4.668 4.668 0 0 0 1.286.545 7.209 7.209 0 0 0 3.408.207 6.97 6.97 0 0 0 3.119-1.385 11.521 11.521 0 0 0 2.317-2.586 7.959 7.959 0 0 0 .748-1.482M76.2 5.817a13.808 13.808 0 0 0-2.13-.416 8.6 8.6 0 0 0-1.4.027q-.794.034-1.586.09a1.135 1.135 0 0 0-.319.089c-.38.147-.751.318-1.137.446a16.3 16.3 0 0 0-3.97 1.862 22.752 22.752 0 0 0-3.744 3.039 32.049 32.049 0 0 0-2.269 2.684 15.289 15.289 0 0 0-1.237 1.818c-.389.68-.786 1.356-1.186 2.047.036.03.077.088.129.1.918.261 1.837.516 2.74.769a.471.471 0 0 0 .063-.073c.02-.046.036-.1.055-.142a8.89 8.89 0 0 1 1.885-3.1 11.337 11.337 0 0 1 1.474-1.37 10.429 10.429 0 0 1 1.668-1.055 9.128 9.128 0 0 1 2.318-.743 7.82 7.82 0 0 1 2.1-.105c.484.053.966.127 1.471.2.113-.238.23-.5.358-.748a10.653 10.653 0 0 1 1.246-1.945c.478-.582.981-1.143 1.478-1.709a8.943 8.943 0 0 1 1.466-1.381l.532-.379M29.8 85.09l5.1-6.03c-.2-.263-.37-.516-.568-.747q-.506-.59-1.039-1.157a17.7 17.7 0 0 0-2.3-2.1 5.451 5.451 0 0 0-2.1-.9l-4.532 5.27c.124.07.207.124.3.167a9.421 9.421 0 0 1 2.22 1.549c.461.416.881.877 1.323 1.315a6.239 6.239 0 0 1 1.487 2.426 1.635 1.635 0 0 0 .108.2m58.443-5.253a.615.615 0 0 0 0 .12 5.682 5.682 0 0 1 0 2.065 8.847 8.847 0 0 1-.521 1.722 6.54 6.54 0 0 1-1.791 2.7c-.058.051-.108.112-.175.182a.536.536 0 0 0 .108.034c.916.034 1.832.1 2.748.092a27.154 27.154 0 0 0 3.4-.279c.312-.042.629-.069.935-.139a6.369 6.369 0 0 0 1.408-.23c.035-.016.082 0 .121-.015a2.131 2.131 0 0 0 .4-.13c.44-.233.864-.5 1.31-.714a1.3 1.3 0 0 0 .645-.617 3.478 3.478 0 0 0-.333-3.875.712.712 0 0 0-.337-.238c-.4-.118-.808-.207-1.213-.3a1.057 1.057 0 0 0-.27-.038c-.524.015-1.049.056-1.573.051a31.454 31.454 0 0 1-2.257-.082c-.861-.071-1.718-.2-2.6-.3m1.723 22.969a2.991 2.991 0 0 0 1.479 1.318 9.019 9.019 0 0 0 2.9.708 13.019 13.019 0 0 0 3.346-.172 9.14 9.14 0 0 0 2.525-.891 7.283 7.283 0 0 0 1.6-1.214 9.319 9.319 0 0 0 1.946-2.644c.157-.319.292-.65.422-.981a22.6 22.6 0 0 0 1.05-2.964c.123-.515.275-1.024.427-1.531a20.4 20.4 0 0 0 .658-3.222c.06-.464.132-.926.18-1.391.036-.344.037-.691.06-1.036.017-.263.067-.526.061-.788-.011-.55-.047-1.1-.077-1.648a8.067 8.067 0 0 0-.074-1.006 27.677 27.677 0 0 0-.431-2 6.475 6.475 0 0 0-1.341-2.617c-.06-.07-.127-.134-.191-.2a.362.362 0 0 0 .022.23c.12.325.268.643.354.976a12.823 12.823 0 0 1 .426 2.8 28.006 28.006 0 0 1-.049 3.576 12.9 12.9 0 0 1-.446 2.525c-.316 1.044-.622 2.092-.957 3.13-.241.746-.485 1.495-.8 2.213-.265.614-.661 1.171-.936 1.781a13.558 13.558 0 0 1-1.721 2.4 4.208 4.208 0 0 1-.353.423 9.918 9.918 0 0 1-3.6 2.317 8.441 8.441 0 0 1-1.965.44 8.245 8.245 0 0 1-3.688-.281c-.268-.087-.539-.165-.834-.255m2.289-74.52c.273.021.558.024.836.069a20.731 20.731 0 0 0 4.323.14 10.438 10.438 0 0 0 3.511-.844 1.48 1.48 0 0 0 .718-.6.627.627 0 0 0 .076-.552 1.633 1.633 0 0 0-.462-.707 8.8 8.8 0 0 0-1.466-1.089 16.96 16.96 0 0 0-2.879-1.181c-.876-.326-1.79-.549-2.686-.823a18.462 18.462 0 0 1-2.35-.763c-.01 0-.031.016-.055.029.108.833.226 1.668.321 2.505.079.687.16 1.376.185 2.066.02.567-.04 1.137-.067 1.75M4.685 76.426l.008.046a.728.728 0 0 0 .108.013 7.019 7.019 0 0 1 2.621.524 3.4 3.4 0 0 1 1.516 1.042c.254.317.483.654.74.969a7.557 7.557 0 0 1 1.368 2.844c.264.961.46 1.942.66 2.92a11.725 11.725 0 0 0 1.752 4.172 11.858 11.858 0 0 0 2.574 2.68c.82.652 1.68 1.253 2.519 1.881.488.366.988.719 1.45 1.116s.859.811 1.274 1.232a4.908 4.908 0 0 1 1.293 2.151c0 .009.029.012.063.024a4.1 4.1 0 0 1 .264-.575.554.554 0 0 0 .058-.464 3.692 3.692 0 0 0-.148-.5 4.814 4.814 0 0 0-1.323-1.8c-.452-.409-.933-.786-1.391-1.188a190.505 190.505 0 0 1-1.957-1.747c-.325-.293-.658-.58-.956-.9a26.41 26.41 0 0 1-1.131-1.321 7.508 7.508 0 0 1-1.1-1.679c-.057-.13-.129-.254-.191-.382-.283-.585-.584-1.163-.842-1.76-.193-.448-.3-.931-.5-1.38-.4-.939-.7-1.913-1.006-2.882a7.308 7.308 0 0 0-1.287-2.509q-.7-.846-1.424-1.677a3.869 3.869 0 0 0-1.763-1.165 2.7 2.7 0 0 0-.657-.116 7.669 7.669 0 0 0-2.288.337c-.1.025-.2.064-.3.1m70.938-58.115c.005-.07.012-.109.011-.148a5.266 5.266 0 0 0-.261-1.345 4.719 4.719 0 0 0-1.982-2.775 7.975 7.975 0 0 0-2.495-1.064 6.9 6.9 0 0 0-2.94-.087 8.82 8.82 0 0 0-4.337 2.19 1.553 1.553 0 0 0-.127.159c.579.04 1.116.073 1.652.116.343.028.687.06 1.028.111.5.076 1 .165 1.5.26.569.109 1.143.2 1.7.353.657.176 1.3.4 1.949.613 1.3.427 2.583.875 3.836 1.418l.461.2M7.578 74.924a5.128 5.128 0 0 1 1.53.387 2.831 2.831 0 0 1 1.261.818c.081.1.167.2.254.3.467.525.945 1.041 1.4 1.575a6.166 6.166 0 0 1 1.106 1.781q.4 1.04.79 2.085c.141.379.269.763.412 1.172a3.249 3.249 0 0 0 .329-.2c.671-.531 1.349-1.053 2-1.6a1.449 1.449 0 0 0 .6-1.315 4.21 4.21 0 0 0-.6-1.863 5.6 5.6 0 0 0-1.05-1.265 7.77 7.77 0 0 0-2.8-1.7 7.705 7.705 0 0 0-2.628-.5 32.25 32.25 0 0 0-1.889.125 1.533 1.533 0 0 0-.724.2m-6.08 9.122A9.356 9.356 0 0 0 2.6 87.807c.372-.215.7-.431 1.054-.6 1.122-.554 2.252-1.094 3.379-1.638.421-.2.847-.4 1.266-.607.245-.122.473-.279.72-.4.375-.178.759-.335 1.164-.511a12.326 12.326 0 0 0-1.083-3.35 6.074 6.074 0 0 0-.989.451 8.351 8.351 0 0 1-1.617.849c-1.649.671-3.3 1.345-5 2.043m4.4 7.877a47.09 47.09 0 0 1 5.666-3.645 11.8 11.8 0 0 1-1.139-3.234 94.822 94.822 0 0 1-7.268 3.559 13.683 13.683 0 0 0 2.736 3.323m8.924.47a14.805 14.805 0 0 1-2.806-3.166c-.862.581-1.7 1.153-2.547 1.714s-1.713 1.122-2.579 1.688a.926.926 0 0 0 .112.128c.538.434 1.087.855 1.613 1.3.433.369.845.762 1.253 1.158.232.225.439.476.659.718.217-.23.415-.463.637-.67a12.288 12.288 0 0 1 1.7-1.385c.452-.291.889-.606 1.32-.926.217-.161.408-.358.636-.561m46.321-73.72c.525.148 1.022.286 1.518.428.6.17 1.2.315 1.786.52 1.669.585 3.329 1.195 4.993 1.794.927.334 1.857.663 2.782 1 .726.266 1.446.548 2.171.819.255.1.514.177.781.268.172-.579.425-1.1.545-1.7a4.751 4.751 0 0 1-1.543-.294c-1.541-.528-3.083-1.055-4.619-1.6-1.066-.376-2.123-.778-3.184-1.168-.248-.091-.508-.158-.746-.271a36.326 36.326 0 0 0-3.676-1.43l-.808 1.635M8.559 79.843a7.519 7.519 0 0 0-.859-1.148 2.909 2.909 0 0 0-1.2-.818 3.009 3.009 0 0 0-1.807-.243 15.424 15.424 0 0 0-1.737.47 1.253 1.253 0 0 0-.65.615 8.137 8.137 0 0 0-.421.983 7.187 7.187 0 0 0-.312 1.115c-.089.51-.128 1.03-.181 1.546-.014.136 0 .275 0 .445.376-.13.715-.231 1.042-.364 1.217-.495 2.441-.971 3.624-1.544.459-.222.925-.43 1.393-.629.352-.15.714-.277 1.109-.429m9.885 15.346-2.729-2.087-.362.36c-.2.2-.4.409-.614.6-.567.5-1.155.972-1.711 1.482a5.734 5.734 0 0 0-1.464 1.471c.381.333.783.676 1.177 1.029a5.308 5.308 0 0 0 1.11.854c.305.154.608.314.939.485.026-.04.046-.076.072-.108.727-.919 1.445-1.845 2.187-2.752a3.539 3.539 0 0 1 .758-.7 4.643 4.643 0 0 0 .636-.632m37.73-78.029c.168-.362.315-.708.485-1.042.4-.8.78-1.611 1.242-2.373a11.542 11.542 0 0 1 1.153-1.452 16.451 16.451 0 0 1 1.663-1.746c.476-.415.905-.885 1.392-1.286.628-.518 1.285-1 1.942-1.481.427-.312.878-.592 1.319-.884.163-.107.33-.207.5-.311a1.462 1.462 0 0 0-.446.106 22.02 22.02 0 0 0-4 1.892 19.217 19.217 0 0 0-4.165 3.43c-.357.392-.746.759-1.07 1.176-.625.8-1.216 1.634-1.816 2.457-.2.277-.387.566-.581.851l2.389.664m-36.909 78.7-3.358 4.006c.133.053.224.095.319.125a9.919 9.919 0 0 0 1.958.449 4.143 4.143 0 0 0 2.495-.519 1.044 1.044 0 0 0 .313-.282 1.8 1.8 0 0 0 .029-1.9c-.333-.435-.7-.843-1.074-1.246-.211-.23-.459-.427-.683-.632m56.502-76.174a14.945 14.945 0 0 0-1.832-.847c-.437-.168-.88-.322-1.321-.481-.833-.3-1.656-.636-2.5-.891-.788-.237-1.6-.408-2.4-.573a27.144 27.144 0 0 0-1.988-.32c-.717-.093-1.437-.152-2.156-.224-.091-.009-.184 0-.275 0v.062l.28.1c.468.171.943.324 1.4.517.732.308 1.465.61 2.221.857.628.206 1.249.432 1.871.654.8.287 1.6.585 2.412.865.787.273 1.581.528 2.371.795.327.11.647.24.977.341a2.665 2.665 0 0 0 .626.122c.245.014.306-.054.321-.3.013-.222 0-.445 0-.678m5.4-13.452a2.43 2.43 0 0 0-1.58-1.894 2.768 2.768 0 0 0-2.782.385c.754.233 1.485.438 2.2.687s1.437.547 2.154.823"/>
                <path data-name="パス 687" d="M358.571 241.462c-.2.025-.373.041-.541.067a12.651 12.651 0 0 1-3.318.119 8.959 8.959 0 0 1-1.435-.282c-.685-.19-1.366-.4-2.032-.651a17.752 17.752 0 0 1-1.73-.766c-.8-.4-1.587-.829-2.37-1.263-.516-.285-1.012-.606-1.523-.9-1.024-.587-2.041-1.186-3.081-1.743-1-.533-2.027-1-3.027-1.529a13.089 13.089 0 0 0-3.7-1.214c-.12-.023-.237-.055-.389-.09.027-.075.047-.147.078-.214.56-1.2 1.133-2.394 1.675-3.6a8.068 8.068 0 0 0 .464-1.358 2.281 2.281 0 0 0-.185-1.691 2.126 2.126 0 0 0-1.409-1.037 2.671 2.671 0 0 0-2.026.336c-.169.093-.338.188-.514.268a10.41 10.41 0 0 0-1.617 1.086 7.02 7.02 0 0 0-.77.594 10.989 10.989 0 0 0-.947.993q-1.186 1.434-2.338 2.9c-.565.721-1.1 1.465-1.644 2.2a.863.863 0 0 1-.472.34c-.748.233-1.483.507-2.222.768a3.241 3.241 0 0 1-.83.288 4.476 4.476 0 0 0-1.093.306 11.4 11.4 0 0 0-1.119.4c-.522.222-1.024.492-1.549.707-.733.3-1.478.57-2.221.844-.458.168-.922.323-1.386.475a14.174 14.174 0 0 1-2.868.722 15.641 15.641 0 0 1-1.982.065c-.66-.013-1.32-.071-1.977-.136a11.7 11.7 0 0 1-2.837-.706c-1.658-.6-3.26-1.335-4.851-2.094-.955-.456-1.926-.877-2.889-1.314-.612-.278-1.213-.584-1.837-.831s-1.243-.45-1.878-.631a22.276 22.276 0 0 0-1.843-.428 15.967 15.967 0 0 0-2.572-.328c-.692-.02-1.383-.081-2.075-.093a14.061 14.061 0 0 0-2.4.175c-.785.121-1.571.233-2.356.349l-.58.088c.1-.357.161-.683.272-.993a13.243 13.243 0 0 0 .372-1.509c.182-.795.394-1.583.626-2.365.314-1.056.637-2.11 1-3.15a17.337 17.337 0 0 1 .733-1.68 170.32 170.32 0 0 1 1.574-3.279c.452-.913.918-1.821 1.4-2.716.287-.528.614-1.035.948-1.535q.577-.864 1.2-1.7a27.179 27.179 0 0 1 2.575-3.065c1.019-1.013 2.013-2.055 3.059-3.039.7-.662 1.475-1.255 2.227-1.864.467-.379.947-.742 1.436-1.093a33.13 33.13 0 0 1 8.513-4.37 17.036 17.036 0 0 1 2.608-.656 3.4 3.4 0 0 1 .849-.071 3.07 3.07 0 0 1 .79.226 48.963 48.963 0 0 0 5.127 1.61 66.962 66.962 0 0 1 6.318 2.006c1.52.563 3.053 1.088 4.569 1.659 1.9.715 3.778 1.476 5.676 2.188 1.069.4 2.16.74 3.238 1.118.566.2 1.122.427 1.685.631.709.257 1.416.517 2.133.749.4.128.809.207 1.216.3a22.342 22.342 0 0 1 2.744.938 5.179 5.179 0 0 0 .609.2 1.321 1.321 0 0 1 .669.4 23.973 23.973 0 0 1 1.763 2.151 32.016 32.016 0 0 1 2.392 3.8c.6 1.078 1.237 2.134 1.843 3.208a17.817 17.817 0 0 1 1.1 2.248c.286.73.632 1.436.925 2.164.24.594.455 1.2.656 1.809.233.7.456 1.414.655 2.129.228.824.421 1.658.636 2.486.169.651.355 1.3.522 1.949a38.915 38.915 0 0 1 .934 4.205c.1.7.27 1.4.4 2.1.024.127 0 .264.015.393.059.391.129.781.2 1.23m-52.222-21.394a1.049 1.049 0 0 1-.171-.014c-.4-.11-.8-.233-1.206-.332a7.887 7.887 0 0 1-1.927-.756 4.545 4.545 0 0 1-2.387-2.535 1.156 1.156 0 0 1-.081-.319 4.705 4.705 0 0 1 .036-.609.343.343 0 0 1 .09-.209 6.578 6.578 0 0 0 1.117-1.245.612.612 0 0 0 .128-.353.626.626 0 0 0-.408-.522.538.538 0 0 0-.643.107c-.258.258-.543.489-.81.739-.527.495-1.058.986-1.57 1.5a45.7 45.7 0 0 0-1.307 1.371 1.976 1.976 0 0 0-.537.9c-.05.224 0 .356.221.422a.728.728 0 0 0 .717-.138q.817-.691 1.63-1.386l.191-.16a7.357 7.357 0 0 0 .849 1.548 6.125 6.125 0 0 0 1.9 1.659 10.681 10.681 0 0 0 2.357.993 23.2 23.2 0 0 0 3.9.881c.775.108 1.558.174 2.34.215.568.03 1.14-.014 1.71-.02h1.051a1.873 1.873 0 0 0 .023.406 6.529 6.529 0 0 0 .4 1.148 4.252 4.252 0 0 0 2.1 1.969 7.353 7.353 0 0 0 3.081.673 5.99 5.99 0 0 0 2.127-.352 10.687 10.687 0 0 0 2.23-1.132 6.935 6.935 0 0 0 2.214-2.161c.378-.628.709-1.284 1.052-1.933.128-.24.231-.493.372-.8.406-.121.87-.269 1.34-.4a22.543 22.543 0 0 0 2.4-.818q1.15-.455 2.3-.9c.428-.165.862-.312 1.288-.482a.792.792 0 0 0 .557-.632.528.528 0 0 0-.269-.521 1.213 1.213 0 0 0-.808-.032l-1.137.441c-1.1.426-2.2.859-3.3 1.275a31.931 31.931 0 0 1-3.163 1.027c-.659.173-1.32.343-1.986.487-.586.128-1.18.221-1.771.325-.445.078-.891.149-1.346.225-.023-.346-.04-.65-.066-.953a1.225 1.225 0 0 0-.066-.327 5.823 5.823 0 0 0-1.173-1.811 1.74 1.74 0 0 0-.253-.22 3.323 3.323 0 0 0-2.211-.65 3.8 3.8 0 0 0-2.473 1.131l-.166.154c-.1-.147-.2-.276-.288-.414a2.129 2.129 0 0 0-1.347-.934 4.312 4.312 0 0 0-3.429.562c-.466.291-.9.634-1.341.962a5.6 5.6 0 0 0-2.074 2.943m19.071-11.963c.136.006.205.007.274.012q.366.028.731.059.835.071 1.671.145c.142.013.283.045.425.046.189 0 .351-.139.337-.285a.839.839 0 0 0-.462-.728 2.581 2.581 0 0 0-.7-.207c-.733-.113-1.472-.2-2.206-.3-1.057-.157-2.122-.237-3.178-.411-.9-.149-1.817-.226-2.728-.32-.494-.051-.991-.066-1.486-.11-.4-.036-.8-.1-1.2-.135a158.71 158.71 0 0 0-1.826-.168c-.751-.066-1.5-.144-2.254-.186-.773-.044-1.548-.052-2.322-.073-.438-.012-.876-.041-1.313-.026a15.162 15.162 0 0 1-2.653.013 1.638 1.638 0 0 0-.457.02.416.416 0 0 0-.3.477 1.24 1.24 0 0 1 0 .275.769.769 0 0 0 .66.287.3.3 0 0 1 .091.009 10.528 10.528 0 0 0 1.964.2c.306.008.612 0 .918 0a1.891 1.891 0 0 1 .235.037c-.074.062-.11.095-.149.125a3.81 3.81 0 0 0-.882 1.008 4.549 4.549 0 0 0-.659 2.419 3.656 3.656 0 0 0 .553 2.16 4.635 4.635 0 0 0 2.268 1.739 4.508 4.508 0 0 0 1.955.228 4.266 4.266 0 0 0 2.493-1.049 4.326 4.326 0 0 0 1.357-2.7 4.535 4.535 0 0 0-.245-2.258 3.228 3.228 0 0 0-1.027-1.527c-.011-.008-.005-.037-.009-.074a.917.917 0 0 1 .172-.012c.465.053.93.11 1.395.166a3.618 3.618 0 0 1 .513.068 5.138 5.138 0 0 0 1.33.148 3.948 3.948 0 0 1 .458.013c.364.045.727.1 1.09.156.064.01.127.031.244.061l-.3.182a4.423 4.423 0 0 0-1.845 5.406 3.52 3.52 0 0 0 1.227 1.791 3.322 3.322 0 0 0 2.148.752 1.652 1.652 0 0 1 .392.051 2.917 2.917 0 0 0 1.422-.052 4.55 4.55 0 0 0 1.58-.85 4.024 4.024 0 0 0 1.394-2.005 4.685 4.685 0 0 0-.63-3.922c-.131-.2-.284-.391-.467-.641" transform="translate(-257.161 -181.752)" style="fill:#ffd81f"/>
                <path data-name="パス 688" d="M177.474 579.751c-.11.193-.211.392-.33.578-.56.873-1.119 1.745-1.6 2.667-.23.44-.525.846-.786 1.271-.106.173-.2.354-.3.53l-1.351 2.359c-.18.319-.343.647-.517.97-.192.356-.4.706-.58 1.067-.162.324-.3.661-.447.991-.228.5-.46.992-.69 1.488a1.022 1.022 0 0 0-.083.163 1.041 1.041 0 0 1-.742.7c-.75.286-1.51.551-2.253.854a5.818 5.818 0 0 1-1.58.327c-.708.079-1.422.1-2.134.147a15.244 15.244 0 0 1-4.842-.469 21.94 21.94 0 0 1-2.152-.675 37.798 37.798 0 0 1-3.3-1.443 56.91 56.91 0 0 0-2.33-1.068c-1.11-.485-2.215-.987-3.347-1.416a11.187 11.187 0 0 0-2.48-.627 14.761 14.761 0 0 0-2.744-.122c-.364.019-.724.108-1.086.156s-.747.089-1.121.132c-.748.088-1.5.147-2.244.269-1.425.234-2.846.494-4.245.865-.984.261-1.974.49-2.942.812a102.7 102.7 0 0 1-2.824.89 14.311 14.311 0 0 1-2.5.572 7.064 7.064 0 0 1-1.491.084 4.844 4.844 0 0 1-2.46-.828c-.246-.181-.5-.359-.732-.552a.89.89 0 0 1-.251-.3 10.1 10.1 0 0 1-.458-1.13 1.269 1.269 0 0 1 .012-.572 6.806 6.806 0 0 1 .566-1.738c.34-.717.7-1.428 1.094-2.117a7.9 7.9 0 0 1 1.454-1.766 5.969 5.969 0 0 1 .91-.617c.8-.514 1.589-1.035 2.4-1.533a13.9 13.9 0 0 1 3.092-1.378c1.153-.37 2.3-.754 3.474-1.061.834-.219 1.7-.328 2.549-.472a44.531 44.531 0 0 1 2.021-.3 14.585 14.585 0 0 1 2.952-.158c.782.06 1.568.075 2.347.161a21.857 21.857 0 0 1 2.168.354 16.371 16.371 0 0 1 3.481 1.125c.905.42 1.806.852 2.711 1.272.5.231 1.008.441 1.507.672.813.376 1.61.788 2.434 1.139a22.285 22.285 0 0 0 5.282 1.691 16.26 16.26 0 0 0 1.67.162 17.661 17.661 0 0 0 2.775-.061 10.679 10.679 0 0 0 1.91-.4 47.271 47.271 0 0 0 4.046-1.385c.709-.282 1.4-.605 2.111-.886.52-.206 1.057-.369 1.583-.56.68-.246 1.357-.5 2.035-.75l.311-.114.044.038" transform="translate(-109.759 -525.761)" style="fill:#00d1b8"/>
                <path data-name="パス 689" d="M813.008 591.806a13.04 13.04 0 0 1 4.676 1.335q2.141 1.051 4.21 2.236c1.413.814 2.816 1.646 4.239 2.441.826.462 1.673.893 2.531 1.293a15.933 15.933 0 0 0 2.746.928c.4.1.812.188 1.221.266a9.531 9.531 0 0 0 1.946.128 15.34 15.34 0 0 0 3.976-.594c.6-.171 1.184-.377 1.767-.591 1.137-.416 2.269-.846 3.4-1.275.533-.2 1.065-.409 1.592-.626a7.054 7.054 0 0 1 3.952-.448 5.47 5.47 0 0 1 1.267.328 1.228 1.228 0 0 1 .669.548c.2.4.436.781.65 1.174a1.935 1.935 0 0 1 .2 1.01 14.889 14.889 0 0 1-.16 1.577 1.675 1.675 0 0 1-.216.567c-.347.61-.683 1.229-1.075 1.81a6.01 6.01 0 0 1-1.573 1.511c-.617.434-1.22.891-1.863 1.282a14.894 14.894 0 0 1-1.612.8c-.482.218-.983.395-1.467.607-.363.159-.711.352-1.072.517a11.3 11.3 0 0 1-3.563 1.027 85.302 85.302 0 0 1-3.2.254 9.661 9.661 0 0 1-1.493 0 12.866 12.866 0 0 1-1.684-.28 23.72 23.72 0 0 0-2.552-.464 6 6 0 0 1-1.539-.485q-.835-.337-1.668-.681c-.6-.247-1.2-.5-1.808-.742-.471-.192-.941-.388-1.416-.57-1.132-.435-2.228-.95-3.316-1.487-.785-.387-1.591-.729-2.392-1.083-.866-.382-1.73-.772-2.609-1.123-.689-.275-1.4-.509-2.1-.738a11.3 11.3 0 0 0-2.77-.418 23.189 23.189 0 0 0-3.375.086 98.966 98.966 0 0 1 5.481-10.118" transform="translate(-735.482 -538.999)" style="fill:#00d1b8"/>
                <path data-name="パス 690" d="M580.37 544.086a12.029 12.029 0 0 0 1.473-2.7.984.984 0 0 0 0-.989 3.158 3.158 0 0 0-.287-.352.744.744 0 0 0-.912.434 13.491 13.491 0 0 0-.88 1.8 3.572 3.572 0 0 1-.477.84 4.79 4.79 0 0 1-1.231 1.179 6.081 6.081 0 0 1-.983.485c-.367.143-.57.006-.675-.383a2.527 2.527 0 0 1 .075-1.178c.03-.149.085-.294.115-.443a3.262 3.262 0 0 1 .724-1.421c.384-.473.7-1 1.042-1.508.078-.117.114-.262.184-.386a1 1 0 0 0-.141-1.027.41.41 0 0 0-.576-.142 1.269 1.269 0 0 0-.579.564c-.077.132-.148.269-.236.393a21.11 21.11 0 0 1-2.465 3.058 4.537 4.537 0 0 1-.994.754 1.089 1.089 0 0 1-.135.073c-.646.239-.98.068-1.089-.571a2.459 2.459 0 0 1 .133-1.2 8.019 8.019 0 0 1 1.038-1.83c.438-.662.9-1.313 1.281-2.009a13.994 13.994 0 0 0 .722-1.748.488.488 0 0 0-.324-.574 3.948 3.948 0 0 1-.562-.226.643.643 0 0 0-.413-.044c-.628.068-1.255.159-1.884.186a5.653 5.653 0 0 1-1.178-.116 1.4 1.4 0 0 1-.491-.237.375.375 0 0 1-.131-.509 2.09 2.09 0 0 1 .8-.824 7.94 7.94 0 0 1 2.268-1.115 9.722 9.722 0 0 1 2.72-.536 1.58 1.58 0 0 1 .416.05.856.856 0 0 0 .971-.374 7.076 7.076 0 0 0 .673-1.433c.738-1.826 1.62-3.583 2.5-5.342.689-1.376 1.348-2.767 2.033-4.144.513-1.03 1.018-2.065 1.615-3.051q1.228-2.027 2.438-4.064c.385-.648.735-1.316 1.129-1.958.662-1.076 1.314-2.161 2.08-3.168 1.006-1.322 1.985-2.667 3.037-3.952a10.933 10.933 0 0 1 3.414-2.876 6.032 6.032 0 0 1 .959-.4 2.214 2.214 0 0 1 .721-.09.433.433 0 0 1 .467.516 3.551 3.551 0 0 1-.171.894c-.2.556-.426 1.1-.661 1.642s-.486 1.075-.746 1.6c-.3.612-.6 1.224-.931 1.82-.383.695-.8 1.369-1.195 2.058-.292.512-.569 1.032-.854 1.548-.167.3-.336.6-.5.9-.289.524-.585 1.045-.865 1.574-.232.44-.441.892-.669 1.334s-.466.857-.691 1.29c-.155.3-.3.6-.442.9q-.413.863-.821 1.728c-.283.6-.563 1.193-.852 1.787-.079.163-.191.311-.273.473s-.126.317-.2.469c-.327.665-.67 1.322-.984 1.992-.236.506-.428 1.032-.655 1.543-.185.417-.42.814-.583 1.239-.17.441-.409.849-.543 1.31-.2.672-.473 1.321-.717 1.979-.212.573-.444 1.139-.632 1.719a7.013 7.013 0 0 0-.272 1.19 4.41 4.41 0 0 0 .154 1.778 8.6 8.6 0 0 1 .275 1.963 22.452 22.452 0 0 1-.143 2.773 2.627 2.627 0 0 1-.1.508 16.383 16.383 0 0 1-.6 1.944 8.84 8.84 0 0 1-1.111 2.058c-.247.31-.489.622-.765.906a2.044 2.044 0 0 1-.98.539.484.484 0 0 1-.621-.3c-.078-.187-.147-.378-.225-.581" transform="translate(-519.569 -456.277)" style="fill:#fff"/>
                <path data-name="パス 691" d="M166.831 44.708a1.216 1.216 0 0 1-.065.154 8.219 8.219 0 0 0-.766 1.594 2.869 2.869 0 0 1-.257.45l-.6 1.1c-.043.078-.094.153-.123.2a20.333 20.333 0 0 1-4.1-.889 7.031 7.031 0 0 1-2.946-1.739c-.584-.611-1.2-1.2-1.767-1.82a4.744 4.744 0 0 1-.8-1.3 17.961 17.961 0 0 1-.892-2.791c-.2-.768-.4-1.537-.561-2.314a26.268 26.268 0 0 1-.347-2.232 30.462 30.462 0 0 1-.139-4.183c.016-.631.094-1.26.147-1.889.058-.69.115-1.38.183-2.069a.55.55 0 0 0-.352-.6c-.292-.142-.585-.283-.873-.432a.86.86 0 0 1-.243-.182 15.793 15.793 0 0 1-1.04-1.2 5.092 5.092 0 0 1-.745-1.6 14.977 14.977 0 0 1-.5-3.008c-.074-.955-.186-1.907-.172-2.867a4.421 4.421 0 0 1 .436-1.922.892.892 0 0 1 1.6-.25c.072.071.155.132.212.18a14.37 14.37 0 0 0-.074 2.3c.01.192-.024.387-.01.578a3.412 3.412 0 0 0 .107.688.7.7 0 0 0 .8.5.685.685 0 0 0 .564-.806c-.03-.529-.027-1.06-.029-1.591a15.42 15.42 0 0 1 .179-2.682 3.443 3.443 0 0 1 .621-1.481 1.112 1.112 0 0 1 .659-.466.921.921 0 0 1 .965.386 2.566 2.566 0 0 1 .452 1.028 9.717 9.717 0 0 1 .226 2.276c0 .488-.093.974-.119 1.462a5.7 5.7 0 0 0 .034.818c.036.4.4.531.748.467a.918.918 0 0 0 .756-.916c.081-.626.137-1.256.174-1.886a10.249 10.249 0 0 1 .29-1.93 2.21 2.21 0 0 0 .069-.266 1.672 1.672 0 0 1 .832-1.218c.272-.179.489-.148.626.149a4.267 4.267 0 0 1 .328.917 9.219 9.219 0 0 1 .181 2.274c-.027.61.006 1.224-.047 1.831a16.352 16.352 0 0 1-.151 1.948 2.042 2.042 0 0 0 .043.689c.02.135.274.29.43.286a.942.942 0 0 0 .49-.145c.526-.33 1.052-.664 1.593-.969a4.5 4.5 0 0 1 1.749-.607 1.3 1.3 0 0 1 .274 0c.462.051.62.212.684.666a2.029 2.029 0 0 1-.318 1.368 6.279 6.279 0 0 1-.7.96 10.8 10.8 0 0 1-1.635 1.458c-.949.687-1.89 1.385-2.843 2.066-.305.218-.64.395-.957.6a.389.389 0 0 0-.165.163 5.042 5.042 0 0 0-.211.731 14.77 14.77 0 0 0-.172 3.134c.014.448.017.9.035 1.345.027.69.053 1.38.1 2.069a20.3 20.3 0 0 0 .371 2.842 14.134 14.134 0 0 0 1.307 3.826 7.99 7.99 0 0 0 1.855 2.368c.333.283.655.581.964.891a3.645 3.645 0 0 0 1.124.718 9.173 9.173 0 0 0 2.451.728c.017 0 .032.02.067.043" transform="translate(-136.503 -11.035)" style="fill:#fff"/>
                <path data-name="パス 692" d="M792.7 719.19c.395-.029.75-.052 1.1-.081a23.622 23.622 0 0 1 2.714-.133 11.858 11.858 0 0 1 4.374.873c.083.036.163.076.249.115a11.336 11.336 0 0 0 .3 2.393c.207 1.067.424 2.133.615 3.2a30.812 30.812 0 0 0 .7 3.09 7.073 7.073 0 0 0 2 3.23 12.627 12.627 0 0 0 1.633 1.375c.355.237.736.434 1.1.655a.721.721 0 0 1 .225.19c.2.294.392.6.581.9a1.464 1.464 0 0 1 .14.92 4.737 4.737 0 0 1-.182 1.171c-.066.2-.09.417-.162.616a7.85 7.85 0 0 1-.354.84 7.141 7.141 0 0 1-1.39 2.034c-.22.211-.463.4-.7.593a.38.38 0 0 1-.341.072 19.633 19.633 0 0 1-2.951-.777 13.746 13.746 0 0 1-3.835-2.113 6.125 6.125 0 0 1-1.664-2.007c-.327-.632-.693-1.242-1.026-1.871-.214-.4-.4-.821-.593-1.238a48.07 48.07 0 0 1-.73-1.679q-.448-1.118-.857-2.252a19.776 19.776 0 0 1-.788-3.478c-.22-1.3-.388-2.618-.58-3.927-.056-.383-.124-.764-.176-1.147a.646.646 0 0 1 .018-.329c.183-.419.386-.829.578-1.235" transform="translate(-721.422 -654.815)" style="fill:#fff"/>
                <path data-name="パス 693" d="M810.464 75.306a9.839 9.839 0 0 1 1.315-2.4c.6-.689 1.163-1.418 1.749-2.123a7.377 7.377 0 0 1 1.958-1.6.432.432 0 0 1 .379-.046c.532.174 1.081.308 1.6.525a4.075 4.075 0 0 1 1.521.993c.223.25.484.465.722.7a.754.754 0 0 1 .144.228 21.209 21.209 0 0 1 1.176 3.627c.23.964.35 1.942.484 2.92.1.746.211 1.494.266 2.244.059.812.073 1.627.077 2.442 0 .6-.033 1.2-.069 1.8a8.881 8.881 0 0 1-.116.907c-.039.239-.123.472-.15.713a19.319 19.319 0 0 1-.608 2.522l-.078.333a91.314 91.314 0 0 1-6.431-2.178 9.528 9.528 0 0 0 .738-2.54 10.762 10.762 0 0 0 0-3.2 8 8 0 0 0-.64-2.377 6.068 6.068 0 0 0-2.148-2.533c-.459-.3-.968-.52-1.457-.773-.126-.065-.259-.117-.431-.194" transform="translate(-738.157 -62.954)" style="fill:#a083f7"/>
                <path data-name="パス 694" d="M176.815 909.83c.027-.221.063-.441.078-.662.038-.559.073-1.118.093-1.678a1.457 1.457 0 0 0-.078-.477c-.029-.091-.059-.211-.221-.2-.058 0-.121-.114-.192-.186-.163.081-.391.03-.481.256a.814.814 0 0 0-.061.139c-.074.39-.141.781-.215 1.17-.037.2-.087.4-.124.6-.121.669-.249 1.336-.353 2.008a24.49 24.49 0 0 1-.524 2.654 6.437 6.437 0 0 1-.428 1.127c-.06-.133-.117-.267-.18-.4a6.534 6.534 0 0 0-1.885-2.288c-.805-.642-1.56-1.34-2.305-2.05-.3-.288-.65-.529-.936-.83-.448-.471-.87-.968-1.286-1.468-.358-.43-.709-.867-1.035-1.321a12.581 12.581 0 0 1-1.164-2.351c-.119-.27-.215-.551-.32-.827-.035-.093-.065-.187-.1-.275a15.843 15.843 0 0 0 3.56-2.733c.037.034.082.07.12.112a11.4 11.4 0 0 0 1.766 1.5 2.409 2.409 0 0 0 1.175.474c.517.051.715-.283.5-.761a1.715 1.715 0 0 0-.578-.691c-.432-.322-.86-.65-1.287-.978-.064-.049-.118-.11-.191-.178a1.3 1.3 0 0 1 .554-.3 4.047 4.047 0 0 1 1.9-.353 4.681 4.681 0 0 1 2.378.873 9.346 9.346 0 0 1 1.432 1.138q.294.31.568.639a8.984 8.984 0 0 1 1.33 1.968 5.394 5.394 0 0 1 .457 3.331 4.692 4.692 0 0 1-.8 1.8c-.238.341-.515.655-.786.972a2.606 2.606 0 0 1-.321.275l-.064-.023" transform="translate(-150.371 -818.641)" style="fill:#ff3e71"/>
                <path data-name="パス 695" d="M1030.972 871.571a2.97 2.97 0 0 1 1.3.8 6 6 0 0 1 1.38 2.846 13.547 13.547 0 0 1 .358 2.44c.052.934.12 1.871.1 2.8a11.8 11.8 0 0 1-.252 2.167c-.21 1-.537 1.962-.793 2.946-.2.757-.468 1.5-.717 2.239-.073.218-.185.423-.3.673-.229-.245-.415-.457-.615-.655a6.384 6.384 0 0 0-1.927-1.27 12.129 12.129 0 0 0-2.329-.911 34.808 34.808 0 0 0-2.59-.437c-.442-.062-.894-.05-1.341-.074-.211-.012-.422-.031-.617-.045l.23-1.525c.108.017.237.039.366.058a7.1 7.1 0 0 0 3.369-.366 9.431 9.431 0 0 0 3.944-2.64 4.334 4.334 0 0 0 .4-.537.557.557 0 0 0-.112-.765c-.023-.021-.067-.019-.1-.026s-.1 0-.118-.027a.4.4 0 0 0-.413-.188.921.921 0 0 0-.63.264c-.229.26-.444.534-.694.773a9.138 9.138 0 0 1-2.718 1.843 5.07 5.07 0 0 1-1.9.407 3.864 3.864 0 0 1-1.779-.328 2.318 2.318 0 0 1-1.127-1.193.4.4 0 0 1-.027-.15c0-.059.007-.119.013-.206.377-.042.748-.1 1.121-.122.345-.025.693-.02 1.039-.032a1.3 1.3 0 0 0 .425-.038 7.675 7.675 0 0 1 1.255-.237 4.183 4.183 0 0 0 1.6-.738c.179-.132.373-.245.557-.37a.907.907 0 0 0 .161-.135c.117-.128.218-.271.344-.389a2.655 2.655 0 0 0 .577-.923 5.849 5.849 0 0 0 .349-.845 4.091 4.091 0 0 0-.843-3.836 6.181 6.181 0 0 0-.811-.738.917.917 0 0 0-.333-.144 10.82 10.82 0 0 0-1.911-.377 4.475 4.475 0 0 0-.818.036c-.353.03-.7.073-1.091.114a1.735 1.735 0 0 1 .136-.161 4.465 4.465 0 0 1 1.963-1.077 4.521 4.521 0 0 1 3.312.458 4.251 4.251 0 0 1 1.835 2.1 7.2 7.2 0 0 1 .54 2.31 4.864 4.864 0 0 0 .081.6.582.582 0 0 0 .79.4.943.943 0 0 0 .611-.707 2.672 2.672 0 0 0-.037-1.331 9.212 9.212 0 0 0-1.113-2.534c-.031-.046-.051-.1-.1-.2" transform="translate(-930.205 -792.679)" style="fill:#ff3e71"/>
                <path data-name="パス 696" d="m349.309 723.028-.466.435c-.417.389-.835.776-1.249 1.168-.265.251-.521.51-.783.763-.569.551-1.143 1.1-1.706 1.653-.193.191-.36.408-.538.614-.266.308-.529.62-.8.926s-.556.623-.839.93c-.462.5-.937.988-1.39 1.5-.717.806-1.42 1.625-2.127 2.44a.978.978 0 0 0-.089.167c-.1-.143-.165-.221-.22-.3a15.006 15.006 0 0 0-2.791-3.142 6.472 6.472 0 0 0-2.721-1.456c-.068-.016-.134-.04-.231-.07.131-.158.239-.3.361-.434 1.1-1.192 2.195-2.385 3.3-3.57.751-.8 1.5-1.611 2.283-2.386.658-.653 1.359-1.263 2.043-1.889a1.51 1.51 0 0 0 .52-.729c.254.095.514.179.763.287.934.406 1.855.844 2.8 1.224.77.31 1.46.766 2.207 1.114.535.249 1.073.491 1.671.763" transform="translate(-303.619 -655.426)" style="fill:#fff"/>
                <path data-name="パス 697" d="M926.691 94.282c.423.3.8.563 1.184.832a11.318 11.318 0 0 1 2.8 3c.517.769 1.081 1.512 1.539 2.316a16.133 16.133 0 0 1 1.822 4.909 27.242 27.242 0 0 1 .414 2.78c.1 1.076.144 2.156.237 3.231a18.117 18.117 0 0 1-.055 2.2 3.862 3.862 0 0 1-.07.45c-.137 0-.266.007-.395 0-.295-.021-.59-.04-.883-.078a3.024 3.024 0 0 1-.5-.121c-.681-.211-1.357-.441-2.042-.637-.919-.264-1.846-.5-2.769-.753a1.019 1.019 0 0 1-.13-.059 4.714 4.714 0 0 0 .111-.474c.141-1.072.474-2.1.663-3.166a12.35 12.35 0 0 0 .224-2.032c.008-.754.062-1.509.043-2.262a20.186 20.186 0 0 0-.166-2.038c-.123-.969-.282-1.934-.43-2.9a18.018 18.018 0 0 0-.79-3.135c-.232-.672-.515-1.325-.805-2.062" transform="translate(-844.015 -85.869)" style="fill:#a083f7"/>
                <path data-name="パス 698" d="M1002.392 1051.406a7.967 7.967 0 0 1-.748 1.482 11.524 11.524 0 0 1-2.317 2.586 6.969 6.969 0 0 1-3.119 1.385 7.21 7.21 0 0 1-3.408-.207 4.669 4.669 0 0 1-1.286-.545 2.733 2.733 0 0 1-.8-.869 8.08 8.08 0 0 1-.856-2.183 3.162 3.162 0 0 1 .04-1.543 4.35 4.35 0 0 1 2.118-2.861 2.577 2.577 0 0 1 1.049-.308 8.982 8.982 0 0 1 1.829.034c.749.081 1.5.146 2.242.277a9.818 9.818 0 0 1 2.7.946 8.394 8.394 0 0 1 1.931 1.22c.21.191.415.387.626.586" transform="translate(-901.473 -954.768)" style="fill:#fff"/>
                <path data-name="パス 699" d="M660.337 60.676c-.2.145-.368.261-.532.379a8.945 8.945 0 0 0-1.469 1.378c-.5.566-1 1.128-1.478 1.709a10.641 10.641 0 0 0-1.246 1.945c-.128.252-.244.51-.358.748-.5-.068-.987-.142-1.471-.2a7.819 7.819 0 0 0-2.1.105 9.126 9.126 0 0 0-2.318.743 10.428 10.428 0 0 0-1.668 1.055 11.349 11.349 0 0 0-1.474 1.37 8.889 8.889 0 0 0-1.885 3.1c-.019.047-.034.1-.055.143a.472.472 0 0 1-.063.073c-.9-.252-1.822-.508-2.74-.769-.052-.015-.093-.073-.129-.1.4-.691.8-1.367 1.186-2.047a15.3 15.3 0 0 1 1.237-1.818 32.067 32.067 0 0 1 2.269-2.684 22.763 22.763 0 0 1 3.744-3.039 16.3 16.3 0 0 1 3.969-1.862c.386-.127.757-.3 1.137-.446a1.131 1.131 0 0 1 .319-.089q.793-.055 1.586-.09a8.6 8.6 0 0 1 1.4-.027 13.79 13.79 0 0 1 2.134.419" transform="translate(-584.133 -54.859)" style="fill:#a083f7"/>
                <path data-name="パス 700" d="M278.579 842.021a1.628 1.628 0 0 1-.108-.2 6.238 6.238 0 0 0-1.487-2.426c-.441-.438-.862-.9-1.322-1.315a9.421 9.421 0 0 0-2.22-1.549c-.089-.043-.173-.1-.3-.167l4.532-5.27a5.452 5.452 0 0 1 2.1.9 17.7 17.7 0 0 1 2.3 2.1q.534.565 1.039 1.157c.2.231.37.484.568.747l-5.1 6.03" transform="translate(-248.776 -756.931)" style="fill:#a083f7"/>
                <path data-name="パス 701" d="M963.7 894.723c.884.105 1.741.232 2.6.3.75.062 1.5.074 2.257.082.524.005 1.048-.036 1.573-.051a1.062 1.062 0 0 1 .27.038c.406.1.814.186 1.213.3a.71.71 0 0 1 .337.238 3.477 3.477 0 0 1 .334 3.875 1.3 1.3 0 0 1-.646.617c-.446.219-.87.482-1.31.714a2.138 2.138 0 0 1-.4.13c-.038.011-.086 0-.121.015a6.384 6.384 0 0 1-1.408.229c-.306.07-.623.1-.935.139a27.171 27.171 0 0 1-3.4.279c-.916.008-1.832-.058-2.748-.092a.547.547 0 0 1-.108-.034c.067-.07.116-.131.175-.182a6.539 6.539 0 0 0 1.791-2.7 8.841 8.841 0 0 0 .521-1.722 5.683 5.683 0 0 0 0-2.065.6.6 0 0 1 0-.12" transform="translate(-875.453 -814.886)" style="fill:#a083f7"/>
                <path data-name="パス 702" d="M1008.435 924.7c.295.09.566.168.834.255a8.247 8.247 0 0 0 3.688.281 8.446 8.446 0 0 0 1.965-.44 9.923 9.923 0 0 0 3.6-2.317 4.223 4.223 0 0 0 .353-.423 13.562 13.562 0 0 0 1.721-2.4c.275-.611.671-1.167.936-1.781.31-.719.555-1.467.8-2.214.335-1.038.642-2.086.957-3.13a12.887 12.887 0 0 0 .446-2.524 28.035 28.035 0 0 0 .05-3.576 12.829 12.829 0 0 0-.426-2.8c-.087-.333-.235-.651-.354-.976a.361.361 0 0 1-.022-.23c.064.067.131.131.191.2a6.475 6.475 0 0 1 1.341 2.617c.172.659.308 1.33.431 2a8.051 8.051 0 0 1 .075 1.006c.03.549.065 1.1.077 1.648.005.262-.044.525-.061.788-.023.345-.025.692-.06 1.036-.048.465-.12.928-.18 1.391a20.4 20.4 0 0 1-.658 3.222c-.152.508-.3 1.016-.427 1.531a22.6 22.6 0 0 1-1.05 2.964c-.13.331-.265.662-.422.981a9.318 9.318 0 0 1-1.946 2.644 7.285 7.285 0 0 1-1.6 1.214 9.141 9.141 0 0 1-2.525.891 13.018 13.018 0 0 1-3.346.172 9.021 9.021 0 0 1-2.9-.708 2.992 2.992 0 0 1-1.479-1.318" transform="translate(-918.466 -821.897)" style="fill:#fff"/>
                <path data-name="パス 703" d="M1029.6 252.188c.027-.613.088-1.183.067-1.75-.025-.69-.107-1.379-.185-2.066-.1-.837-.214-1.672-.322-2.505.024-.013.045-.033.054-.029a18.467 18.467 0 0 0 2.351.763c.9.274 1.81.5 2.686.823a16.966 16.966 0 0 1 2.879 1.181 8.8 8.8 0 0 1 1.471 1.091 1.634 1.634 0 0 1 .463.707.627.627 0 0 1-.076.552 1.479 1.479 0 0 1-.718.6 10.437 10.437 0 0 1-3.511.844 20.724 20.724 0 0 1-4.323-.14c-.278-.045-.563-.047-.836-.069" transform="translate(-937.342 -223.901)" style="fill:#ff3e71"/>
                <path data-name="パス 704" d="M52.509 852c.1-.033.2-.072.3-.1a7.662 7.662 0 0 1 2.288-.337 2.71 2.71 0 0 1 .657.116 3.869 3.869 0 0 1 1.763 1.165q.722.83 1.424 1.677a7.309 7.309 0 0 1 1.287 2.509c.31.969.606 1.943 1.006 2.882.191.449.3.932.5 1.38.257.6.558 1.175.842 1.76.062.128.134.252.191.382a7.509 7.509 0 0 0 1.1 1.679c.366.45.737.9 1.131 1.321.3.32.631.607.956.9.649.586 1.3 1.17 1.957 1.747.458.4.94.779 1.391 1.188a4.813 4.813 0 0 1 1.323 1.807 3.673 3.673 0 0 1 .148.5.554.554 0 0 1-.059.464 4.092 4.092 0 0 0-.265.575c-.034-.012-.061-.015-.063-.024a4.909 4.909 0 0 0-1.293-2.151c-.415-.421-.827-.848-1.274-1.232s-.962-.75-1.45-1.116c-.839-.628-1.7-1.229-2.518-1.881a11.859 11.859 0 0 1-2.574-2.68 11.724 11.724 0 0 1-1.752-4.172c-.2-.978-.4-1.958-.66-2.92a7.558 7.558 0 0 0-1.368-2.844c-.257-.315-.485-.652-.74-.969a3.4 3.4 0 0 0-1.516-1.043 7.019 7.019 0 0 0-2.622-.523.721.721 0 0 1-.108-.013l-.002-.047" transform="translate(-47.824 -775.574)" style="fill:#fff"/>
                <path data-name="パス 705" d="m723.877 148.75-.461-.2c-1.253-.542-2.541-.99-3.836-1.418-.647-.213-1.292-.436-1.949-.613-.559-.15-1.132-.245-1.7-.353-.5-.1-1-.184-1.5-.26-.34-.052-.684-.084-1.028-.111-.536-.043-1.073-.076-1.652-.116a1.556 1.556 0 0 1 .127-.159 8.82 8.82 0 0 1 4.336-2.19 6.9 6.9 0 0 1 2.94.087 7.975 7.975 0 0 1 2.49 1.064 4.718 4.718 0 0 1 1.982 2.775 5.255 5.255 0 0 1 .262 1.345c0 .039-.005.078-.011.148" transform="translate(-648.25 -130.433)" style="fill:#674ece"/>
                <path data-name="パス 706" d="M84.936 836.347a1.53 1.53 0 0 1 .724-.2c.628-.059 1.258-.1 1.889-.125a8.333 8.333 0 0 1 5.428 2.2 5.6 5.6 0 0 1 1.05 1.265 4.208 4.208 0 0 1 .6 1.863 1.45 1.45 0 0 1-.6 1.315c-.654.551-1.332 1.073-2 1.6a3.255 3.255 0 0 1-.329.2c-.143-.409-.271-.793-.412-1.172q-.388-1.045-.79-2.085a6.167 6.167 0 0 0-1.106-1.781c-.457-.534-.934-1.05-1.4-1.575-.088-.1-.174-.2-.254-.3a2.832 2.832 0 0 0-1.261-.818 5.126 5.126 0 0 0-1.53-.387" transform="translate(-77.358 -761.423)" style="fill:#fff"/>
                <path data-name="パス 707" d="M16.693 907.741c1.708-.7 3.356-1.372 5-2.043a8.353 8.353 0 0 0 1.614-.852 6.06 6.06 0 0 1 .989-.451 12.327 12.327 0 0 1 1.083 3.35c-.4.177-.789.333-1.164.511-.247.117-.475.274-.72.4-.419.209-.844.4-1.266.607-1.127.544-2.257 1.083-3.379 1.638-.351.174-.682.39-1.054.6a9.356 9.356 0 0 1-1.108-3.761" transform="translate(-15.204 -823.695)" style="fill:#fff"/>
                <path data-name="パス 708" d="M38.079 959.959a13.685 13.685 0 0 1-2.736-3.323 94.49 94.49 0 0 0 7.262-3.555 11.794 11.794 0 0 0 1.139 3.234 47.1 47.1 0 0 0-5.666 3.645" transform="translate(-32.19 -868.036)" style="fill:#fff"/>
                <path data-name="パス 709" d="M85.059 1003.121c-.228.2-.419.4-.636.561-.432.32-.869.635-1.32.926a12.284 12.284 0 0 0-1.7 1.385c-.222.207-.42.44-.637.67-.22-.241-.427-.493-.659-.718-.408-.4-.82-.79-1.253-1.158-.526-.448-1.076-.868-1.613-1.3a.917.917 0 0 1-.112-.129c.865-.566 1.725-1.121 2.578-1.688s1.685-1.133 2.547-1.714a14.8 14.8 0 0 0 2.806 3.166" transform="translate(-70.246 -910.728)" style="fill:#fff"/>
                <path data-name="パス 710" d="m685.232 192.586.808-1.635a36.274 36.274 0 0 1 3.676 1.43c.238.113.5.18.746.271 1.061.39 2.118.791 3.184 1.168 1.536.543 3.078 1.07 4.619 1.6a4.751 4.751 0 0 0 1.543.294c-.12.6-.373 1.126-.545 1.7-.267-.091-.526-.173-.781-.268-.724-.27-1.445-.552-2.171-.819-.925-.34-1.854-.668-2.782-1-1.664-.6-3.324-1.209-4.993-1.794-.584-.2-1.189-.35-1.786-.52l-1.518-.428" transform="translate(-624.098 -173.912)" style="fill:#ff3e71"/>
                <path data-name="パス 711" d="M22.693 871.575c-.395.152-.757.279-1.109.429-.469.2-.935.407-1.393.629-1.183.573-2.408 1.049-3.624 1.544-.327.133-.667.234-1.042.364 0-.17-.012-.309 0-.445.053-.516.092-1.036.182-1.546a7.176 7.176 0 0 1 .312-1.115 8.126 8.126 0 0 1 .421-.983 1.252 1.252 0 0 1 .65-.615 15.437 15.437 0 0 1 1.737-.47 3.01 3.01 0 0 1 1.807.243 2.909 2.909 0 0 1 1.2.818 7.525 7.525 0 0 1 .862 1.148" transform="translate(-14.134 -791.732)" style="fill:#fff"/>
                <path data-name="パス 712" d="M136.509 1045.5a4.657 4.657 0 0 1-.635.632 3.533 3.533 0 0 0-.759.7c-.741.907-1.46 1.833-2.187 2.752-.025.032-.045.068-.072.108-.331-.171-.634-.331-.939-.485a5.308 5.308 0 0 1-1.11-.854c-.394-.352-.8-.7-1.177-1.029a5.733 5.733 0 0 1 1.464-1.471c.556-.51 1.144-.984 1.711-1.482.214-.188.41-.4.614-.6l.362-.36 2.728 2.085" transform="translate(-118.066 -950.312)" style="fill:#fff"/>
                <path data-name="パス 713" d="m605.255 84.378-2.389-.664c.194-.285.379-.574.581-.851.6-.823 1.191-1.653 1.816-2.457.324-.417.713-.784 1.07-1.176a19.21 19.21 0 0 1 4.167-3.43 22.022 22.022 0 0 1 4-1.892 1.466 1.466 0 0 1 .446-.106c-.165.1-.333.2-.5.311-.442.292-.892.573-1.319.884-.658.48-1.315.963-1.942 1.481-.486.4-.916.871-1.392 1.286a16.452 16.452 0 0 0-1.663 1.746 11.558 11.558 0 0 0-1.153 1.452c-.462.762-.838 1.577-1.242 2.373-.169.334-.317.68-.484 1.042" transform="translate(-549.08 -67.217)" style="fill:#a083f7"/>
                <path data-name="パス 714" d="M181.654 1074.33c.224.205.471.4.683.632.371.4.741.812 1.074 1.246a1.8 1.8 0 0 1-.029 1.9 1.046 1.046 0 0 1-.313.282 4.143 4.143 0 0 1-2.495.519 9.9 9.9 0 0 1-1.958-.449c-.1-.031-.186-.073-.319-.125l3.358-4.006" transform="translate(-162.389 -978.467)" style="fill:#fff"/>
                <path data-name="パス 715" d="M721.879 186.561c0 .233.01.456 0 .678-.015.246-.076.314-.321.3a2.665 2.665 0 0 1-.626-.122c-.329-.1-.65-.231-.977-.341-.79-.266-1.583-.521-2.371-.795-.807-.28-1.607-.579-2.412-.865-.622-.222-1.243-.448-1.871-.654a29.247 29.247 0 0 1-2.221-.857c-.459-.193-.934-.346-1.4-.517l-.28-.1v-.062c.092 0 .185-.008.276 0 .719.071 1.44.131 2.156.224.666.086 1.331.185 1.988.32.807.165 1.617.335 2.4.573.847.255 1.669.591 2.5.891.441.159.883.313 1.32.481a14.942 14.942 0 0 1 1.832.847" transform="translate(-646.107 -166.872)" style="fill:#ffd81f"/>
                <path data-name="パス 716" d="M865.394 48.392c-.717-.276-1.428-.571-2.154-.823s-1.447-.454-2.2-.687a2.768 2.768 0 0 1 2.782-.385 2.43 2.43 0 0 1 1.573 1.895" transform="translate(-784.22 -42.156)" style="fill:#ff3e71"/>
                <path data-name="パス 717" d="M49.178 38.32a5.606 5.606 0 0 1 2.074-2.943c.442-.328.875-.671 1.341-.962a4.312 4.312 0 0 1 3.429-.562 2.129 2.129 0 0 1 1.347.934c.086.138.185.267.288.414l.166-.154a3.8 3.8 0 0 1 2.473-1.131 3.323 3.323 0 0 1 2.212.65 1.747 1.747 0 0 1 .253.22 5.821 5.821 0 0 1 1.173 1.811 1.223 1.223 0 0 1 .066.327c.026.3.043.607.067.953.455-.076.9-.147 1.346-.225.591-.1 1.185-.2 1.771-.325a50.41 50.41 0 0 0 1.986-.487 31.934 31.934 0 0 0 3.163-1.027c1.1-.416 2.2-.849 3.3-1.275l1.137-.441a1.213 1.213 0 0 1 .808.032.528.528 0 0 1 .269.521.792.792 0 0 1-.557.632c-.426.169-.86.317-1.287.482q-1.154.444-2.3.9a22.562 22.562 0 0 1-2.4.818c-.47.128-.935.276-1.34.4-.14.3-.244.555-.372.8-.344.648-.675 1.3-1.052 1.932a6.934 6.934 0 0 1-2.214 2.161 10.682 10.682 0 0 1-2.23 1.132 5.991 5.991 0 0 1-2.127.352 7.35 7.35 0 0 1-3.081-.672 4.253 4.253 0 0 1-2.1-1.969 6.528 6.528 0 0 1-.4-1.148 1.871 1.871 0 0 1-.023-.406h-1.051c-.57.007-1.142.05-1.71.02a27.338 27.338 0 0 1-2.34-.215 23.205 23.205 0 0 1-3.9-.881 10.683 10.683 0 0 1-2.357-.993 6.125 6.125 0 0 1-1.9-1.659 7.347 7.347 0 0 1-.849-1.548l-.191.16-1.63 1.386a.728.728 0 0 1-.717.138c-.22-.067-.271-.2-.221-.422a1.978 1.978 0 0 1 .537-.9 45.7 45.7 0 0 1 1.307-1.371c.513-.509 1.043-1 1.57-1.5.266-.25.552-.48.81-.739a.538.538 0 0 1 .643-.107.626.626 0 0 1 .408.522.613.613 0 0 1-.128.353 6.583 6.583 0 0 1-1.117 1.245.343.343 0 0 0-.09.209 4.73 4.73 0 0 0-.036.61 1.164 1.164 0 0 0 .081.319 4.545 4.545 0 0 0 2.387 2.535 7.885 7.885 0 0 0 1.927.756c.4.1.8.222 1.206.332a1.037 1.037 0 0 0 .17.015m13.451-.243a.315.315 0 0 0 .029-.077 3.417 3.417 0 0 0-1.13-2.579 1.258 1.258 0 0 0-1.022-.319 3.325 3.325 0 0 0-1.5.573 3.215 3.215 0 0 0-.833.925.749.749 0 0 1-.923.336.915.915 0 0 1-.6-.561c-.115-.238-.209-.487-.332-.721-.147-.281-.309-.568-.652-.642a3.139 3.139 0 0 0-.722-.079 3.9 3.9 0 0 0-1.878.673 8.356 8.356 0 0 0-2.924 2.851c-.007.011.005.034.01.062a1.619 1.619 0 0 0 .171.046 20.935 20.935 0 0 0 4.042.323 91.918 91.918 0 0 0 3.018-.139c.72-.047 1.438-.13 2.154-.221.766-.1 1.529-.223 2.293-.336.27-.04.539-.077.8-.114m-5.22 1.917a2.9 2.9 0 0 0 .124.383c.142.293.3.579.447.869a3 3 0 0 0 1.573 1.379 6.307 6.307 0 0 0 1.862.449 4.5 4.5 0 0 0 1.692-.137 8.087 8.087 0 0 0 2.147-1.009 8.842 8.842 0 0 0 1.6-1.224 7.159 7.159 0 0 0 1.234-1.767c.1-.195.226-.379.366-.611a2.769 2.769 0 0 0-.283.034c-1.466.355-2.964.528-4.449.777-.7.118-1.408.214-2.111.331a25.261 25.261 0 0 1-3.506.466c-.222.006-.443.038-.692.061"/>
                <path data-name="パス 718" d="M68.25 26.356c.183.25.336.439.467.641a4.685 4.685 0 0 1 .63 3.922 4.025 4.025 0 0 1-1.394 2.005 4.551 4.551 0 0 1-1.58.85 2.917 2.917 0 0 1-1.422.052 1.649 1.649 0 0 0-.392-.051 3.322 3.322 0 0 1-2.148-.752 3.519 3.519 0 0 1-1.227-1.791 4.423 4.423 0 0 1 1.845-5.406c.085-.05.169-.1.3-.182-.117-.029-.179-.051-.244-.06-.363-.054-.726-.111-1.09-.156a3.941 3.941 0 0 0-.458-.013 5.14 5.14 0 0 1-1.331-.148 3.614 3.614 0 0 0-.513-.068c-.465-.056-.93-.113-1.395-.166a.918.918 0 0 0-.172.012c0 .037 0 .066.009.074a3.226 3.226 0 0 1 1.027 1.527 4.536 4.536 0 0 1 .245 2.258 4.326 4.326 0 0 1-1.357 2.7 4.266 4.266 0 0 1-2.493 1.049 4.507 4.507 0 0 1-1.955-.228 4.634 4.634 0 0 1-2.268-1.739 3.654 3.654 0 0 1-.554-2.16 4.547 4.547 0 0 1 .659-2.419 3.813 3.813 0 0 1 .882-1.008c.039-.03.075-.063.149-.125a1.881 1.881 0 0 0-.235-.037c-.306 0-.612.006-.918 0a10.532 10.532 0 0 1-1.964-.2.3.3 0 0 0-.091-.009.769.769 0 0 1-.66-.287 1.24 1.24 0 0 0 0-.275.416.416 0 0 1 .3-.477 1.64 1.64 0 0 1 .457-.02 15.162 15.162 0 0 0 2.654-.013c.437-.015.875.013 1.313.026.774.022 1.549.03 2.322.073.752.042 1.5.121 2.254.186.609.053 1.217.108 1.826.168.4.04.8.1 1.2.135.495.044.992.059 1.486.11.911.095 1.826.171 2.728.32 1.055.175 2.121.254 3.178.411.734.109 1.472.192 2.206.3a2.577 2.577 0 0 1 .7.207.839.839 0 0 1 .462.728c.014.146-.149.286-.337.285-.142 0-.283-.033-.425-.046q-.835-.074-1.671-.145-.365-.031-.731-.059c-.069-.005-.138-.007-.274-.012M51.681 28.76a2.939 2.939 0 0 0 1.724 2.722 3.907 3.907 0 0 0 1.143.413 3.5 3.5 0 0 0 2.615-.683 2.816 2.816 0 0 0 .762-.782 4.522 4.522 0 0 0 .4-3.6 2.877 2.877 0 0 0-1.79-1.873 1.2 1.2 0 0 0-.444-.092 27.548 27.548 0 0 0-1.253-.005 1.634 1.634 0 0 0-.423.055 3.6 3.6 0 0 0-2.738 3.844m13.757 4.325c.081 0 .163.011.244.01a.872.872 0 0 0 .241-.017 3.777 3.777 0 0 0 2.206-1.583 2.97 2.97 0 0 0 .472-1.246 4.085 4.085 0 0 0-.043-1.126 4.323 4.323 0 0 0-1.347-2.592 1.467 1.467 0 0 0-.686-.383c-.267-.056-.539-.093-.805-.154a2.475 2.475 0 0 0-1.633.162 4.148 4.148 0 0 0-2 1.983 2.452 2.452 0 0 0-.291.929 4.256 4.256 0 0 0 .861 2.985 2.109 2.109 0 0 0 .963.735 5.461 5.461 0 0 0 1.828.316"/>
                <path data-name="パス 719" d="M574.531 394.611c-.258.037-.528.074-.8.114-.764.113-1.527.239-2.294.336-.716.091-1.434.173-2.154.221-1 .066-2.012.106-3.018.139a20.95 20.95 0 0 1-4.042-.323 1.61 1.61 0 0 1-.17-.046c-.005-.028-.017-.051-.01-.062a8.354 8.354 0 0 1 2.924-2.851 3.9 3.9 0 0 1 1.878-.673 3.133 3.133 0 0 1 .722.079c.344.074.5.361.652.642.123.234.217.483.332.721a.915.915 0 0 0 .6.561.75.75 0 0 0 .924-.336 3.212 3.212 0 0 1 .833-.925 3.324 3.324 0 0 1 1.5-.573 1.258 1.258 0 0 1 1.022.319 3.417 3.417 0 0 1 1.13 2.579.313.313 0 0 1-.029.077" transform="translate(-511.901 -356.535)" style="fill:#ff3e71"/>
                <path data-name="パス 720" d="M643.5 431.162c.248-.023.47-.055.692-.061a25.261 25.261 0 0 0 3.506-.466c.7-.117 1.409-.213 2.111-.331 1.485-.249 2.983-.422 4.449-.777a2.742 2.742 0 0 1 .283-.034c-.14.233-.264.416-.366.611a7.161 7.161 0 0 1-1.234 1.767 8.843 8.843 0 0 1-1.6 1.224 8.083 8.083 0 0 1-2.147 1.009 4.5 4.5 0 0 1-1.692.137 6.309 6.309 0 0 1-1.862-.449 3 3 0 0 1-1.573-1.379c-.148-.29-.3-.576-.447-.869a2.915 2.915 0 0 1-.124-.383" transform="translate(-586.086 -391.169)" style="fill:#ff3e71"/>
                <path data-name="パス 721" d="M579.271 282.614a3.6 3.6 0 0 1 2.738-3.844 1.632 1.632 0 0 1 .423-.055c.418-.006.836-.008 1.253.005a1.2 1.2 0 0 1 .444.092 2.877 2.877 0 0 1 1.79 1.873 4.522 4.522 0 0 1-.4 3.6 2.818 2.818 0 0 1-.763.782 3.5 3.5 0 0 1-2.615.683 3.9 3.9 0 0 1-1.143-.413 2.939 2.939 0 0 1-1.724-2.722m5.113-.669a1.838 1.838 0 0 0-1.9-1.856 2.012 2.012 0 0 0-2.03 1.931 1.9 1.9 0 0 0 1.944 1.993c1.145.051 1.92-.743 1.989-2.068" transform="translate(-527.59 -253.841)" style="fill:#fff"/>
                <path data-name="パス 722" d="M696.063 297.641a5.459 5.459 0 0 1-1.828-.316 2.107 2.107 0 0 1-.963-.735 4.255 4.255 0 0 1-.861-2.985 2.45 2.45 0 0 1 .291-.929 4.147 4.147 0 0 1 2-1.983 2.475 2.475 0 0 1 1.633-.162c.266.061.538.1.805.154a1.465 1.465 0 0 1 .686.383 4.324 4.324 0 0 1 1.352 2.611 4.092 4.092 0 0 1 .043 1.126 2.97 2.97 0 0 1-.472 1.246 3.777 3.777 0 0 1-2.206 1.583.871.871 0 0 1-.241.017c-.081 0-.163-.007-.244-.01m-.013-5.543a1.989 1.989 0 0 0-1.959 2 1.97 1.97 0 1 0 3.934-.185 1.821 1.821 0 0 0-1.975-1.812" transform="translate(-630.624 -264.543)" style="fill:#fff"/>
                <path data-name="パス 723" d="M56.794 28.103c-.069 1.325-.844 2.118-1.989 2.068a1.9 1.9 0 0 1-1.944-1.992 2.012 2.012 0 0 1 2.03-1.931 1.838 1.838 0 0 1 1.9 1.856"/>
                <path data-name="パス 724" d="M65.425 27.554a1.821 1.821 0 0 1 1.975 1.812 1.97 1.97 0 1 1-3.934.185 1.989 1.989 0 0 1 1.959-2"/>
            </g>
        </g>
    </g>
</svg>
