<svg xmlns="http://www.w3.org/2000/svg" width="100" height="65" viewBox="0 0 100 65">
  <g id="グループ_6" data-name="グループ 6" transform="translate(-292.554 -215.965)">
    <rect id="長方形_1" data-name="長方形 1" width="100" height="65" transform="translate(292.554 215.965)" fill="none"/>
    <g id="グループ_1" data-name="グループ 1" transform="translate(292.554 269.222)">
      <path id="パス_1" data-name="パス 1" d="M296.854,356.758a.134.134,0,0,1,0-.171l3.035-3.81a.83.83,0,0,0-.649-1.347h-.8a.825.825,0,0,0-.649.313l-2.909,3.654V352.26a.831.831,0,0,0-.83-.83h-.665a.83.83,0,0,0-.83.83v9.016a.831.831,0,0,0,.83.83h.665a.831.831,0,0,0,.83-.83v-3.222l3.277,3.767a.828.828,0,0,0,.626.285h.884a.83.83,0,0,0,.628-1.373Z" transform="translate(-292.554 -351.257)"/>
      <path id="パス_2" data-name="パス 2" d="M327.558,351.959a.825.825,0,0,0-.774-.529h-1.029a.824.824,0,0,0-.773.529l-3.5,9.016a.83.83,0,0,0,.773,1.131h.6a.835.835,0,0,0,.774-.531l.66-1.71a.234.234,0,0,1,.218-.149h3.532a.235.235,0,0,1,.218.149l.659,1.71a.835.835,0,0,0,.774.531h.6a.829.829,0,0,0,.774-1.13Zm-1.288,2.774,1.078,2.8h-2.155Z" transform="translate(-310.189 -351.257)"/>
      <path id="パス_3" data-name="パス 3" d="M365.543,351.43h-.777a.825.825,0,0,0-.7.379l-2.876,4.44-2.875-4.44a.826.826,0,0,0-.7-.379h-.777a.831.831,0,0,0-.83.83v9.016a.831.831,0,0,0,.83.83h.665a.831.831,0,0,0,.83-.83v-5.24l2.162,3.287a.827.827,0,0,0,.693.374h0a.829.829,0,0,0,.694-.374l2.161-3.287v5.24a.831.831,0,0,0,.83.83h.665a.831.831,0,0,0,.83-.83V352.26A.831.831,0,0,0,365.543,351.43Z" transform="translate(-331.321 -351.257)"/>
      <path id="パス_4" data-name="パス 4" d="M400.376,359.867h-3.634v-2.11h3.2a.831.831,0,0,0,.83-.83v-.578a.831.831,0,0,0-.83-.83h-3.2v-1.851h3.548a.831.831,0,0,0,.83-.83v-.578a.831.831,0,0,0-.83-.83h-5.042a.831.831,0,0,0-.83.83v9.016a.831.831,0,0,0,.83.83h5.128a.831.831,0,0,0,.83-.83V360.7A.831.831,0,0,0,400.376,359.867Z" transform="translate(-354.782 -351.257)"/>
      <path id="パス_5" data-name="パス 5" d="M432.151,351.43h-.665a.83.83,0,0,0-.83.83v5.491l-4.341-5.978h0a.833.833,0,0,0-.672-.342h-.752a.831.831,0,0,0-.83.83v9.016a.831.831,0,0,0,.83.83h.664a.831.831,0,0,0,.83-.83V355.8l4.341,5.967a.835.835,0,0,0,.671.341h.752a.831.831,0,0,0,.83-.83V352.26A.831.831,0,0,0,432.151,351.43Z" transform="translate(-372.891 -351.257)"/>
      <path id="パス_6" data-name="パス 6" d="M461.585,350.985a5.512,5.512,0,1,0,5.4,5.511A5.335,5.335,0,0,0,461.585,350.985Zm3.042,5.511a3.051,3.051,0,1,1-3.042-3.273A3.06,3.06,0,0,1,464.627,356.5Z" transform="translate(-392.518 -350.985)"/>
      <path id="パス_7" data-name="パス 7" d="M499.957,359.018a.829.829,0,0,0-1.122-.039,3.288,3.288,0,0,1-2.186.819,3.312,3.312,0,0,1,0-6.6,3.2,3.2,0,0,1,2.037.72.828.828,0,0,0,1.1-.052l.408-.4a.828.828,0,0,0-.045-1.23,5.48,5.48,0,0,0-3.5-1.249,5.512,5.512,0,0,0,0,11.022,5.494,5.494,0,0,0,3.678-1.384.83.83,0,0,0,.03-1.211Z" transform="translate(-413.93 -350.985)"/>
      <path id="パス_8" data-name="パス 8" d="M527,350.985a5.512,5.512,0,1,0,5.4,5.511A5.335,5.335,0,0,0,527,350.985Zm0,8.784a3.281,3.281,0,1,1,3.043-3.272A3.06,3.06,0,0,1,527,359.769Z" transform="translate(-432.478 -350.985)"/>
    </g>
    <g id="グループ_2" data-name="グループ 2" transform="translate(298.602 216.685)">
      <path id="パス_9" data-name="パス 9" d="M357.232,244.743a4.942,4.942,0,0,0,3.933,1.609c3.5,0,7.164-2.231,7.406-2.382a27.758,27.758,0,0,1,8.13-3.447,22.224,22.224,0,0,1,5.246-.656,17.2,17.2,0,0,1,10.677,3.5,22.274,22.274,0,0,0,4.541,3.108c1.091.506,4.264,1.082,5.416-.8.7-1.143-.534-3.89-.9-4.987-2.494-7.486-7.148-14.793-13.649-19.4a30.123,30.123,0,0,0-21.7-4.987c-7.376,1.119-13.891,5.954-18.771,11.37a46.36,46.36,0,0,0-4.615,6.043,28.716,28.716,0,0,0-1.718,3.078c-.719,1.5-1.886,4.435,1.065,4.012,2.762-.4,5.121-.916,7.92-.22A14.082,14.082,0,0,1,357.232,244.743Z" transform="translate(-327.824 -215.965)"/>
      <path id="パス_10" data-name="パス 10" d="M395.381,289.877c-1.111-2.031-3.84-2.183-5.743-1.257l-.129.06c-1.43.667-2.76,1.637-4.307,2.2a16.18,16.18,0,0,1-5.017,1.01,11.74,11.74,0,0,1-4.92-.867c-1.753-.74-3-2.044-4.521-3.134a14.1,14.1,0,0,0-4.35-2.1c-5.354-1.519-11.323.212-15.9,3.047a18.474,18.474,0,0,1-7.979,2.817A8.94,8.94,0,0,1,335.169,289c-6.049-5.512-14.446-3.577-21.047-.256-2.514,1.187-6.235,3.257-6.016,6.5.343,3.1,3.658,4.523,6.366,3.558,1.231-.439,2.305-1.2,3.517-1.684a25.257,25.257,0,0,1,6.353-1.738,10.241,10.241,0,0,1,8.105,2.179,41.273,41.273,0,0,0,3.5,2.617c3.919,2.379,9.341,1.242,13.28-.521,3.993-1.788,7.513-4.283,12.008-4.586,4.083-.276,6.786,1.486,9.905,3.822,5.934,4.443,14.19,3.172,20.02-.839C393.753,296.389,397.269,293.244,395.381,289.877Z" transform="translate(-308.096 -258.277)"/>
    </g>
  </g>
</svg>
