<svg xmlns="http://www.w3.org/2000/svg" width="290" height="30.062" viewBox="0 0 290 30.062">
  <g id="logo" transform="translate(-239.251 -278.839)">
    <g id="グループ_10" data-name="グループ 10" transform="translate(311.021 281.864)">
      <path id="パス_21" data-name="パス 21" d="M339.429,294.711a.291.291,0,0,1-.008-.373l6.629-8.321a1.814,1.814,0,0,0-1.419-2.943h-1.747a1.8,1.8,0,0,0-1.418.684l-6.353,7.981v-6.852a1.815,1.815,0,0,0-1.813-1.812h-1.451a1.815,1.815,0,0,0-1.812,1.812V304.58a1.814,1.814,0,0,0,1.812,1.812H333.3a1.814,1.814,0,0,0,1.813-1.812v-7.037l7.158,8.226a1.812,1.812,0,0,0,1.368.622h1.931a1.812,1.812,0,0,0,1.371-3Z" transform="translate(-330.035 -282.696)"/>
      <path id="パス_22" data-name="パス 22" d="M374.084,284.23a1.8,1.8,0,0,0-1.689-1.156h-2.248a1.8,1.8,0,0,0-1.689,1.156l-7.652,19.692a1.813,1.813,0,0,0,1.69,2.47h1.31a1.822,1.822,0,0,0,1.692-1.16l1.44-3.734a.514.514,0,0,1,.475-.326h7.715a.514.514,0,0,1,.476.326l1.439,3.735a1.824,1.824,0,0,0,1.692,1.159h1.311a1.811,1.811,0,0,0,1.689-2.468Zm-2.813,6.059,2.354,6.12h-4.707Z" transform="translate(-336.148 -282.696)"/>
      <path id="パス_23" data-name="パス 23" d="M418.219,283.074h-1.7A1.8,1.8,0,0,0,415,283.9l-6.281,9.7-6.281-9.7a1.807,1.807,0,0,0-1.521-.827h-1.7a1.815,1.815,0,0,0-1.812,1.812V304.58a1.814,1.814,0,0,0,1.812,1.812h1.452a1.814,1.814,0,0,0,1.812-1.812V293.135l4.722,7.178a1.806,1.806,0,0,0,1.514.816h0a1.809,1.809,0,0,0,1.515-.816l4.722-7.178V304.58a1.814,1.814,0,0,0,1.812,1.812h1.452a1.814,1.814,0,0,0,1.812-1.812V284.886A1.815,1.815,0,0,0,418.219,283.074Z" transform="translate(-343.472 -282.696)"/>
      <path id="パス_24" data-name="パス 24" d="M451.189,301.5h-7.937v-4.609h6.994a1.815,1.815,0,0,0,1.813-1.813v-1.262a1.816,1.816,0,0,0-1.813-1.813h-6.994v-4.043H451a1.815,1.815,0,0,0,1.812-1.813v-1.262A1.814,1.814,0,0,0,451,283.074H439.987a1.815,1.815,0,0,0-1.812,1.812V304.58a1.814,1.814,0,0,0,1.812,1.812h11.2A1.814,1.814,0,0,0,453,304.58v-1.263A1.815,1.815,0,0,0,451.189,301.5Z" transform="translate(-351.604 -282.696)"/>
      <path id="パス_25" data-name="パス 25" d="M487.314,283.074h-1.451a1.814,1.814,0,0,0-1.812,1.812v11.992l-9.482-13.057h0a1.821,1.821,0,0,0-1.467-.748h-1.644a1.815,1.815,0,0,0-1.812,1.812V304.58a1.814,1.814,0,0,0,1.812,1.812h1.451a1.814,1.814,0,0,0,1.812-1.812V292.615l9.482,13.032a1.82,1.82,0,0,0,1.466.744h1.644a1.815,1.815,0,0,0,1.813-1.812V284.886A1.816,1.816,0,0,0,487.314,283.074Z" transform="translate(-357.882 -282.696)"/>
      <path id="パス_26" data-name="パス 26" d="M515.537,282.6a12.039,12.039,0,1,0,11.786,12.038A11.652,11.652,0,0,0,515.537,282.6Zm6.646,12.038c0,4.141-2.8,7.147-6.646,7.147s-6.645-3.006-6.645-7.147,2.795-7.15,6.645-7.15S522.183,290.5,522.183,294.64Z" transform="translate(-364.684 -282.602)"/>
      <path id="パス_27" data-name="パス 27" d="M560,300.147a1.81,1.81,0,0,0-2.451-.086,7.184,7.184,0,0,1-4.774,1.79c-3.807,0-6.677-3.1-6.677-7.211s2.871-7.212,6.677-7.212A6.985,6.985,0,0,1,557.227,289a1.809,1.809,0,0,0,2.4-.114l.891-.869a1.824,1.824,0,0,0,.549-1.373,1.8,1.8,0,0,0-.648-1.315,11.968,11.968,0,0,0-7.641-2.728,12.039,12.039,0,0,0,0,24.073,12,12,0,0,0,8.033-3.021,1.812,1.812,0,0,0,.065-2.644Z" transform="translate(-372.106 -282.602)"/>
      <path id="パス_28" data-name="パス 28" d="M584.981,282.6a12.039,12.039,0,1,0,11.785,12.038A11.652,11.652,0,0,0,584.981,282.6Zm0,19.185c-3.851,0-6.645-3.006-6.645-7.147s2.795-7.15,6.645-7.15,6.645,3.007,6.645,7.15S588.831,301.787,584.981,301.787Z" transform="translate(-378.535 -282.602)"/>
    </g>
    <g id="グループ_11" data-name="グループ 11" transform="translate(239.251 278.9)">
      <path id="パス_29" data-name="パス 29" d="M261.738,298.789a3.418,3.418,0,0,0,2.718,1.111,11.32,11.32,0,0,0,5.118-1.646,19.188,19.188,0,0,1,5.619-2.382,15.341,15.341,0,0,1,3.625-.453,11.885,11.885,0,0,1,7.379,2.422,15.4,15.4,0,0,0,3.138,2.148c.754.349,2.947.748,3.743-.552.483-.79-.37-2.689-.622-3.447a26.923,26.923,0,0,0-9.433-13.408,20.821,20.821,0,0,0-14.993-3.446c-5.1.773-9.6,4.115-12.972,7.857a32.028,32.028,0,0,0-3.189,4.176,19.8,19.8,0,0,0-1.187,2.127c-.5,1.038-1.3,3.064.736,2.772a13.4,13.4,0,0,1,5.473-.152A9.73,9.73,0,0,1,261.738,298.789Z" transform="translate(-241.415 -278.9)"/>
      <path id="パス_30" data-name="パス 30" d="M299.572,305.378c-.768-1.4-2.654-1.508-3.968-.869l-.09.042c-.988.461-1.908,1.132-2.976,1.52a11.178,11.178,0,0,1-3.467.7,8.1,8.1,0,0,1-3.4-.6A16.6,16.6,0,0,1,282.546,304a9.749,9.749,0,0,0-3.007-1.45c-3.7-1.05-7.824.147-10.987,2.106a12.771,12.771,0,0,1-5.515,1.946,6.18,6.18,0,0,1-5.076-1.836c-4.18-3.81-9.984-2.472-14.545-.177-1.738.82-4.309,2.25-4.158,4.492a3.215,3.215,0,0,0,4.4,2.458c.851-.3,1.593-.829,2.43-1.163a17.472,17.472,0,0,1,4.391-1.2,7.078,7.078,0,0,1,5.6,1.506,28.56,28.56,0,0,0,2.418,1.808c2.708,1.644,6.455.859,9.177-.36,2.759-1.236,5.192-2.96,8.3-3.169,2.822-.191,4.69,1.027,6.845,2.642,4.1,3.07,9.806,2.191,13.835-.58C298.447,309.879,300.877,307.706,299.572,305.378Z" transform="translate(-239.251 -283.541)"/>
    </g>
    <rect id="長方形_1006" data-name="長方形 1006" width="290" height="30" transform="translate(239.251 278.839)" fill="none"/>
  </g>
</svg>
