<svg xmlns="http://www.w3.org/2000/svg" width="940" height="588"><defs><clipPath id="a"><path data-name="長方形 1163" d="M0 0h220v240H0z" fill="#00efb8"/></clipPath><clipPath id="b"><path data-name="長方形 1158" d="M0 0h605v454H0z" fill="#00efb8"/></clipPath></defs><g data-name="グループ 62703"><g data-name="グループ 682"><g data-name="グループ 681" transform="translate(720 348)" clip-path="url(#a)"><path data-name="パス 927" d="M136.617 31.32C151.988 49.447 159.6 72.952 174 91.853c8.63 11.326 19.5 20.752 28.7 31.624s16.909 23.916 17.285 38.128c.351 13.247-5.75 25.929-13.75 36.516a107.264 107.264 0 01-80.345 41.809 107.322 107.322 0 01-83.26-35.688 106.459 106.459 0 01-24.771-86.867c1.2-7.1 3.148-14.24 2.372-21.4-1.6-14.776-14.17-26.037-18.574-40.235a38.533 38.533 0 014.678-32.319C16.483 8.201 39.636 2.345 56.987.51a95.26 95.26 0 0154.53 10.718 86.206 86.206 0 0125.1 20.091" fill="#00efb8"/></g></g><g data-name="グループ 62671"><g data-name="グループ 670" clip-path="url(#b)"><path data-name="パス 917" d="M417.345 30.5c81.78 30.349 154.528 93.765 179.448 177.153s-7.876 185-85.184 225.359c-69.391 36.216-153.86 18.575-228.736-4.327C212.3 407.1 141.246 380.592 85.3 332.573S-9.377 210.883 1.983 138.147C28.811-33.708 299.652-13.174 417.349 30.5" fill="#00efb8"/></g></g></g></svg>