<svg xmlns="http://www.w3.org/2000/svg" width="1000" height="650"><path data-name="パス 684" d="M0 345.147c2.45 7.267 3.936 14.939 7.6 21.7 4.423 8.165 9.579 16.441 16.426 23.09a252.632 252.632 0 0033.226 27.006c12.244 8.375 26.958 13.445 42.113 16.1 16.139 2.826 32.657 4.141 49.068 5.639 27.845 2.539 56.043 2 83.411 8.555 20.429 4.9 39.161 12.66 55.536 24.234 12.767 9.026 24.765 18.922 36.727 28.778 19.983 16.455 38.889 33.982 59.682 49.6 23.494 17.648 48.11 34.229 73.079 50.275 25.185 16.19 53.24 28.047 82.791 36.947 14.52 4.374 29.116 9.228 44.143 11.453 13.982 2.073 28.6 1.476 42.9 1.077 18.717-.52 35.655-6.931 51.425-15.136a241.807 241.807 0 0033.318-20.721c28.947-21.713 59.871-40.092 97.541-48.086 20.788-4.414 41.744-8.232 62.434-12.96 25.026-5.715 49.857-11.978 71.285-25.6 11.137-7.084 19.46-16.159 27.009-26.037 9.727-12.723 18.584-25.822 24.093-40.428a91.164 91.164 0 004.526-50.248c-1.733-8.941-4.941-17.653-7.191-26.522-2.634-10.408-4.9-20.887-7.431-31.317-2.45-10.107-3.988-20.506-7.79-30.214q-10.471-26.768-23.309-52.814c-5.289-10.744-13.048-20.542-18.809-31.133-11.419-21-26.518-39.612-44.168-56.973-17.63-17.339-36.952-32.883-58.913-45.731a208.749 208.749 0 00-60.63-23.628c-16.979-3.732-34.256-6.451-52.071-5.85-23.821.8-47.535 1.05-70.962 6.222-22.11 4.881-44.547 8.941-67.093 11.919a152.157 152.157 0 01-77.148-9.717c-18.24-7.223-32.842-18.514-48.489-28.742-6.776-4.428-13.807-8.55-20.552-13.01-9.384-6.2-18.338-12.929-27.978-18.8-9.256-5.643-19.132-10.515-28.777-15.661-4.8-2.557-9.589-5.15-14.561-7.424-28.2-12.893-58.293-21.1-89.325-26.661-8.856-1.588-18.076-1.628-27.127-2.373-8.036-.659-16.057-1.7-24.1-1.866-8.293-.175-16.729-.193-24.877.951-13.812 1.938-27.64 4.23-41.114 7.483a125.034 125.034 0 00-53.06 26.939c-12.234 10.628-21.244 23.354-22.92 39.065-.712 6.671-2.229 13.315-2.358 19.985-.333 17.747.41 35.512-.262 53.241-.645 16.948-4.228 33.65-12.935 48.929-12.577 22.058-26.41 43.573-39.023 65.622-11.224 19.613-20.8 39.85-24.437 61.822-.035.229-.6.39-.922.579z" fill="#ffd200"/></svg>