<svg xmlns="http://www.w3.org/2000/svg" width="320" height="300"><defs><clipPath id="a"><path data-name="長方形 1189" d="M0 0h320v300H0z" fill="#fff"/></clipPath></defs><g data-name="グループ 62683" clip-path="url(#a)"><path data-name="パス 1164" d="M188.632 1.17a66.954 66.954 0 018.38-1.064c21.067-1.29 43.457 9.347 57.476 24.393 7.829 8.4 13.53 18.491 17.967 28.948 4.035 9.512 5.579 19.849 9.69 29.329s10.994 17.9 16.606 26.565c11.907 18.388 23.141 38.767 20.983 61.3-1.574 16.465-12.1 29.35-22.893 41.256-11.429 12.607-20.346 23.832-26.919 39.447-7.448 17.691-21.31 33.669-38.856 42.355a57.9 57.9 0 01-27.494 6.278c-11.58-.381-21.683-6.244-32.58-9.538-16.765-5.071-33.128-.143-49.893 1.817-24.678 2.884-53.242-4.483-72.3-20.366-24.886-20.744-20.216-53.633-27.362-81.895-4.064-16.063-15.2-28.646-19.1-44.839-3.956-16.439-2.752-33.8 2.476-49.833 8.842-27.113 29.158-50.72 55.7-62.591C82.881 20.8 108.052 24.8 132.017 19.99c19.36-3.885 37.214-15.144 56.615-18.819" fill="#fff"/></g></svg>