<svg xmlns="http://www.w3.org/2000/svg" width="360" height="340"><path data-name="パス 912" d="M202.861 0c2.868 1.342 6.1 1.89 8.33 4.606 2.153 2.629 4.681 4.96 6.551 7.79 3.453 5.222 6.682 10.626 9.741 16.12 2.282 4.1 4.057 8.512 6.228 12.686 2.106 4.056 2.182 6 7.471 5.518 5.411-.488 10.793-1.351 16.183-2.085 1.432-.2 2.847-.512 4.27-.778 8.161-1.519 16.318-3.066 24.484-4.548 6.469-1.174 12.923-2.556 19.437-3.3 4.71-.535 9.626-.884 14.235-.015 5.277 1 7.689 5.6 7.941 11.292.306 6.886-2.485 12.854-4.63 18.968-3.089 8.792-6.81 17.333-9.911 26.121-1.22 3.454-2.64 7.494.047 10.863a20.758 20.758 0 006.4 5.294c9.72 5.112 19.611 9.848 29.356 14.9 3.8 1.969 7.67 3.973 9.776 8.354 1.8 3.734 1.647 7.346-.635 10.583-3.264 4.633-6.693 9.153-10.31 13.477q-5.767 6.893-12.035 13.3c-4.948 5.064-10.226 9.761-15.16 14.838-1.651 1.7-2.753 4.031-3.977 6.157-1.5 2.614-.6 5.205.813 7.336a68.772 68.772 0 006.462 8.174c4.87 5.369 10.045 10.433 14.8 15.912a111.789 111.789 0 0110.123 13.309c3.928 6.2 3.085 11.711-3.488 16.389-5.552 3.952-11.881 5.815-18.26 7.4-6.228 1.55-12.532 2.759-18.8 4.11-5.22 1.127-10.421 2.384-15.669 3.332-9.675 1.749-14.913 8.585-18.227 17.661-3.521 9.641-5.386 19.725-7.1 29.87a117.652 117.652 0 01-3.765 15.744c-2.4 7.6-8.145 11.058-16.7 8.222a30.09 30.09 0 01-11.323-7.139c-3.915-3.759-7.539-7.863-11.473-11.6-5.076-4.817-10.4-9.338-15.494-14.13-4.714-4.436-9.7-4.037-14.6-.894-6.327 4.056-12.492 8.413-18.613 12.819-9.6 6.911-18.9 14.321-28.721 20.854a13.936 13.936 0 01-19.151-3.23 58.843 58.843 0 01-5.565-10.278c-2.128-4.562-4.022-9.251-5.945-13.917-2.6-6.309-5.148-12.643-7.7-18.974q-4.758-11.8-9.49-23.607c-1.479-3.689-1.473-3.691.146-9.574-.968.091-1.937.259-2.905.263-7.491.021-14.981.075-22.471 0-9.786-.1-19.58-.114-29.356-.546-7.833-.349-15.663-1.091-23.459-2-3.86-.45-7.6-1.61-9.969-5.562-1.643-2.739-1.251-5.718-.777-8.381a61.337 61.337 0 019.357-22.785c4.686-7.207 9.2-14.543 13.833-21.786 2.449-3.824 4.873-7.676 7.551-11.313 3.126-4.245 2.356-9-.988-12.375-5.747-5.8-11.742-11.329-17.438-17.19-7.052-7.257-14.79-13.834-20.371-22.6-2.824-4.438-3.239-11.317 3.887-14.985 4.254-2.189 9.038-3.218 13.594-4.734 1.888-.627 3.813-1.127 5.7-1.751 5.727-1.892 11.507-3.629 17.15-5.776 5.939-2.261 11.795-4.8 17.594-7.454 4.5-2.058 5.715-6.574 5.974-11.147.435-7.672.436-15.373.53-23.063q.111-9.289 0-18.582c-.058-5.7-.534-11.41-.279-17.089.236-5.257.1-10.742 4.657-14.726 2.069-1.809 4.139-2.566 6.337-1.622 5.7 2.448 11.526 4.784 16.826 8.039 8.706 5.346 17.068 11.334 25.515 17.151 4.546 3.131 9.071 6.321 13.42 9.751 5.014 3.952 10.111 4.05 15.139.568a116.174 116.174 0 0013.459-10.514c4.441-4.162 8.323-9 12.432-13.562 3.342-3.705 6.571-7.533 10.018-11.12a193.845 193.845 0 0110.322-9.942A32.911 32.911 0 01199.122 0z" fill="#00efb8"/></svg>