<svg xmlns="http://www.w3.org/2000/svg" width="360" height="300"><path data-name="パス 915" d="M286.711 78.417c1.707-.387 3.264-.781 4.836-1.088 14.077-2.767 27.226.627 39.811 7.818a60.371 60.371 0 0122.788 23.371 45.876 45.876 0 015.23 17.3c1.2 10.016.916 19.871-3.061 29.161-2.82 6.588-7.054 12.01-11.3 17.426a119.38 119.38 0 01-16.654 17.015c-2.9 2.479-2.888 3.055-1.328 6.722a50.369 50.369 0 013.483 27.054c-2.55 18.758-12.12 32.186-25.254 42.465a104.813 104.813 0 01-44.138 20.62c-13.035 2.623-26.075 1.685-38.22-5.039-4.531-2.509-8.619-6.14-12.723-9.548-4.88-4.052-5.521-4.19-10.411-.174-8.75 7.188-17.473 14.555-27.793 18.529a195.547 195.547 0 01-23.569 7.482 69.751 69.751 0 01-18.793 2.441c-16.082-.563-31.348-4.973-43.7-17.542-11.016-11.2-16.6-25.38-16.269-42.609.187-9.665 1.455-19.1 2.733-28.585a6.393 6.393 0 00.1-.747c.109-8.286.574-6.675-5.3-6.821-5.756-.144-11.542.068-17.265-.517-9.933-1.016-19.813-2.958-28.552-8.778-10.229-6.815-16.775-17.055-19.4-30.38-.63-3.195-1.394-6.383-1.707-9.624-1.05-10.871 1.333-21.1 5.079-30.931 2.735-7.179 5.61-14.318 8.883-21.188 1.957-4.1 5.047-7.482 7.2-11.485A110.6 110.6 0 0137.19 68.01c9.539-10.363 20.47-18.249 33.086-22.318 11.007-3.548 21.8-2.145 31.859 5 4.231 3 7.643 6.862 10.983 10.867 1.681 2.018 3.085 2.028 4.727.421 3.248-3.18 6.5-6.353 9.641-9.675 9.172-9.715 18.744-18.849 29.305-26.553a135.108 135.108 0 0133.854-18.461 150.124 150.124 0 0123.24-6.121c12.635-2.346 25.18-1.268 37.159 4.179 13.981 6.356 25.867 15.906 33.529 31.174 5.456 10.876 5.919 22.583 3.8 34.591-.418 2.371-1.055 4.692-1.651 7.3" fill="#ffd200"/></svg>