<svg xmlns="http://www.w3.org/2000/svg" width="340" height="300"><path data-name="パス 913" d="M131.562 253.81c-.839 2.311-1.821 4.9-2.724 7.526a55.19 55.19 0 01-12.731 20.513 56.373 56.373 0 01-27.579 15.7 74.463 74.463 0 01-24.527 2.213c-10.458-.9-20.648-3.314-30.183-8.586a76.248 76.248 0 01-18.585-13.786 51.728 51.728 0 01-13.842-25.781 67.88 67.88 0 01-1.329-16.34 56.706 56.706 0 015.824-23.713c1.653-3.222 2.859-6.74 4.591-9.9a33.071 33.071 0 014.415-5.8c2.044-2.323 4.167-4.574 6.4-6.67a59.718 59.718 0 0115.679-10.621 57.4 57.4 0 0117.747-5.2 1.029 1.029 0 00.64-.325c-1.2-8-2.449-15.816-3.5-23.664a57.08 57.08 0 01-.776-11.077 139.093 139.093 0 012.231-19.2 161.588 161.588 0 015.819-20.674 200.158 200.158 0 018.034-19.027c2.349-4.99 5.1-9.754 7.842-14.5a57.657 57.657 0 0113.975-15.983c3.434-2.779 7.144-5.125 10.723-7.679 2.822-2.011 5.573-4.161 8.463-6.037 3.3-2.144 6.691-4.135 10.109-6.039 3.208-1.783 6.464-3.475 9.773-5 3.49-1.613 7.078-2.965 10.61-4.473 2.533-1.082 5.006-2.352 7.57-3.324 4.312-1.637 8.663-3.144 13.017-4.631 3.309-1.131 6.618-2.3 9.98-3.185 5.89-1.558 11.8-3.03 17.744-4.324 5.686-1.235 11.416-2.226 17.135-3.259a33.346 33.346 0 014.929-.512c6.736-.2 13.481-.59 20.212-.406a82.3 82.3 0 0116.549 2.021 85 85 0 0121.051 7.891c4.739 2.55 9.14 5.931 13.579 9.139q5.3 3.831 10.3 8.161c3.727 3.224 7.322 6.646 10.893 10.088a134.361 134.361 0 0110.615 10.719 149.072 149.072 0 0112.222 16.571 94.757 94.757 0 018.934 17.953 114.032 114.032 0 014.954 20.975 131.32 131.32 0 011.633 22.386c-.174 7.646-1.463 15.281-2.555 22.868a120.492 120.492 0 01-2.728 11.961 47.688 47.688 0 01-1.88 6c-1.779 4.486-3.474 9.039-5.588 13.323a112.8 112.8 0 01-7.715 13.635 117.274 117.274 0 01-10.722 13.555 138.591 138.591 0 01-13.27 12.5 181.776 181.776 0 01-15.718 11.633 97.518 97.518 0 01-11.421 5.939 124.849 124.849 0 01-12.1 5.531 218.89 218.89 0 01-18.257 5.664c-6.827 1.8-13.709 3.412-20.63 4.665-6.223 1.125-12.52 1.8-18.806 2.407-8.285.8-16.582 1.56-24.888 1.919a159.989 159.989 0 01-21.15-.147c-6.97-.623-13.863-2.323-20.992-3.587" fill="#fe588d"/></svg>