<svg xmlns="http://www.w3.org/2000/svg" width="320" height="270"><path data-name="パス 911" d="M145.642.005c5.44-.03 10.192 2.527 14.706 5.561a196.387 196.387 0 0131.423 26.462c4.917 5.074 10.325 9.624 14.985 14.948 6.006 6.861 11.489 14.254 17.186 21.429q7.963 10.027 15.9 20.077 8.683 10.958 17.381 21.9c3.121 3.928 6.175 7.924 9.4 11.751a398.82 398.82 0 0134.2 46.647 235.318 235.318 0 0118.125 35.336c2.006 4.92.969 9.579-1.58 13.812-6.668 11.076-16.585 16.657-28.306 18.983q-6.608 1.311-13.251 2.413a7.917 7.917 0 01-2.467-.393 6.175 6.175 0 00-1.875-.28c-11.607 1.781-23.206 3.649-34.819 5.4-5.157.775-10.352 1.264-15.512 2.006-6.5.941-12.993 1.969-19.479 3.034-5.791.945-11.557 2.067-17.351 2.973-6.407 1-12.826 1.971-19.262 2.726-9.354 1.1-18.742 1.86-28.091 3.01-9.015 1.109-17.989 2.6-26.994 3.793-8.509 1.128-17.029 2.146-25.555 3.117q-16.9 1.92-33.821 3.667c-10.344 1.053-20.7 2.063-31.1 1.412a57.348 57.348 0 01-9.917-1.552c-8.158-1.984-10.5-9.149-9.246-16.4 1.745-10.1 5.674-19.328 9.564-28.605 6.374-15.2 14.322-29.437 22.192-43.747 5.65-10.275 10.724-20.918 16.294-31.248q11.29-20.937 22.962-41.632c7.373-13.106 14.792-26.19 22.469-39.089 8.73-14.668 17.689-29.179 26.713-43.638 3.751-6.011 7.71-11.907 11.988-17.485a15.606 15.606 0 0113.145-6.4" fill="#3ba9f7"/></svg>