<svg xmlns="http://www.w3.org/2000/svg" width="290" height="300"><path data-name="パス 914" d="M31.432 300c-13.041-.1-19.492-4.429-23.924-17.309-2.525-7.343-3.415-15.037-3.973-22.753-.435-6.036-1.018-12.065-1.435-18.104-.43-6.193-.812-12.391-1.088-18.592C.593 213.856-.039 204.463 0 195.074c.074-16.826.546-33.646.923-50.469.192-8.563.649-17.12.779-25.685.092-5.94-.391-11.893-.211-17.83.176-5.725.644-11.511 4.845-16.145a24.031 24.031 0 012.693-2.463c2.907-2.359 5.792-4.748 8.79-6.993a62.767 62.767 0 017.267-4.9 306.178 306.178 0 0138.556-17.77c6.743-2.566 13.19-5.855 19.846-8.647 7.793-3.269 15.56-6.636 23.525-9.464 16.221-5.763 32.414-11.679 48.907-16.617 14.627-4.378 29.566-7.873 44.518-11.095 12.53-2.7 25.245-4.651 37.945-6.5a50.08 50.08 0 0114.222.021c8.751 1.274 14.983 6.356 19.042 13.937 3.75 7 5.512 14.644 6.876 22.293 2.091 11.747 3.941 23.557 5.25 35.406 1.5 13.534 2.349 27.138 3.368 40.719.8 10.65 1.6 21.306 2.071 31.973.473 10.833.659 21.679.749 32.521.094 11.224 0 22.452-.17 33.674-.09 5.891-.25 11.8-.9 17.655-.689 6.252-3.836 11.382-8.847 15.488-9.268 7.6-20.472 11.429-31.524 15.569-18.121 6.786-37.112 10.567-55.894 15.026-19.973 4.742-39.989 9.35-60.094 13.532-10.9 2.268-22.007 3.661-33.059 5.2-9.213 1.281-18.469 2.31-27.729 3.241-8.959.9-17.945 1.551-26.923 2.279-4.575.371-9.156.665-13.395.971" fill="#bd93ff"/></svg>