<svg xmlns="http://www.w3.org/2000/svg" width="588" height="154"><g data-name="グループ 632"><g data-name="グループ 633"><path data-name="パス 673" d="M344.349 0h5.76a4.374 4.374 0 00.691.182 42.126 42.126 0 0113.849 4.15c4.751 2.268 8.578 5.908 12.929 8.768a35.027 35.027 0 0015.179 5.143c5.755-.558 9.326-1.864 14.254-6.829a20.926 20.926 0 017.335-5.081c4.824-1.817 9.527-.963 13.861 1.49 4.519 2.557 7.448 5.052 14.346 5.276 1.886-.042 6.843-.443 9.43-2.164a90.067 90.067 0 018.162-5.216c5.862-3.123 11.929-4.884 18.647-4.1a49.67 49.67 0 0122.89 8.832 20.387 20.387 0 0015.2 3.457 54.845 54.845 0 0012.367-3.746 29.33 29.33 0 0117.2-1.534c4.6.915 9.2 1.823 13.744 3.057 5.639 1.53 11 3.854 15.349 7.748 6.328 5.651 10.872 12.651 12.458 21.339v5.614a59.235 59.235 0 01-1.645 8.21c-2.462 8.02-6.551 14.622-14.581 17.858-2.317.934-4.642 1.86-6.916 2.9a8.874 8.874 0 00-5.225 6.059 20.331 20.331 0 01-4.132 8.031 11.234 11.234 0 01-17.32-.683c-1.273-1.594-2.37-3.336-3.541-5.014a6.169 6.169 0 00-7.421-2.666c-1.146.346-2.254.828-3.365 1.282a14.172 14.172 0 01-12.619-.59A28.475 28.475 0 01505.4 77.5c-1.471-1.354-3.115-2.686-5.138-1.932-3.891 1.451-7.884 2.84-10.6 6.4a3.769 3.769 0 01-1.335 1.1 19.85 19.85 0 01-12.72 1.7c-3.733-.676-6.737-2.671-9.58-5.078a10.409 10.409 0 00-3.444-2.354c-4.444-1.38-8.731 1.8-10.275 4.658-1.066 1.977-2.216 3.911-3.208 5.925a22.374 22.374 0 01-11.224 11.087c-8.266 3.675-19.8 1.243-23.728-9.994a35.4 35.4 0 00-3.8-7.256c-1.746-2.737-4.018-3.324-6.978-2-.877.393-1.717.872-2.573 1.314a10.611 10.611 0 01-6.516 1.36 13.605 13.605 0 01-9.713-6.425 92.906 92.906 0 00-2.524-3.767 5.456 5.456 0 00-3.24-2.317c-2.761-.561-5.59-1.146-8.382-.335a17.077 17.077 0 00-6.785 3.315c-2.155 1.876-3.836 4.2-6.153 5.939a18.767 18.767 0 01-22.531-.394c-4.685-3.55-10.308-3.251-13.719.891A16.621 16.621 0 00318 86.815c-.6 3.026-1.132 6.067-1.75 9.092-.989 4.829-2.57 9.384-5.743 13.172-4.024 4.8-9.223 7.1-15.265 5.756-6.541-1.45-11.218-6.419-12.319-13.764-.875-5.823-1.793-11.64-2.95-17.414a11.694 11.694 0 00-5.446-8.22c-5.86-3.645-11.5-2.922-17.133.286-1.633.931-3.248 1.9-4.938 2.708a15.514 15.514 0 01-9.4 1.3 17.07 17.07 0 01-11.416-7.509 11.559 11.559 0 00-5.887-4.759c-2.94-.909-5.893-1.662-8.91-.268a4.207 4.207 0 01-1.25.31 15.36 15.36 0 00-8.887 4.434c-1.326 1.267-2.348 2.894-3.751 4.046-4.976 4.092-10.551 4.578-16.366 2.261-2.94-1.171-5.756-2.666-8.626-4.024-4.02-1.9-9.792-.6-11.293 4.811a55.944 55.944 0 01-3.632 9.3 23.778 23.778 0 01-4.157 6.51c-5.263 5.374-11.622 7.6-18.892 5.928-6.784-1.563-11.211-6-12.852-13.026-.812-3.478-1.09-7.08-2.326-10.469a11.379 11.379 0 00-4.754-5.934c-3.251-2-6.3-.843-9.084 1.242a23.419 23.419 0 01-9.051 4.321 14.06 14.06 0 01-12.853-3.437 5.382 5.382 0 00-4.682-1.285c-3.263.542-5.654 2.461-7.756 4.943-1.72 2.031-3.113 4.365-5.327 5.952-4.709 3.376-9.645 4.336-15.025 1.783-3.469-1.646-5.36-4.64-6.763-8.067a11.7 11.7 0 00-8.849-7.578 29.789 29.789 0 00-7.744-.2 39.145 39.145 0 01-16.086-2.231C10.848 64.55 5.773 61.04 2.7 55.141a24.569 24.569 0 01-2.327-15.6c1.464-9.061 5.7-16.341 13.265-21.494a50.153 50.153 0 0115.672-6.718 29.814 29.814 0 019.378-.943c3.251.175 6.505.286 9.739.65 4.508.508 8.955 1.5 13.545 1.357 3.425-.107 6.8-.233 10.021-1.578a32.05 32.05 0 006.372-3.958 27.716 27.716 0 0113.903-5.129 30.134 30.134 0 018.747.169c4.754.95 9.007 3.257 13.173 5.707 3.45 2.029 6.524 4.716 10.149 6.419 5.448 2.561 11.043 3.393 16.848 1.032 3.995-1.624 7.809-3.666 12.039-4.757a27.222 27.222 0 0116.669.479c4.548 1.688 9 3.661 13.491 5.5a32.755 32.755 0 0010.732 2.508c6.724.353 12.551-2.559 18.127-5.833 5.69-3.339 11.458-6.308 17.866-7.9a17.115 17.115 0 0112.124 1.5c3.091 1.524 5.754 3.714 8.594 5.627A14.884 14.884 0 00261.145 15a26.93 26.93 0 009.245-3.07c3.143-1.627 6.414-2.967 9.582-4.551 4.33-2.165 8.707-.705 12.852 1.294 3.254 1.568 5.856 4.059 8.609 6.344a12.432 12.432 0 006.187 3.219c3.731.527 6.97-.763 10.121-2.538 3.559-2.005 6.215-5.213 9.571-7.52C332.6 4.546 337.98 1.219 344.349 0" fill="#fff"/><g filter="url(#パス_674)"><path data-name="パス 674" d="M428.024 124.001c-2.628-.8-5.067-1.841-6.8-4.159a6.584 6.584 0 01-1.432-4.974c.527-3.84 2.56-7.921 6.229-8.282 4.986-.491 10.583.582 11.794 5.742 1.289 5.487-1.273 11.213-7.776 11.5a4.117 4.117 0 00-.757.172z" fill="#fff"/></g><g filter="url(#パス_675)"><path data-name="パス 675" d="M95.252 99.523c0 4.712-3.991 8.859-8.667 8.563-5.509-.35-8.32-3.59-8.371-8.32-.055-5.007 3.746-8.49 9.43-8.47 4.208.014 7.609 3.678 7.609 8.227" fill="#fff"/></g><g filter="url(#パス_676)"><path data-name="パス 676" d="M501.405 97.91c.171-2.983 2.8-8.022 6.734-7.817 5.389.282 8.53 3.064 8.675 8.124.1 3.535-2.1 7.144-7.411 7.058-4.025-.065-8.033-3.746-8-7.364" fill="#fff"/></g></g></g></svg>