<svg xmlns="http://www.w3.org/2000/svg" width="1440" height="900"><defs><clipPath id="a"><path transform="translate(27.477 33.835)" d="M0 0h1440v900H0z" fill="#bda7f1"/></clipPath><clipPath id="b"><path transform="translate(0 -.002)" d="M0 0h1566.768v1012.812H0z" fill="none"/></clipPath><clipPath id="c"><path d="M0 0h208.429v208.425H0z" fill="#00efb8"/></clipPath></defs><g transform="translate(-27.477 -33.835)" clip-path="url(#a)"><g clip-path="url(#b)"><path d="M460.378 665.413c-9.636 11.408-14.408 26.2-23.436 38.095-5.409 7.127-12.228 13.059-17.994 19.9s-10.6 15.05-10.837 23.994c-.22 8.337 3.6 16.319 8.621 22.98a66.168 66.168 0 00118.1-50.813c-.754-4.471-1.973-8.962-1.488-13.47 1-9.3 8.884-16.386 11.646-25.321a24.325 24.325 0 00-2.933-20.335c-6.363-9.58-20.878-13.264-31.756-14.42a59.528 59.528 0 00-34.186 6.747 54.063 54.063 0 00-15.736 12.643m518.617-649.99c-11.454 13.56-17.126 31.141-27.856 45.28-6.429 8.471-14.534 15.522-21.388 23.654s-12.6 17.889-12.881 28.52c-.262 9.909 4.284 19.4 10.247 27.315a78.648 78.648 0 00140.375-60.4c-.9-5.314-2.345-10.652-1.769-16.011 1.191-11.053 10.56-19.477 13.843-30.1a28.913 28.913 0 00-3.486-24.171c-7.563-11.387-24.816-15.766-37.746-17.14A70.756 70.756 0 00997.701.39a64.261 64.261 0 00-18.7 15.028" fill="#8e5cff"/><path d="M1069.571 303.087c-18.909 16.1-32.173 40.188-30.7 64.977s20.165 48.85 44.779 52.147c22.092 2.958 42.96-9.995 60.749-23.425 16.767-12.658 33.181-26.684 43.456-45.008s13.441-41.851 3.3-60.252c-23.95-43.477-94.377-11.608-121.59 11.561" fill="#ffd200"/><path d="M295.37 343.616c-.587 6.055-.829 13.179 6.182 15.955a13.655 13.655 0 008.587.329 138.863 138.863 0 0032.073-13.185 16.046 16.046 0 006.457-6.532c4.482-8.74-2.45-15.486-9.026-19.969a126.88 126.88 0 00-30.394-15.033 8.6 8.6 0 00-11.316 6.9c-1.447 10.36-1.583 21.415-2.563 31.532" fill="#ff0c70"/><path d="M1369.113 343.764c-4.706-3.855-10.492-8.018-16.7-3.735a13.645 13.645 0 00-5.05 6.953 138.928 138.928 0 00-6.879 33.988 16.033 16.033 0 001.839 9c4.771 8.587 14.231 6.576 21.615 3.6a126.794 126.794 0 0029.4-16.9 8.6 8.6 0 00.557-13.243c-7.806-6.964-16.919-13.225-24.781-19.666" fill="#00efb8"/><path d="M1346.412 210.53c12.654 2.765 25.841 7.724 38.138 3.656 12.4-4.1 20.662-16.512 33.071-20.574 16.879-5.525 35.733 6.02 52.723.848 9.445-2.875 16.64-10.457 25.346-15.112s21.568-5.163 26.525 3.375c5.051 8.7-2.223 19.863-11.091 24.615-12.687 6.8-27.846 6.2-42.233 6.624s-30.083 2.664-39.885 13.2c-7.73 8.313-11.55 21.43-22.381 24.828-13.568 4.257-25.534-10.077-39.327-13.533-7.879-1.975-16.144-.272-24.158 1.049s-16.6 2.178-23.949-1.276c-9.181-4.314-12.713-14.318-5.976-21.568 8.171-8.793 22.409-8.493 33.2-6.136" fill="#ff0070"/><path d="M42.173 713.563c10.4 7.714 20.4 17.647 33.279 18.984 12.987 1.348 25.618-6.579 38.6-5.191 17.659 1.888 30.115 20.152 47.732 22.408 9.792 1.254 19.465-2.708 29.314-3.381s21.788 4.143 22.8 13.963c1.036 10.008-10.178 17.2-20.215 17.9-14.359.994-27.939-5.769-41.231-11.29s-28.527-9.915-41.791-4.325c-10.46 4.408-19.326 14.8-30.6 13.457-14.119-1.686-19.15-19.667-30.31-28.48-6.375-5.033-14.611-6.872-22.461-8.957s-16.03-4.824-21.316-10.99c-6.6-7.7-5.718-18.274 3.4-22.121 11.06-4.665 23.92 1.45 32.791 8.027m1151.782-359.801a4.678 4.678 0 01-3.312 4.624c-7.657 2.254-9.815-15.766-7.729-19.563 9.243-9.458 11.758 8.712 11.041 14.939m-47.811-23.429c1.615-7.332 8.093-4.679 11.068-.007 2.881 5.288 4.775 20.387-5.082 16.052a31.863 31.863 0 01-5.986-16.045m94.582 3.234c-6.175 14.276-16.609-12.2-10.021-17.484 8.309-4.64 10.514 12.957 10.021 17.484m-102.572-34.613c-7.143-1.241-10.93-23.908.294-19.185 5.515 2.583 8.52 20.662-.294 19.185m113.224-18.226c.071-3.924 4.094-7.071 7.729-4.394 6.612 6.392 5.763 24.918-4.174 17.258a23.913 23.913 0 01-3.555-12.864m-26.628 84.917c-6.308 12.106-13.728-7.453-10.819-13.929 2.151-4.4 7.219-2.429 9.36 1.066a42.614 42.614 0 011.459 12.863m-60.056 5.064c5.766-14.229 16.95 13.977 9.336 15.868-6.752 2.371-10.06-12.168-9.336-15.868m43.73-54.886c-7.62 17.33-19.22-23.1-3.78-12.839a16.327 16.327 0 013.78 12.839m-33.35-90.869c6.141-.31 8.858 19.624 1.323 18.361-6.923-.062-9.751-20.022-1.318-18.412l-.005.051m14.594 57.826c-6.283-.792-8.651-20.911.531-17.3 4.734 2.606 7.04 18.044-.531 17.3m-28.465-18.926c-4.354 12.02-13.813-3.068-10.477-9.768 6.09-7.681 11.507 3.5 10.566 9.768h-.089m-12.878-28.375c-5.995 16.14-18.111-16.629-4.92-12.547 4.2 1.75 5.192 9.217 4.92 12.547m76.158 56.546c-3.079 11.627-12.306 2.049-10.655-6.218-.355-3.639 3.8-6.724 7.047-4.256 3.059 2.533 3.154 6.672 3.608 10.474m-20.649-51.432c5.9 2.009 7.266 19.647-1.789 16.167-5.2-3.1-5.993-16.845 1.789-16.167m33.057-14.474v.54l1.374-.507c6.006 1.6 9.79 17.7.518 16-5.622-1.961-8-14.006-1.9-16.034m-63.463 75.301c-3.658 10.729-12.023-1.635-10.507-7.716 4.87-11.121 11.854 1.014 10.507 7.716m58.006-33.249c-.134-.068-.288-.149-.49-.254-5.76 2.487-8.6-11.577-5.832-14.581 7.005-6.714 12.62 12.2 6.322 14.835"/><path d="M1026.471 536.469c1.508-.608 2.305.24 3.122 1.675 9.878-22.276 48.541-30.216 65.005-8.735 7.738-9.359 15.133-19.747 29.513-22.04 27.208-9.764 45.98 3.515 57.931 26.341 3.909-4.442 6.541-10.071 14.012-12.112 11.638.3 22.488 1.717 32.3 8.751 29.121 16.541 29.719 54.3 12.977 78.675-11.877 12.4-34.271 13.517-49.886 6.482-3.686-1.495-5.347 6.609-9.353 8.053-16.454 10.584-38.252 3.762-57.59 3.2a70.015 70.015 0 01-20.423-11.677c-2.924-1.281-4.483-6.7-7.891-6.227-5.465 2.781-9.04 8.606-15.9 9.415-14.8 1.8-30.844-2.984-40.9-14.542-20.413 20.981-52.4-3.374-58.349-25.4-2.459-15.475-1.779-45.165 21.748-44.125 6.853-2.012 17.291-2.687 23.677 2.262" fill="#8e5cff"/><path d="M603.5 1014.398c-5.045-3.81-10.19-7.659-15.293-11.567-3.153-2.415-3.006-2.359-.598-5.547a114.066 114.066 0 006.829-10c3.535-5.894 6.815-11.943 10.246-17.896a41 41 0 004.573-13.663c.47-2.679 1.146-5.338 1.377-8.035a56.645 56.645 0 00.172-9.605c-.504-5.951-1.282-11.882-2.082-17.805a96.343 96.343 0 00-12.266-35.755c-6.165-10.646-14.75-19.074-23.517-27.393a38.527 38.527 0 00-5.919-4.006c-1.301-.836-1.475-1.608-.463-2.925q4.673-6.067 9.097-12.324c.827-1.17 1.762-1.59 2.938-.993a74.532 74.532 0 019.166 4.965 99.384 99.384 0 0119.313 17.994c3.625 4.346 7.873 8.227 11.102 12.835 5.947 8.487 12.01 17.024 15.647 26.826a80.006 80.006 0 015.36 30.007 89.557 89.557 0 01-1.482 13.047c-1.263 7.199-2.553 14.413-4.328 21.496a95.716 95.716 0 01-8.232 20.818 124 124 0 01-13.364 20.044c-2.583 3.236-5.44 6.252-8.274 9.481"/><path d="M464.246 936.468c2.477-16.084-2.883-43.454-9.589-58.258-6.3-13.912-16.769-27.461-36.03-31.53-17.3-3.655-31.329 3.961-40.883 15.315-10.177 12.094-3.194 27.419-8.166 39.232-6.266-23.168-10.727-50.73-42.761-58.969-44.129-11.35-53.693 35.956-53.679 60.68.787-18.731-4.138-47.79-29.534-55.3-13.82-4.086-36.346-6.543-48.158 2.035-16.724 12.146-18.125 27.986-22.178 44.027-2.246 8.89-1.851 56.03-1.851 56.03s35.25.787 45.283 1c68.13 1.434 130.848-.365 199.3 2.412 21.028.853 48.7-.853 48.7-.853s-1.218-10.839-.451-15.82" fill="#ffd200"/><path d="M272.483 622.213c.128 3.679-.784 6.919-1.514 10.229-1.325 6.008-2.456 12.08-3.249 18.18a128.346 128.346 0 01-3.267 16.528c-1.479 5.556-2.294 11.285-3.631 16.883a77.328 77.328 0 01-2.767 7.942c-.329.92-.731 1.816-1.021 2.747a2.884 2.884 0 01-2.56 2.178 2.7 2.7 0 01-2.56-2.147c-3.181-11.118-6.427-22.217-9.507-33.363-1.1-4-1.65-8.144-2.737-12.146-.918-3.384-2.211-6.67-3.412-9.973-.636-1.747-1.432-3.437-2.167-5.182-2.783 2.155-5.6 4.249-8.318 6.461-5.022 4.085-9.95 8.286-14.986 12.353q-7.605 6.142-15.355 12.1A24.285 24.285 0 01187 668.99a2.818 2.818 0 01-3.356-.964c-.81-1.15-.36-2.265.267-3.377a157.017 157.017 0 009.712-19.513c3.39-8.6 7.01-17.11 10.786-25.546 1.222-2.731 3.25-5.1 4.9-7.64.626-.964 1.23-1.943 1.988-3.143-.889-.134-1.263-.212-1.642-.243-7.163-.594-14.339-1.063-21.486-1.807-6.08-.634-12.128-1.572-18.186-2.4-5-.68-10-1.359-14.985-2.1-2.912-.432-5.811-.953-8.705-1.493a2.559 2.559 0 01-2.346-2.22c-.16-1.3.641-2.336 2.161-2.828a160.4 160.4 0 0122.775-6.02c3.992-.67 7.867-2.019 11.818-2.962 5.515-1.316 11.052-2.537 16.579-3.8.684-.157 1.362-.336 2.315-.572-.52-.318-.807-.483-1.083-.664-3.09-2.029-6.251-3.959-9.251-6.113-5.038-3.617-9.964-7.391-14.958-11.071-2.875-2.119-5.743-4.255-8.7-6.255-3.954-2.673-8.01-5.195-11.99-7.831-2.676-1.773-5.3-3.622-7.938-5.454a2.561 2.561 0 01-1.177-2.9 2.378 2.378 0 012.505-1.82 21.8 21.8 0 013.2.113q11.692 1.484 23.378 3.035c5 .668 9.984 1.437 14.983 2.106q8.5 1.137 17.009 2.136a1.544 1.544 0 001.208-.809c.942-2.5 1.781-5.033 2.639-7.562.372-1.1.616-2.248 1.076-3.306 1.853-4.256 3.955-8.415 5.607-12.746 1.619-4.242 2.787-8.657 4.183-12.986 2.152-6.671 4.3-13.344 6.524-19.992a9.993 9.993 0 011.727-3.141c1.513-1.829 3.739-1.295 4.579.895.634 1.655 1.705 3.17 2.156 4.861 1.665 6.254 3.424 12.515 3.861 19.005.474 7.046 2.113 13.846 3.839 20.647.466 1.837.747 3.721 1.156 5.8 2.261-2.539 4.33-4.924 6.467-7.246q8.247-8.965 16.554-17.878c2.157-2.308 4.306-4.647 6.665-6.738 4.7-4.17 9.531-8.2 14.344-12.242 1.363-1.145 2.829-2.171 4.288-3.195a2.853 2.853 0 013.791.151c.921.952.8 2.187-.115 3.659-.552.888-.781 1.968-1.258 2.91-2.84 5.609-5.768 11.175-8.538 16.818-.918 1.869-1.411 3.942-2.184 5.887-.675 1.7-1.393 3.387-2.226 5.011-4.137 8.06-8.318 16.1-12.48 24.143a4.7 4.7 0 00-.2.66c2.782.325 5.466.831 8.162.913 5.838.177 11.685.065 17.525.205 6.332.152 12.681.216 18.985.763 5.847.507 11.635 1.66 17.464 2.408 2.96.38 5.987.3 8.924.786a53.959 53.959 0 017.588 2.092 2.9 2.9 0 012.2 2.613 2.763 2.763 0 01-1.968 2.75c-3.065 1.317-6.179 2.518-9.268 3.779-1.361.555-2.688 1.2-4.064 1.7-3.716 1.373-7.435 2.742-11.181 4.03-8.108 2.788-16.3 5.341-24.327 8.348-5.249 1.966-10.263 4.558-15.738 7.031 1.765 1.4 3.2 2.656 4.739 3.747 4.046 2.857 8.265 5.483 12.189 8.495 5.948 4.564 11.768 9.3 17.52 14.11 3.627 3.032 7.027 6.336 10.545 9.5a12.835 12.835 0 001.635 1.156 9.089 9.089 0 013.62 3.84c.815 1.809.431 3.3-1.373 4.12a7.051 7.051 0 01-3.22.686 39.406 39.406 0 01-8.221-1c-7.981-2.288-16.319-2.477-24.345-4.442-7.027-1.72-14.081-3.327-21.123-4.982-.949-.223-1.9-.433-3.026-.688" fill="#00efb8"/><path d="M1395.285 595.909c-18.809-8.089-32.37-20.766-43.156-36.017-6.016-8.508-12.664-16.781-18.274-25.425-6.884-10.605-5.684-10.211 2.648-13.937 7.855-3.513 16.335-6.191 24.482-9.32a500.498 500.498 0 0015.6-6.32c3.433-1.453 4.877-.966 6.672 2.606 1.729 3.439 3.059 7.011 5.19 10.306a81.965 81.965 0 009.208 12.151c4.635 4.872 9.843 9.4 15.04 13.875 10.423 8.97 22.189 15.721 35.619 19.282 7.865 2.086 15.765 3.9 23.649 5.844a40.735 40.735 0 014.048 1.077c2.772 1 4 2.364 3.692 5.084-1.585 14.088-2.939 28.235-4.2 42.4-.211 2.378-1.62 2.822-3.967 2.375-9.14-1.746-18.3-3.27-27.412-5.406-16.968-3.976-33.537-9.583-48.846-18.579"/><path d="M1291.677 786.852c-1.732 3.639-3.264 6.983-4.9 10.275-5.544 11.15-10.995 22.35-16.775 33.377-1.665 3.177-4.236 5.9-6.55 8.7-1.75 2.117-4.329 1.618-5.09-1a29.535 29.535 0 01-1.3-7.06c-.2-5.5.183-11.038-.178-16.526-.464-7.057-1.425-14.082-2.229-21.666-1.075.818-1.65 1.246-2.213 1.688q-12.671 9.936-25.336 19.878c-.6.467-1.148.988-1.744 1.453-4.533 3.537-9.029 7.126-13.656 10.535a3.256 3.256 0 01-2.97.114c-.74-.462-.982-1.776-1.351-2.752-.1-.265.088-.676.219-.988 2.717-6.467 5.233-13.029 8.222-19.367 3.814-8.088 8.012-15.993 12.153-24.193-.821-.284-1.684-.623-2.571-.882-7.325-2.138-14.711-4.086-21.967-6.437-7.324-2.373-14.518-5.147-21.774-7.732a2.447 2.447 0 01-1.858-2.836 3.9 3.9 0 011.844-2.577 17.2 17.2 0 016.389-1.4c12.616.494 24.962-1.532 37.32-3.583 2.9-.481 5.84-.736 9-1.125-3.739-4.122-7.4-8.005-10.879-12.046-2.419-2.81-4.65-5.788-6.851-8.776-4.529-6.149-8.967-12.365-13.478-18.527-.911-1.245-1.648-2.445-.554-3.908 1.174-1.569 2.752-1.495 4.262-.722 4.341 2.222 8.578 4.651 12.952 6.8q11.556 5.682 23.237 11.106c4.226 1.955 8.588 3.616 13.389 5.619-.311-3.2-.425-6.2-.919-9.131-2.672-15.867-2.571-31.834-1.893-47.828a20.494 20.494 0 01.279-2.254c.227-1.474.866-2.641 2.48-2.894 1.72-.269 2.745.714 3.336 2.161.99 2.421 1.8 4.915 2.836 7.317 4.912 11.447 9.905 22.859 14.792 34.316 1.239 2.905 2.107 5.967 3.3 8.894 1.727 4.24 3.6 8.422 5.288 12.357a89.439 89.439 0 006.754-6.142c10.028-11.154 21.53-20.71 32.74-30.585a21.139 21.139 0 013.648-3.015 4.694 4.694 0 013.365-.285c1.341.45 1.578 1.925 1.133 3.173-2.673 7.5-4.591 15.232-9.084 22.075-2.913 4.435-4.654 9.644-6.9 14.517-.515 1.121-.93 2.288-1.513 3.738a13.037 13.037 0 001.431-.474c7.793-3.784 15.546-7.653 23.382-11.345 5.642-2.659 11.4-5.064 17.091-7.627 1.5-.674 2.51-.349 3.256 1.309l-31.827 36.029c3.183 1.078 6.334 2.129 9.474 3.21q13.749 4.735 27.491 9.5a4.719 4.719 0 012.035.939 6.452 6.452 0 011.644 2.97c.217 1.539-1.07 2.3-2.419 2.607a14.418 14.418 0 01-3.073.293c-10.941.093-21.874.157-32.778-1.1-3.181-.367-6.44-.057-9.976-.057.578 3.951 1.212 7.989 1.749 12.041a76.69 76.69 0 011.082 10.036c-.011 8.677-.326 17.354-.534 26.031a3.578 3.578 0 01-.267 1.813c-.653.949-1.43 2.275-2.344 2.448a3.727 3.727 0 01-2.989-1.47c-6.249-9.151-12.321-18.423-18.539-27.595-2.538-3.743-5.313-7.324-8.3-11.415" fill="#ffd200"/><path d="M1112.442 797.516c5.384.809 9.478 2.736 12.68 7.388a37.231 37.231 0 016.177 17.832c.4 7.4-1.883 13.662-5.69 19.921-4.162 6.841-10.334 9.089-18.067 9.982-12.778 1.475-24.3-3.431-30.594-15.044-5.072-9.359-1.938-23.479 4.673-31.5 3.2-3.885 11.037-7.062 15.861-8.549 3.814-1.176 8.76-.958 14.96-.026" fill="#ff0c70"/><path d="M51.231 466.316c5.384.809 9.478 2.736 12.68 7.388a37.241 37.241 0 016.177 17.832c.4 7.4-1.883 13.662-5.69 19.921-4.162 6.841-10.335 9.09-18.067 9.982-12.778 1.475-24.3-3.431-30.594-15.044-5.072-9.359-1.938-23.479 4.673-31.5 3.2-3.885 11.037-7.062 15.861-8.549 3.814-1.176 8.76-.958 14.96-.026" fill="#ffd200"/><path d="M393.956 234.914c4.178 3.817 4.786 5.078 8.987 7.8 4.032-3.966 11.202-12.173 15.202-17.245 7.529-9.528 10.74-13.062 17.57-23.063 5.942-8.704 13.338-16.313 19.595-24.788 2.39-3.236 3.99-7.235 6.652-10.223a64.942 64.942 0 00-11.143-13.774 56.33 56.33 0 00-8.098 8.564c-3.354 4.285-7.242 7.898-10.902 11.969-4.957 5.511-10.821 10.48-15.453 16.163-4.48 5.495-9.443 10.707-14.393 15.806-5.153 5.302-9.16 8.4-13.5 14.392-1.873 2.59-4.14 6.097-4.14 6.097s6.286 5.253 9.623 8.302m29.689-87.613c-4.042-3.96-4.606-5.242-8.709-8.11-4.165 3.825-11.62 11.774-15.798 16.703-7.852 9.261-11.185 12.682-18.36 22.437-6.243 8.491-13.9 15.838-20.45 24.09-2.5 3.15-4.24 7.091-7.003 9.984a64.942 64.942 0 0010.655 14.153 56.33 56.33 0 008.393-8.274c3.502-4.165 7.514-7.64 11.314-11.58 5.146-5.336 11.18-10.098 16.008-15.615 4.67-5.335 9.81-10.37 14.935-15.294 5.33-5.12 9.443-8.073 13.994-13.918 1.96-2.518 4.348-5.943 4.348-5.943s-6.098-5.47-9.327-8.633"/><path d="M223.992 422.945c-10.26-3.215-21.618-8.843-30.706-17.079-10.924-9.9-16.611-22.039-16.445-35.1.178-14.045 5.627-26.633 10.9-38.807 3.425-7.915 6.661-15.39 8.115-22.59 1.835-9.087 2.049-20.4-2.851-24.917-3.514-3.236-8.326-1.976-15.229 2.4a180.281 180.281 0 01-2.311 21.338c-1.839 11.067-6.191 31.367-14.66 42.979-5.793 7.942-11.982 9.51-16.153 9.427-7.775-.155-13.491-4.128-15.686-10.9-2.8-8.653.582-22.118 10.065-40.022 5.879-11.1 14.954-25.03 20.193-28.986l.735-.555c.66-.5 1.341-1.014 2.041-1.538a17.407 17.407 0 00-.587-4.075c-3.746-10.928-9.23-17.324-15.045-17.555-6.439-.254-17.37 7.315-26.983 29.485a126.63 126.63 0 00-3.879 13.048c-5.464 20.488-12.264 45.986-28.472 50.26-7.55 1.99-15.235-.929-22.841-8.675-6.115-6.229-9.236-15.057-9.275-26.239-.025-6.986 1.139-14.9 3.557-24.191.885-3.4 2.978-7.612 5.627-12.939 2.177-4.378 4.645-9.341 6.293-13.73 1.854-4.939 1.86-7.024 1.807-7.6a5.67 5.67 0 00-1.571-1.669c-.642.124-3.132 1.346-6.583 6.05a41.056 41.056 0 00-5.926 11.245 101.891 101.891 0 00-1.924 10.331c-1.854 12-3.956 25.6-13.633 32.251-4.88 3.355-10.8 4.312-17.581 2.845-8.326-1.8-13.959-5.3-17.225-10.684-5.141-8.487-2.377-18.537.063-27.4 1.415-5.144 2.87-10.433 2.441-14.1a96.218 96.218 0 00-8.293 19.861l-15.1-4.572a136.471 136.471 0 016.778-17.645c3.543-7.384 8.66-15.928 16.842-16.452 4-.257 9.616 1.314 13.626 10.247 3.905 8.7 1.255 18.337-1.084 26.836-1.594 5.8-3.4 12.367-1.781 15.042.859 1.418 3.366 2.639 7.063 3.438 3.567.771 4.877-.129 5.308-.425 4.062-2.794 5.747-13.7 6.977-21.657a112.174 112.174 0 012.3-12.092 55.868 55.868 0 018.035-15.875c5.4-7.55 11.2-11.868 17.242-12.837 3.888-.623 11.317-.3 17.382 8.843 6.258 9.44-.961 23.958-7.331 36.768-1.881 3.782-4.012 8.068-4.486 9.887-4.594 17.657-4.02 29.568 1.707 35.4 3.158 3.216 5.984 4.889 7.559 4.472.669-.177 4.24-1.61 8.887-12.54 3.454-8.126 6.175-18.329 8.361-26.528 1.756-6.584 3.143-11.785 4.649-15.259 11.009-25.39 26.347-39.6 42.082-38.975 7.451.293 21.171 4.348 29.35 28.2l.077.232q.938-.416 1.892-.781c12.287-4.7 20.585-.424 25.383 3.994 11.473 10.562 9.706 29.374 7.631 39.648-1.782 8.824-5.5 17.421-9.1 25.735-4.866 11.24-9.461 21.858-9.6 32.739-.108 8.531 3.681 16.34 11.264 23.212 13.128 11.9 33.187 16.951 39.812 16.214l1.747 15.682c-5.074.565-12.879-.438-21.45-3.125m-64-117.922a168.954 168.954 0 00-7.871 13.662c-8.4 16.329-8.79 24.112-8.2 26.022a5.292 5.292 0 001.038.106s1.652-.423 4.281-4.744c4.332-7.12 8.322-20.153 10.748-35.046" fill="#8e5cff"/><path d="M1548.158 918.038c-9.988 3.982-22.35 6.785-34.6 6.133-14.723-.785-26.8-6.611-34.912-16.849-8.726-11.007-12.445-24.21-16.042-36.979-2.338-8.3-4.546-16.141-7.963-22.643-4.312-8.207-11.289-17.121-17.938-17.528-4.768-.292-7.705 3.722-10.3 11.471a180.14 180.14 0 0111.675 18.01c5.558 9.745 14.995 28.237 15.754 42.589.52 9.817-3.291 14.939-6.579 17.507-6.128 4.788-13.069 5.314-19.046 1.446-7.636-4.942-13.508-17.523-17.453-37.4-2.445-12.319-4.2-28.853-2.631-35.228l.219-.894c.2-.8.4-1.633.613-2.481a17.451 17.451 0 00-3.028-2.791c-9.8-6.112-18.094-7.612-22.75-4.121-5.155 3.867-8.856 16.638-2.319 39.9a126.708 126.708 0 005.226 12.569c8.693 19.34 19.511 43.41 9.637 56.954-4.6 6.31-12.4 8.9-23.192 7.688-8.675-.972-16.667-5.85-23.755-14.5-4.428-5.4-8.52-12.274-12.509-21.008-1.462-3.2-2.495-7.784-3.8-13.588-1.075-4.771-2.293-10.178-3.785-14.622-1.679-5-2.99-6.623-3.394-7.034a5.66 5.66 0 00-2.272-.3c-.42.5-1.58 3.02-1.288 8.847a41.07 41.07 0 002.5 12.463 101.973 101.973 0 005.028 9.227c6.134 10.477 13.088 22.351 9.781 33.62-1.668 5.683-5.652 10.159-11.841 13.3-7.6 3.856-14.169 4.7-20.1 2.584-9.345-3.338-13.543-12.878-17.247-21.3-2.149-4.883-4.359-9.9-7.009-12.481a96.259 96.259 0 006.117 20.646l-14.6 5.986a136.336 136.336 0 01-5.88-17.964c-1.912-7.965-3.335-17.82 2.681-23.391 2.943-2.726 8.287-5.051 17.036-.652 8.521 4.285 12.546 13.431 16.1 21.5 2.422 5.5 5.166 11.739 8.112 12.791 1.562.558 4.277-.077 7.648-1.791 3.254-1.653 3.7-3.178 3.849-3.68 1.388-4.731-4.186-14.251-8.257-21.2a112.278 112.278 0 01-5.848-10.831 55.856 55.856 0 01-3.786-17.385c-.575-9.265 1.2-16.277 5.271-20.838 2.623-2.938 8.587-7.38 19.064-4.112 10.812 3.371 14.376 19.19 17.52 33.146.928 4.12 1.98 8.79 2.76 10.5 7.581 16.6 15.544 25.472 23.668 26.382 4.48.5 7.727.015 8.686-1.3.407-.559 2.273-3.924-1.022-15.335-2.45-8.483-6.779-18.115-10.258-25.854-2.793-6.215-5-11.125-6.024-14.77-7.486-26.642-4.555-47.342 8.042-56.792 5.964-4.475 19.165-9.989 40.566 3.354l.206.13q.467-.914.975-1.8c6.562-11.4 15.7-13.321 22.209-12.922 15.566.951 26.069 16.659 30.944 25.937 4.187 7.969 6.727 16.986 9.182 25.705 3.321 11.79 6.458 22.927 13.219 31.453 5.3 6.686 13.168 10.351 23.387 10.9 17.692.942 36.44-7.8 41.114-12.552l11.252 11.062c-3.579 3.641-10.266 7.789-18.609 11.114m-124.071-51.072c.529 4.639 1.344 10 2.518 15.565 3.788 17.969 8.4 24.25 10.066 25.357a5.323 5.323 0 00.872-.573s1.015-1.371.327-6.381c-1.134-8.257-6.265-20.885-13.783-33.968" fill="#fff"/><path d="M561.84 91.783c.133-7.3 7.617-13.155 14.381-8.175 12.3 11.893 10.722 46.361-7.767 32.108-4.623-7.078-6.44-15.258-6.614-23.933m-15.799-69.66c0 .323.005.584.008 1l2.555-.943c11.176 2.987 18.216 32.939.964 29.771-10.46-3.649-14.89-26.06-3.527-29.832m-10.169 78.242l-.912-.472c-10.717 4.626-16-21.54-10.85-27.129 13.033-12.492 23.482 22.7 11.762 27.6m65.495-25.845l-.912-.472c-10.717 4.626-16-21.54-10.85-27.129 13.033-12.492 23.482 22.7 11.762 27.6" fill="#ffd200"/><g transform="rotate(-10.02 5249.615 -4122.103)" clip-path="url(#c)"><path d="M93.243 192.782c-3.681-9.363-12.985-7.965-19.744-3.217-10.151 7.132-22.947 11.875-34 3.529-7.352-5.552-8.508-13.984-6.995-22.825 1.291-7.543 3.872-16.916-3.586-21.777-6.247-4.074-13.727-4.778-20.329-7.895-8.376-3.954-10.572-12.991-5.663-21.439 3.569-6.142 13.914-9.955 14.517-17.592.312-3.943-2.573-6.4-5.44-8.165-2.65-1.628-5.718-3.18-7.764-5.68C-5.7 75.573 3.26 56.208 16.467 52.117c7.766-2.4 27.342 6.226 29.212-7.234 1.409-10.142-8.065-18.961 1.69-29.871 5.059-5.659 14.074-4.623 19.583-.775 5.633 3.935 10.456 12.7 18.219 10.881 7.49-1.751 7.463-9.662 10.952-15.372 4.094-6.7 11.832-9.918 19.113-9.738 8.1.2 16.726 3.8 21.9 10.685 4.29 5.708 2.953 14 6.8 19.909 4.434 6.812 13.449 5.831 20.131 4.785 10.505-1.644 22.774-3.533 30.546 6.413 5.593 7.159 3.37 15.139-2.054 21.693-4.7 5.678-14.387 12.5-11.552 21.375 3.09 9.676 16.861 8.43 22.438 15.823 3.243 4.3 5.682 9.693 4.813 15.355-1.74 11.334-11.748 18.512-21.058 22.1a13.114 13.114 0 00-3.6 1.826c-6.62 5.314.3 17.824 2.068 23.923 1.006 3.472 1.464 7.311.22 10.693a12.987 12.987 0 01-8.08 7.5c-4.966 1.708-10.523 1.13-15.481-.317-3.227-.941-6.309-2.58-9.435-3.858-2.156-.882-4.554-1.472-6.756-.736-6.859 2.29-1.5 12.847-6 17.237-2.291 2.238-5.818 1.944-8.875 1.382s-6.456-1.181-9.046.646c-2.883 2.033-3.573 6.278-5.947 8.961a9.571 9.571 0 01-7.267 3.024 14.528 14.528 0 01-12.86-7.952c-1.246-2.544-1.939-5.274-2.889-7.691" fill="#00efb8"/></g></g></g></svg>