<svg xmlns="http://www.w3.org/2000/svg" width="540" height="470"><defs><clipPath id="a"><path data-name="長方形 1152" d="M0 0h256.151v406.184H0z" fill="none"/></clipPath></defs><g data-name="グループ 647"><g data-name="グループ 654"><g data-name="グループ 653" transform="translate(283.849 63.816)" clip-path="url(#a)"><path data-name="パス 832" d="M66.177 403.379c-1.416-.209-2.843-.362-4.247-.638a99.024 99.024 0 01-11.12-2.353c-4.147-1.324-7.317-3.941-7.948-8.717a34.419 34.419 0 00-.846-3.555v-5.886a1.539 1.539 0 00.169-.377c.359-2.35.722-4.7 1.062-7.05a22.842 22.842 0 017.77-13.844 37.089 37.089 0 0114.767-8.258 25.142 25.142 0 0110.629-1.083c.579-7.279 4.424-11.486 11.643-12.547.031-.4.077-.719.079-1.044.027-6.815.087-13.631.062-20.447-.029-7.717-.159-15.435-.2-23.152-.019-3.617.118-7.235.1-10.852-.021-5.9.058-11.791 1.612-17.527a13 13 0 016.612-8.451c3-1.585 6.278-1.661 9.552-1.544a5.69 5.69 0 012.461.725 15.966 15.966 0 018.533 11.727c.335 2.014.473 4.062.682 6.1.169 1.636.415 3.276.439 4.917.04 2.635-.114 5.274-.115 7.911 0 7.647.038 15.294.045 22.94q0 6.514-.046 13.026c-.029 4.527-.083 9.054-.116 13.582-.013 1.761 0 3.523 0 5.26a10.6 10.6 0 018.825 6.793c1.645 4.165 1.575 8.178-2.044 11.449 3.637 6.231 4.069 12.806 2.385 19.632-.153.619-.652 1.3-.513 1.819a30.328 30.328 0 01.546 8.619 8.408 8.408 0 01-6.584 8.35c-3.018.559-6.036 1.152-9.021 1.868a77.192 77.192 0 01-18.455 2.393 4.948 4.948 0 00-1.035.216zm37.384-38.453a6.1 6.1 0 01-2.355-.78c-.24-.114-.281-.468-.115-1 .505-1.614 1.641-1.79 2.939-1.846 3.94-.167 7.917-.041 11.813-.544a9.33 9.33 0 006.556-4.232c1-1.513.8-3.3.4-4.967a15.507 15.507 0 00-1.33-3.079c-.79-1.614-2.578-1.66-3.98-2.627a6.325 6.325 0 00-.366 1.119c-.4 3.624-2.613 5.754-5.845 6.9-7 2.489-13.739 1.475-20.221-1.828-1.942-.99-2.511-2.971-2.865-4.936a30.318 30.318 0 01-.164-3.338 4.027 4.027 0 00-.3-.941c-4.521.908-7.51 6.294-5.69 10.455a7.3 7.3 0 002.285 2.236 13.856 13.856 0 001.96 1.163 3.556 3.556 0 011.6 2.716c.119.648-1.084 1.287-2.15 1.144a10.893 10.893 0 01-7.391-4.51 2.088 2.088 0 00-1.856-1.063c-10.132-.16-18.327 3.9-24.82 11.5-2.607 3.05-3.49 6.86-3.754 10.809-.091 1.364-.231 2.723-.3 4.088a1.006 1.006 0 00.328.73 6.862 6.862 0 002.045 1.4 106.373 106.373 0 0012.661 3.386 127.419 127.419 0 0013.733.951c2.781.144 5.577.311 8.352.178a325.815 325.815 0 0015.036-1.092c3.882-.367 7.772-.8 11.6-1.515a47.755 47.755 0 007.969-2.355 4.254 4.254 0 002.5-2.956 26.4 26.4 0 001.3-5.974A27.89 27.89 0 00121 362.85c-5.737 1.822-11.566 2.154-17.435 2.065m9.727-75.753c0-2.824.036-5.65-.008-8.473-.023-1.437-.172-2.874-.3-4.308-.212-2.471-.475-4.937-.664-7.411a7.526 7.526 0 00-1.686-4.338 29.518 29.518 0 00-3.531-3.62c-1.8-1.531-3.931-1.418-6.163-1.06-3.1.5-4.779 2.481-5.864 5.146a30.33 30.33 0 00-2 10.991c-.17 9.521-.2 19.043-.283 28.565-.045 5.435-.05 10.87-.125 16.3-.013.921.166 1.432 1.142 1.7a24.64 24.64 0 0018.732-1.952 1.432 1.432 0 00.876-1.441c-.047-6.016-.053-12.033-.071-18.048v-1.737h-.057v-10.322M48.489 394.165a3.889 3.889 0 001.6 1.323 44.843 44.843 0 0013.84 3.477c4.924.433 9.893.38 14.844.473 3.331.062 6.669.108 10-.02 5.271-.2 10.593.035 15.785-1.073 5.116-1.092 10.177-2.442 15.255-3.712a1.732 1.732 0 001.052-.692c1.243-2.428 2.439-4.888 1.286-7.854-.74.295-1.492.6-2.247.894a57.321 57.321 0 01-15.555 3.3c-5.44.524-10.877 1.2-16.332 1.434-4.873.213-9.774.051-14.651-.184a87.478 87.478 0 01-13.046-1.241c-4.4-.887-8.644-2.582-12.957-3.921a4.961 4.961 0 00-.532-.092c.2 2.754.065 5.509 1.664 7.879m44.106-53.777c.008 1.986.068 3.971.132 5.957.05 1.575 1.316 2.271 2.381 3.02a10.874 10.874 0 005.1 1.532 19.8 19.8 0 009.59-1.412 5.49 5.49 0 01.693-.3c1.8-.386 2.126-1.9 2.2-3.3.375-6.991.627-13.989.936-21.29a33.223 33.223 0 01-21.032 2.164c0 4.605-.013 9.117.006 13.629"/><path data-name="パス 833" d="M120.996 362.862c-5.737 1.822-11.566 2.154-17.435 2.064a6.112 6.112 0 01-2.356-.779c-.239-.114-.28-.469-.115-1 .505-1.614 1.641-1.79 2.938-1.846 3.941-.168 7.917-.042 11.813-.544a9.328 9.328 0 006.556-4.233c1-1.514.8-3.3.4-4.967a15.535 15.535 0 00-1.329-3.08c-.791-1.613-2.579-1.66-3.98-2.626a6.368 6.368 0 00-.367 1.119c-.4 3.623-2.612 5.753-5.845 6.9-7 2.488-13.739 1.475-20.221-1.828-1.941-.99-2.51-2.971-2.865-4.937a30.531 30.531 0 01-.163-3.338 4 4 0 00-.3-.941c-4.52.909-7.51 6.295-5.689 10.456a7.3 7.3 0 002.284 2.236 14 14 0 001.961 1.163 3.559 3.559 0 011.6 2.716c.119.648-1.085 1.287-2.151 1.144a10.891 10.891 0 01-7.39-4.511 2.088 2.088 0 00-1.856-1.062c-10.132-.16-18.327 3.9-24.82 11.5-2.607 3.049-3.49 6.859-3.755 10.809-.091 1.363-.23 2.723-.3 4.087a1.007 1.007 0 00.329.731 6.867 6.867 0 002.045 1.4 106.393 106.393 0 0012.66 3.386 127.678 127.678 0 0013.733.951c2.781.143 5.578.311 8.353.178 5.018-.241 10.034-.62 15.036-1.092 3.882-.367 7.772-.8 11.6-1.515a47.669 47.669 0 007.969-2.356 4.253 4.253 0 002.5-2.956 26.449 26.449 0 001.3-5.974 27.906 27.906 0 00-2.137-11.267" fill="#00efb8"/><path data-name="パス 834" d="M113.287 299.496v-10.322c0-2.824.037-5.65-.008-8.473-.023-1.438-.172-2.874-.295-4.309-.212-2.471-.476-4.937-.665-7.41a7.524 7.524 0 00-1.685-4.339 29.589 29.589 0 00-3.531-3.62c-1.8-1.531-3.932-1.418-6.164-1.059-3.1.5-4.779 2.481-5.864 5.146a30.365 30.365 0 00-2 10.991c-.17 9.52-.2 19.043-.283 28.565-.045 5.434-.049 10.87-.125 16.3-.013.921.165 1.432 1.142 1.7a24.641 24.641 0 0018.732-1.952 1.433 1.433 0 00.875-1.442c-.047-6.015-.053-12.032-.07-18.048v-1.736h-.058" fill="#ffe6d1"/><path data-name="パス 835" d="M46.826 386.281c.2 2.755.064 5.509 1.664 7.88a3.883 3.883 0 001.6 1.322 44.83 44.83 0 0013.838 3.486c4.924.434 9.893.381 14.844.473 3.331.062 6.669.109 10-.02 5.271-.2 10.593.035 15.785-1.072 5.116-1.092 10.177-2.443 15.254-3.712a1.732 1.732 0 001.053-.693c1.243-2.428 2.439-4.888 1.286-7.853-.739.295-1.491.6-2.246.893a57.268 57.268 0 01-15.555 3.3c-5.44.525-10.877 1.2-16.332 1.434-4.873.213-9.774.052-14.651-.184a87.6 87.6 0 01-13.046-1.24c-4.4-.888-8.644-2.582-12.957-3.921a4.9 4.9 0 00-.532-.093" fill="#fff"/><path data-name="パス 836" d="M92.599 326.753c0 4.606-.013 9.118.006 13.629.008 1.987.067 3.972.131 5.957.051 1.576 1.316 2.271 2.381 3.021a10.888 10.888 0 005.1 1.532 19.809 19.809 0 009.591-1.412 5.416 5.416 0 01.691-.3c1.8-.386 2.127-1.9 2.2-3.3.375-6.991.627-13.99.936-21.291a33.224 33.224 0 01-21.036 2.164" fill="#fff"/><path data-name="パス 837" d="M256.151 249.568c-.2.885-.415 1.767-.6 2.655-.649 3.047-2.891 4.791-5.332 6.245a74.936 74.936 0 01-17.3 7.052c-5.325 1.576-10.693 3.013-16.076 4.375-7.756 1.963-15.542 3.809-23.318 5.692-8.88 2.151-17.756 4.316-26.645 6.423-6.753 1.6-13.528 3.109-20.289 4.678-6.365 1.477-12.717 3.014-19.088 4.463q-10.105 2.3-20.239 4.473c-7.67 1.636-15.336 3.29-23.038 4.76-8.823 1.685-17.671 3.239-26.529 4.73-6.295 1.06-12.614 1.981-18.937 2.855-8.849 1.223-17.711 2.35-26.568 3.508-1.445.188-2.9.324-4.345.484H7.62c-.8-.155-1.614-.279-2.409-.468a6.512 6.512 0 01-5.178-6.22 22.755 22.755 0 011.148-7.473c.524-2.018 1.189-4 1.779-6 .745-2.527 1.487-5.055 2.212-7.587q2.175-7.6 4.327-15.207 2.1-7.447 4.17-14.905 1.816-6.5 3.622-13.01c1.425-5.128 2.826-10.262 4.275-15.383 1.1-3.875 2.288-7.724 3.374-11.6.824-2.945 1.5-5.929 2.327-8.873.7-2.48 1.534-4.919 2.267-7.389.718-2.418 1.356-4.86 2.083-7.276.735-2.449 1.539-4.877 2.307-7.317q1.121-3.558 2.228-7.122 1.214-3.916 2.411-7.837c.737-2.41 1.454-4.826 2.2-7.232.605-1.943 1.246-3.875 1.869-5.813.979-3.045 1.946-6.094 2.938-9.135 1.106-3.392 2.243-6.774 3.349-10.166 1.223-3.75 2.417-7.51 3.639-11.261q1.3-3.99 2.638-7.966c1.106-3.3 2.189-6.614 3.347-9.9 1.518-4.305 3.113-8.583 4.651-12.881 1.265-3.531 2.446-7.093 3.752-10.608 1.528-4.112 3.157-8.188 4.733-12.283 1.177-3.058 2.287-6.144 3.52-9.179q3.192-7.855 6.51-15.659c2.47-5.762 4.9-11.541 7.563-17.211q3.93-8.368 8.335-16.508a62.154 62.154 0 015.457-8.156A10.984 10.984 0 01109.345.7c.476-.122.933-.324 1.4-.483a4.478 4.478 0 014.414 1.083c3.657 2.99 7.37 5.936 10.782 9.195 3.811 3.639 7.432 7.5 10.913 11.459 2.468 2.808 4.586 5.928 6.826 8.933 3.627 4.866 7.293 9.7 10.815 14.643 3.1 4.355 6.159 8.755 9.009 13.279 3.826 6.073 7.468 12.264 11.123 18.443 2.485 4.2 4.83 8.481 7.288 12.7 2.287 3.925 4.66 7.8 6.955 11.722 1.145 1.958 2.153 4 3.3 5.951 2.047 3.478 4.19 6.9 6.228 10.383 1.4 2.4 2.71 4.845 4.027 7.289 1.363 2.529 2.757 5.044 4.006 7.629 1.686 3.488 3.2 7.061 4.872 10.555 2.184 4.564 4.448 9.088 6.686 13.625 2.7 5.474 5.515 10.893 8.081 16.428 2.666 5.751 5.158 11.585 7.606 17.433 2.692 6.43 5.171 12.95 7.886 19.37 2.01 4.754 4.377 9.356 6.349 14.125 2.294 5.545 4.383 11.178 6.453 16.813.755 2.054 1.2 4.223 1.785 6.338zm-21.659 10.755c1.288-.449 2.558-.848 3.795-1.331 3.529-1.377 7.136-2.592 10.217-4.916 2.529-1.908 3.9-4.285 2.762-7.72-1.052-3.181-2.117-6.367-3.385-9.467-2.762-6.751-5.636-13.456-8.506-20.163-1.558-3.641-3.28-7.213-4.788-10.876-2.253-5.471-4.315-11.021-6.582-16.486-2.02-4.871-4.108-9.718-6.351-14.49-2.341-4.979-4.94-9.836-7.358-14.779-3.074-6.282-6.061-12.606-9.119-18.9-1.858-3.824-3.707-7.656-5.689-11.417-2.2-4.171-4.5-8.29-6.839-12.383-2.269-3.968-4.665-7.861-6.97-11.808-2.364-4.045-4.662-8.128-7.032-12.169-1.947-3.318-3.978-6.602-5.947-9.918-2.54-4.267-5.025-8.568-7.6-12.814-1.87-3.084-3.99-6.022-5.742-9.169a106.745 106.745 0 00-8.619-13.483c-3.679-4.765-7.156-9.687-10.655-14.587-3.34-4.676-6.636-9.393-10.763-13.423-4.657-4.545-9.354-9.052-14.129-13.472-3.021-2.8-6.523-2.169-8.834.666a39.922 39.922 0 00-3.865 6.212c-1.842 3.384-3.553 6.84-5.3 10.272-1.581 3.098-3.25 6.14-4.669 9.298-2.331 5.187-4.492 10.45-6.724 15.68-1.556 3.639-3.2 7.242-4.653 10.923-2.378 6.025-4.64 12.1-6.935 18.156-1.425 3.764-2.824 7.539-4.224 11.313-1.428 3.85-2.87 7.694-4.255 11.559a661.059 661.059 0 00-3.741 10.792c-1.227 3.622-2.411 7.26-3.615 10.89q-1.39 4.2-2.78 8.39-1.248 3.786-2.482 7.576-1.384 4.249-2.759 8.5c-.825 2.568-1.616 5.147-2.455 7.71-.6 1.842-1.306 3.651-1.874 5.5-.738 2.411-1.344 4.861-2.084 7.271-1.16 3.78-2.384 7.538-3.581 11.307-.868 2.734-1.744 5.467-2.6 8.206q-1 3.194-1.964 6.4-.873 2.884-1.717 5.779-1.351 4.658-2.676 9.324c-.62 2.185-1.218 4.375-1.826 6.564l-2.339 8.434c-.557 2.013-1.1 4.032-1.674 6.04-.585 2.031-1.233 4.045-1.81 6.079-.618 2.177-1.168 4.374-1.78 6.553s-1.272 4.345-1.895 6.522c-.712 2.491-1.4 4.991-2.108 7.483q-1.214 4.253-2.452 8.5c-.748 2.559-1.538 5.106-2.262 7.671-.618 2.19-1.177 4.4-1.747 6.6-.543 2.1-1.07 4.2-1.6 6.306q-1.065 4.247-2.119 8.5c-.215.866-.06 2.78-.577 3.08-.311.18-.786.341-.868.608a34.616 34.616 0 00-1.226 4.712 37.846 37.846 0 00-.3 4.927c-.018.776.517 1.049 1.254.967 3.6-.4 7.214-.754 10.812-1.205 4.614-.579 9.219-1.228 13.825-1.858 1.18-.161 2.355-.368 3.386-.529a16.254 16.254 0 01-.494-2.233 80.851 80.851 0 01-.235-5.368c-.015-2.49.027-4.98.115-7.468a1.712 1.712 0 011.225-1.843 3.229 3.229 0 013.208 1.066c.726.74-.065 1.417-.045 2.125.075 2.543.276 5.091.184 7.628-.068 1.834.622 3.752-.553 5.6 2.364-.257 4.616-.438 6.848-.76 3.2-.462 6.389-1.014 9.573-1.576a.944.944 0 00.535-.723c-.011-3.029-.195-6.063-.078-9.085a44.725 44.725 0 01.886-6.284 1.645 1.645 0 011.411-1.459 3.187 3.187 0 012.75.991c.218.2.854.581.415 1.341a6.216 6.216 0 00-.734 2.67c-.131 2.232-.113 4.475-.136 6.713-.016 1.628 0 3.258 0 5.029l17.349-3.038v-3.441c.011-2.335-.074-4.675.073-7a40.275 40.275 0 01.817-5.193 1.732 1.732 0 01.761-1.1 2.889 2.889 0 013.4 1.081 1.608 1.608 0 01.164.938c-.028.389-.228.767-.255 1.156-.147 2.179-.311 4.358-.379 6.54-.063 2.035-.013 4.073-.013 6.2l16-3.337c-.259-2.377-.5-4.635-.753-6.889-.225-1.962-.485-3.921-.708-5.884-.1-.919.5-2.129 1.087-2.266a1.966 1.966 0 012.407.9c.876-.392 1.026.338 1.1.841.344 2.411.63 4.832.9 7.253.189 1.692.321 3.39.484 5.139l17.243-3.832c-.522-4.08-1.076-7.987-1.477-11.909a4.129 4.129 0 01.755-2.3c.166-.277.916-.216 1.406-.279a2.251 2.251 0 012.315 1.5c.235 1.676.407 3.362.607 5.043.277 2.335.557 4.67.83 6.953 1.47-.349 2.9-.693 4.339-1.032 3.859-.909 7.723-1.8 11.573-2.751a1.127 1.127 0 00.691-.819c-.221-3.224-.528-6.441-.775-9.663a15.5 15.5 0 01-.011-2.912c.156-1.38.747-1.662 2.1-1.729.827-.042 1.1.816 1.516.81 1.049-.012.868.663.932 1.213.07.608.031 1.228.079 1.839.161 2.077.343 4.152.51 6.227.1 1.235.189 2.471.286 3.754l21.289-4.8a2.589 2.589 0 000-.415c-.751-3.678-1.575-7.342-2.206-11.038a7.1 7.1 0 01.6-2.712c.033-.122.265-.245.419-.27a3.11 3.11 0 013.3 2.068c.491 1.921.871 3.872 1.26 5.818.356 1.785.661 3.58.982 5.335a2.227 2.227 0 00.487.036c5.147-1.235 10.294-2.468 15.432-3.742a.9.9 0 00.454-.747q-.837-5.218-1.767-10.42c-.218-1.212-.74-2.409.057-3.587.185-.273.405-.649.674-.714a2.584 2.584 0 013.289 1.965c.706 3.127 1.338 6.273 1.961 9.418.182.922.232 1.869.35 2.87l18.602-4.572c-.171-.838-.278-1.545-.463-2.231-.817-3.034-1.514-6.113-2.563-9.065-.4-1.127.148-1.861.271-2.764.027-.206.562-.44.889-.489a2.346 2.346 0 012.661 1.362 40.462 40.462 0 011.959 5.133c.668 2.272 1.138 4.6 1.73 7.059l17.9-4.819c-1.824-.835-1.868-2.278-1.933-3.74a16.555 16.555 0 00-2.026-8.109 4.167 4.167 0 00.564-.787c.58-1.413 1.625-1.824 2.774-.879a6.474 6.474 0 011.814 2.274c1.418 3.236 1.4 6.708 1.407 10.278"/><path data-name="パス 838" d="M234.493 260.328c0-3.57.011-7.042-1.407-10.278a6.487 6.487 0 00-1.814-2.274c-1.149-.945-2.194-.535-2.774.878a4.222 4.222 0 01-.564.787 16.559 16.559 0 012.026 8.11c.065 1.462.11 2.905 1.934 3.74l-17.9 4.819c-.592-2.457-1.061-4.786-1.729-7.059a40.737 40.737 0 00-1.959-5.133 2.348 2.348 0 00-2.661-1.362c-.327.049-.862.284-.89.489-.122.9-.672 1.637-.271 2.764 1.05 2.953 1.746 6.032 2.564 9.065.185.686.291 1.394.462 2.23l-18.607 4.558c-.118-1-.168-1.948-.351-2.87-.623-3.145-1.255-6.291-1.961-9.418a2.584 2.584 0 00-3.289-1.966c-.268.066-.489.442-.673.714-.8 1.179-.275 2.376-.058 3.588q.936 5.2 1.768 10.42a.9.9 0 01-.455.747c-5.137 1.273-10.284 2.507-15.431 3.742a2.235 2.235 0 01-.488-.036c-.321-1.756-.626-3.55-.982-5.335-.388-1.947-.768-3.9-1.26-5.818a3.107 3.107 0 00-3.3-2.068c-.155.025-.387.148-.42.27a7.12 7.12 0 00-.6 2.711c.632 3.7 1.456 7.362 2.207 11.038a2.6 2.6 0 010 .416l-21.289 4.8c-.1-1.283-.186-2.52-.286-3.754-.168-2.076-.349-4.151-.511-6.227-.047-.612-.008-1.232-.078-1.84-.064-.549.117-1.225-.933-1.213-.419.005-.687-.852-1.515-.811-1.356.067-1.946.35-2.1 1.729a15.513 15.513 0 00.011 2.913c.245 3.222.554 6.439.775 9.662a1.128 1.128 0 01-.691.819c-3.85.95-7.713 1.843-11.573 2.752-1.435.338-2.869.682-4.339 1.032l-.83-6.953c-.2-1.682-.372-3.367-.606-5.043a2.252 2.252 0 00-2.316-1.5c-.488.065-1.238 0-1.406.28a4.133 4.133 0 00-.755 2.3c.4 3.923.955 7.83 1.477 11.91l-17.244 3.832c-.162-1.749-.294-3.448-.483-5.139a244.985 244.985 0 00-.9-7.253c-.072-.5-.224-1.233-1.1-.842a1.967 1.967 0 00-2.407-.9c-.585.137-1.191 1.347-1.087 2.266.223 1.962.483 3.921.707 5.883.258 2.254.495 4.511.753 6.889l-16 3.337c0-2.124-.049-4.162.014-6.2.068-2.181.232-4.361.379-6.539.026-.389.226-.767.255-1.157a1.607 1.607 0 00-.164-.937 2.888 2.888 0 00-3.4-1.081 1.732 1.732 0 00-.761 1.1 40.426 40.426 0 00-.818 5.192c-.145 2.326-.062 4.666-.073 7v3.442l-17.344 3.042c0-1.772-.013-3.4 0-5.03.023-2.238.005-4.48.135-6.713a6.213 6.213 0 01.735-2.669c.438-.76-.2-1.142-.415-1.341a3.186 3.186 0 00-2.751-.992 1.644 1.644 0 00-1.41 1.458 44.761 44.761 0 00-.886 6.284c-.116 3.023.067 6.056.077 9.085a.943.943 0 01-.535.723c-3.186.561-6.373 1.114-9.574 1.576-2.231.322-4.483.5-6.848.76 1.176-1.848.485-3.768.553-5.6.094-2.537-.108-5.085-.183-7.628-.021-.708.771-1.385.045-2.125a3.23 3.23 0 00-3.208-1.066 1.712 1.712 0 00-1.225 1.842q-.132 3.732-.115 7.469c.011 1.789.107 3.581.236 5.368a16.148 16.148 0 00.494 2.233c-1.031.162-2.206.367-3.386.529-4.608.63-9.212 1.28-13.825 1.858-3.6.45-7.209.805-10.812 1.205-.737.082-1.272-.191-1.254-.967a37.869 37.869 0 01.295-4.928 34.775 34.775 0 011.226-4.711c.082-.267.557-.427.868-.608.517-.3.362-2.215.576-3.08q1.054-4.25 2.12-8.5c.527-2.1 1.056-4.206 1.6-6.306.57-2.2 1.129-4.409 1.746-6.6.725-2.566 1.515-5.112 2.262-7.672q1.24-4.243 2.453-8.5c.711-2.492 1.4-4.991 2.108-7.483.622-2.177 1.283-4.343 1.895-6.523s1.162-4.375 1.779-6.552c.577-2.034 1.226-4.048 1.811-6.079.578-2.008 1.116-4.027 1.674-6.041l2.339-8.433c.607-2.189 1.206-4.38 1.826-6.564q1.324-4.666 2.677-9.324.84-2.9 1.717-5.78.968-3.2 1.963-6.4c.858-2.738 1.734-5.471 2.6-8.206 1.2-3.768 2.421-7.527 3.581-11.306.739-2.41 1.345-4.861 2.084-7.271.567-1.852 1.272-3.661 1.874-5.5.837-2.564 1.629-5.143 2.455-7.711q1.366-4.253 2.759-8.5 1.236-3.789 2.482-7.576 1.383-4.2 2.78-8.39c1.2-3.63 2.387-7.268 3.615-10.89 1.222-3.6 2.457-7.208 3.741-10.792 1.385-3.865 2.827-7.71 4.254-11.558 1.4-3.775 2.8-7.55 4.225-11.315 2.294-6.058 4.557-12.13 6.934-18.156 1.453-3.679 3.1-7.283 4.654-10.922 2.236-5.229 4.4-10.492 6.728-15.679 1.419-3.159 3.088-6.206 4.662-9.295 1.75-3.433 3.462-6.889 5.3-10.272a39.926 39.926 0 013.866-6.212c2.31-2.834 5.813-3.462 8.834-.666q7.162 6.63 14.128 13.472c4.128 4.031 7.423 8.745 10.763 13.423 3.5 4.9 6.977 9.822 10.655 14.588a106.641 106.641 0 018.62 13.482c1.752 3.146 3.872 6.085 5.741 9.169 2.575 4.246 5.059 8.547 7.6 12.813 1.973 3.315 4 6.6 5.952 9.923 2.37 4.041 4.668 8.125 7.032 12.17 2.306 3.946 4.7 7.84 6.97 11.807 2.34 4.093 4.639 8.213 6.838 12.385 1.982 3.76 3.83 7.592 5.689 11.416 3.057 6.29 6.045 12.614 9.118 18.9 2.418 4.944 5.018 9.8 7.359 14.778 2.243 4.771 4.33 9.619 6.351 14.49 2.267 5.465 4.329 11.015 6.582 16.486 1.507 3.662 3.23 7.234 4.788 10.876 2.87 6.707 5.744 13.412 8.506 20.163 1.267 3.1 2.333 6.285 3.385 9.467 1.136 3.434-.234 5.813-2.762 7.719-3.081 2.324-6.688 3.538-10.217 4.917-1.237.482-2.507.881-3.795 1.331m-131.828-41.629a71.812 71.812 0 0017.371-3.486q11.926-3.928 23.8-8.025a42.364 42.364 0 006.869-2.962c1.986-1.113 2.564-2.292 1.606-4.507a15.9 15.9 0 00-.781-1.672 62.153 62.153 0 00-9.255-11.878c-3.723-3.869-7.4-7.783-11.2-11.576q-6.54-6.533-13.287-12.856a6.665 6.665 0 00-2.729-1.119c-.136-.038-.491.7-.756 1.078-.032.047-.154.021-.2.064a10.157 10.157 0 00-3.161 4.316c-1.183 3.482-2.589 6.889-3.811 10.357-1.041 2.96-1.973 5.96-2.916 8.954a266.98 266.98 0 00-1.913 6.438c-.979 3.408-1.982 6.811-2.888 10.24-.952 3.6-1.876 7.217-2.674 10.856-.642 2.932-.229 4.15 2.467 5.165a18.366 18.366 0 003.46.612" fill="#9a88ff"/><path data-name="パス 839" d="M102.66 218.692a18.367 18.367 0 01-3.46-.612c-2.7-1.015-3.108-2.233-2.467-5.165.8-3.639 1.722-7.253 2.674-10.857.906-3.427 1.909-6.83 2.888-10.239.618-2.152 1.241-4.3 1.913-6.438.942-2.994 1.874-5.994 2.916-8.953 1.221-3.469 2.627-6.875 3.811-10.357a10.163 10.163 0 013.16-4.316c.049-.044.17-.018.2-.064.265-.373.619-1.116.755-1.078a6.656 6.656 0 012.728 1.119q6.731 6.335 13.287 12.856c3.8 3.793 7.474 7.707 11.2 11.575a62.178 62.178 0 019.255 11.881 16.191 16.191 0 01.781 1.673c.958 2.215.38 3.394-1.606 4.507a42.337 42.337 0 01-6.87 2.962q-11.866 4.106-23.8 8.025a71.822 71.822 0 01-17.371 3.486m13.319-54.1c-1.148 2.94-2.289 5.67-3.282 8.452q-2.052 5.748-3.913 11.565a371.046 371.046 0 00-3.528 11.819c-.854 3.027-1.568 6.093-2.354 9.139-.475 1.848-1 3.685-1.441 5.542-.341 1.445-.579 2.915-.887 4.5.566 0 .814.01 1.06 0a61.22 61.22 0 0016.464-3.163q9.486-3.148 18.925-6.436c3.557-1.243 7.075-2.6 10.582-3.981 1.176-.462 1.35-.97.705-2.036a46.926 46.926 0 00-4.43-6.82q-6.982-7.967-14.383-15.564c-4.3-4.4-8.854-8.549-13.517-13.02"/><path data-name="パス 840" d="M131.339 148.038c-1.646-.339-3.318-.584-4.933-1.037a15.116 15.116 0 01-8.561-5.961 14.612 14.612 0 01-2.371-7.353c-1.686-.081-3.393-.138-5.1-.252-5.929-.4-11.878-.614-17.776-1.279a73.081 73.081 0 01-16.184-3.573 6.49 6.49 0 01-1.185-.558c-1.128-.683-1.361-1.277-.916-2.222a2.1 2.1 0 012.476-.812 56.875 56.875 0 005.694 1.8c3.628.764 7.3 1.318 10.956 1.952a3.424 3.424 0 00.623.005 14.269 14.269 0 018.531-11.189c5.017-2.29 9.447-1.14 13.374 2.507 3.1-3.668 7.1-3.4 11.148-2.367a10.477 10.477 0 017.2 6.06 33.4 33.4 0 011.4 5.433c10.076-1.106 20.415-1.974 30.092-6.308-.531-1.362-1.009-2.642-1.527-3.905a2.954 2.954 0 011.033-3.768 1.159 1.159 0 011.685.3 34.262 34.262 0 011.573 3.116c.917 1.878 1.846 3.75 2.738 5.64a9.113 9.113 0 01.822 2.153 1.4 1.4 0 01-1.992 1.629 3.06 3.06 0 01-1.3-.756c-.7-.829-1.362-.725-2.282-.361a78.637 78.637 0 01-14.744 3.981c-.736.137-.953.436-1.108 1.137-1.03 4.67-2.961 8.848-6.914 11.8a21.144 21.144 0 01-10.363 4.019 5.3 5.3 0 00-.666.166zm-34.166-18.92a223.575 223.575 0 0033.963.386 9.952 9.952 0 00-2.033-6.263c-2.857-3.549-9.692-3.519-11.237.87-.324.918-1.3 1.1-2.334.894-1.428-.287-1.907-1.508-2.633-2.493a5.967 5.967 0 00-7.13-2.319 13.377 13.377 0 00-7.389 5.839 17.535 17.535 0 00-1.206 3.086m49.5 2.651a202.969 202.969 0 01-27.791 1.89 6.816 6.816 0 00.171.948c.35.985.673 1.984 1.1 2.937 2.54 5.688 9.23 7.7 13.579 6.805a17.378 17.378 0 009.971-5.98 13 13 0 002.971-6.6"/><path data-name="パス 841" d="M92.415 91.406a5.72 5.72 0 01-5.073-2.009c-1.241-1.41-2.225-2.982-1.706-5 .085-.329.438-.824.676-.83.474-.01 1.122-.926 1.468.157 1.807.4 1.588 2.516 2.927 3.429a6.028 6.028 0 003.391 1.123c1.367.055 2.326-.637 3.471-1.109a17.323 17.323 0 0110.394-1.177 12.146 12.146 0 017.343 4.53 14.644 14.644 0 013.051 7.974 14.287 14.287 0 01-8.32 14.435c-1.334.655-3.023.633-4.561.823a11.859 11.859 0 01-7.209-.906c-3.219-1.7-5.972-3.9-7.3-7.4-1.795-4.748-1.618-9.36 1.343-13.671a1.948 1.948 0 00.1-.365m11.683-2.6a33.215 33.215 0 00-4.046.989 10.264 10.264 0 00-6.786 9.612c.048 2.687.49 5.292 2.6 7.408 2.424 2.432 5.134 3.989 8.618 3.985a10.158 10.158 0 007.852-3.564 10.633 10.633 0 001.992-3.564 12.85 12.85 0 00.483-3.772 10.889 10.889 0 00-1.865-6.968c-2.042-2.725-5.034-3.818-8.847-4.125"/><path data-name="パス 842" d="M128.237 91.242c-1.71-.852-3.521-1.362-4.216-3.182a5.356 5.356 0 01-.287-2.62c.066-.429.865-.746 1.362-1.137 1.111.964 2.127 1.92 3.221 2.778a6.642 6.642 0 005.629 1.183 14.3 14.3 0 0112.914 3.4 11.713 11.713 0 013.573 5.659 15.611 15.611 0 01.8 3.611c.1 3.333-.294 6.621-2.4 9.372-1.513 1.977-3.1 3.916-5.542 4.914a17.053 17.053 0 01-7.058 1.254c-3.835-.1-6.822-1.831-9.454-4.293a21.046 21.046 0 01-2.75-3.858 9 9 0 01-1.323-4.7 13.782 13.782 0 014.28-11.216c.39-.367.785-.729 1.256-1.165m19.239 9.107l.159-.048a11.908 11.908 0 00-.659-2.158c-.688-1.322-1.218-2.945-2.316-3.8-4.317-3.352-8.738-3.838-13.3-1.06-2.787 1.7-4.784 4.044-4.94 7.632-.113 2.591.017 5.1 1.535 7.23a19.445 19.445 0 003.308 3.206 9.026 9.026 0 006.231 1.839 9.518 9.518 0 006.734-2.551 9.667 9.667 0 003.4-7.371c-.014-.974-.1-1.947-.153-2.921"/><path data-name="パス 843" d="M97.173 129.118a17.537 17.537 0 011.206-3.086 13.368 13.368 0 017.389-5.838 5.966 5.966 0 017.13 2.319c.727.985 1.206 2.205 2.634 2.493 1.036.209 2.01.024 2.333-.894 1.546-4.39 8.381-4.419 11.238-.87a9.946 9.946 0 012.032 6.262 223.457 223.457 0 01-33.963-.385" fill="#ff0091"/><path data-name="パス 844" d="M146.669 131.769a13 13 0 01-2.971 6.6 17.379 17.379 0 01-9.971 5.98c-4.349.9-11.039-1.118-13.579-6.805-.426-.953-.749-1.952-1.1-2.937a6.813 6.813 0 01-.171-.948 202.974 202.974 0 0027.791-1.89" fill="#ff0091"/><path data-name="パス 845" d="M104.099 88.803c3.813.307 6.8 1.4 8.847 4.125a10.889 10.889 0 011.865 6.968 12.85 12.85 0 01-.483 3.772 10.633 10.633 0 01-1.992 3.564 10.158 10.158 0 01-7.852 3.564c-3.484 0-6.194-1.553-8.618-3.985-2.108-2.116-2.549-4.72-2.6-7.408a10.264 10.264 0 016.791-9.611 33.215 33.215 0 014.046-.989" fill="#fff"/><path data-name="パス 846" d="M147.476 100.348c.053.974.14 1.947.153 2.921a9.667 9.667 0 01-3.4 7.371 9.518 9.518 0 01-6.734 2.551 9.026 9.026 0 01-6.231-1.839 19.444 19.444 0 01-3.308-3.206c-1.518-2.134-1.647-4.639-1.535-7.23.156-3.588 2.153-5.935 4.94-7.632 4.565-2.778 8.986-2.292 13.3 1.06 1.1.852 1.629 2.475 2.316 3.8a11.906 11.906 0 01.659 2.158l-.159.048" fill="#fff"/><path data-name="パス 847" d="M111.389 99.004c.09 2.877-3.013 6.638-5.626 6.581a7.646 7.646 0 01-4.911-1.9 6.315 6.315 0 013.708-10.995 6.281 6.281 0 016.829 6.313"/><path data-name="パス 848" d="M138.751 108.29a6.526 6.526 0 01-6.937-6.509c-.129-3.658 2.492-6.248 6.084-6.585 3.74-.35 7.052 3.524 7.045 6-.012 4.128-1.838 6.367-6.192 7.09"/><path data-name="パス 849" d="M149.526 266.419a28.218 28.218 0 013.227.666c4.587 1.5 6.739 5.056 7.882 9.473 1.212 4.68-.512 8.472-3.561 11.81-3 3.286-6.02 6.574-9.234 9.648-3.312 3.169-6.876 6.075-10.314 9.112-1.626 1.436-3.22 2.912-4.828 4.371a1.7 1.7 0 00-.333 2.467c1.306 1.937 2.637 3.862 3.873 5.845 2.771 4.453 6.581 7.942 10.413 11.418a8.3 8.3 0 00.785.585 1.223 1.223 0 00.225.111c3.06-2.206 6.471-2.132 9.926-1.736a4.93 4.93 0 011.976.541c3.492 2.145 7.86 2.308 11.116 4.964.2.16.426.279.62.442a2.794 2.794 0 002.728.79 5.655 5.655 0 013.132.577 16.047 16.047 0 017.835 7.339c3.432 6.011 3.7 12.4 2.52 18.983a76.381 76.381 0 01-1.856 8.353c-1.065 3.567-2.338 7.078-3.671 10.555a88.353 88.353 0 01-3.446 7.837c-1.828 3.665-4.8 6.344-8.09 8.658-3.186 2.241-6.508 4.3-10.46 4.846-4.51.626-9.039 1.133-13.567 1.622a61.341 61.341 0 01-7.029.487 100.04 100.04 0 01-9.421-.508 94.376 94.376 0 01-11.062-1.544c-6.6-1.478-9.331-4.773-9.854-10.87a11.755 11.755 0 01.317-4.594 5.608 5.608 0 00.092-3.025c-.69-3.85.789-7.041 3.018-10.087 4.787-6.542 11.444-9.414 19.24-10.171a9.509 9.509 0 012.491.028c.94.16 1.429-.127 1.626-1.159-4.727-2.3-6.772-5.783-4.361-10.987-2.026-1.231-4.059-2.344-5.964-3.648a56.243 56.243 0 01-13.777-12.852c-3.289-4.461-6.408-9.06-9.384-13.736a19.347 19.347 0 01-2.817-12.634 12.377 12.377 0 011.828-4.888 84.027 84.027 0 016.049-8.929 108.928 108.928 0 017.94-8.733c3.489-3.514 7.122-6.887 10.744-10.264 3.99-3.721 8.182-7.211 13.337-9.2a59.426 59.426 0 016.715-1.753 4.7 4.7 0 00.545-.213zm-9.544 99.15c-.155.664-.158.675.569.905a39.5 39.5 0 0112.84 7.161 4.772 4.772 0 012.1 3.418c.039.6.212 1.313-.49 1.457a2.133 2.133 0 01-1.731-.385 29.464 29.464 0 00-6.893-5.071c-4.514-2.746-9.251-4.674-14.684-4.091-8.6.923-14.668 5.268-17.736 13.444a3.878 3.878 0 002.3 5.253 23.4 23.4 0 003.824 1.211 97.84 97.84 0 0016.8 1.867c2.964.135 5.924.364 8.889.451 2.711.08 5.429.113 8.138.01 2.728-.1 5.174-1.3 7.65-2.324a9.451 9.451 0 004.6-3.8c.6-.985 1.156-2 1.7-3.021a33.193 33.193 0 002.342-4.506c1.464-4.13 2.854-8.292 4.066-12.5a30.851 30.851 0 00-.137-18.622 16.545 16.545 0 00-7.424-9.047 1.424 1.424 0 00-.432-.077l.483 1.1a18.1 18.1 0 01-.5 15.559 4.75 4.75 0 01-3.72 3.025c-.568.068-1.513.085-1.673-.21a3.267 3.267 0 01-.071-1.958c.067-.388.485-.7.707-1.076a12.921 12.921 0 001.049-1.886 16.518 16.518 0 001.178-7.786c-.5-4.7-2.272-8.643-7-10.524-2.129-.847-4.261-.49-6.654.287a5.638 5.638 0 001.265.582c2.671.315 4.268 2.072 5.294 4.281 2.372 5.1 2.037 9.825-1.654 14.079-4.639 5.348-11.294 5.964-17.047 3.495-1.018-.437-2.023-.906-3.037-1.362-1.067 2.9-.582 4.254 1.96 5.692.221.125.447.239.673.355a12.807 12.807 0 005.032 1.026 22.709 22.709 0 007.215-.467 12.119 12.119 0 013-.21c.256 0 .619.409.734.707a10.3 10.3 0 01.336 1.771 4.26 4.26 0 01-1.076.632 16.861 16.861 0 01-3.485.8c-3.056.2-6.121.249-9.3.362m16.432-85.772c-.242-1.114-.4-2.254-.739-3.339-1.515-4.915-4.522-7.388-10.163-6.14a27.892 27.892 0 00-11.743 6.2c-4.258 3.53-8.294 7.34-12.292 11.17-4.148 3.973-8.326 7.955-11.612 12.713a70.718 70.718 0 00-5.232 8.412c-1.611 3.224-.673 6.578.746 9.644a64.016 64.016 0 007.774 12.147c1.625 2.1 3.15 4.277 4.8 6.353.713.894 1.211 2.276 2.835 1.85 1.466-.384 2.98-.627 4.4-1.143a16.335 16.335 0 009.971-10.235 2.1 2.1 0 00-.4-2.252c-2.261-2.956-4.539-5.914-6.575-9.024a4.9 4.9 0 01.185-5.89 49.68 49.68 0 015.437-5.262c3.858-3.493 7.86-6.833 11.608-10.439 2.906-2.8 5.55-5.867 8.243-8.876 1.476-1.65 2.737-3.459 2.757-5.884m-43.2 111c.179 1.259.326 2.613.57 3.949.624 3.43 2.857 5.322 6.127 5.941 2.979.564 6 .974 9.016 1.263a80.5 80.5 0 0010.387.6c4.687-.161 9.366-.7 14.032-1.228a43.684 43.684 0 008.09-1.435c2.132-.662 4.046-2.037 6.04-3.125a18.813 18.813 0 007.721-8.456c1.033-2.057 1.676-4.308 2.518-6.462 2.821-7.212 5.225-14.539 5.883-22.313.438-5.176-.305-10.123-3.185-14.6a12.633 12.633 0 00-4.265-3.871 3.949 3.949 0 00.429 1.09 27.694 27.694 0 013.073 9.9 32.917 32.917 0 01-.792 13.262c-1.926 7.531-4.076 14.988-8.8 21.33a43.66 43.66 0 01-4.8 4.761.383.383 0 01-.093.056 29.429 29.429 0 01-15.285 3.465c-4.987-.294-9.985-.4-14.966-.754-4.288-.307-8.578-.716-12.829-1.34-2.911-.428-5.758-1.3-8.872-2.032m9.633-48.608a70.329 70.329 0 005.769 4.388c3.762 2.3 7.63 4.431 11.51 6.526a8.211 8.211 0 005.922.677 10.041 10.041 0 006.742-5.86 9.5 9.5 0 00.55-5.64c-.207-1.333-1.419-1.546-2.062-2.364a5.091 5.091 0 00-.526-.549 7.921 7.921 0 00-1.606-1.436 33.357 33.357 0 01-7.76-5.705c-.882-.827-1.789-1.626-2.783-2.527-2.619 7.424-8.2 10.932-15.756 12.491"/><path data-name="パス 850" d="M139.983 365.568c3.182-.113 6.249-.16 9.3-.362a16.872 16.872 0 003.485-.8 4.277 4.277 0 001.076-.631 10.474 10.474 0 00-.336-1.772c-.115-.3-.477-.7-.735-.707a12.11 12.11 0 00-3 .21 22.71 22.71 0 01-7.215.468 12.792 12.792 0 01-5.032-1.027c-.225-.116-.453-.23-.673-.355-2.543-1.436-3.027-2.793-1.961-5.692 1.015.457 2.019.925 3.037 1.362 5.753 2.469 12.408 1.853 17.048-3.495 3.69-4.254 4.025-8.975 1.653-14.079-1.026-2.208-2.622-3.966-5.294-4.281a5.618 5.618 0 01-1.264-.582c2.393-.777 4.524-1.133 6.653-.287 4.728 1.881 6.506 5.824 7 10.524a16.516 16.516 0 01-1.178 7.786 12.917 12.917 0 01-1.049 1.886c-.223.372-.641.69-.708 1.077a3.272 3.272 0 00.072 1.957c.16.295 1.1.278 1.673.21a4.749 4.749 0 003.72-3.025 18.108 18.108 0 00.5-15.559c-.144-.332-.29-.662-.483-1.1a1.483 1.483 0 01.432.077 16.542 16.542 0 017.423 9.048 30.841 30.841 0 01.138 18.621c-1.212 4.21-2.6 8.373-4.067 12.5a33.293 33.293 0 01-2.341 4.506c-.55 1.017-1.1 2.036-1.7 3.021a9.46 9.46 0 01-4.6 3.8c-2.476 1.029-4.921 2.22-7.65 2.324-2.709.1-5.427.071-8.138-.01-2.965-.087-5.926-.317-8.89-.451a97.751 97.751 0 01-16.8-1.867 23.4 23.4 0 01-3.824-1.211 3.878 3.878 0 01-2.3-5.253c3.067-8.177 9.134-12.52 17.735-13.443 5.433-.584 10.171 1.344 14.684 4.09a29.5 29.5 0 016.894 5.071 2.133 2.133 0 001.731.385c.7-.145.528-.859.49-1.457a4.767 4.767 0 00-2.1-3.418 39.465 39.465 0 00-12.84-7.161c-.726-.23-.723-.241-.568-.905" fill="#00efb8"/><path data-name="パス 851" d="M156.414 279.796c-.02 2.425-1.281 4.234-2.757 5.884-2.693 3.009-5.338 6.081-8.242 8.876-3.748 3.606-7.75 6.946-11.609 10.439a49.693 49.693 0 00-5.437 5.263 4.9 4.9 0 00-.185 5.889c2.036 3.112 4.314 6.068 6.576 9.024a2.1 2.1 0 01.4 2.253 16.335 16.335 0 01-9.97 10.235c-1.416.515-2.931.759-4.4 1.142-1.625.426-2.122-.956-2.836-1.85-1.654-2.076-3.18-4.253-4.8-6.353a64.017 64.017 0 01-7.774-12.147c-1.417-3.065-2.357-6.42-.746-9.644a70.718 70.718 0 015.232-8.412c3.287-4.758 7.464-8.739 11.612-12.713 4-3.831 8.035-7.64 12.293-11.17a27.888 27.888 0 0111.742-6.2c5.641-1.248 8.649 1.225 10.163 6.14.335 1.085.5 2.225.739 3.339" fill="#ffe6d1"/><path data-name="パス 852" d="M113.219 390.798c3.115.73 5.96 1.6 8.871 2.032 4.251.625 8.541 1.033 12.829 1.341 4.981.357 9.981.459 14.966.753a29.428 29.428 0 0015.285-3.464.4.4 0 00.094-.056 43.648 43.648 0 004.8-4.761c4.725-6.341 6.875-13.8 8.8-21.33a32.932 32.932 0 00.792-13.262 27.7 27.7 0 00-3.074-9.9 3.984 3.984 0 01-.429-1.09 12.645 12.645 0 014.266 3.871c2.878 4.474 3.623 9.421 3.185 14.6-.658 7.775-3.063 15.1-5.884 22.313-.843 2.154-1.486 4.405-2.517 6.462a18.826 18.826 0 01-7.721 8.457c-1.995 1.087-3.909 2.461-6.04 3.125a43.622 43.622 0 01-8.09 1.434c-4.667.524-9.345 1.068-14.032 1.229a80.68 80.68 0 01-10.388-.6 99.522 99.522 0 01-9.016-1.263c-3.27-.619-5.5-2.512-6.127-5.942-.243-1.336-.39-2.689-.569-3.949" fill="#fff"/><path data-name="パス 853" d="M122.851 342.191c7.559-1.559 13.137-5.067 15.756-12.491.994.9 1.9 1.7 2.783 2.527a33.359 33.359 0 007.76 5.705 7.92 7.92 0 011.606 1.436 5.085 5.085 0 01.526.549c.643.818 1.855 1.032 2.062 2.364a9.5 9.5 0 01-.55 5.64 10.041 10.041 0 01-6.742 5.86 8.211 8.211 0 01-5.922-.677c-3.88-2.095-7.748-4.227-11.51-6.526a70.331 70.331 0 01-5.769-4.388" fill="#fff"/></g></g><g data-name="グループ 651"><path data-name="パス 772" d="M86.874 455.873a4.933 4.933 0 00-1.035-.216 77.256 77.256 0 01-18.464-2.392c-2.986-.717-6.023-1.212-9.017-1.895a7.619 7.619 0 01-6.185-5.755 23.186 23.186 0 01-.07-10.129 10.993 10.993 0 00-.266-4.99 21.7 21.7 0 011.969-16.807c.124-.218.255-.434.382-.649a18.778 18.778 0 01-1.419-1.656c-2.3-3.4-1.963-6.917-.3-10.413a12.973 12.973 0 012.094-3.146 8.382 8.382 0 014.4-2.376c.565-.132.76-.335.629-.973q-.975-4.732-1.846-9.486-1.639-8.865-3.232-17.739c-1.323-7.413-2.606-14.832-3.926-22.244-.534-3-1.209-5.974-1.657-8.984-.386-2.6-.58-5.237-.788-7.862a63.884 63.884 0 01-.4-7.433c.18-4.713 1.625-9 5.183-12.314a15.637 15.637 0 019.011-3.869 13.2 13.2 0 017.728 1.136 10.6 10.6 0 015.643 7.52c.651 2.747 1.044 5.557 1.523 8.344.845 4.909 1.642 9.827 2.508 14.731.635 3.6 1.387 7.184 2.022 10.786.9 5.138 1.732 10.289 2.623 15.43q1.7 9.791 3.442 19.574c.579 3.277 1.174 6.549 1.762 9.825 5.273-1.073 13.122 3.653 13.044 12.141 9.018-.587 16.806 2.562 23.78 7.994 4.99 3.888 8.527 8.774 9.451 15.218.465 3.243.872 6.5 1.185 9.756a24.993 24.993 0 01-1.346 9.351 9.122 9.122 0 01-4.408 5.163 23.336 23.336 0 01-8 2.62c-3.257.639-6.563 1.023-9.846 1.526a2.107 2.107 0 00-.486.211zm-29.157-40.514a24.944 24.944 0 00-1.759 12.48 35.823 35.823 0 01.621 4.268 2.9 2.9 0 001.726 2.837 29.436 29.436 0 009.038 2.983c3.844.656 7.727 1.129 11.61 1.5 5 .473 10.02.852 15.039 1.1 2.777.134 5.573-.032 8.355-.175a127.5 127.5 0 0013.736-.951 106.584 106.584 0 0012.664-3.383 6.877 6.877 0 002.047-1.4 1 1 0 00.342-.728c-.072-1.364-.215-2.723-.305-4.087-.262-3.951-1.144-7.763-3.75-10.812-6.493-7.6-14.688-11.668-24.823-11.506a2.09 2.09 0 00-1.857 1.062 10.885 10.885 0 01-7.392 4.511c-1.067.143-2.268-.5-2.149-1.145a3.557 3.557 0 011.6-2.715 21.747 21.747 0 001.968-1.157c1.046-.748 2.14-1.4 2.508-2.847.878-3.437-.352-6.144-2.8-8.38a6.623 6.623 0 00-4.085-1.695c0 1.762.066 3.369-.015 4.97a5.688 5.688 0 01-3.278 5.022 31.042 31.042 0 01-10.829 3.11 25.766 25.766 0 01-12.744-1.848 3.237 3.237 0 01-2.232-3.343c-.082-1.464-.387-2.914-.6-4.4a7.347 7.347 0 00-4.579 6.365 8.169 8.169 0 00.6 3.991 8.761 8.761 0 006.5 4.276 115.548 115.548 0 0011.816.529c1.795.05 1.968.289 2.917 1.84.4.646.118.975-.121 1.09a5.809 5.809 0 01-2.286.712c-5.872.084-11.705-.245-17.476-2.074m10.352-36.952c5.065-.267 9.1-.756 12.77-2.866a1.086 1.086 0 00.617-1.308c-.218-1.213-.456-2.421-.68-3.632-.823-4.453-1.666-8.9-2.457-13.361-.76-4.282-1.41-8.584-2.207-12.859-.947-5.075-2.046-10.121-2.987-15.2-.46-2.481-.708-5-1.056-7.5-.02-.142-.074-.277-.1-.418-.33-1.948-.595-3.911-1-5.843-.477-2.263-1.146-4.476-3.043-6.024-2.246-1.834-4.84-1.676-7.352-.919a12.356 12.356 0 00-8.259 11.154 84.65 84.65 0 00.619 9.385c.286 2.975.622 5.954 1.116 8.9 1.326 7.9 2.753 15.777 4.134 23.664.83 4.744 1.667 9.486 2.457 14.236a1.336 1.336 0 001.127 1.245c2.395.519 4.793 1.022 6.3 1.343m63.846 60.473c-2.489.8-4.857 1.562-7.226 2.32a48.482 48.482 0 01-13.174 2.454c-3.219.11-6.433.393-9.652.487-3.723.108-7.461.295-11.173.085-5.418-.307-10.821-.906-16.224-1.438a59.221 59.221 0 01-12.884-2.371c-1.672-.552-3.321-1.177-4.971-1.767-.066.075-.136.12-.156.181-.924 2.809.172 5.252 1.446 7.636a1.756 1.756 0 001.062.679c5.078 1.265 10.142 2.605 15.256 3.7s10.37.858 15.568 1.067c3.4.137 6.809.085 10.212.023 4.951-.091 9.921-.038 14.845-.476a44.929 44.929 0 0013.836-3.495 3.869 3.869 0 001.59-1.339c1.572-2.349 1.436-5.083 1.646-7.751M82.399 379.53a32.694 32.694 0 01-20.632 1.624c-.043.155-.087.226-.076.287 1.222 7.1 2.437 14.192 3.7 21.28a1.426 1.426 0 00.883.885 23.746 23.746 0 0013.345.063c2.2-.663 4.415-1.537 5.876-3.5a2.275 2.275 0 00.407-1.538c-.29-1.852-.734-3.679-1.071-5.525-.82-4.485-1.613-8.976-2.436-13.571"/><path data-name="パス 773" d="M57.718 415.356c5.771 1.829 11.6 2.158 17.476 2.074a5.813 5.813 0 002.286-.712c.239-.115.516-.444.121-1.09-.949-1.551-1.122-1.79-2.917-1.84a115.545 115.545 0 01-11.816-.529 8.764 8.764 0 01-6.5-4.276 8.169 8.169 0 01-.6-3.991 7.348 7.348 0 014.578-6.365c.21 1.482.516 2.933.6 4.4a3.238 3.238 0 002.233 3.343 25.766 25.766 0 0012.748 1.842 31.044 31.044 0 0010.828-3.11 5.685 5.685 0 003.278-5.022c.082-1.6.016-3.208.016-4.97a6.623 6.623 0 014.084 1.695c2.452 2.237 3.682 4.943 2.8 8.38-.369 1.444-1.462 2.1-2.508 2.847a21.994 21.994 0 01-1.968 1.157 3.552 3.552 0 00-1.6 2.715c-.12.649 1.082 1.288 2.149 1.145a10.885 10.885 0 007.392-4.511 2.089 2.089 0 011.856-1.062c10.136-.162 18.331 3.909 24.824 11.506 2.607 3.049 3.488 6.86 3.75 10.812.09 1.364.234 2.723.3 4.087a1 1 0 01-.341.728 6.889 6.889 0 01-2.047 1.4 106.593 106.593 0 01-12.665 3.383 127.494 127.494 0 01-13.735.951c-2.782.143-5.579.308-8.355.175a321.83 321.83 0 01-15.039-1.1c-3.884-.367-7.766-.84-11.61-1.5a29.429 29.429 0 01-9.038-2.983 2.906 2.906 0 01-1.726-2.837 35.637 35.637 0 00-.621-4.268 24.954 24.954 0 011.76-12.48" fill="#9a88ff"/><path data-name="パス 774" d="M68.073 378.407c-1.506-.32-3.9-.824-6.3-1.343a1.335 1.335 0 01-1.127-1.244c-.79-4.75-1.627-9.493-2.457-14.236-1.381-7.887-2.807-15.768-4.134-23.665-.495-2.946-.831-5.924-1.116-8.9a84.65 84.65 0 01-.619-9.385 12.355 12.355 0 018.253-11.158c2.511-.758 5.106-.915 7.352.919 1.9 1.548 2.566 3.762 3.043 6.025.407 1.932.672 3.894 1 5.843.024.141.077.277.1.418.347 2.5.6 5.02 1.056 7.5.941 5.075 2.04 10.121 2.987 15.2.8 4.274 1.447 8.577 2.207 12.859.791 4.459 1.635 8.908 2.457 13.362.224 1.211.462 2.42.68 3.631a1.086 1.086 0 01-.617 1.308c-3.672 2.111-7.705 2.6-12.77 2.866" fill="#ffe9d7"/><path data-name="パス 775" d="M131.914 438.876c-.21 2.668-.075 5.4-1.646 7.751a3.87 3.87 0 01-1.59 1.339 44.931 44.931 0 01-13.836 3.495c-4.924.437-9.893.385-14.845.476-3.4.063-6.814.115-10.213-.023-5.2-.209-10.448.033-15.567-1.067s-10.178-2.439-15.256-3.7a1.753 1.753 0 01-1.062-.679c-1.274-2.384-2.369-4.827-1.446-7.636.02-.061.09-.106.156-.181 1.65.589 3.3 1.214 4.971 1.767a59.27 59.27 0 0012.883 2.371c5.4.532 10.807 1.131 16.225 1.438 3.711.209 7.45.024 11.173-.085 3.219-.094 6.432-.377 9.651-.487a48.469 48.469 0 0013.174-2.454c2.369-.759 4.738-1.521 7.227-2.32" fill="#fff"/><path data-name="パス 776" d="M82.399 379.53c.823 4.595 1.616 9.085 2.436 13.571.337 1.846.781 3.673 1.071 5.525a2.275 2.275 0 01-.407 1.538c-1.461 1.968-3.676 2.842-5.876 3.5a23.747 23.747 0 01-13.345-.063 1.426 1.426 0 01-.883-.885c-1.266-7.088-2.482-14.184-3.7-21.28-.011-.062.034-.133.076-.287a32.694 32.694 0 0020.632-1.624" fill="#fff"/></g><g data-name="グループ 648"><path data-name="パス 796" d="M118.048 448.859a45.853 45.853 0 001-5.372 22.414 22.414 0 016.629-14.511 37.256 37.256 0 0118.811-10.314 22.046 22.046 0 018.168-.381 11.249 11.249 0 013.7-9.1 10.881 10.881 0 019.283-3.2c.543-2.936 1.114-5.948 1.656-8.965 1.011-5.628 2.029-11.255 3-16.89 1.07-6.211 2.063-12.436 3.144-18.646.689-3.961 1.453-7.908 2.23-11.852a39.089 39.089 0 011.294-5.443 8.375 8.375 0 016.812-5.61 26.1 26.1 0 019.326-.436 5.314 5.314 0 011.326.416c2.79 1.292 5.647 2.468 8.333 3.951 2.388 1.32 3.284 3.74 3.536 6.338a10.654 10.654 0 01-.952 5.1 29.881 29.881 0 00-1.182 5.952q-1.557 8.769-3.1 17.54c-1.146 6.448-2.281 12.9-3.462 19.341-.726 3.952-1.519 7.892-2.31 11.832-.107.531-.058.815.523.938 6.122 1.3 8.551 8.012 7.73 12.83a7.867 7.867 0 01-2.106 3.981 6.366 6.366 0 01-.8.648c1.948 3.553 3.464 7.091 3.243 11.064-.124 2.222-.733 4.416-.9 6.64-.124 1.655-.564 3.265-.193 5.012a22.621 22.621 0 01-.072 10.02 7.557 7.557 0 01-6.091 5.725c-4.483 1.02-8.978 2.008-13.5 2.809-3.448.609-6.95.925-10.432 1.331-1.568.182-3.148.264-4.724.391h-25.726a2.043 2.043 0 00-.485-.211c-3.286-.5-6.592-.9-9.853-1.522-2.941-.566-5.909-1.191-8.471-2.89a8.875 8.875 0 01-4.083-5.291q-.652-2.672-1.3-5.344v-5.884m47.016-39.608a3.663 3.663 0 00-.726.006 8.191 8.191 0 00-5.052 3.156c-2.121 2.967-3.068 7.979 1.924 10.265a5.574 5.574 0 012.278 1.908c.995 1.54.355 2.571-1.428 2.613a4.037 4.037 0 01-.745-.125 11.054 11.054 0 01-7.213-4.812c-.177-.244-.424-.61-.649-.62a27.884 27.884 0 00-4.554-.005 34 34 0 00-15.265 5.884c-6.021 4.177-9.621 9.638-9.7 17.14a10.327 10.327 0 01-.161 2.8 1.289 1.289 0 00.586 1.634 6.73 6.73 0 001.852 1.114c3.785 1.11 7.537 2.511 11.409 3.1a143.616 143.616 0 0014.934 1.153 125.237 125.237 0 0017.7-.31c4.616-.439 9.239-.844 13.831-1.467a37.421 37.421 0 0012.66-3.7 2.5 2.5 0 001.533-2.618 5.01 5.01 0 01.095-1.941 17.7 17.7 0 00.659-6.99 24.952 24.952 0 00-1.884-7.891 43.987 43.987 0 01-4.477 1.078c-2.939.4-5.9.723-8.856.915a45.472 45.472 0 01-5.529-.128c-.771-.045-1.467-.945-1.276-1.446a3.062 3.062 0 013.137-2.038c2.973-.055 5.949-.282 8.915-.195a12.154 12.154 0 007.209-2.28 5.484 5.484 0 002.78-3.479 8.877 8.877 0 00-2.188-7.781 14.282 14.282 0 00-2.344-1.691c-.23 1.878-.435 3.416-.6 4.957-.123 1.125-.375 2.219-1.518 2.69a27.813 27.813 0 01-4.7 1.646c-4.353.924-8.715 1.2-13.034-.346-1.591-.57-3.288-.845-4.878-1.416a8.261 8.261 0 01-2.806-1.572 7.662 7.662 0 01-2.151-7.645c.1-.484.152-.977.242-1.565m21.745-16.704c1.518-.329 3.951-.85 6.38-1.387a1.178 1.178 0 001-1.1c.284-1.786.692-3.552 1-5.335 1.181-6.926 2.317-13.858 3.517-20.781.853-4.923 1.787-9.832 2.667-14.751a4.284 4.284 0 00-1.982-4.307c-.961-.548-1.969-1.02-2.981-1.47a30.082 30.082 0 00-4.259-1.756c-2.459-.665-4.9-.134-7.291.574a5.377 5.377 0 00-4.044 4.756c-.121.82-.217 1.644-.367 2.458-.6 3.244-1.236 6.48-1.809 9.729-.78 4.425-1.476 8.865-2.275 13.287-.958 5.31-1.988 10.606-2.982 15.91a1.082 1.082 0 00.624 1.305c3.677 2.109 7.714 2.6 12.811 2.865m11.5 60.148c-.343.134-.6.246-.864.336a51.354 51.354 0 01-6.5 2.133 157.396 157.396 0 01-12.868 1.956 152.427 152.427 0 01-15.715 1.221c-7.163.037-14.333-.38-21.492-.763-5.74-.307-11.114-2.278-16.508-4.082-.481-.161-.934-.4-1.744-.76.389 2.362.619 4.411 1.094 6.4a3.615 3.615 0 002.182 2.914c1.916.664 3.8 1.468 5.756 1.956a56.766 56.766 0 0013.063 2.065c4.528.05 9.059.073 13.586.008q8.152-.116 16.3-.412c6.378-.243 12.483-2.057 18.657-3.443 2.095-.47 4.195-1.1 4.665-3.695.012-.065.092-.114.122-.178a7.447 7.447 0 00.259-5.647m-25.868-59.022c-.282 1.542-.548 3.025-.825 4.508-.91 4.87-1.841 9.736-2.709 14.613a1.8 1.8 0 00.38 1.432 15.82 15.82 0 003.249 2.469 15.363 15.363 0 007.265 1.916c2.827-.035 5.647.1 8.405-.706.741-.217 1.2-.472 1.338-1.4.638-4.149 1.4-8.277 2.126-12.412.508-2.908 1.022-5.815 1.553-8.837a32.891 32.891 0 01-20.782-1.583"/><path data-name="パス 797" d="M272.394 422.935c-5.381-2.731-6.422-6.34-4.418-11.057-2.066-1.261-4.2-2.424-6.186-3.8a60.076 60.076 0 01-19.3-21.351 47.054 47.054 0 01-3.6-9.43c-1.951-7.04-3.661-14.148-5.381-21.25a31.763 31.763 0 01-.969-6.216c-.12-3.109-.507-6.272.878-9.276a10.432 10.432 0 016.09-5.6 87.29 87.29 0 017.006-2.266 11.342 11.342 0 015.982.221c2.471.655 4.858 1.554 6.218 3.9.968 1.675 1.679 3.5 2.547 5.23.248.495.69.89.956 1.379a2.627 2.627 0 01.21 1.027c.257 3.317.34 6.657.79 9.947a44.907 44.907 0 003.6 12.255c1.4 3.135 2.721 6.326 4.358 9.338a45.93 45.93 0 009.414 11.452c1.164 1.085 2.35 2.148 3.425 3.128 4.063-2.417 8.319-2.837 12.318-1.044 3.194 1.431 6.743 1.971 9.678 3.981.538.369 1.118.681 1.638 1.074.924.7 1.7 1.355 3.111.957a5.23 5.23 0 013.024.6 16.2 16.2 0 017.891 7.442c3 5.266 3.568 10.909 2.8 16.742a58.593 58.593 0 01-1.86 8.906c-1.351 4.572-2.912 9.087-4.536 13.572-1.346 3.717-2.9 7.412-5.663 10.314-4.793 5.032-10.3 8.991-17.448 9.851-5.354.644-10.736 1.055-16.1 1.627-6.3.673-12.508-.215-18.715-1.062a27.759 27.759 0 01-8.32-1.946c-4.154-1.956-5.965-5.342-6.262-9.689a12.294 12.294 0 01.319-4.595 5.606 5.606 0 00.094-3.024c-.693-3.85.788-7.04 3.019-10.086 4.792-6.543 11.458-9.415 19.263-10.173a9.126 9.126 0 012.6.036c.976.192 1.316-.239 1.526-1.118m4.036 1.881a1.962 1.962 0 00.365.2 39.034 39.034 0 0112.919 7.045 5.114 5.114 0 012.356 3.623c.045.6.215 1.313-.487 1.458a2.137 2.137 0 01-1.734-.382 29.621 29.621 0 00-6.9-5.072c-4.552-2.772-9.339-4.7-14.812-4.085-8.523.963-14.559 5.222-17.653 13.436a3.875 3.875 0 002.3 5.254 22.919 22.919 0 003.829 1.211 98.05 98.05 0 0017.585 1.874c2.751.091 5.5.367 8.248.458 2.569.086 5.147.114 7.716.033 2.848-.089 5.408-1.278 7.985-2.358a9.52 9.52 0 004.606-3.806c.605-.985 1.157-2 1.707-3.021a33.269 33.269 0 002.346-4.505c1.466-4.13 2.858-8.293 4.072-12.5a30.813 30.813 0 00-.137-18.621 16.554 16.554 0 00-7.432-9.049 1.539 1.539 0 00-.435-.081l.483 1.1a18.079 18.079 0 01-.5 15.559 4.756 4.756 0 01-3.724 3.025c-.57.068-1.515.086-1.676-.208a3.263 3.263 0 01-.074-1.957c.067-.387.485-.7.708-1.076a12.936 12.936 0 001.052-1.886 16.516 16.516 0 001.181-7.785c-.5-4.7-2.276-8.643-7.01-10.526-2.133-.848-4.268-.49-6.613.268.435.24.62.348.811.445a1.276 1.276 0 00.4.165c2.678.294 4.286 2.058 5.3 4.27 2.368 5.16 2.027 9.355-1.1 13.4-4.522 5.846-11.363 6.82-17.618 4.172-1.021-.433-2.026-.906-3.042-1.362-1.071 2.893-.585 4.252 1.961 5.69.221.125.447.239.674.355a12.869 12.869 0 005.038 1.028 22.91 22.91 0 007.226-.468 12.282 12.282 0 013.007-.211c.257 0 .621.408.735.706a10.366 10.366 0 01.337 1.773 4.242 4.242 0 01-1.075.63 15.993 15.993 0 01-3.489.8c-2.847.152-5.7.151-8.557.156-.633 0-.968.1-.875.826m-27.554-88.904a6.378 6.378 0 00-1.122.181 60.967 60.967 0 00-5.818 2.057c-3.63 1.656-5.158 3.99-4.8 7.908.28 3.051.707 6.094 1.2 9.118.6 3.643 1.246 7.283 2.035 10.887.618 2.824 1.571 5.575 2.219 8.394a44.9 44.9 0 004.82 11.7 64.894 64.894 0 007.837 10.531 2.1 2.1 0 002 .769 17.97 17.97 0 006.687-2.158 16.146 16.146 0 007.886-9.7 1.549 1.549 0 00-.174-1.273 44.566 44.566 0 01-6.458-10.665 77.006 77.006 0 01-6.455-19.558c-.368-2.172-.512-4.383-.756-6.575-.3-2.714-1.849-4.962-2.755-7.448-1.111-3.045-3.482-3.851-6.349-4.171m.826 113.181c.216 1.56.358 2.912.6 4.246.626 3.476 2.883 5.389 6.209 5.995 3.308.6 6.649 1.08 10 1.406a67.167 67.167 0 009.436.444c4.621-.2 9.236-.693 13.834-1.233a52.1 52.1 0 008.731-1.594c1.964-.581 3.7-1.931 5.537-2.939a18.884 18.884 0 007.788-8.542c1.006-2.032 1.651-4.242 2.482-6.362 2.812-7.176 5.214-14.461 5.887-22.2a23.506 23.506 0 00-2.312-13.3 13.5 13.5 0 00-5.248-5.461c.2.48.345.793.463 1.115.856 2.332 1.852 4.625 2.526 7.01a26.287 26.287 0 01.714 11.533 108.13 108.13 0 01-2.709 11.171 46.365 46.365 0 01-7.022 15.074 14.623 14.623 0 01-1.582 1.782c-.635.626-1.324 1.2-2 1.776a8.411 8.411 0 01-1.523 1.193 28.552 28.552 0 01-14.457 3.374c-6.625-.321-13.253-.6-19.871-1.028a62.85 62.85 0 01-14.556-2.389c-.888-.274-1.748-.638-2.914-1.069m25.452-60.742c-2.593 7.42-8.226 10.921-15.763 12.484a73.729 73.729 0 005.92 4.48c3.7 2.264 7.52 4.35 11.342 6.41a8.51 8.51 0 005.931.708 10.2 10.2 0 007.534-9.1c.045-1.651.076-3.45-1.819-4.416-.461-.235-.765-.761-1.168-1.125a15.286 15.286 0 00-1.568-1.318c-1.672-1.141-3.451-2.137-5.039-3.381-1.822-1.426-3.483-3.057-5.37-4.739"/><path data-name="パス 798" d="M165.064 409.254c-.089.588-.142 1.081-.242 1.564a7.66 7.66 0 002.152 7.645 8.245 8.245 0 002.8 1.573c1.591.571 3.287.846 4.879 1.416 4.318 1.546 8.681 1.27 13.034.346a27.732 27.732 0 004.7-1.647c1.144-.47 1.4-1.564 1.518-2.689.168-1.542.372-3.079.6-4.957a14.282 14.282 0 012.344 1.691 8.875 8.875 0 012.188 7.781 5.484 5.484 0 01-2.78 3.479 12.15 12.15 0 01-7.209 2.28c-2.967-.087-5.942.139-8.914.195a3.062 3.062 0 00-3.137 2.038c-.192.5.5 1.4 1.276 1.446a45.673 45.673 0 005.529.128c2.96-.192 5.916-.515 8.856-.915a44.215 44.215 0 004.476-1.078 24.928 24.928 0 011.884 7.891 17.672 17.672 0 01-.659 6.99 5.009 5.009 0 00-.094 1.941 2.5 2.5 0 01-1.534 2.618 37.414 37.414 0 01-12.66 3.7c-4.592.623-9.215 1.028-13.83 1.467a125.387 125.387 0 01-17.7.31 143.608 143.608 0 01-14.934-1.152c-3.872-.589-7.623-1.992-11.409-3.1a6.71 6.71 0 01-1.852-1.115 1.286 1.286 0 01-.585-1.633 10.366 10.366 0 00.16-2.8c.08-7.5 3.68-12.963 9.7-17.141a34.014 34.014 0 0115.264-5.883 27.8 27.8 0 014.555.005c.225.009.471.376.648.619a11.056 11.056 0 007.214 4.812 4.016 4.016 0 00.745.125c1.784-.043 2.422-1.073 1.428-2.613a5.576 5.576 0 00-2.279-1.908c-4.992-2.286-4.044-7.3-1.924-10.265a8.2 8.2 0 015.052-3.156 3.665 3.665 0 01.726-.006" fill="#ff1d8f"/><path data-name="パス 799" d="M186.821 392.543c-5.1-.267-9.134-.756-12.812-2.865a1.082 1.082 0 01-.623-1.305c.994-5.3 2.024-10.6 2.982-15.909.8-4.422 1.495-8.862 2.275-13.287.572-3.248 1.213-6.485 1.809-9.729.15-.814.246-1.638.366-2.458a5.379 5.379 0 014.045-4.756c2.392-.708 4.832-1.239 7.291-.574a30.08 30.08 0 014.259 1.756c1.012.45 2.02.922 2.981 1.47a4.285 4.285 0 011.982 4.307c-.88 4.919-1.815 9.829-2.667 14.751-1.2 6.922-2.336 13.855-3.517 20.78-.3 1.783-.712 3.549-1 5.335a1.178 1.178 0 01-1 1.1c-2.429.538-4.862 1.059-6.38 1.387" fill="#ffe8d5"/><path data-name="パス 800" d="M198.321 452.69a7.447 7.447 0 01-.259 5.647c-.03.065-.11.114-.122.178-.47 2.6-2.569 3.225-4.665 3.695-6.173 1.386-12.279 3.2-18.657 3.443q-8.147.308-16.3.412c-4.528.065-9.059.042-13.586-.008a56.765 56.765 0 01-13.064-2.065c-1.959-.488-3.84-1.292-5.755-1.956a3.609 3.609 0 01-2.185-2.905c-.476-1.99-.706-4.039-1.1-6.4.81.357 1.263.6 1.744.76 5.394 1.8 10.768 3.775 16.509 4.082 7.159.383 14.329.8 21.493.763a152.375 152.375 0 0015.713-1.221c4.311-.471 8.612-1.13 12.869-1.956a51.389 51.389 0 006.5-2.133c.265-.089.522-.2.864-.336" fill="#fff"/><path data-name="パス 801" d="M172.455 393.673a32.89 32.89 0 0020.782 1.583c-.531 3.022-1.045 5.929-1.553 8.837-.723 4.135-1.488 8.263-2.126 12.412-.143.929-.6 1.183-1.338 1.4-2.758.808-5.578.67-8.405.706a15.362 15.362 0 01-7.264-1.917 15.822 15.822 0 01-3.249-2.469 1.8 1.8 0 01-.38-1.432c.868-4.877 1.8-9.743 2.709-14.613.276-1.483.543-2.966.825-4.508" fill="#fff"/><path data-name="パス 802" d="M276.43 424.816c-.094-.727.241-.826.874-.827 2.853 0 5.709 0 8.557-.155a15.977 15.977 0 003.489-.8 4.25 4.25 0 001.075-.63 10.341 10.341 0 00-.336-1.773c-.115-.3-.479-.7-.736-.706a12.243 12.243 0 00-3.007.211 22.929 22.929 0 01-7.225.467 12.833 12.833 0 01-5.038-1.028c-.226-.115-.454-.229-.675-.355-2.546-1.437-3.031-2.8-1.96-5.69 1.016.457 2.02.93 3.042 1.362 6.255 2.649 13.1 1.675 17.618-4.172 3.132-4.05 3.472-8.244 1.1-13.4-1.016-2.213-2.624-3.977-5.3-4.271a1.247 1.247 0 01-.4-.165c-.19-.1-.375-.2-.81-.444 2.345-.759 4.48-1.117 6.612-.268 4.734 1.883 6.514 5.824 7.009 10.525a16.5 16.5 0 01-1.181 7.786 12.937 12.937 0 01-1.051 1.886c-.224.371-.642.689-.708 1.076a3.257 3.257 0 00.074 1.957c.161.294 1.106.277 1.676.208a4.754 4.754 0 003.724-3.025 18.079 18.079 0 00.5-15.559 155.7 155.7 0 00-.484-1.1 1.492 1.492 0 01.435.081 16.551 16.551 0 017.433 9.048 30.806 30.806 0 01.136 18.621c-1.214 4.21-2.606 8.373-4.071 12.5a33.217 33.217 0 01-2.346 4.505c-.551 1.018-1.1 2.036-1.707 3.021a9.51 9.51 0 01-4.606 3.806c-2.577 1.081-5.137 2.27-7.985 2.359-2.57.08-5.147.053-7.717-.033-2.751-.092-5.5-.368-8.247-.458a97.959 97.959 0 01-17.582-1.879 22.745 22.745 0 01-3.829-1.211 3.874 3.874 0 01-2.3-5.253c3.094-8.214 9.13-12.473 17.652-13.436 5.473-.618 10.26 1.313 14.813 4.084a29.615 29.615 0 016.9 5.072 2.135 2.135 0 001.734.383c.7-.146.533-.86.487-1.458a5.115 5.115 0 00-2.356-3.624 39.045 39.045 0 00-12.918-7.045 2.01 2.01 0 01-.365-.2" fill="#ff1d8f"/><path data-name="パス 803" d="M248.876 335.909c2.868.318 5.239 1.125 6.349 4.171.906 2.484 2.451 4.733 2.755 7.447.245 2.193.389 4.4.757 6.576a76.952 76.952 0 006.455 19.557 44.541 44.541 0 006.458 10.665 1.548 1.548 0 01.173 1.273 16.144 16.144 0 01-7.885 9.7 17.993 17.993 0 01-6.687 2.158 2.1 2.1 0 01-2-.769 64.956 64.956 0 01-7.837-10.532 44.855 44.855 0 01-4.819-11.7c-.649-2.819-1.6-5.569-2.22-8.393-.789-3.6-1.439-7.244-2.035-10.887-.495-3.025-.922-6.067-1.2-9.118-.359-3.919 1.168-6.254 4.8-7.908a60.9 60.9 0 015.818-2.058 6.462 6.462 0 011.121-.18" fill="#ffe7d3"/><path data-name="パス 804" d="M249.703 449.09c1.166.43 2.026.8 2.915 1.069a62.834 62.834 0 0014.555 2.388c6.619.431 13.247.708 19.872 1.029a28.555 28.555 0 0014.456-3.374 8.463 8.463 0 001.523-1.193c.68-.578 1.368-1.151 2-1.776a14.756 14.756 0 001.582-1.782 46.4 46.4 0 007.023-15.075 108.31 108.31 0 002.708-11.171 26.3 26.3 0 00-.713-11.533c-.675-2.384-1.67-4.677-2.527-7.011-.118-.322-.262-.635-.463-1.115a13.5 13.5 0 015.248 5.461 23.494 23.494 0 012.312 13.3c-.673 7.741-3.075 15.026-5.887 22.2-.831 2.12-1.476 4.33-2.481 6.362a18.9 18.9 0 01-7.788 8.542c-1.837 1.008-3.574 2.358-5.537 2.939a52.284 52.284 0 01-8.731 1.594c-4.6.539-9.212 1.03-13.833 1.233a67.447 67.447 0 01-9.437-.444c-3.346-.328-6.686-.8-9.994-1.406-3.327-.606-5.583-2.519-6.209-5.994-.241-1.334-.383-2.687-.6-4.246" fill="#fff"/><path data-name="パス 805" d="M275.155 388.348c1.887 1.682 3.548 3.313 5.37 4.739 1.588 1.244 3.367 2.24 5.039 3.381a15.282 15.282 0 011.568 1.318c.4.364.707.891 1.168 1.125 1.9.966 1.864 2.765 1.819 4.416a10.2 10.2 0 01-7.534 9.1 8.51 8.51 0 01-5.931-.708c-3.823-2.06-7.639-4.146-11.342-6.41a73.73 73.73 0 01-5.923-4.48c7.537-1.563 13.17-5.064 15.763-12.484" fill="#fff"/><path data-name="パス 806" d="M84.743 263.874c.083-.451.185-.9.245-1.354.427-3.255.738-6.529 1.3-9.761a80.661 80.661 0 012.109-9.673 90.073 90.073 0 017.5-17.026 130.372 130.372 0 0110.812-16.579 89.936 89.936 0 0114.13-14.8 94.656 94.656 0 0114.531-9.983c4.607-2.548 9.051-5.385 13.6-8.034 3.147-1.831 6.408-3.47 9.521-5.355 3.956-2.394 7.838-4.914 11.707-7.446a224.656 224.656 0 0122.313-12.692c4.448-2.232 8.954-4.349 13.477-6.422a88.374 88.374 0 0114.4-5.429c4.03-1.054 8.063-2.129 12.143-2.948a65.347 65.347 0 018.38-.963 102.311 102.311 0 0110.421-.38c4.282.145 8.558.6 12.823 1.044 3.257.337 6.511.763 9.738 1.318a44.665 44.665 0 0114.4 5.263c.868.488 1.89.7 2.79 1.14a92.822 92.822 0 0113.963 8.313 106.994 106.994 0 0112.15 10.311 51.513 51.513 0 019.347 13.422 72.67 72.67 0 016.782 17.833 87.334 87.334 0 011.441 8.776 97.612 97.612 0 01.616 16.368c-.269 4.645-.595 9.3-1.278 13.9-.758 5.088-1.878 10.127-2.972 15.158a178.111 178.111 0 01-10.131 30.908c-2.637 6.3-5.55 12.5-8.619 18.6a98.181 98.181 0 01-12.125 18.168 152.255 152.255 0 01-13.754 14.792c-2.4 2.233-5.031 4.214-7.577 6.286-5.534 4.507-11.806 7.73-18.3 10.592-3.436 1.514-6.689 3.481-10.2 4.787-5.479 2.04-11.065 3.82-16.679 5.457a62.607 62.607 0 01-8.456 1.483c-2.875.421-5.764.75-8.651 1.077-3.494.4-6.986.961-10.491 1.071q-8.516.265-17.046-.008c-3.768-.117-7.518-.721-11.283-1.006a113.2 113.2 0 01-20.168-3.6c-4.813-1.261-9.493-3.052-14.193-4.722a76.158 76.158 0 01-14.6-7.387c-3.717-2.31-7.43-4.63-11.074-7.051a55.048 55.048 0 01-11.408-9.924 83.513 83.513 0 01-5.945-7.73c-2.45-3.642-4.852-7.343-6.923-11.207a58.6 58.6 0 01-5.585-14.1c-1.123-4.729-2.313-9.45-2.543-14.343-.1-2.2-.281-4.4-.439-6.6a5 5 0 00-.199-.82v-8.724m246.265-49.537c-.265-2.942-.572-7.041-1.019-11.124a74.139 74.139 0 00-2.85-13.672 79.2 79.2 0 00-4.688-11.5 51.55 51.55 0 00-8.76-12.743 56.73 56.73 0 00-6.189-5.408 114.3 114.3 0 00-17.614-11.277c-3.441-1.829-6.8-3.9-10.7-4.617-5.871-1.087-11.422-3.584-17.487-3.837-2.689-.111-5.367-.77-8.048-.764-3.93.011-7.87.286-11.786.654-3.768.354-7.5 1.036-11.269 1.454a69.444 69.444 0 00-16.048 4.178 123.632 123.632 0 00-15.3 6.71c-7.12 3.75-14.019 7.924-20.972 11.985-7.015 4.1-13.958 8.319-20.982 12.4-2.382 1.384-4.961 2.425-7.37 3.766-3.826 2.129-7.568 4.408-11.374 6.571a93.113 93.113 0 00-24.029 18.891 111.2 111.2 0 00-11.63 15.713 125.522 125.522 0 00-6.136 11.5 89.246 89.246 0 00-3.709 9.281 67.293 67.293 0 00-2.936 12.34 74.1 74.1 0 00-1.069 13.132 139.244 139.244 0 001.1 15.181 70.252 70.252 0 003.413 13.959 80.593 80.593 0 007.978 16.13 91.62 91.62 0 009.653 12.758 63.2 63.2 0 0012.274 10.12c4.345 2.823 8.8 5.489 13.329 8.01a79.513 79.513 0 009.745 4.634c3.7 1.446 7.573 2.459 11.349 3.725a75.234 75.234 0 0012.951 2.747c3.268.486 6.564.818 9.856 1.109 3.987.353 7.983.815 11.976.823 5.166.011 10.333-.354 15.5-.616a40.255 40.255 0 004.476-.552c2.61-.429 5.208-.938 7.815-1.391 4.308-.75 8.675-1.253 12.916-2.277a136.986 136.986 0 0017.706-5.56c5.946-2.323 11.37-5.589 16.8-8.849a86.251 86.251 0 0012.046-8.547c2.485-2.141 5.146-4.093 7.51-6.356 2.309-2.21 4.246-4.806 6.524-7.05a43.641 43.641 0 006.012-7.08c2.277-3.467 4.648-6.871 6.84-10.39 1.192-1.914 2.116-4 3.124-6.021 1.265-2.536 2.608-5.042 3.711-7.649 2.136-5.051 4.278-10.109 6.139-15.265a269.26 269.26 0 005.382-16.65c1.188-4.118 2.08-8.333 2.9-12.545.9-4.644 1.733-9.314 2.3-14.007.432-3.588.4-7.232.635-12.027"/><path data-name="パス 807" d="M331.008 214.337c-.233 4.795-.2 8.439-.635 12.027-.565 4.694-1.393 9.364-2.3 14.007-.82 4.212-1.712 8.427-2.9 12.545-1.616 5.6-3.4 11.166-5.382 16.65-1.859 5.157-4 10.214-6.138 15.265-1.1 2.607-2.447 5.113-3.711 7.649-1.009 2.025-1.933 4.107-3.124 6.021-2.192 3.518-4.564 6.924-6.84 10.39a43.6 43.6 0 01-6.012 7.08c-2.279 2.245-4.216 4.84-6.524 7.05-2.366 2.263-5.026 4.215-7.51 6.357a86.3 86.3 0 01-12.046 8.547c-5.434 3.26-10.858 6.526-16.8 8.849a137.035 137.035 0 01-17.706 5.56c-4.241 1.024-8.609 1.527-12.917 2.277-2.607.453-5.2.961-7.814 1.391a40.282 40.282 0 01-4.483.549c-5.164.262-10.332.627-15.5.616-3.993-.008-7.99-.47-11.976-.823-3.293-.291-6.588-.622-9.856-1.109a75.215 75.215 0 01-12.951-2.747c-3.776-1.266-7.646-2.279-11.349-3.724a79.727 79.727 0 01-9.746-4.635 228.983 228.983 0 01-13.328-8.01 63.177 63.177 0 01-12.273-10.124 91.556 91.556 0 01-9.661-12.753 80.638 80.638 0 01-7.977-16.13 70.323 70.323 0 01-3.413-13.961 139.258 139.258 0 01-1.1-15.182 74.014 74.014 0 011.08-13.131 67.293 67.293 0 012.937-12.336 89.044 89.044 0 013.709-9.282 125.3 125.3 0 016.136-11.5 111.316 111.316 0 0111.624-15.717 93.11 93.11 0 0124.034-18.89c3.807-2.164 7.549-4.443 11.373-6.572 2.41-1.341 4.989-2.382 7.371-3.766 7.024-4.082 13.966-8.3 20.981-12.4 6.954-4.062 13.854-8.235 20.973-11.985a123.478 123.478 0 0115.3-6.709 69.424 69.424 0 0116.048-4.179c3.764-.418 7.5-1.1 11.269-1.454 3.917-.368 7.857-.643 11.787-.654 2.681-.006 5.358.653 8.048.765 6.065.252 11.616 2.749 17.487 3.836 3.895.721 7.257 2.788 10.7 4.617a114.24 114.24 0 0117.614 11.278 56.551 56.551 0 016.19 5.407 51.55 51.55 0 018.759 12.748 79.3 79.3 0 014.688 11.5 74.288 74.288 0 012.85 13.672c.447 4.083.754 8.182 1.019 11.124m-133.887 89.402c-.115-1.067-.251-2.721-.476-4.363a25.086 25.086 0 00-3.08-8.238 29.038 29.038 0 00-5.4-7.122 33.987 33.987 0 00-8.268-5.773c-4.7-2.455-9.59-4.24-14.972-4.1a48.621 48.621 0 00-7.752.7 30.494 30.494 0 00-6.923 2.154 22.91 22.91 0 00-9.368 8.479 28.964 28.964 0 00-4.671 20.026 42.344 42.344 0 001.088 5.055 23.693 23.693 0 005.137 9.263 31.428 31.428 0 0012.441 9c1.746.656 3.695.747 5.508 1.252 4.787 1.333 9.614 1.089 14.453.5a24.757 24.757 0 008.179-2.708 26.373 26.373 0 0010.022-9.582c2.76-4.225 3.887-8.952 4.082-14.544" fill="#ffd200"/><path data-name="パス 808" d="M197.127 303.743c-.2 5.592-1.322 10.319-4.083 14.544a26.371 26.371 0 01-10.022 9.582 24.777 24.777 0 01-8.179 2.708c-4.838.591-9.666.835-14.453-.5-1.814-.5-3.762-.6-5.508-1.252a31.437 31.437 0 01-12.441-9 23.69 23.69 0 01-5.137-9.264 42.267 42.267 0 01-1.089-5.057 28.963 28.963 0 014.668-20.016 22.91 22.91 0 019.368-8.479 30.493 30.493 0 016.923-2.154 48.615 48.615 0 017.752-.7c5.382-.143 10.27 1.642 14.972 4.1a33.983 33.983 0 018.268 5.773 29.072 29.072 0 015.4 7.121 25.084 25.084 0 013.08 8.239c.225 1.641.362 3.295.476 4.363m-26.26 23.254c1.9.216 4.927-.714 7.923-1.545 3.171-.879 5.438-3.212 7.652-5.526a21.727 21.727 0 005.954-13.027 22.751 22.751 0 00-1.713-11.66 28.862 28.862 0 00-5.609-8.762 31.818 31.818 0 00-9.752-6.4 22.682 22.682 0 00-11.049-2.221c-1.992.117-3.968.529-5.947.841-6.73 1.057-11.405 5-14.7 10.722a23.672 23.672 0 00-2.95 12.457 26.846 26.846 0 001.488 8.994 22.8 22.8 0 005.446 8.215c2.306 2.3 4.733 4.327 7.948 5.2.831.227 1.646.513 2.471.758a48.465 48.465 0 0012.84 1.947"/><path data-name="パス 809" d="M265.532 227.899c-1.017 1.625-2.84 1.321-4.325 1.694-4.316 1.086-8.67 2.019-13.019 2.967-2.462.537-4.944.984-7.433 1.475a25.331 25.331 0 01-1.751 8.516 19.562 19.562 0 01-8.934 9.6c-7.273 4.158-17.183 2.56-23.236-2.615a16.437 16.437 0 01-4.984-8.605 4.784 4.784 0 01.085-1.44c-5.045-.568-9.519-2.882-14.041-4.937-8.584-3.9-17.082-8-25.563-12.123-3.471-1.683-6.799-3.652-10.177-5.484-.225.533-.506 1.1-.7 1.7a2.628 2.628 0 01-2.029 1.9 3.359 3.359 0 01-2.212-.371c-.328-.209-.405-1.245-.213-1.768a237.958 237.958 0 013.609-9.165c.56-1.345 1.281-2.626 1.961-3.92.545-1.035 1.583-.534 2.4-.649.182-.025.443.517.74.889a1.844 1.844 0 01.7.228c.491.364.435.82.161 1.352-1.026 1.994-2.007 4.011-3.067 6.14a228.075 228.075 0 0022.512 11.806c1.031-1.326 1.883-2.6 2.926-3.7a8.51 8.51 0 012.267-1.4 28.175 28.175 0 014.257-2.086c5.078-1.639 9.861-1.011 14.105 2.371a14.929 14.929 0 011.952 2.335c4.352-3.388 9.151-4.053 14.083-1.555 4.793 2.428 7.321 6.608 8.041 12.114 1.126-.167 2.278-.314 3.421-.512 4.508-.78 9.023-1.52 13.514-2.387 3.82-.738 7.608-1.642 11.415-2.447 3.285-.694 6.579-1.339 9.864-2.035a5.056 5.056 0 013.186.756c.221.1.325.46.482.7zm-46.422 6.161c-.482-2.832-1.08-5.427-2.929-7.623-2.706-3.215-5.893-4.11-9.545-2.316a12.936 12.936 0 00-3.4 3.1 3.139 3.139 0 01-3.016.948 2.551 2.551 0 01-2.213-2.046c-.745-2.5-2.065-4.532-4.808-5.172a11.526 11.526 0 00-5.651.213 12.61 12.61 0 00-7.88 5.731c6.064 2.667 12.023 5.376 18.066 7.886a13.932 13.932 0 005.4 1.105c3.481-.054 6.961-.467 10.429-.843 1.841-.2 3.656-.637 5.55-.979m17.05.962c-10.064 1.243-19.808 3.871-30.027 4.567.589 1.527 1.028 2.854 1.6 4.119 1.468 3.233 4.282 4.918 7.4 6.168a13.842 13.842 0 007.789.932 16.2 16.2 0 009.072-5.436 15.818 15.818 0 004.158-10.351"/><path data-name="パス 810" d="M201.755 178.322c1.236.216 2.467.479 3.71.642 4.481.586 8.99 1 13.445 1.736 6.679 1.1 13.357 2.264 19.971 3.7 4.594.993 9.1 2.421 13.6 3.79 1.213.368 2.587.842 3 2.371.427 1.587-.311 2.381-1.885 1.951-2.972-.81-5.921-1.7-8.9-2.492a250.079 250.079 0 00-25.424-5.238q-11.708-1.843-23.524-2.643a104.6 104.6 0 00-18.022-.125 2.659 2.659 0 01-.865-.058c-1.256-.293-1.513-1.162-.776-2.2a3.089 3.089 0 012.377-1.32c1.981-.2 3.963-.38 5.942-.587a4.43 4.43 0 00.81-.241l16.536.72"/><path data-name="パス 811" d="M230.373 190.216a14.66 14.66 0 0115.083 13.812c.336 11.644-8.53 17.349-16.278 16.734-8.485-.673-14.983-8.281-14.445-16.2.577-8.521 9.055-14.92 15.64-14.354m-11.617 14.783c-.113 2.667.275 5.206 2.087 7.306.729.844 1.583 1.582 2.385 2.363a9.9 9.9 0 006.4 2.492 9.538 9.538 0 007.669-2.307 15.441 15.441 0 003.239-4.106c1.312-2.644 1.162-5.531.745-8.432-.539-3.738-2.9-5.856-6.077-7.283a11.047 11.047 0 00-9.211-.152c-4.8 2.031-7.156 5.252-7.241 10.118"/><path data-name="パス 812" d="M193.962 214.742c-5.447.576-12.017-5.193-13.388-10.413a17.01 17.01 0 01.3-10c1.053-3.1 3.291-5.253 5.909-7.154 4.309-3.127 9.1-2.953 13.8-1.809a12.225 12.225 0 017.681 5.82 15.824 15.824 0 012.319 8.528 15.194 15.194 0 01-10.171 14.556c-1.685.639-3.717.367-5.589.5a8.284 8.284 0 01-.861-.034m2.083-26.757c-.745.133-1.942.363-3.145.559a10.743 10.743 0 00-7.914 5.459 11.972 11.972 0 00-1.056 3.5 10.669 10.669 0 00.978 7.741 15.229 15.229 0 004.719 4.732 7.488 7.488 0 004.164 1.313 19.133 19.133 0 005.111-.277 9.308 9.308 0 003.817-2.139 14.041 14.041 0 003.039-3.955 12.119 12.119 0 00.91-4.084 11.678 11.678 0 00-1.306-7.516c-1.977-3.239-5.163-4.712-9.319-5.328"/><path data-name="パス 813" d="M219.107 234.06c-1.895.342-3.709.779-5.549.979-3.468.377-6.949.79-10.429.843a13.929 13.929 0 01-5.4-1.105c-6.042-2.511-12-5.219-18.067-7.887a12.612 12.612 0 017.88-5.731 11.525 11.525 0 015.651-.213c2.744.64 4.063 2.67 4.808 5.172a2.55 2.55 0 002.212 2.046 3.138 3.138 0 003.016-.948 12.939 12.939 0 013.406-3.1c3.651-1.794 6.839-.9 9.545 2.316 1.848 2.2 2.447 4.791 2.928 7.623" fill="#9a87ff"/><path data-name="パス 814" d="M236.157 235.022a15.818 15.818 0 01-4.158 10.351 16.2 16.2 0 01-9.072 5.436 13.842 13.842 0 01-7.789-.932c-3.123-1.25-5.937-2.935-7.4-6.168-.575-1.265-1.014-2.592-1.6-4.119 10.22-.7 19.963-3.324 30.027-4.567" fill="#9a87ff"/><path data-name="パス 815" d="M218.753 204.992c.087-4.867 2.444-8.088 7.243-10.119a11.047 11.047 0 019.211.152c3.176 1.427 5.538 3.545 6.076 7.283.418 2.9.568 5.788-.744 8.432a15.441 15.441 0 01-3.239 4.106 9.538 9.538 0 01-7.669 2.307 9.9 9.9 0 01-6.4-2.492c-.8-.781-1.656-1.519-2.385-2.363-1.813-2.1-2.2-4.639-2.089-7.305m11.9 6.97a7.006 7.006 0 007.21-7.214c0-2.58-3.177-7.049-7.2-6.866-3.9.177-6.834 2.785-6.907 6.679a7 7 0 006.894 7.4" fill="#fff"/><path data-name="パス 816" d="M196.045 187.985c4.156.616 7.341 2.089 9.319 5.328a11.677 11.677 0 011.306 7.516 12.119 12.119 0 01-.91 4.084 14.057 14.057 0 01-3.039 3.955 9.3 9.3 0 01-3.818 2.139 19.172 19.172 0 01-5.111.277 7.511 7.511 0 01-4.164-1.313 15.238 15.238 0 01-4.719-4.732 10.671 10.671 0 01-.978-7.742 11.988 11.988 0 011.056-3.5 10.746 10.746 0 017.914-5.458c1.2-.2 2.4-.426 3.145-.559m6.135 11.017a6.683 6.683 0 00-6.858-6.882 6.9 6.9 0 00-6.685 6.484c-.021 3.908 3.679 7.721 7.08 7.4a7.406 7.406 0 006.463-7" fill="#fff"/><path data-name="パス 817" d="M230.651 211.962a7 7 0 01-6.894-7.4c.073-3.893 3-6.5 6.907-6.679 4.021-.183 7.2 4.286 7.2 6.866a7.006 7.006 0 01-7.21 7.214"/><path data-name="パス 818" d="M202.18 199.001a7.406 7.406 0 01-6.463 7c-3.4.321-7.1-3.492-7.08-7.4a6.9 6.9 0 016.685-6.484 6.683 6.683 0 016.858 6.882"/><path data-name="パス 819" d="M245.057 277.253c.175-1.153.3-2.319.534-3.459a22.713 22.713 0 015.122-9.933 26.23 26.23 0 017.026-6.371 27.471 27.471 0 018.934-3.656c2.468-.412 4.9-1.109 7.384-1.33a23.823 23.823 0 015.7.378 24.733 24.733 0 0111.121 4.481 19.246 19.246 0 017.325 11.532 12.37 12.37 0 01-10.307 15.323 6.508 6.508 0 00-5.208 3.818 20.138 20.138 0 01-2.487 4.01c-2.339 2.716-5.4 3.337-8.81 2.539-.622-.146-1.236-.324-1.858-.473-.92-.222-1.269.059-1.2 1.044a19.655 19.655 0 01-.644 6.526 6.342 6.342 0 01-11.735 1.517 26.415 26.415 0 01-1.721-6.075c-.472-2.377-.132-4.957-1.821-7a29.694 29.694 0 00-2.226-2.377 15.25 15.25 0 01-4.8-8.285c-.106-.591-.224-1.182-.335-1.772v-.437m49.039-7.106c-.119-.518-.25-1.3-.482-2.051-1.023-3.317-2.567-6.281-5.539-8.315a20.106 20.106 0 00-12.726-3.28 34.478 34.478 0 00-10.031 2.1 25.742 25.742 0 00-11.941 8.96 16.062 16.062 0 00-3.5 8.868c-.245 4.284 1.769 7.59 4.893 10.307a10.773 10.773 0 013.811 6.927c.312 2.352.625 4.712 1.133 7.025.166.76.886 1.891 1.456 1.958.982.114 1.7-.909 1.884-1.894.454-2.4.823-4.82 1.131-7.244.183-1.441 1.241-3.034 2.667-3.115a15.707 15.707 0 014.393.484c2.565.6 4.912-.17 5.981-2.14.665-1.224 1.326-2.452 2.032-3.653 1.408-2.394 3.264-4.155 6.195-4.5a10.534 10.534 0 005.871-2.463c2.32-2.048 2.51-4.887 2.771-7.973"/><path data-name="パス 820" d="M302.986 335.916a11.964 11.964 0 01-7.117-5.02 24.79 24.79 0 01-3.33-9.712c-.5-2.95-1.111-5.893-1.384-8.865a22.4 22.4 0 01.345-5.7 37.061 37.061 0 012.982-9.744 21.069 21.069 0 0113.644-11.829 18.387 18.387 0 019.957-.4c2.946.75 5.785 3.967 6.475 7.526.763 3.936-.207 7.514-1.846 11.063a105.451 105.451 0 00-4.038 9.928 32.5 32.5 0 00-1.087 6c-.593 4.2-1.256 8.358-4.028 11.826a13.093 13.093 0 01-7.4 4.716 1.351 1.351 0 00-.342.206zm-6.872-24.7c.185 1.686.32 3.379.566 5.057.412 2.8.757 5.614 1.389 8.364a11.466 11.466 0 003.555 6.31c.972.84 2.043 1.693 3.367 1.205a10.565 10.565 0 006.879-7.455 72.871 72.871 0 001.346-8.181 43.092 43.092 0 014.3-12.686c1.846-3.79 3.39-7.584 2.444-11.9-.533-2.426-1.66-4.079-4.586-4.009a19.3 19.3 0 00-6.689 1.343c-3.585 1.417-6.762 3.476-8.718 6.882-2.659 4.633-4.431 9.554-3.857 15.067"/><path data-name="パス 821" d="M321.174 246.648c.247-2.539.545-5.479.818-8.421a79.3 79.3 0 00.738-9.058 61.2 61.2 0 00-1.146-9.578c-.582-3.179-2.947-4.68-5.874-5.612a18.332 18.332 0 01-6.768-3.4 9.537 9.537 0 01-3.543-7.237c-.023-1.552.1-3.107.206-4.657a21.569 21.569 0 00-1.208-7.64 44.6 44.6 0 01-1.552-6.778 14.854 14.854 0 01.991-6.456 23.863 23.863 0 018.274-11.963 13.5 13.5 0 0113.559-1.84 20.291 20.291 0 0112.251 12.4c1.4 3.609 3.115 7.1 4.706 10.629 1.731 3.841 3.2 7.78 2.76 12.07-.333 3.276-1.051 6.511-1.534 9.773a57.994 57.994 0 00-.946 7.9c-.024 2.8.6 5.592.726 8.4a79.05 79.05 0 01.029 9.635c-.262 3.452-.883 6.884-1.485 10.3a18.356 18.356 0 01-8.729 12.744 9.637 9.637 0 01-5.178 1.771c-3.654.035-5.346-1.7-6.111-4.848a16.55 16.55 0 01-.43-2.109c-.2-1.861-.349-3.729-.556-6.016m19.635-47.1c-.106-1.96-.065-3.421-.3-4.836a19.179 19.179 0 00-1.154-4.145 733.542 733.542 0 00-6.749-15.913 12.907 12.907 0 00-6.169-6.39 10.277 10.277 0 00-11.173.684 17.631 17.631 0 00-6.28 8.342 19.92 19.92 0 00-1.316 6.6 19.368 19.368 0 001.117 6.092 23.8 23.8 0 011.389 9.135 36.155 36.155 0 00-.2 4 6.356 6.356 0 003.535 5.876 47.633 47.633 0 005.219 2.178c3.24 1.167 5.809 3.164 6.986 6.406a22.561 22.561 0 011.37 6.928c.113 3.931-.162 7.878-.395 11.812-.186 3.163-.639 6.311-.806 9.476a38.707 38.707 0 00.221 5.857 13.364 13.364 0 00.883 3.3 1.5 1.5 0 002.335.851 16.334 16.334 0 005.69-4.892 13.984 13.984 0 002.619-5.134 42.353 42.353 0 001.53-9.9c.055-3.213.071-6.434-.081-9.643-.155-3.274-.791-6.542-.74-9.806a68.757 68.757 0 011.135-9.074c.416-2.767.938-5.519 1.331-7.8"/><path data-name="パス 822" d="M283.875 192.453a19.658 19.658 0 01-4.244-1.345 10.912 10.912 0 00-8.408-.813 12 12 0 01-11.839-2.747c-1.834-1.626-3.023-3.44-2.938-5.841a14.439 14.439 0 01.967-4.278 9.385 9.385 0 00-.465-7.231 16.71 16.71 0 01-.974-2.515 14.3 14.3 0 01.969-9.627 16.466 16.466 0 016.032-6.761 8 8 0 016.519-.861c4.642 1.1 7.32 4.251 9.1 8.421a14.794 14.794 0 00.826 1.623c1.05 1.807 1.254 1.782 3.257 1.545 3.227-.383 6.413-.276 9.015 2.1a8.779 8.779 0 012.936 7.431 15.468 15.468 0 01-.569 2.838c-.5 1.893.006 3.7.3 5.547a27.139 27.139 0 01.329 5.215 6.248 6.248 0 01-2.617 4.534 12.525 12.525 0 01-8.2 2.765m-9.275-6.5a13.913 13.913 0 016.509 1.886 6.237 6.237 0 007.385-.763 3.62 3.62 0 001.679-3.484c-.129-.927-.2-1.867-.4-2.778-.556-2.542-1-5.025-.153-7.649a7.423 7.423 0 00-.319-5.6c-.444-.915-.935-1.784-2.185-1.754-1.578.037-3.161-.025-4.74.021a7.428 7.428 0 01-7.489-4.766 32.915 32.915 0 00-2.387-4.578c-1.513-2.249-3.915-3.275-6.189-2.128-5 2.518-7.495 8.812-5.253 13.872.876 1.974 1.8 3.982 1.6 6.184a26.827 26.827 0 01-1.075 4.577c-.564 2.03-.948 4.029.737 5.738a6.989 6.989 0 007.438 2.11 44.443 44.443 0 014.844-.887"/><path data-name="パス 823" d="M301.042 218.08a41.259 41.259 0 00-.188 4.793 10.078 10.078 0 00.921 3.367c.754 1.648 1.878 3.136 2.551 4.811 1.688 4.206-.456 9.307-3.743 11.656a13.477 13.477 0 01-7.482 2.625 10.035 10.035 0 01-7.027-2.784c-2.257-2.017-4.627-3.786-7.724-4.388a11.367 11.367 0 01-3.311-1.434c-3.126-1.785-3.895-5.172-3.5-8.387.546-4.464 3.071-7.89 5.546-11.39.989-1.4 1.784-2.94 2.673-4.413.13-.215.246-.5.445-.6 2.376-1.2 4.662-2.726 7.178-3.454a11.052 11.052 0 019.05 1.046 10.615 10.615 0 014.615 8.553m-4.768.75h-.038a12.34 12.34 0 00-.008-1.524c-.377-3-2.026-6.634-6.512-5.432-3.177.851-5.839 2.54-7.056 5.871a2.062 2.062 0 01-.555.765 14.735 14.735 0 00-1.793 1.562c-1.9 2.436-3.7 4.94-4.235 8.1-.415 2.437.407 5.781 3.747 6.607a20.73 20.73 0 015.281 2.01 50.32 50.32 0 015.11 3.794c1.3.983 2.709 1.554 4.3.79a14.687 14.687 0 003.332-1.9 6.019 6.019 0 002.373-5.881 13.853 13.853 0 00-2.648-5.7 7.031 7.031 0 01-1.554-4.62c.093-1.479.172-2.958.257-4.437"/><path data-name="パス 824" d="M294.096 270.147c-.261 3.086-.451 5.924-2.771 7.973a10.535 10.535 0 01-5.871 2.463c-2.931.349-4.787 2.11-6.195 4.5-.706 1.2-1.367 2.429-2.032 3.653-1.069 1.97-3.417 2.738-5.981 2.14a15.707 15.707 0 00-4.393-.484c-1.426.081-2.484 1.674-2.667 3.115a121.26 121.26 0 01-1.131 7.244c-.185.985-.9 2.008-1.884 1.894-.57-.066-1.29-1.2-1.456-1.958-.508-2.313-.821-4.673-1.133-7.025a10.772 10.772 0 00-3.811-6.927c-3.124-2.717-5.138-6.023-4.893-10.307a16.062 16.062 0 013.5-8.868 25.742 25.742 0 0111.941-8.96 34.478 34.478 0 0110.031-2.1 20.106 20.106 0 0112.726 3.28c2.972 2.034 4.516 5 5.538 8.315.232.751.363 1.534.482 2.051" fill="#ff0091"/><path data-name="パス 825" d="M296.115 311.217c-.575-5.513 1.2-10.434 3.857-15.067 1.956-3.407 5.133-5.465 8.718-6.882a19.3 19.3 0 016.689-1.343c2.926-.07 4.053 1.583 4.586 4.009.946 4.313-.6 8.108-2.444 11.9a43.093 43.093 0 00-4.3 12.686 72.868 72.868 0 01-1.346 8.181 10.565 10.565 0 01-6.879 7.455c-1.324.488-2.395-.365-3.367-1.205a11.466 11.466 0 01-3.555-6.31c-.632-2.75-.977-5.568-1.389-8.364-.246-1.677-.381-3.37-.566-5.057" fill="#00efb8"/><path data-name="パス 826" d="M340.809 199.544c-.393 2.282-.915 5.034-1.331 7.8a68.756 68.756 0 00-1.135 9.074c-.051 3.264.585 6.532.74 9.806.152 3.209.135 6.43.081 9.643a42.355 42.355 0 01-1.53 9.9 13.984 13.984 0 01-2.619 5.134 16.333 16.333 0 01-5.69 4.892 1.5 1.5 0 01-2.335-.851 13.364 13.364 0 01-.883-3.3 38.707 38.707 0 01-.221-5.857c.166-3.165.619-6.313.806-9.476.233-3.933.507-7.881.395-11.812a22.561 22.561 0 00-1.37-6.928c-1.177-3.242-3.746-5.239-6.986-6.406a47.637 47.637 0 01-5.219-2.178 6.356 6.356 0 01-3.535-5.876 36.155 36.155 0 01.2-4 23.8 23.8 0 00-1.389-9.135 19.368 19.368 0 01-1.117-6.092 19.921 19.921 0 011.316-6.6 17.631 17.631 0 016.28-8.342 10.277 10.277 0 0111.173-.684 12.907 12.907 0 016.169 6.39 738.55 738.55 0 016.749 15.913 19.175 19.175 0 011.154 4.145c.233 1.414.191 2.875.3 4.836" fill="#ff1d8f"/><path data-name="パス 827" d="M274.597 185.948a44.443 44.443 0 00-4.844.887 6.989 6.989 0 01-7.438-2.11c-1.686-1.709-1.3-3.708-.737-5.738a26.829 26.829 0 001.075-4.577c.2-2.2-.725-4.21-1.6-6.184-2.242-5.06.256-11.354 5.253-13.872 2.275-1.147 4.677-.121 6.189 2.128a32.913 32.913 0 012.387 4.578 7.428 7.428 0 007.489 4.766c1.579-.046 3.162.016 4.74-.021 1.25-.03 1.741.839 2.185 1.754a7.423 7.423 0 01.319 5.6c-.848 2.624-.4 5.107.153 7.649.2.911.275 1.851.4 2.778a3.62 3.62 0 01-1.679 3.484 6.237 6.237 0 01-7.385.763 13.913 13.913 0 00-6.509-1.886" fill="#00efb8"/><path data-name="パス 828" d="M296.274 218.829c-.085 1.479-.165 2.958-.257 4.437a7.031 7.031 0 001.554 4.62 13.853 13.853 0 012.648 5.7 6.019 6.019 0 01-2.373 5.881 14.687 14.687 0 01-3.332 1.9c-1.588.764-3 .194-4.3-.79a50.321 50.321 0 00-5.11-3.794 20.73 20.73 0 00-5.281-2.01c-3.34-.826-4.162-4.17-3.747-6.607.538-3.165 2.333-5.669 4.235-8.1a14.735 14.735 0 011.793-1.562 2.063 2.063 0 00.555-.765c1.216-3.331 3.879-5.019 7.056-5.871 4.486-1.2 6.135 2.433 6.512 5.432a12.337 12.337 0 01.008 1.524h.038" fill="#9a87ff"/><path data-name="長方形 1150" d="M84.743 134.998h260.721v335.003H84.743z" fill="none"/></g><g data-name="グループ 650"><path data-name="パス 777" d="M15.336 377.988a39.2 39.2 0 01-4.006-1.429 16.7 16.7 0 01-7.646-7.448c-2.255-4.255-2.977-8.9-3.414-13.655-.742-8.075.2-16.066.919-24.072.349-3.891.742-7.782 1.289-11.649.549-3.891 1.325-7.749 1.982-11.624.465-2.746.878-5.5 1.352-8.245q.831-4.8 1.731-9.6c.569-3.054 1.165-6.1 1.762-9.153.66-3.367 1.278-6.744 2.018-10.093 1.1-5 2.212-10.011 3.478-14.974 1.519-5.956 3.156-11.884 4.836-17.8 1.585-5.572 3.28-11.111 4.948-16.659 1.531-5.091 3.057-10.185 4.648-15.258 1.257-4.011 2.518-8.026 3.941-11.979 2.276-6.328 4.515-12.679 7.1-18.885 2.143-5.148 4.659-10.148 7.192-15.12 2.125-4.172 4.426-8.261 6.808-12.293a93.623 93.623 0 019.6-13.461 57.851 57.851 0 0110.849-9.895 42.452 42.452 0 014.478-2.341.963.963 0 00.492-.579c.646-5.23 3.132-9.845 4.891-14.8-.365-.141-.745-.32-1.143-.434-4.132-1.183-6.931-3.954-8.966-7.6-1.031-1.846-2.747-2.646-4.61-3.248-5.9-1.9-9.551-6.13-11.719-11.708a18.289 18.289 0 01-.981-7.973 13.757 13.757 0 00-2.05-9 5.116 5.116 0 00-.925-.9c-.408-.356-.729-.742-1.426-.3-.326.2-1.031-.111-1.534-.281-4.506-1.519-5.425-4.791-4.167-8.6a58.688 58.688 0 012.574-5.783c-.929-.084-2.117-.117-3.278-.309-3.918-.648-4.914-4.125-4.035-7.172a20.826 20.826 0 014.128-7.741 51.206 51.206 0 018.191-7.993c2.447-1.844 4.829-3.788 7.386-5.464a38.177 38.177 0 0110.862-4.687 71.036 71.036 0 0012.572-5.34 39.881 39.881 0 0115.781-4.585 35.173 35.173 0 0111.483 1c3.465.98 6.985 1.794 10.382 2.968a21.1 21.1 0 017.57 4.989c.726.7 1.582 1.256 2.358 1.9a57.251 57.251 0 018.354 8.935c2.115 2.708 4.373 5.327 6.248 8.195a30.248 30.248 0 015.177 13.68 23.978 23.978 0 01-.677 7.4c-.952 4.517-1.217 8.98.221 13.524a99.211 99.211 0 012.246 10.158c.2 1 .227 2.04.334 3.063l-.353 3.911c-.364 1.225-.692 2.463-1.1 3.675a25.289 25.289 0 01-10.055 12.881c-5.133 3.536-10.426 6.858-15.805 10.005a4.8 4.8 0 00-2.564 3.918 61.262 61.262 0 01-2.668 9.7c-1.368 3.857-3.039 7.607-4.628 11.384a12.012 12.012 0 01-1.158 1.831c.417 3.384 1.063 6.788 1.194 10.212a76.261 76.261 0 01-.517 9.527c-.189 2.156-.554 4.3-.92 6.436-.524 3.051-1.119 6.089-1.687 9.133-.595 3.185-1.162 6.374-1.8 9.55-.474 2.36-1.022 4.7-1.57 7.048-.744 3.182-1.535 6.353-2.276 9.536-.708 3.043-1.371 6.1-2.065 9.141-.775 3.395-1.523 6.8-2.353 10.178-1.111 4.529-2.239 9.056-3.453 13.559a654.339 654.339 0 01-4.432 15.751q-1.741 5.875-3.762 11.668c-2.489 7.117-4.992 14.231-7.648 21.287-3.332 8.854-6.988 17.578-11.121 26.094-2.186 4.5-4.287 9.051-6.512 13.535-3.558 7.169-7.071 14.366-10.825 21.432a99.57 99.57 0 01-11.715 17.288 77.78 77.78 0 01-8 8.394 28.7 28.7 0 01-15.113 7.275 24.6 24.6 0 01-3.122.09c-.829.009-1.659-.012-2.488-.019l-1.086-.1m-11.06-35.025l-.216.012c.125 4.223.214 8.449.387 12.67a26.789 26.789 0 002.9 11.315c3.344 6.477 8.055 8.417 14.618 7.479a23.57 23.57 0 0012.715-6.494 81.691 81.691 0 0010.638-12.549c6.662-9.242 11.576-19.468 16.524-29.669 2.758-5.688 5.46-11.4 8.171-17.114 1.546-3.256 3.1-6.508 4.572-9.8.884-1.971 1.607-4.014 2.425-6.015 1.473-3.606 3.008-7.185 4.428-10.811.786-2.009 1.344-4.107 2.09-6.133.768-2.086 1.724-4.1 2.449-6.2 1.412-4.087 2.795-8.188 4.055-12.325a907.613 907.613 0 005.759-19.6c1.571-5.611 3.027-11.255 4.428-16.911.926-3.735 1.649-7.52 2.487-11.278.681-3.055 1.408-6.1 2.095-9.151q1.133-5.043 2.23-10.094c.874-4.01 1.768-8.016 2.589-12.037.613-3 1.208-6.016 1.66-9.047.709-4.759 1.4-9.526 1.891-14.31a36.625 36.625 0 00-.6-11.419c-.951-4.465-2.717-8.541-6.376-11.471-3.964-3.174-8.708-4.6-13.59-5.512a51.526 51.526 0 00-7.428-.681 12.064 12.064 0 00-5.994 1.358c-4.192 2.122-7.44 5.394-10.535 8.774a83 83 0 00-9.661 13.14 222.28 222.28 0 00-20.661 44.233c-2.4 7.143-4.716 14.315-7 21.495-1.359 4.266-2.616 8.565-3.875 12.862-.986 3.37-1.891 6.765-2.859 10.141-1.077 3.755-2.226 7.489-3.269 11.253-1.073 3.871-2.076 7.762-3.071 11.653-.623 2.433-1.191 4.881-1.756 7.328q-.742 3.212-1.423 6.437a495.117 495.117 0 00-1.6 7.732c-.476 2.4-.892 4.82-1.366 7.225-.593 3.008-1.254 6-1.816 9.015-.608 3.259-1.148 6.531-1.695 9.8-.7 4.2-1.467 8.4-2.046 12.62-.575 4.2-.976 8.419-1.409 12.634-.323 3.143-.575 6.293-.858 9.44m87.032-242.3a62.37 62.37 0 01-4.035-14.386c-.326-2.037-1.355-4.034-.535-6.174.1-.26.228-.681.395-.708.434-.069 1.126-.134 1.306.107.872 1.164 2.064 2.142 2.286 3.731a14.539 14.539 0 00.589 1.624c.744 2.749 1.411 5.52 2.2 8.255.634 2.2 1.376 4.367 2.142 6.524a1.29 1.29 0 00.964.641 35.711 35.711 0 0111.615 2.643c.9.358 1.226.159 1.47-.658.832-2.785 1.846-5.53 2.467-8.36a29.162 29.162 0 00.613-6.666 37.281 37.281 0 00-.794-5.38l.98-1.942c.648.194 1.532.2 2 .649a6.606 6.606 0 012.134 3.583 24.043 24.043 0 01-.135 8.8 40.193 40.193 0 01-2.9 9.659c-.335.736-.743 1.44-1.155 2.23 1.176.552 2.226 1.076 3.3 1.528a1 1 0 00.881-.093 36.856 36.856 0 004.584-4.648 55.685 55.685 0 004.043-7.007 35.317 35.317 0 003.9-18.775 49.659 49.659 0 00-3.032-14.412 5.46 5.46 0 01.067-3.408c1.419-.41 2.108.631 2.642 1.439a29.756 29.756 0 012.581 4.839 31.823 31.823 0 012.35 15.638 76.315 76.315 0 01-1.376 8.194 33.963 33.963 0 01-5.938 12.982c-1.918 2.648-4.186 5.043-6.253 7.5l3.6 3.158c.3-.179.673-.391 1.035-.62q5.617-3.549 11.231-7.1c4.49-2.839 8.605-6.115 11.222-10.844a21.594 21.594 0 002.2-5.933 22.4 22.4 0 00-.457-9.222c-.567-2.7-1.359-5.36-2-8.048-.632-2.629-1.275-5.276-.871-8.007.413-2.793 1-5.561 1.382-8.357.787-5.738-.886-10.939-3.864-15.728-1.656-2.662-3.645-5.118-5.516-7.644-2.859-3.857-5.684-7.733-9.733-10.508-2.687-1.84-5.171-4.049-8.322-5.042-3.1-.978-6.284-1.7-9.446-2.476a29.234 29.234 0 00-10.616-.355c-4.689.576-8.927 2.468-13.171 4.4a111.058 111.058 0 01-12.045 5.11 45.376 45.376 0 00-13.758 6.632c-2.48 1.86-4.811 3.926-7.149 5.97a26.266 26.266 0 00-7.152 9.216 10.682 10.682 0 00-.733 3.176c-.084.847.492 1.155 1.367 1.022 1.731-.263 3.476-.428 5.21-.665a3.128 3.128 0 012.868 1.351c.789.924.322 1.82-.349 2.63a6.306 6.306 0 00-.625.867c-1.148 2.011-2.646 3.913-3.334 6.073-.968 3.037-.72 3.6 2.115 4.457a15.037 15.037 0 013.942 1.842c2.445 1.626 3.474 4.207 3.853 6.974a51.333 51.333 0 01.3 6.664 16.118 16.118 0 004.03 10.779c1.3 1.5 2.709 2.95 4.808 3.249a9.657 9.657 0 015.773 2.811 35.761 35.761 0 013.44 4.683 12.193 12.193 0 005.251 4.358c.5.221 1.483.274 1.728-.023a7.206 7.206 0 014.419-2.793M83.6 121.457c.9.006 1.612-.02 2.323.021a45.784 45.784 0 0119.081 5.254 21.16 21.16 0 017.25 5.8c.779 1.034 1.367 2.212 2.145 3.494.77-1.924 1.539-3.691 2.188-5.5 1.575-4.385 3.225-8.758 3.881-13.406.35-2.483-.055-4.519-2.521-5.751-2.227-1.112-4.445-2.247-6.706-3.285-5.108-2.344-10.327-4.256-16.1-3.972-2.519.124-4.519.915-5.589 3.428-1.286 3.023-2.7 5.989-4.014 9-.685 1.574-1.266 3.193-1.942 4.917"/><path data-name="パス 778" d="M4.277 342.964c.284-3.147.535-6.3.858-9.44.434-4.215.834-8.437 1.409-12.634.578-4.221 1.344-8.417 2.046-12.62.546-3.271 1.086-6.543 1.695-9.8.562-3.013 1.223-6.007 1.816-9.015.474-2.405.889-4.821 1.366-7.225a612.364 612.364 0 011.6-7.732q.687-3.224 1.423-6.437a322.497 322.497 0 011.756-7.328c1-3.891 2-7.782 3.071-11.653 1.043-3.764 2.192-7.5 3.269-11.253.968-3.377 1.873-6.771 2.859-10.141 1.259-4.3 2.516-8.6 3.875-12.862 2.288-7.18 4.607-14.351 7-21.495a222.277 222.277 0 0120.66-44.239 83 83 0 019.661-13.14c3.1-3.38 6.343-6.652 10.535-8.774a12.065 12.065 0 015.994-1.358 51.528 51.528 0 017.428.681c4.882.91 9.626 2.339 13.59 5.512 3.659 2.93 5.425 7.006 6.376 11.471a36.625 36.625 0 01.6 11.419c-.5 4.785-1.182 9.551-1.891 14.31-.452 3.031-1.047 6.044-1.66 9.047-.821 4.021-1.716 8.028-2.589 12.037q-1.1 5.05-2.23 10.094c-.686 3.053-1.414 6.1-2.095 9.151-.838 3.758-1.562 7.543-2.487 11.278-1.4 5.656-2.857 11.3-4.428 16.911-1.836 6.558-3.774 13.088-5.759 19.6-1.26 4.137-2.643 8.239-4.055 12.326-.725 2.1-1.681 4.118-2.449 6.2-.746 2.026-1.3 4.123-2.09 6.133-1.42 3.626-2.956 7.205-4.428 10.811-.817 2-1.541 4.044-2.425 6.015-1.473 3.288-3.027 6.541-4.572 9.8-2.711 5.711-5.413 11.426-8.171 17.114-4.948 10.2-9.861 20.428-16.524 29.669a81.688 81.688 0 01-10.637 12.548 23.569 23.569 0 01-12.715 6.494c-6.563.938-11.274-1-14.618-7.479a26.788 26.788 0 01-2.9-11.315c-.174-4.222-.262-8.447-.387-12.67l.216-.012" fill="#ff438e"/><path data-name="パス 779" d="M91.31 100.667a7.214 7.214 0 00-4.42 2.793c-.245.3-1.229.244-1.728.024a12.193 12.193 0 01-5.25-4.359 35.843 35.843 0 00-3.44-4.683 9.655 9.655 0 00-5.774-2.81c-2.1-.3-3.509-1.747-4.808-3.249a16.116 16.116 0 01-4.031-10.779 51.194 51.194 0 00-.3-6.665c-.379-2.766-1.409-5.347-3.853-6.974a15.044 15.044 0 00-3.943-1.842c-2.835-.856-3.082-1.42-2.114-4.456.688-2.16 2.186-4.062 3.334-6.073a6.177 6.177 0 01.625-.867c.67-.81 1.138-1.706.349-2.631a3.128 3.128 0 00-2.868-1.351c-1.735.237-3.48.4-5.21.665-.876.133-1.451-.175-1.368-1.022a10.688 10.688 0 01.733-3.176 26.265 26.265 0 017.153-9.215c2.337-2.044 4.668-4.111 7.149-5.971a45.392 45.392 0 0113.75-6.64 111.066 111.066 0 0012.046-5.109c4.243-1.929 8.481-3.822 13.171-4.4a29.254 29.254 0 0110.616.355c3.162.774 6.345 1.5 9.446 2.477 3.15.993 5.636 3.2 8.321 5.042 4.049 2.774 6.875 6.65 9.734 10.508 1.871 2.525 3.86 4.981 5.516 7.644 2.977 4.788 4.65 9.99 3.863 15.728-.384 2.8-.968 5.564-1.381 8.358-.4 2.732.238 5.378.87 8.007.646 2.688 1.437 5.344 2 8.048a22.4 22.4 0 01.458 9.223 21.618 21.618 0 01-2.2 5.932c-2.617 4.73-6.731 8-11.222 10.844l-11.231 7.1c-.363.228-.735.441-1.035.62l-3.6-3.159c2.068-2.457 4.335-4.852 6.254-7.5a33.965 33.965 0 005.937-12.981 76.318 76.318 0 001.376-8.194 31.848 31.848 0 00-2.35-15.639 29.709 29.709 0 00-2.581-4.838c-.535-.809-1.224-1.849-2.642-1.439a5.457 5.457 0 00-.068 3.407 49.7 49.7 0 013.037 14.431 35.313 35.313 0 01-3.9 18.776 55.62 55.62 0 01-4.042 7.006 36.864 36.864 0 01-4.584 4.649 1 1 0 01-.882.093c-1.079-.452-2.127-.976-3.3-1.529.412-.79.819-1.494 1.156-2.23a40.175 40.175 0 002.9-9.659 24.044 24.044 0 00.135-8.8 6.614 6.614 0 00-2.134-3.583c-.465-.447-1.348-.455-2-.649l-.98 1.941a37.282 37.282 0 01.793 5.381 29.048 29.048 0 01-.613 6.665c-.621 2.832-1.635 5.575-2.467 8.36-.245.817-.573 1.017-1.471.658a35.724 35.724 0 00-11.614-2.643 1.292 1.292 0 01-.965-.641c-.766-2.156-1.507-4.325-2.142-6.523-.788-2.736-1.456-5.506-2.2-8.256a14.546 14.546 0 01-.59-1.624c-.222-1.589-1.414-2.567-2.286-3.73-.181-.241-.873-.176-1.307-.108-.165.026-.295.448-.395.708-.819 2.14.209 4.137.535 6.175a62.33 62.33 0 004.035 14.385" fill="#ffcf00"/><path data-name="パス 780" d="M83.602 121.46c.676-1.724 1.256-3.343 1.942-4.917 1.311-3.013 2.727-5.979 4.014-9 1.07-2.513 3.07-3.3 5.589-3.428 5.769-.284 10.988 1.628 16.1 3.972 2.261 1.038 4.479 2.172 6.706 3.285 2.467 1.232 2.871 3.267 2.521 5.751-.656 4.648-2.306 9.021-3.881 13.406-.649 1.809-1.418 3.577-2.188 5.5-.777-1.282-1.366-2.46-2.145-3.494a21.16 21.16 0 00-7.25-5.8 45.783 45.783 0 00-19.081-5.254c-.711-.041-1.426-.015-2.323-.021" fill="#fff"/><path data-name="パス 781" d="M126.266 20.92c-1.33.016-2.667-.049-3.991.064-3.241.276-4.951 2.329-5.8 5.268-.57 1.964-.993 3.975-1.642 5.91-1.426 4.241-4.559 6.757-9.231 6.8a22.032 22.032 0 01-6.778-1.469c-3.687-1.126-6.513 1.394-7.372 4.194a45.489 45.489 0 01-1.869 5.477c-.962 2.129-2.868 3.317-4.93 4.307a13.715 13.715 0 00-3.8 2.324 5.884 5.884 0 00-1.421 5.215 25.938 25.938 0 01.329 7.184c-.843 5.422-3.035 10.223-8.2 12.958a12.463 12.463 0 01-9.043 1.268c-3.6-.866-6.992.793-7.854 5.021a33.629 33.629 0 00-.092 9.594 27.519 27.519 0 01-.579 8.576 17.9 17.9 0 01-3.285 7.484c-4.1 5.062-11.533 4.374-14.28-2.22a34.025 34.025 0 01-1.812-5.38 26.094 26.094 0 01-.277-9.992c.443-2.821 1.045-5.625 1.336-8.461a15.659 15.659 0 00-4.941-13.5 50.584 50.584 0 01-5.084-5.592c-2.455-3.211-1.825-6.578-.005-9.868.748-1.352 1.536-2.682 2.282-4.034 1.382-2.5 1.161-5.229 1.11-7.946a87.69 87.69 0 01.055-9.1c.3-3.474 1.855-6.578 3.668-9.527a42.613 42.613 0 018.4-9.576c3.678-3.226 7.55-6.25 12.31-7.791 2.5-.809 5.067-1.4 7.53-2.3 3.245-1.177 6.428-2.527 9.619-3.85A26.572 26.572 0 0180.263.006c4.383-.106 8.513 1.216 12.734 2.073a27.851 27.851 0 006.24.54c3.837-.1 7.663-.569 11.5-.67a60.253 60.253 0 0110.03.263c5.357.762 10 3.141 12.977 7.892 2.3 3.675 1.771 8.393-2.308 10.534a8.785 8.785 0 01-3.217.551 11 11 0 01-1.951-.155v-.116M38.797 95.259c.023 1.669-.093 3.663.109 5.625.321 3.137.988 6.208 3 8.787 1.109 1.423 2.306 1.58 3.711.438 2.749-2.237 3.718-5.42 4.309-8.7a40.944 40.944 0 00.332-5.6c.04-1.039.018-2.081 0-3.122-.041-3.005-.224-6.033.856-8.921 1.267-3.393 3.291-6.065 7.122-6.671a24.089 24.089 0 014.054-.062 18.21 18.21 0 003.544.093 10.972 10.972 0 006.645-4.276c2.684-3.428 3.113-7.319 2.707-11.532a19.4 19.4 0 01.531-6.639 9.95 9.95 0 016.37-6.736 7.666 7.666 0 004.552-5.143 23.661 23.661 0 012.681-5.37 7.743 7.743 0 017.387-3.869 33.881 33.881 0 015.029 1.156 8.461 8.461 0 004.842.137c2.747-.894 3.667-3.08 4.381-5.539.658-2.268 1.016-4.615 2.312-6.7 2.185-3.519 5.133-5.612 9.36-5.631 1.877-.008 3.754.055 5.629.062a1.9 1.9 0 001.886-1.183 4.724 4.724 0 00-.665-5.339 12.205 12.205 0 00-8.378-4.346 113.4 113.4 0 00-11.409.046c-3.329.1-6.652.531-9.98.543-4.123.018-8.126-1.015-12.117-1.989a25.321 25.321 0 00-8.229-.6c-4.556.389-8.514 2.556-12.694 4.1-3.947 1.462-8.01 2.61-12.02 3.909a14.584 14.584 0 00-3.365 1.22 67.668 67.668 0 00-5.841 4.239 40 40 0 00-9.9 11.893 16.234 16.234 0 00-2.46 7.861c-.009 2.562.241 5.127.432 7.686.232 3.111.035 6.1-1.672 8.867a59.052 59.052 0 00-3.12 5.885 3.719 3.719 0 00.161 3.65 24.956 24.956 0 002.42 3.307c1.2 1.338 2.51 2.573 3.815 3.81 4.538 4.3 5.99 9.6 5.073 15.669-.436 2.885-.9 5.767-1.4 8.978"/><path data-name="パス 782" d="M3.417 275.033c.975-3.84 1.771-7.737 2.973-11.506 1.371-4.3 1.106-8.507.207-12.8a25.2 25.2 0 01-.046-10.8c1.006-4.515 3.245-8.433 5.357-12.452a89.673 89.673 0 003.812-8.437c1.876-4.695 3.956-9.244 7.864-12.642a7.048 7.048 0 016.581-1.615c.379.091.856-.261 1.252-.2.689.113 1.6.186 1.976.639a17.056 17.056 0 012.453 3.777 18.025 18.025 0 011.334 9c-.335 4.474-.642 8.951-.834 13.433a11.543 11.543 0 00.592 3.517 64.144 64.144 0 012.54 14.241 26.264 26.264 0 01-2.82 13.042 14.372 14.372 0 01-4.214 5.529c-3.367 2.479-5.282 5.945-6.819 9.7a22.347 22.347 0 01-4.526 7.543 8.138 8.138 0 01-6.684 2.445 12.7 12.7 0 01-9.28-5.123 7.931 7.931 0 01-1.561-5.8c.035-.471.084-.941.126-1.412l-.283-.076m29.066-56.468a28.716 28.716 0 00-.515-8.035 2.29 2.29 0 00-2.552-2.038 5.975 5.975 0 00-2.288.885c-2.536 1.7-3.9 4.311-5.115 6.993-1.566 3.468-2.949 7.021-4.6 10.444-2.164 4.483-5.223 8.554-6.15 13.593a16.187 16.187 0 00-.568 4.083c.256 3.218.693 6.429 1.222 9.616a17.319 17.319 0 01-.366 8.226c-1.516 4.767-3.1 9.508-3.22 14.59a6.478 6.478 0 001.6 4.787c1.842 2.028 4.166 2.64 6.264 1.452a6.4 6.4 0 002.312-2.051 56.227 56.227 0 003.294-6.3 24.678 24.678 0 016.169-9.045 17.625 17.625 0 003.76-3.977 22.166 22.166 0 002.963-11.163 48.852 48.852 0 00-1.658-12.483c-.747-3.092-1.634-6.154-1.446-9.361.184-3.138.543-6.266.9-10.218"/><path data-name="パス 783" d="M38.8 95.259c.5-3.211.96-6.093 1.4-8.978.917-6.068-.535-11.365-5.073-15.669-1.3-1.237-2.618-2.472-3.815-3.81a24.957 24.957 0 01-2.423-3.308 3.719 3.719 0 01-.161-3.65 59.052 59.052 0 013.12-5.885c1.707-2.771 1.9-5.756 1.672-8.867-.191-2.56-.441-5.125-.432-7.686a16.234 16.234 0 012.461-7.861 40 40 0 019.9-11.893 67.668 67.668 0 015.841-4.239 14.584 14.584 0 013.365-1.22c4.009-1.3 8.073-2.447 12.02-3.909 4.18-1.546 8.139-3.713 12.694-4.1a25.321 25.321 0 018.229.6c3.988.973 7.991 2.007 12.117 1.992 3.327-.012 6.65-.439 9.98-.543a113.4 113.4 0 0111.409-.046 12.205 12.205 0 018.378 4.346 4.724 4.724 0 01.665 5.339 1.9 1.9 0 01-1.886 1.183c-1.876-.007-3.752-.07-5.629-.062-4.227.018-7.175 2.111-9.36 5.631-1.3 2.086-1.654 4.434-2.312 6.7-.714 2.459-1.635 4.645-4.381 5.539a8.461 8.461 0 01-4.842-.137 33.881 33.881 0 00-5.029-1.156 7.743 7.743 0 00-7.387 3.869 23.661 23.661 0 00-2.681 5.37 7.666 7.666 0 01-4.547 5.136 9.95 9.95 0 00-6.37 6.736 19.4 19.4 0 00-.531 6.639c.405 4.213-.024 8.1-2.707 11.532a10.972 10.972 0 01-6.645 4.276 18.209 18.209 0 01-3.544-.093 24.09 24.09 0 00-4.054.062c-3.831.606-5.855 3.278-7.122 6.671-1.079 2.888-.9 5.915-.856 8.921.015 1.041.036 2.083 0 3.122a40.943 40.943 0 01-.332 5.6c-.591 3.283-1.56 6.467-4.309 8.7-1.406 1.143-2.6.985-3.711-.438-2.01-2.579-2.677-5.65-3-8.787-.2-1.962-.086-3.956-.109-5.625" fill="#00efb8"/><path data-name="パス 784" d="M32.484 218.568c-.356 3.952-.715 7.08-.9 10.218-.187 3.207.7 6.269 1.446 9.361a48.852 48.852 0 011.658 12.483 22.166 22.166 0 01-2.961 11.159 17.624 17.624 0 01-3.76 3.977 24.678 24.678 0 00-6.169 9.045 56.226 56.226 0 01-3.294 6.3 6.4 6.4 0 01-2.312 2.051c-2.1 1.188-4.422.576-6.264-1.452a6.478 6.478 0 01-1.6-4.787c.124-5.083 1.7-9.823 3.22-14.59a17.319 17.319 0 00.366-8.226c-.529-3.186-.966-6.4-1.222-9.616a16.187 16.187 0 01.568-4.083c.927-5.038 3.987-9.11 6.15-13.593 1.652-3.424 3.036-6.977 4.6-10.444 1.211-2.683 2.579-5.293 5.115-6.993a5.975 5.975 0 012.288-.885 2.29 2.29 0 012.552 2.038 28.716 28.716 0 01.515 8.035" fill="#00efb8"/><path data-name="パス 791" d="M40.942 470a4.934 4.934 0 00-1.035-.216 77.232 77.232 0 01-18.461-2.391c-2.985-.716-6-1.309-9.021-1.868a8.408 8.408 0 01-6.583-8.35 30.291 30.291 0 01.545-8.619c.139-.523-.359-1.2-.512-1.819-1.686-6.827-1.253-13.4 2.384-19.633-3.618-3.27-3.688-7.282-2.044-11.448a10.6 10.6 0 018.825-6.794c0-1.737.012-3.5 0-5.26-.034-4.527-.087-9.054-.115-13.583q-.042-6.512-.046-13.025c.005-7.647.046-15.294.044-22.94 0-2.638-.155-5.276-.115-7.912.025-1.641.27-3.279.439-4.917.209-2.035.346-4.082.683-6.1a15.964 15.964 0 018.532-11.727 5.691 5.691 0 012.462-.724c3.274-.117 6.552-.042 9.551 1.543a13 13 0 016.613 8.451c1.553 5.737 1.633 11.63 1.611 17.527-.014 3.618.124 7.235.105 10.852-.039 7.718-.169 15.435-.2 23.153-.025 6.815.035 13.631.062 20.447 0 .324.048.648.08 1.044 7.218 1.061 11.062 5.269 11.642 12.547a25.128 25.128 0 0110.629 1.084 37.06 37.06 0 0114.767 8.258 22.836 22.836 0 017.77 13.844c.339 2.351.7 4.7 1.062 7.049a1.554 1.554 0 00.168.377v5.887a34.134 34.134 0 00-.845 3.555c-.631 4.775-3.8 7.393-7.948 8.717a99.244 99.244 0 01-11.121 2.353c-1.4.275-2.83.428-4.247.637zm-29.135-40.516a27.889 27.889 0 00-2.137 11.263 26.405 26.405 0 001.3 5.974 4.251 4.251 0 002.5 2.956 47.663 47.663 0 007.969 2.356c3.83.71 7.72 1.147 11.6 1.514 5 .473 10.018.851 15.036 1.092 2.776.134 5.572-.035 8.353-.178a127.662 127.662 0 0013.733-.95 106.4 106.4 0 0012.66-3.387 6.832 6.832 0 002.045-1.4 1 1 0 00.329-.73c-.071-1.364-.21-2.723-.3-4.087-.265-3.951-1.148-7.76-3.755-10.81-6.492-7.6-14.688-11.661-24.82-11.5a2.09 2.09 0 00-1.856 1.063 10.894 10.894 0 01-7.39 4.511c-1.066.143-2.27-.5-2.151-1.144a3.559 3.559 0 011.6-2.716 14.008 14.008 0 001.961-1.163c.831-.674 1.886-1.327 2.284-2.236 1.82-4.161-1.169-9.547-5.689-10.456a3.986 3.986 0 00-.3.941 30.532 30.532 0 01-.163 3.338c-.355 1.966-.924 3.947-2.865 4.936-6.482 3.3-13.222 4.317-20.222 1.828-3.232-1.149-5.446-3.279-5.844-6.9a6.388 6.388 0 00-.367-1.118c-1.4.966-3.189 1.013-3.98 2.626a15.545 15.545 0 00-1.329 3.08c-.4 1.663-.6 3.453.4 4.967a9.326 9.326 0 006.556 4.232c3.9.5 7.872.377 11.813.545 1.3.055 2.433.232 2.938 1.846.165.527.125.882-.115 1a6.1 6.1 0 01-2.356.78c-5.869.09-11.7-.243-17.435-2.064m7.709-63.367h-.062v1.736c-.018 6.016-.024 12.033-.071 18.048a1.433 1.433 0 00.876 1.442 24.64 24.64 0 0018.732 1.952c.976-.271 1.155-.782 1.142-1.7-.075-5.434-.08-10.87-.125-16.3-.079-9.522-.113-19.045-.283-28.565a30.347 30.347 0 00-2-10.991c-1.084-2.665-2.758-4.647-5.863-5.146-2.233-.359-4.361-.472-6.164 1.059a29.585 29.585 0 00-3.531 3.62 7.531 7.531 0 00-1.686 4.339c-.187 2.472-.452 4.939-.664 7.41-.123 1.434-.273 2.871-.3 4.309-.045 2.823-.008 5.649-.008 8.473v10.322m66.465 86.768a4.873 4.873 0 00-.531.093c-4.314 1.338-8.555 3.034-12.958 3.921a87.477 87.477 0 01-13.046 1.24c-4.877.236-9.778.4-14.651.184-5.454-.238-10.892-.909-16.332-1.434a57.273 57.273 0 01-15.555-3.3l-2.246-.893c-1.154 2.965.043 5.425 1.286 7.853a1.727 1.727 0 001.052.693c5.077 1.269 10.138 2.62 15.254 3.712 5.191 1.108 10.513.869 15.785 1.072 3.327.129 6.664.082 10 .02 4.95-.092 9.92-.039 14.844-.473a44.821 44.821 0 0013.828-3.486 3.885 3.885 0 001.6-1.322c1.6-2.371 1.466-5.125 1.663-7.88m-45.763-59.531a33.224 33.224 0 01-21.038-2.161c.308 7.3.561 14.3.936 21.291.075 1.4.4 2.91 2.2 3.3a5.488 5.488 0 01.692.3 19.807 19.807 0 009.59 1.412 10.882 10.882 0 005.1-1.532c1.066-.75 2.331-1.445 2.382-3.021.064-1.985.123-3.971.131-5.957.019-4.511.006-9.023.006-13.629"/><path data-name="パス 792" d="M11.807 429.483c5.737 1.822 11.566 2.154 17.435 2.064a6.114 6.114 0 002.356-.779c.239-.114.28-.469.115-1-.505-1.614-1.641-1.79-2.938-1.846-3.941-.168-7.917-.042-11.813-.544a9.33 9.33 0 01-6.556-4.232c-1-1.514-.8-3.3-.4-4.967a15.59 15.59 0 011.329-3.08c.791-1.613 2.579-1.66 3.98-2.626a6.368 6.368 0 01.367 1.119c.4 3.623 2.612 5.753 5.845 6.9 7 2.488 13.739 1.475 20.221-1.828 1.941-.99 2.51-2.971 2.865-4.937a30.532 30.532 0 00.163-3.338 4 4 0 01.3-.941c4.52.909 7.51 6.295 5.689 10.456a7.3 7.3 0 01-2.284 2.236 14.012 14.012 0 01-1.961 1.163 3.559 3.559 0 00-1.6 2.716c-.119.648 1.085 1.287 2.151 1.144a10.891 10.891 0 007.39-4.511 2.089 2.089 0 011.856-1.062c10.132-.16 18.327 3.9 24.82 11.5 2.607 3.049 3.49 6.859 3.755 10.809.091 1.364.23 2.723.3 4.087a1.007 1.007 0 01-.329.731 6.867 6.867 0 01-2.045 1.4 106.4 106.4 0 01-12.66 3.386 127.678 127.678 0 01-13.733.951c-2.781.143-5.578.311-8.353.178a325.815 325.815 0 01-15.036-1.092c-3.882-.368-7.772-.8-11.6-1.515a47.657 47.657 0 01-7.969-2.356 4.253 4.253 0 01-2.5-2.956 26.394 26.394 0 01-1.3-5.974 27.889 27.889 0 012.136-11.267" fill="#9a88ff"/><path data-name="パス 793" d="M19.514 366.116v-10.322c0-2.824-.037-5.65.008-8.473.023-1.438.172-2.874.295-4.309.212-2.471.476-4.937.665-7.41a7.524 7.524 0 011.685-4.339 29.584 29.584 0 013.531-3.62c1.8-1.531 3.932-1.418 6.164-1.059 3.1.5 4.779 2.481 5.864 5.146a30.365 30.365 0 012 10.991c.17 9.52.2 19.043.283 28.565.045 5.434.049 10.87.125 16.3.013.921-.165 1.432-1.142 1.7a24.641 24.641 0 01-18.73-1.944 1.432 1.432 0 01-.875-1.442c.047-6.015.053-12.032.07-18.048v-1.736h.058" fill="#ffe9d7"/><path data-name="パス 794" d="M85.981 452.901c-.2 2.755-.064 5.509-1.664 7.88a3.883 3.883 0 01-1.6 1.322 44.83 44.83 0 01-13.838 3.486c-4.924.434-9.893.381-14.844.473-3.331.062-6.669.109-10-.02-5.271-.2-10.593.036-15.785-1.072-5.116-1.092-10.177-2.443-15.254-3.712a1.732 1.732 0 01-1.053-.693c-1.243-2.428-2.439-4.888-1.286-7.853.739.295 1.491.6 2.246.893a57.274 57.274 0 0015.555 3.3c5.44.525 10.877 1.2 16.332 1.434 4.873.213 9.774.052 14.651-.184a87.469 87.469 0 0013.046-1.24c4.4-.888 8.644-2.583 12.957-3.921a4.908 4.908 0 01.532-.093" fill="#fff"/><path data-name="パス 795" d="M40.205 393.37c0 4.606.013 9.118-.006 13.629a211.223 211.223 0 01-.131 5.957c-.051 1.575-1.316 2.271-2.382 3.021a10.881 10.881 0 01-5.1 1.532 19.807 19.807 0 01-9.59-1.412 5.488 5.488 0 00-.692-.3c-1.8-.386-2.126-1.9-2.2-3.3-.375-6.991-.627-13.99-.936-21.291a33.224 33.224 0 0021.038 2.161" fill="#fff"/><g data-name="グループ 649"><path data-name="パス 829" d="M70.834 212.773l-2.538-1.116a10.373 10.373 0 01-6.306-7.696c-.374-1.79-.404-3.649-.62-5.713-1.902.036-3.893.02-5.88.118a2.578 2.578 0 01-2.59-2.145c-.01-.167-.002-.433.096-.49a5.758 5.758 0 013.302-1.314c2.807.141 5.613.298 8.425.404 1.567.06 3.138.028 4.741.039.369-3.039 2.085-5.342 4.174-7.355 3.99-3.843 9.47-3.672 13.333.667.42-.298.85-.594 1.269-.904 2.762-2.047 6.865-1.275 9.205.824a9.818 9.818 0 013.29 7.61c.002.992-.108 1.985-.17 3.005 2.195.56 4.735.673 6.328 2.943l-.76.095 1.046.206-.052.375c-.54.243-1.108.753-1.603.692-5.253-.703-10.494-1.5-15.738-2.265-.465-.065-.8-.011-1.01.565a40.746 40.746 0 01-2.091 5.16 11.84 11.84 0 01-9.162 6.468c-.969.144-1.945.237-2.917.353zm-5.21-14.331c-.01.954-.004 1.61-.022 2.264a10.009 10.009 0 001.61 5.79c1.839 2.866 6.195 4.283 9.883 3.19a10.352 10.352 0 006.208-5.033c.775-1.359 1.31-2.853 2.073-4.542-6.775-.571-13.202-1.115-19.754-1.665m30.761-.56a2.1 2.1 0 00.271-.606 8.617 8.617 0 00-.78-5.663c-1.22-2.26-2.73-2.74-4.803-1.656a6.407 6.407 0 00-1.543 1.223c-1.55 1.587-3.134 1.72-4.48.582a5.906 5.906 0 01-1.14-1.69 3.688 3.688 0 00-3.472-1.973 9.65 9.65 0 00-7.06 6.953l23.01 2.82"/><path data-name="パス 830" d="M65.624 198.441l19.752 1.673c-.76 1.69-1.298 3.183-2.073 4.541a10.35 10.35 0 01-6.208 5.034c-3.688 1.093-8.044-.322-9.883-3.19a10.009 10.009 0 01-1.61-5.79c.019-.658.013-1.314.022-2.268" fill="#ffcf00"/><path data-name="パス 831" d="M96.385 197.881l-23.008-2.821a9.65 9.65 0 017.058-6.954 3.688 3.688 0 013.469 1.97 5.906 5.906 0 001.14 1.69c1.346 1.138 2.93 1.004 4.48-.582a6.407 6.407 0 011.549-1.232c2.07-1.083 3.582-.608 4.803 1.655a8.616 8.616 0 01.78 5.664 2.1 2.1 0 01-.271.605" fill="#ffcf00"/><path data-name="長方形 1151" d="M45.23 186.474h62.286v33.638H45.23z" fill="none"/><g data-name="グループ 652"><path data-name="パス 785" d="M103.102 188.932a29.161 29.161 0 01-3.154-.859 13.407 13.407 0 01-7.271-6.507 11.455 11.455 0 01-1.59-6.07c.278-4.14 1.765-7.637 5.138-10.172 1.987-1.49 4.09-2.87 6.64-3.08a14.848 14.848 0 017.678 1.127 13.007 13.007 0 016.97 8.092 12.67 12.67 0 01.306 5.634 12.014 12.014 0 01-2.273 6.161c-1.97 2.57-4.294 4.727-7.692 5.286a2.265 2.265 0 00-.62.323zm-8.448-12.75c.005.332-.023.954.039 1.566a6.503 6.503 0 00.331.971c.984 3.644 5.044 6.8 8.958 7.076a9.283 9.283 0 007.154-2.244 11.206 11.206 0 002.467-3.225 11.906 11.906 0 00.69-7.99 6.804 6.804 0 00-1.634-3.36c-3.756-3.637-7.902-4.58-12.556-2.365-3.832 1.822-5.712 4.984-5.447 9.57"/><path data-name="パス 786" d="M76.234 156.528a23.426 23.426 0 014.376.466 12.006 12.006 0 017.281 5.326 13.424 13.424 0 011.986 7.72 13.588 13.588 0 01-9.176 12.546 1.418 1.418 0 01-.39.125c-2.98.194-6.012.61-8.864-.568a13.07 13.07 0 01-7.845-8.358 13.6 13.6 0 01.708-9.922 13.774 13.774 0 015.009-5.341 11.332 11.332 0 016.915-1.994m1.088 23.46c2.312.304 4.249-1.081 6.07-2.538a7.75 7.75 0 002.09-2.747 13.616 13.616 0 00.824-7.613c-.502-3.887-3.133-5.76-6.396-7.047a9.205 9.205 0 00-5.246-.22 10.005 10.005 0 00-7.015 4.553 11.506 11.506 0 00-1.093 3.178 8.482 8.482 0 00.454 6.204c2.108 3.954 5.321 6.38 10.309 6.232"/><path data-name="パス 787" d="M94.538 175.982c-.265-4.585 1.614-7.744 5.445-9.565 4.648-2.213 8.8-1.271 12.553 2.371a6.8 6.8 0 011.632 3.358 11.9 11.9 0 01-.69 7.986 11.19 11.19 0 01-2.467 3.214 9.278 9.278 0 01-7.15 2.245c-3.908-.281-7.972-3.434-8.952-7.077a6.388 6.388 0 01-.332-.97c-.064-.612-.03-1.233-.04-1.565" fill="#fff"/><path data-name="パス 788" d="M77.232 179.794c-4.986.145-8.198-2.277-10.31-6.229a8.483 8.483 0 01-.452-6.2 11.481 11.481 0 011.094-3.176 10 10 0 017.013-4.55 9.19 9.19 0 015.243.22c3.26 1.286 5.89 3.158 6.392 7.043a13.607 13.607 0 01-.825 7.61 7.729 7.729 0 01-2.087 2.743c-1.82 1.457-3.756 2.84-6.068 2.537" fill="#fff"/><path data-name="パス 789" d="M97.68 175.034a6.02 6.02 0 015.943-6.11c3.605-.23 6.328 3.575 6.403 5.945a6.014 6.014 0 01-6.132 6.345c-3.508-.01-5.996-2.472-6.214-6.185"/><path data-name="パス 790" d="M81.21 168.888c.167 3.209-2.847 6.15-5.817 6.32-3.038.172-6.122-3.145-6.035-6.612a5.995 5.995 0 015.896-5.525 5.816 5.816 0 015.956 5.817"/></g></g></g></g></svg>