<svg xmlns="http://www.w3.org/2000/svg" width="120" height="120"><defs><clipPath id="a"><path data-name="長方形 1190" transform="translate(0 -.064)" d="M0 0h120v120H0z" fill="none"/></clipPath></defs><g data-name="グループ 62686"><g data-name="グループ 62685" transform="translate(0 .064)" clip-path="url(#a)"><path data-name="パス 1165" d="M102.8 67.389c3.753-.977 7.2-.785 10.341 1.462 2.144 1.534 3.737 5.07 3.034 7.158a17.332 17.332 0 01-3.485 6.2 23.965 23.965 0 01-9.451 6.33 25.894 25.894 0 01-7.2 1.707 26.5 26.5 0 01-7.579-.583 30.808 30.808 0 01-9.115-4.182c-2.891-1.748-5.918-3.106-9.432-2.784a19.427 19.427 0 00-7.657 1.951 30.818 30.818 0 01-7 2.987 22.553 22.553 0 01-8.348.8c-3.1-.446-6.075-1.887-9.049-3.037-1.8-.7-3.432-1.833-5.25-2.445a10.464 10.464 0 00-4.039-.35c-2.67.206-4.873 1.748-7.222 2.852a49.141 49.141 0 01-5.77 2.647c-3.747 1.194-7.284.791-10.277-2.111-2.225-2.157-2.441-4.809-1.556-7.46a20.043 20.043 0 017.746-9.968q1.8-1.284 3.51-2.684a1.7 1.7 0 00.366-.964c.657-3.671 1-7.428 2.015-11a54.957 54.957 0 015.725-12.326 32.289 32.289 0 017.562-8.446c2.54-2.123 5.711-3.5 8.639-5.148a16.4 16.4 0 013.779-1.732c3.25-.844 6.546-1.514 9.836-2.193a14.685 14.685 0 017.026-.131c.416.116.932-.158 1.405-.211a11.461 11.461 0 015.432.705 44.17 44.17 0 005.967 1.755c2.2.492 3.941 1.822 5.826 2.877A45.784 45.784 0 0189.64 37.43a46.228 46.228 0 015.309 7.576 36.777 36.777 0 012.317 5.068c1.278 3.018 2.692 5.993 3.712 9.1a71.663 71.663 0 011.667 7.71c.032.153.091.3.155.508m-5.02 1.692c-.46-2.343-.781-4.624-1.371-6.832-.8-2.984-1.342-6.064-2.9-8.8-2.049-3.589-3.949-7.268-6.183-10.735-.935-1.453-2.681-2.36-3.825-3.712-2-2.367-4.632-3.873-7.1-5.619-1.784-1.262-3.89-1.559-5.858-2.288a48.961 48.961 0 00-8.309-2.235c-3.635-.663-7.2-.074-10.726.269-2.835.275-5.581 1.6-8.331 2.555a14 14 0 00-2.911 1.514c-2.75 1.772-5.564 3.471-8.147 5.466a19.74 19.74 0 00-3.82 4.271 58.615 58.615 0 00-4.582 7.279 47.13 47.13 0 00-2.779 7.366c-.577 1.859-.831 3.819-1.234 5.758 2.164-.6 4.07-1 5.886-1.652 2.755-.99 5.438-.539 8.14.089a21.375 21.375 0 017.421 2.774 26.616 26.616 0 005.045 3.111c2.706 1.05 5.58 1.437 8.3-.223 1.315-.8 2.612-1.634 3.942-2.413 4.42-2.587 9.014-4.23 14.151-2.274a50.611 50.611 0 016.243 2.683 32.245 32.245 0 014.481 3.283 8.578 8.578 0 006.147 1.994 23.139 23.139 0 008.317-1.632m-4.123 16.794c.507-.062 1.163-.094 1.8-.228 2.568-.542 5.219-.792 7.549-2.172a26.388 26.388 0 012.792-1.517 10.549 10.549 0 005.457-5.646 2.777 2.777 0 00-.144-3.189 3.936 3.936 0 00-3.43-1.694 30.749 30.749 0 00-6.734 1.564 29.978 29.978 0 01-9.843 2.41 12.812 12.812 0 01-4.188-.288 19.519 19.519 0 01-7.4-4.016 24.486 24.486 0 00-5.47-3.414 11.383 11.383 0 00-8.645-.9 27.959 27.959 0 00-7.672 4.3 11.038 11.038 0 01-8.635 2.109c-2.983-.357-5.015-2.522-7.6-3.6a85.439 85.439 0 00-8.635-3.582 14.416 14.416 0 00-9.779.907 30.567 30.567 0 00-3.465 1.513 50.9 50.9 0 00-7.268 4.6 22.984 22.984 0 00-4.094 5.301c-1.321 2.047-1.25 3.535-.027 4.8 1.047 1.086 3.647 2.152 5.266 1.3 2.34-1.233 4.707-2.417 7.031-3.676 3.917-2.122 7.891-3.977 12.5-2.473a41.231 41.231 0 014.94 1.984c1.868.891 3.631 2 5.492 2.907 2.976 1.45 6.161 1.059 9.209.509a35.839 35.839 0 006.645-2.334 52.869 52.869 0 015.263-2.3 19.369 19.369 0 019.9-.328 21.023 21.023 0 017.83 3.255c3.344 2.51 7.212 3.357 11.36 3.9"/><path data-name="パス 1166" d="M97.775 69.08a23.117 23.117 0 01-8.317 1.632 8.581 8.581 0 01-6.152-1.994 32.228 32.228 0 00-4.48-3.282 50.907 50.907 0 00-6.243-2.684c-5.138-1.957-9.732-.313-14.152 2.274-1.328.778-2.626 1.61-3.941 2.413-2.72 1.66-5.593 1.273-8.3.223a26.726 26.726 0 01-5.046-3.1 21.352 21.352 0 00-7.42-2.775c-2.7-.628-5.386-1.079-8.14-.089-1.817.653-3.723 1.055-5.887 1.652.4-1.939.658-3.9 1.235-5.758a47.076 47.076 0 012.778-7.365 58.44 58.44 0 014.583-7.28 19.687 19.687 0 013.82-4.271c2.582-1.994 5.4-3.692 8.146-5.466a13.973 13.973 0 012.916-1.519c2.751-.958 5.5-2.281 8.331-2.556 3.527-.341 7.093-.931 10.726-.269a49.005 49.005 0 018.309 2.232c1.968.73 4.074 1.03 5.859 2.288 2.469 1.746 5.1 3.252 7.1 5.619 1.145 1.352 2.89 2.259 3.825 3.713 2.23 3.466 4.135 7.14 6.18 10.726 1.561 2.74 2.106 5.82 2.9 8.8.59 2.209.912 4.49 1.371 6.832" fill="#ffcf00"/><path data-name="パス 1167" d="M93.653 85.875c-4.147-.539-8.016-1.386-11.36-3.9a21.023 21.023 0 00-7.83-3.255 19.369 19.369 0 00-9.9.328 52.869 52.869 0 00-5.263 2.3 35.839 35.839 0 01-6.645 2.334c-3.048.55-6.233.941-9.209-.509-1.861-.907-3.623-2.016-5.492-2.907a41.231 41.231 0 00-4.939-1.982c-4.607-1.5-8.581.352-12.5 2.473-2.324 1.259-4.691 2.443-7.031 3.676-1.619.854-4.219-.212-5.266-1.3-1.223-1.27-1.294-2.758.027-4.8a22.984 22.984 0 014.087-5.306 50.9 50.9 0 017.268-4.6 30.567 30.567 0 013.466-1.515 14.416 14.416 0 019.779-.907 85.438 85.438 0 018.635 3.582c2.589 1.078 4.621 3.243 7.6 3.6a11.038 11.038 0 008.635-2.109 27.959 27.959 0 017.672-4.3 11.383 11.383 0 018.645.9 24.486 24.486 0 015.47 3.414 19.519 19.519 0 007.41 4.02 12.812 12.812 0 004.188.288 29.978 29.978 0 009.843-2.41 30.749 30.749 0 016.734-1.564 3.936 3.936 0 013.43 1.694 2.777 2.777 0 01.144 3.189 10.549 10.549 0 01-5.457 5.646 26.388 26.388 0 00-2.792 1.517c-2.33 1.38-4.981 1.63-7.549 2.172-.635.134-1.292.166-1.8.228" fill="#fff"/></g></g></svg>