<svg xmlns="http://www.w3.org/2000/svg" width="120" height="120"><defs><clipPath id="a"><path data-name="長方形 1157" transform="translate(-10)" d="M0 0h120v120H0z" fill="none"/></clipPath></defs><g data-name="グループ 665"><g data-name="グループ 663" transform="translate(10)" clip-path="url(#a)"><path data-name="パス 893" d="M9.065 21.679a9.4 9.4 0 01-7.181-4.315A11.156 11.156 0 01.2 12.035 23.884 23.884 0 01.124 6.85a12.529 12.529 0 011.719-4.274c.764-1.283 2.1-1.37 3.3-.46.795.6 1.52 1.3 2.3 1.978A30.675 30.675 0 019.067 1.1a2.152 2.152 0 013.276-.6c.807.55 1.558 1.182 2.4 1.828C16.162.443 18.078-.7 20.536.478c2.244 1.073 2.98 3.188 2.974 5.46a29.354 29.354 0 013.7.285 5.053 5.053 0 013.517 7.7 12.515 12.515 0 01-6.665 5.356 1.247 1.247 0 00-.89 1.716c.735 3.286 1.54 6.557 2.3 9.839.339 1.469.645 2.944.939 4.423.239 1.2 1.081 1.362 2.247.526a34.647 34.647 0 01-1.122-4.759 11.6 11.6 0 01.9-6.354 18.288 18.288 0 013.143-5.087 11.411 11.411 0 016.8-3.357 13.215 13.215 0 018.217 1.57 12.142 12.142 0 015.519 5.63 30.305 30.305 0 013.3-2.758 12.341 12.341 0 015.433-1.755 14.585 14.585 0 016.252 1.116 11.476 11.476 0 017.547 7.812 13.453 13.453 0 01.878 5.383 10.929 10.929 0 01-2.427 6.493 2.892 2.892 0 00-.3.441L75.309 43l6.827-14.389a45.133 45.133 0 01-4.036-3.272c-1.259-1.288-2.572-2.692-2.319-4.74.211-1.712.762-3.408 2.439-4.131 1.581-.682 3.313-1.22 5.1-.454a3.083 3.083 0 00.844.111c.422-2.709 1.807-4.9 3.161-7.138a4.056 4.056 0 016.849-.122 1.419 1.419 0 001.607.719 4.032 4.032 0 013.835 1.681 2.91 2.91 0 001.521 1c3.227.649 3.662 2.166 4.047 4.761a17.724 17.724 0 01-.947 7.322 16.233 16.233 0 01-4.105 7.088 9.72 9.72 0 01-5.783 2.764 1.719 1.719 0 00-1.481 1.052c-1.365 2.643-2.561 5.4-4.152 7.9-2.337 3.671-4.131 7.712-7.206 10.9a1.652 1.652 0 00-.537 1.7 14.268 14.268 0 01.027 3.22c-.008.508-.05 1.016-.081 1.637 3.119-.821 5.41.61 7.474 2.547 2.136 2 2.208 4.943.426 7.556a20.254 20.254 0 01-6.393 5.956 15.2 15.2 0 01-11.888 2c-2.19-.572-4.206-1.815-6.485-2.838a14.088 14.088 0 00-.148 2.514c.307 3.014.625 6.031 1.118 9.017a34.658 34.658 0 001.441 5.248 3.115 3.115 0 001.184 1.291c1.109.8 2.359 1.377 2.993 2.763a3.312 3.312 0 01-.247 3.841 7.894 7.894 0 012.592 4.557 13.446 13.446 0 01-.181 5.367c-.1.567-.317.92.29 1.468a2.6 2.6 0 01.737 2.9 1.267 1.267 0 00-.08.425c.011 3.069-1.453 3.8-4.257 4.446a22.509 22.509 0 01-4.8.05c-.5 0-1 .107-1.492.1-2.527-.055-5.053-.185-7.579-.187-2.345 0-4.69.147-7.037.186-1.671.028-3.344-.031-5.016-.023-.431 0-.866.187-1.291.159-1.1-.073-2.2-.3-3.3-.312-1.7-.019-3.408.088-5.112.144l-6.819.216c-.074 0-.147 0-.22-.006-1.782-.06-3.563-.152-5.346-.171-2.709-.029-5.422.071-8.128-.043a10.058 10.058 0 01-3.425-.8c-1.97-.838-1.93-2.745-2.13-4.516a5.7 5.7 0 01.674-3.144 2.262 2.262 0 00.317-1.021c-.17-2.425.913-4.471 1.958-6.508 1.648-3.215 4.515-4.841 7.828-5.9a15.832 15.832 0 015.739-.532.934.934 0 001.115-.7 4.2 4.2 0 012.561-2.859c-.074-.672-.124-1.348-.227-2.015a51.862 51.862 0 01-.846-5.573 56.6 56.6 0 01.329-5.938 15.628 15.628 0 01.186-2.512c.3-1.3.78-2.56 1.141-3.849a1.083 1.083 0 00-.073-.858 128.202 128.202 0 00-3.54-3.8 2.312 2.312 0 00-2.654-.669c-1.341.514-2.726.939-4.012 1.568-4.22 2.064-8.483 2.786-12.689.174a4.394 4.394 0 01-2.071-4.879 22.863 22.863 0 01.721-3.291A15.494 15.494 0 019 56.029a20.744 20.744 0 013.972-2.183 1.831 1.831 0 001.16-1.4A11.1 11.1 0 0116.8 46.56a1.786 1.786 0 00.257-.56c-2.657-2.576-6.612-13.426-7.992-24.321m9.544 30.664a14.941 14.941 0 001.55-.007c5.641-.676 10.075 1.811 13.792 5.646 2.862 2.955 6.327 3.312 9.655 1.067a21.568 21.568 0 018.894-3.916 16.558 16.558 0 015.274.206c3.681.613 6.47 2.841 9.054 5.332 1.741 1.678 3.612 2.765 6.13 2.224.468-.1 1.018.077 1.447-.089.782-.3 2.04-.658 2.147-1.186a14.56 14.56 0 00.2-5.013A32.251 32.251 0 0075.09 50.9a31.732 31.732 0 00-1.505-3 16.28 16.28 0 00-4.08-5.226c-6.092 3.5-14.678 2.672-19.121-4.574-6.685 5.186-13.249 4.978-18.757.748-6.267 2.533-10.256 7.262-13.018 13.494M72.789 75.5c3.286-.083 6.012-.571 8.265-2.576a37.061 37.061 0 003.336-2.9 6.134 6.134 0 001.52-2.962c.224-1.58-2.644-3.46-4.266-2.971a13.069 13.069 0 00-2.207.8 15.849 15.849 0 01-8.447 1.692 11.389 11.389 0 01-6.728-3 38.959 38.959 0 00-4.751-3.828 8.1 8.1 0 00-6.6-.879 25.891 25.891 0 00-6.058 2.841c-3.342 1.941-6.7 3.28-10.637 1.944A14.6 14.6 0 0131.2 60.68a34.24 34.24 0 00-3.674-3.18 9.936 9.936 0 00-7.27-1.414 18.579 18.579 0 00-6.481 1.785c-3.31 1.879-6 4.252-5.942 8.547.012.963.618 1.607 1.795 1.839a8.61 8.61 0 005.651-1.157 16.54 16.54 0 016.921-2.133 8.323 8.323 0 016.123 2.209c1.6 1.4 2.945 3.121 4.615 4.43a9.166 9.166 0 004.048 1.908 7.473 7.473 0 004.112-.759 32.092 32.092 0 005.702-3.564 15.491 15.491 0 015.636-3.131 11.441 11.441 0 015.891-.042 7.363 7.363 0 012.773 1.406c2.247 1.861 4.312 3.946 6.592 5.763a12.764 12.764 0 005.1 2.314m-6.047 22.433l.095-.387a13.58 13.58 0 00-2.851-1.3 34.294 34.294 0 00-5.283-.617c-2.529-.12-5.068-.318-7.456.993-.744.408-.883.8-.7 1.364a9.466 9.466 0 012.376 1.632 1.2 1.2 0 01-.547 1.935 3.8 3.8 0 01-1.38.262 13.254 13.254 0 00-7.24 1.879 6.842 6.842 0 00-2.992 6.182c.121.643.422 1.011 1.09.963 2.591-.186 5.18-.411 7.772-.574 2.352-.147 4.706-.277 7.061-.331 1.638-.037 3.285.175 4.917.085 2.149-.118 4.289-.407 6.426-.669a.862.862 0 00.6-.555c.112-2.013.2-4.067-1.208-5.725a3.833 3.833 0 00-1.713-.883c-.538-.177-1.2-.042-1.685-.291a1.391 1.391 0 01-.648-1.15c.258-.927.462-1.987 1.828-2.073a4.663 4.663 0 001.537-.74M4.734 5.46l-.471.062a7.755 7.755 0 00-.4 2.163c.208 2.068.021 4.215 1.019 6.155.045.088 0 .218.018.324a4.323 4.323 0 004.831 3.471 2.925 2.925 0 012.692.406 3.05 3.05 0 011.078 2.48 42.27 42.27 0 001.245 7.611c.855 3.414 1.922 6.778 3 10.13a41.053 41.053 0 001.764 4l3.72-3.522c-.844-2.838-1.744-5.5-2.413-8.225-.618-2.5-.993-5.07-1.464-7.611a8.365 8.365 0 01.265-4.74c.23-.568.663-1.321 1.158-1.469a11.716 11.716 0 005.624-3.612 2.544 2.544 0 00.49-2.817c-.318-.852-.944-1.076-1.682-.556a13.5 13.5 0 00-1.8 1.513 3.92 3.92 0 01-4.079.7c-.809-.417-1.086-1.549-.747-3.081.023-.106.094-.2.114-.309a7.063 7.063 0 00-.217-4.633 7.385 7.385 0 00-.666 1.473 43.823 43.823 0 00-.587 3.895c-.161 1.607-.655 2.118-2.253 2.121a1.873 1.873 0 01-1.979-1.843c-.216-1.646-.33-3.344-1.765-4.87-.38 1.543-.822 2.847-.5 4.293a2.1 2.1 0 01-1.674 2.316 2.187 2.187 0 01-2.234-1.317C6.168 8.447 5.434 6.961 4.734 5.46m86.414 5.645l-.41-.1a7.984 7.984 0 00-.661.945 14.916 14.916 0 00-1.887 6.2c-.077 1.816-.855 2.918-2.515 2.6a7.317 7.317 0 01-1.423-.525 12.5 12.5 0 00-1.671-.731c-.9-.228-2.069-.336-2.427.594-.24.621.368 1.573.6 2.374.018.063.1.109.146.163a11.54 11.54 0 003.692 2.826c1.2.559 2.082 2.4 1.72 3.368-.57 1.517-1.12 3.049-1.8 4.514-1.256 2.689-2.59 5.34-3.914 8-.879 1.766-1.8 3.513-2.718 5.31l1.643 3.434c1.465-2.253 2.938-4.289 4.166-6.463 1.963-3.475 3.783-7.032 5.62-10.577.608-1.176 1.3-2.166 2.748-2.271a9.018 9.018 0 011.417-.055 3.269 3.269 0 003.042-1.343 27 27 0 002.742-3.92 16.489 16.489 0 001.456-9.2 4.715 4.715 0 00-.745 1.288c-.457 1.223-.847 2.472-1.327 3.686a1.513 1.513 0 01-2.009.861 2.327 2.327 0 01-1.355-1.583 12.458 12.458 0 01.678-3.174c.366-1.472.792-2.94.036-4.507a4.043 4.043 0 00-.84 1.528c-.465 2.086-.785 4.2-2.357 5.857a2.118 2.118 0 01-2.746.458c-.968-.53-.82-1.3-.513-2.178a40.549 40.549 0 001.321-4.253 22.048 22.048 0 00.289-3.125m-78.079 98.826l22.871-.71c2.278-7.875 4.015-8.961 10.179-10.606a9.292 9.292 0 00-1.122-1.948c-.192-.2-.883.075-1.349.1a5.285 5.285 0 01-.879-.033c-2.665-.279-5.331-.549-7.993-.854-2.085-.239-3.7.716-5.422 1.987.545.14.9.2 1.229.323a12.264 12.264 0 012.5 1.009 2.073 2.073 0 01.8 1.5 1.6 1.6 0 01-.97 1.117 5.536 5.536 0 01-2.446.3c-1.744-.257-3.458-.721-5.188-1.082a9.091 9.091 0 00-5.707.548 14.182 14.182 0 00-3.954 2.649c-1.627 1.529-2.037 3.472-2.553 5.692m58.252-77.673c-.21-.808-.548-1.882-.763-2.978-.394-2.011-1.091-3.833-2.9-4.99a8.975 8.975 0 00-6.521-1.717c-.492.087-.954.332-1.44.468a7.412 7.412 0 00-4 2.754 10.41 10.41 0 00-1.976 8.177 7.742 7.742 0 004.2 6.028 8.381 8.381 0 006.67.662 9.467 9.467 0 005.335-3.427c1.055-1.439 1.22-3.037 1.392-4.978m-21.75-2.029c-.313-1.41-.57-2.834-.95-4.224a7.968 7.968 0 00-9.173-6.148A8.652 8.652 0 0032.05 26.6c-.945 3.556-.507 7.156 2.748 9.709a13.062 13.062 0 002.134 1.252c.73.374 1.528 1.015 2.239.946a15.437 15.437 0 005.045-1.11c2.924-1.376 5.416-3.3 5.345-7.172m10.054 52.208a25.781 25.781 0 01.529-9.473 2.2 2.2 0 00-.987-2.5 5.712 5.712 0 00-5.936-.691c-.388.2-.887.517-.99.879-.344 1.206-.551 2.454-.773 3.692a26.463 26.463 0 01-.665 3.856c-.487 1.429-.134 2.757-.155 4.241zM11.69 113.452c.033.345.049.595.082.841.223 1.656.567 1.988 2.2 2 1.926.012 3.853-.062 5.777-.015 1.839.045 3.675.248 5.514.289 1.985.044 3.975.037 5.959-.053 1.718-.077 3.431-.3 5.088-.456l.8-3.557c-3.162.226-6.238.442-9.315.667a12.739 12.739 0 01-1.4.153c-1.652-.065-3.3-.275-4.953-.248-2.1.034-4.189.269-6.285.371-1.135.054-2.274.009-3.473.009m28.8.78c.046.32.067.6.13.878.342 1.5.342 1.47 1.866 1.345 1.269-.1 2.546-.147 3.82-.166 1.256-.018 2.513.065 3.769.039 2.236-.048 4.469-.194 6.7-.206 2.038-.011 4.077.124 6.117.149 1.377.018 2.755-.037 4.134-.068.474-.01.947-.042 1.42-.076a1.117 1.117 0 001.1-1.245c.022-.627 0-1.254 0-1.81-1.073 0-2.062-.042-3.045.014-.792.046-1.575.277-2.366.312-1.769.077-3.542.074-5.313.122-.871.024-1.741.129-2.613.128-1.819 0-3.64-.124-5.456-.056-1.716.065-3.426.31-5.138.473-.611.059-1.222.146-1.835.16-1.07.026-2.141.007-3.3.007m10.146-28.27l1.39 6.309h9.579c-.419-1.79-.817-3.605-1.293-5.4a1.141 1.141 0 00-.767-.706c-1.215-.112-2.44-.1-3.662-.145-.324-.011-.648-.054-.972-.056-1.319-.006-2.637 0-4.276 0m-3.688-11.6c-1.043.46-1.858.771-2.622 1.18a1.471 1.471 0 00-.741.844 46.378 46.378 0 00-.725 5.814 49.685 49.685 0 00.336 6.319 34.539 34.539 0 00.755 3.612c.143.679.135.68 3.228.987.206.02.407.074.558.1a33.421 33.421 0 01-.79-18.859m-15.558 11.98l.944 5.891 7.1.737c-.4-2.264-.795-4.461-1.18-6.627zm1.014-10.3a5.578 5.578 0 00-.426 1.209c-.222 1.512-.338 3.039-.564 4.551-.147.986.305 1.217 1.162 1.189 1.458-.047 2.918-.046 4.376-.062.459-.006.918 0 1.3 0l.683-5.654-6.534-1.233"/><path data-name="パス 894" d="M18.609 52.343c2.762-6.232 6.751-10.96 13.017-13.494 5.508 4.23 12.073 4.439 18.757-.747 4.444 7.247 13.031 8.074 19.122 4.573a16.274 16.274 0 014.08 5.227 31.621 31.621 0 011.505 3 32.306 32.306 0 011.66 5.706 14.554 14.554 0 01-.2 5.012c-.107.527-1.365.883-2.148 1.186-.429.166-.978-.012-1.447.089-2.518.542-4.389-.545-6.13-2.224-2.583-2.491-5.372-4.719-9.053-5.331a16.5 16.5 0 00-5.274-.206 21.556 21.556 0 00-8.891 3.916c-3.328 2.246-6.792 1.887-9.656-1.068-3.716-3.836-8.15-6.322-13.791-5.646a15.251 15.251 0 01-1.55.006" fill="#ffd800"/><path data-name="パス 895" d="M72.789 75.502a12.761 12.761 0 01-5.1-2.315c-2.28-1.816-4.346-3.9-6.592-5.763a7.39 7.39 0 00-2.761-1.406 11.464 11.464 0 00-5.9.042 15.484 15.484 0 00-5.635 3.132 32.091 32.091 0 01-5.707 3.568 7.482 7.482 0 01-4.112.759 9.176 9.176 0 01-4.046-1.912c-1.669-1.308-3.011-3.027-4.615-4.43a8.325 8.325 0 00-6.123-2.21A16.527 16.527 0 0015.28 67.1a8.609 8.609 0 01-5.651 1.152c-1.177-.231-1.783-.875-1.795-1.838-.053-4.3 2.632-6.668 5.942-8.548a18.578 18.578 0 016.481-1.784 9.937 9.937 0 017.27 1.413 34.25 34.25 0 013.674 3.184 14.6 14.6 0 005.012 2.989c3.939 1.335 7.3 0 10.636-1.945a25.911 25.911 0 016.058-2.84 8.1 8.1 0 016.6.879 38.957 38.957 0 014.751 3.828 11.382 11.382 0 006.727 3 15.852 15.852 0 008.451-1.695 12.989 12.989 0 012.207-.8c1.622-.489 4.49 1.391 4.266 2.971a6.134 6.134 0 01-1.52 2.962 37.051 37.051 0 01-3.336 2.9c-2.252 2.005-4.978 2.494-8.265 2.577" fill="#fff"/><path data-name="パス 896" d="M66.744 97.934a4.654 4.654 0 01-1.537.74c-1.366.087-1.569 1.146-1.828 2.072a1.4 1.4 0 00.648 1.15c.483.249 1.147.113 1.685.291a3.819 3.819 0 011.713.883c1.41 1.658 1.319 3.711 1.209 5.725a.867.867 0 01-.606.555c-2.138.262-4.277.551-6.425.669-1.633.09-3.28-.122-4.917-.085-2.356.053-4.711.183-7.062.331-2.592.163-5.181.388-7.772.574-.667.048-.969-.32-1.09-.963a6.843 6.843 0 012.992-6.182 13.254 13.254 0 017.24-1.879 3.8 3.8 0 001.38-.262 1.205 1.205 0 00.548-1.935 9.488 9.488 0 00-2.377-1.632c-.179-.562-.041-.957.7-1.364 2.388-1.311 4.927-1.113 7.456-.993a34.294 34.294 0 015.283.617 13.58 13.58 0 012.851 1.3l-.095.388" fill="#ff1d8f"/><path data-name="パス 897" d="M4.734 5.46c.7 1.5 1.434 2.987 2.086 4.508a2.189 2.189 0 002.236 1.316 2.1 2.1 0 001.675-2.315c-.324-1.446.118-2.75.5-4.292 1.435 1.527 1.55 3.223 1.765 4.869a1.873 1.873 0 001.98 1.843c1.6 0 2.092-.514 2.253-2.121.131-1.305.339-2.606.587-3.895a7.347 7.347 0 01.658-1.474 7.058 7.058 0 01.214 4.637c-.019.106-.09.2-.114.31-.338 1.531-.063 2.664.747 3.08a3.921 3.921 0 004.08-.7 13.442 13.442 0 011.8-1.513c.737-.52 1.364-.3 1.682.556a2.545 2.545 0 01-.491 2.817 11.714 11.714 0 01-5.618 3.606c-.5.149-.928.9-1.158 1.469a8.365 8.365 0 00-.266 4.74c.471 2.541.847 5.106 1.464 7.611.67 2.721 1.57 5.386 2.413 8.225l-3.72 3.522a41.036 41.036 0 01-1.763-4c-1.077-3.353-2.145-6.717-3-10.13a42.189 42.189 0 01-1.245-7.611 3.052 3.052 0 00-1.079-2.48 2.927 2.927 0 00-2.692-.406 4.322 4.322 0 01-4.831-3.471c-.02-.106.027-.236-.018-.324-1-1.941-.811-4.087-1.02-6.154a7.8 7.8 0 01.4-2.164l.471-.062" fill="#fff"/><path data-name="パス 898" d="M91.147 11.105a21.926 21.926 0 01-.289 3.126 40.465 40.465 0 01-1.321 4.252c-.308.874-.455 1.648.513 2.178a2.117 2.117 0 002.746-.458c1.572-1.658 1.893-3.77 2.357-5.856a4.047 4.047 0 01.84-1.528c.756 1.567.33 3.035-.036 4.507a12.467 12.467 0 00-.678 3.174 2.328 2.328 0 001.351 1.584 1.514 1.514 0 002.009-.861c.479-1.214.869-2.463 1.327-3.686a4.715 4.715 0 01.745-1.288 16.492 16.492 0 01-1.456 9.2 27.1 27.1 0 01-2.742 3.92 3.269 3.269 0 01-3.042 1.343 9.017 9.017 0 00-1.417.054c-1.452.105-2.14 1.1-2.748 2.271-1.836 3.545-3.657 7.1-5.619 10.577-1.229 2.174-2.7 4.209-4.167 6.463l-1.643-3.435c.921-1.8 1.838-3.544 2.718-5.31 1.324-2.656 2.659-5.307 3.914-8 .684-1.467 1.234-3 1.8-4.515.361-.966-.518-2.809-1.72-3.368a11.524 11.524 0 01-3.69-2.824c-.05-.054-.127-.1-.146-.163-.235-.8-.843-1.752-.6-2.373.359-.931 1.526-.821 2.427-.594a12.269 12.269 0 011.671.731 7.438 7.438 0 001.423.525c1.659.317 2.438-.785 2.515-2.6a14.9 14.9 0 011.888-6.2 7.953 7.953 0 01.66-.946l.41.1" fill="#fff"/><path data-name="パス 899" d="M13.067 109.933c.515-2.221.926-4.162 2.553-5.692a14.162 14.162 0 013.954-2.649 9.091 9.091 0 015.707-.549c1.73.362 3.443.826 5.188 1.082a5.536 5.536 0 002.446-.3 1.6 1.6 0 00.97-1.118 2.072 2.072 0 00-.8-1.5 12.319 12.319 0 00-2.5-1.01c-.331-.12-.684-.182-1.229-.323 1.725-1.269 3.337-2.224 5.422-1.987 2.662.305 5.328.574 7.993.855a5.286 5.286 0 00.879.033c.466-.029 1.157-.31 1.349-.1a9.269 9.269 0 011.122 1.948c-6.165 1.645-7.9 2.73-10.179 10.605l-22.871.711" fill="#ff1d8f"/><path data-name="パス 900" d="M71.314 32.252c-.172 1.941-.337 3.538-1.392 4.978a9.467 9.467 0 01-5.335 3.427 8.385 8.385 0 01-6.67-.663 7.738 7.738 0 01-4.2-6.027 10.409 10.409 0 011.976-8.177 7.418 7.418 0 014-2.754c.486-.137.948-.383 1.44-.469a8.975 8.975 0 016.521 1.717c1.807 1.157 2.5 2.98 2.9 4.99.216 1.1.553 2.17.763 2.979m-9.081-5.516a4.573 4.573 0 00-3.318 1.889 6.24 6.24 0 00-.882 5.622c.62 1.725 3.245 3.377 5.036 2.931a4.923 4.923 0 004.019-3.7 15.268 15.268 0 00.488-2.554 3.4 3.4 0 00-1.855-3.087 14.963 14.963 0 00-3.488-1.1" fill="#fff"/><path data-name="パス 901" d="M49.563 30.225c.071 3.874-2.422 5.8-5.345 7.172a15.442 15.442 0 01-5.046 1.11c-.711.069-1.509-.572-2.238-.946a13.09 13.09 0 01-2.134-1.252c-3.256-2.553-3.693-6.153-2.748-9.709a8.652 8.652 0 017.388-6.747 7.967 7.967 0 019.173 6.148c.382 1.39.638 2.814.951 4.224m-13.691-.53a6.554 6.554 0 00.525 2.3 4.783 4.783 0 008.109.5 6.106 6.106 0 001.123-5.255c-.655-2.773-5.052-3.989-7.4-2.338a5.8 5.8 0 00-2.358 4.795" fill="#fff"/><path data-name="パス 902" d="M59.617 82.432h-8.98c.021-1.483-.331-2.812.155-4.241a26.216 26.216 0 00.665-3.859c.222-1.238.431-2.485.774-3.692.1-.361.6-.677.989-.879a5.714 5.714 0 015.936.691 2.2 2.2 0 01.987 2.5 25.821 25.821 0 00-.526 9.48" fill="#fff"/><path data-name="パス 903" d="M11.689 113.452c1.2 0 2.339.045 3.474-.01 2.1-.1 4.188-.336 6.284-.37 1.649-.027 3.3.183 4.953.248a12.78 12.78 0 001.4-.153c3.075-.225 6.152-.442 9.314-.667l-.8 3.557c-1.657.154-3.368.379-5.088.456-1.983.089-3.973.1-5.959.053-1.839-.041-3.674-.244-5.513-.289-1.925-.047-3.852.027-5.777.015-1.634-.01-1.978-.343-2.2-2-.033-.247-.05-.5-.083-.841" fill="#fff"/><path data-name="パス 904" d="M40.491 114.231c1.158 0 2.229.019 3.3-.007.613-.015 1.223-.1 1.835-.16 1.712-.163 3.421-.408 5.138-.473 1.815-.067 3.637.054 5.456.056.87 0 1.74-.1 2.613-.128 1.771-.048 3.544-.044 5.313-.122.792-.035 1.574-.266 2.366-.312.983-.056 1.971-.014 3.045-.014 0 .556.017 1.183 0 1.81a1.117 1.117 0 01-1.1 1.245c-.473.033-.947.065-1.421.077-1.377.031-2.755.086-4.133.068-2.039-.027-4.078-.161-6.117-.15-2.235.012-4.469.158-6.7.206-1.256.027-2.513-.056-3.77-.039-1.274.019-2.55.062-3.819.166-1.524.126-1.525.159-1.867-1.345-.062-.274-.083-.558-.129-.878" fill="#fff"/><path data-name="パス 905" d="M50.62 85.963h4.276c.324 0 .647.045.972.056 1.221.041 2.447.032 3.662.145a1.142 1.142 0 01.767.705c.476 1.795.874 3.61 1.293 5.4h-9.58c-.4-1.835-.857-3.888-1.39-6.309" fill="#0099e7"/><path data-name="パス 906" d="M31.372 86.343h6.859l1.18 6.626-7.1-.736-.943-5.891" fill="#0099e7"/><path data-name="パス 907" d="M32.386 76.038l6.534 1.233c-.2 1.7-.435 3.6-.683 5.654h-1.3c-1.458.016-2.918.015-4.376.062-.857.028-1.31-.2-1.162-1.189.226-1.512.342-3.039.564-4.551a5.578 5.578 0 01.426-1.209" fill="#fff"/><path data-name="パス 908" d="M62.233 26.734a14.963 14.963 0 013.488 1.1 3.4 3.4 0 011.855 3.087 15.268 15.268 0 01-.488 2.554 4.923 4.923 0 01-4.019 3.7c-1.791.446-4.416-1.206-5.036-2.931a6.24 6.24 0 01.882-5.622 4.573 4.573 0 013.318-1.888"/><path data-name="パス 909" d="M35.872 29.691a5.8 5.8 0 012.358-4.795c2.346-1.651 6.743-.435 7.4 2.338a6.106 6.106 0 01-1.123 5.255 4.783 4.783 0 01-8.109-.5 6.554 6.554 0 01-.525-2.3"/></g></g></svg>