<svg xmlns="http://www.w3.org/2000/svg" width="80" height="80"><defs><clipPath id="a"><path data-name="長方形 1167" d="M0 0h80v80H0z" fill="none"/></clipPath></defs><g data-name="グループ 62694"><g data-name="グループ 703" transform="translate(0 .001)" clip-path="url(#a)"><path data-name="パス 968" d="M9.824 36.271c0-3.135-.037-6.271.014-9.4a4.9 4.9 0 013.276-4.479 52.745 52.745 0 0110.2-2.43c3.154-.406 6.3-.865 9.456-1.283a103.63 103.63 0 014.157-.476c2.374-.216 4.752-.385 7.127-.593 2.616-.23 5.227-.538 7.844-.709s5.26-.128 7.877-.344a19.539 19.539 0 015.223.119 5.477 5.477 0 014.829 4.919 88.143 88.143 0 01.337 10.113c-.163 4.357-.636 8.7-1.047 13.051-.3 3.129-.714 6.245-1.06 9.368-.1.9-.131 1.815-.2 2.721a3.793 3.793 0 01-2.229 3.183 32.8 32.8 0 01-9.14 3c-3.515.659-7.048 1.225-10.576 1.81a15.884 15.884 0 01-2.259.21c-3.7.078-7.407.125-11.111.192-2.892.053-5.785.205-8.675.156-2.39-.041-4.776-.315-7.164-.481-2.3-.159-3.247-1.721-3.969-3.653a40.707 40.707 0 01-2.365-11.7c-.148-2.211-.433-4.413-.524-6.625s-.02-4.447-.021-6.671m4.548-11.629c2.04 1.918 3.877 3.672 5.744 5.394 2.963 2.733 5.838 5.576 8.948 8.133 3.606 2.964 7.425 5.669 11.154 8.485a1.162 1.162 0 001.58-.082 13.846 13.846 0 001.558-1.4q2.916-3.31 5.771-6.674 2.936-3.477 5.8-7.016c1.649-2.022 3.259-4.075 4.9-6.107 1.549-1.933 3.118-3.856 4.871-6.017-1.887.1-3.509.176-5.129.274q-2.81.171-5.618.372c-3.287.236-6.573.485-9.859.725-1 .072-2 .111-2.991.205-3.73.35-7.462.678-11.184 1.092-2.3.256-4.594.608-6.877 1-2.8.478-5.6 1.04-8.668 1.618m17.62 19.9c-4.59 5.758-9.649 11.234-13.69 17.561.5.027.956.065 1.409.072 2.738.043 5.476.105 8.214.111 2.25 0 4.5-.085 6.751-.084 1.916 0 3.834.153 5.747.084 1.684-.061 3.364-.313 5.039-.524 2.389-.3 4.788-.566 7.157-.99 2.422-.433 4.82-1.008 7.213-1.585 1.522-.366 3.19-.623 4.024-2.169a9.627 9.627 0 00.739-2.655 1.033 1.033 0 00-.31-.82c-.937-.816-1.947-1.547-2.884-2.363-2.618-2.284-5.2-4.611-7.824-6.887-.951-.823-1.988-1.546-2.9-2.247-1.782 1.929-3.475 3.718-5.118 5.553a5.549 5.549 0 01-7.428 1.141c-2.033-1.3-3.995-2.73-6.138-4.206M16.138 60.446c3.8-6.7 8.633-12.278 13.732-17.71-6.246-4.685-11.427-10.612-17.441-16.052-.069 11.5.388 22.706 3.709 33.762m48.71-10.535c.737-2.7 2.2-24.5 1.407-27.214L52.704 39.574c2.028 1.617 4.124 3.2 6.122 4.9 2.029 1.727 3.963 3.567 6.021 5.433"/><path data-name="パス 969" d="M14.377 24.635c3.071-.578 5.863-1.139 8.667-1.618 2.284-.389 4.577-.742 6.878-1 3.718-.408 7.455-.735 11.178-1.082 1-.094 1.995-.133 2.992-.205 3.286-.24 6.572-.489 9.859-.725q2.809-.2 5.618-.372c1.62-.1 3.242-.174 5.129-.274-1.754 2.158-3.321 4.076-4.879 6.011-1.636 2.032-3.247 4.085-4.895 6.107a528.897 528.897 0 01-5.8 7.016q-2.845 3.37-5.77 6.674a13.912 13.912 0 01-1.558 1.4 1.162 1.162 0 01-1.576.08c-3.728-2.816-7.547-5.521-11.154-8.485-3.109-2.556-5.984-5.4-8.947-8.133-1.87-1.719-3.707-3.473-5.742-5.394" fill="#3ba9f7"/><path data-name="パス 970" d="M31.993 44.534c2.143 1.476 4.1 2.9 6.138 4.205a5.549 5.549 0 007.431-1.148c1.643-1.834 3.336-3.625 5.117-5.554.91.7 1.947 1.425 2.9 2.248 2.626 2.275 5.206 4.6 7.824 6.887.936.816 1.947 1.547 2.884 2.362a1.036 1.036 0 01.31.82 9.622 9.622 0 01-.739 2.655c-.834 1.546-2.5 1.8-4.024 2.169-2.394.577-4.792 1.151-7.213 1.585-2.369.424-4.768.688-7.157.99-1.676.212-3.355.464-5.039.525-1.912.069-3.831-.084-5.747-.085-2.251 0-4.5.089-6.751.085-2.738-.006-5.476-.068-8.214-.111-.453-.008-.906-.046-1.409-.072 4.041-6.327 9.1-11.8 13.69-17.561" fill="#fff"/><path data-name="パス 971" d="M16.137 60.446c-3.32-11.056-3.777-22.262-3.709-33.761 6.014 5.439 11.195 11.366 17.441 16.051-5.1 5.432-9.936 11.012-13.732 17.71" fill="#fff"/><path data-name="パス 972" d="M64.847 49.911c-2.059-1.866-3.992-3.706-6.021-5.433-2-1.7-4.094-3.286-6.122-4.9l13.55-16.88c.794 2.715-.67 24.519-1.407 27.214" fill="#fff"/></g></g></svg>