<svg xmlns="http://www.w3.org/2000/svg" width="120" height="120.001"><defs><clipPath id="a"><path data-name="長方形 1153" d="M0 0h120v120.001H0z" fill="none"/></clipPath></defs><g data-name="グループ 668"><g data-name="マスクグループ 655" clip-path="url(#a)"><path data-name="パス 854" d="M8.046 112.559h-3.6a5.9 5.9 0 01-3.652-3.664 14.691 14.691 0 011.911-13.228 71.648 71.648 0 014.572-6.116c2.521-3.065 5.137-6.052 7.744-9.044a1.9 1.9 0 00.482-2.233 52.192 52.192 0 01-2.036-6.26q-1.669-6.663-3.1-13.386c-.707-3.33-1.345-6.682-1.8-10.053-.482-3.59-.765-7.21-1.036-10.824-.281-3.755-.941-7.526.059-11.271a9.011 9.011 0 014.121-5.933 43.949 43.949 0 0112.459-4.423c6.45-1.328 12.938-2.476 19.42-3.646 2.765-.5 5.547-.909 8.332-1.278 4.947-.658 9.889-1.36 14.854-1.847 5.524-.54 11.07-.875 16.61-1.269 2.634-.188 5.274-.413 7.914-.425a82.493 82.493 0 018.31.367 9.23 9.23 0 016.6 3.3 10.925 10.925 0 012.417 7.358c-.1 4.718-.433 9.434-.752 14.144-.178 2.63-.514 5.249-.8 7.871q-.474 4.437-.98 8.872-.566 4.887-1.171 9.77c-.368 2.955-.717 5.913-1.162 8.857-.31 2.039-.774 4.055-1.156 6.083a4.143 4.143 0 00-.026.732c-.03 1.587 1.1 2.49 2.059 3.5 2.9 3.075 6.023 5.972 8.618 9.284 2.528 3.227 4.512 6.881 6.735 10.348v2.316c-.084.4-.158.805-.254 1.2-.366 1.522-.651 3.071-1.136 4.555a2.9 2.9 0 01-2.493 1.941c-2.267.31-4.541.6-6.821.775-3.952.309-7.906.631-11.866.761-5.563.184-11.133.191-16.7.287-3.122.054-6.245.105-9.367.211-7.522.254-15.043.55-22.566.808q-8.438.287-16.878.516c-4.489.117-8.98.163-13.471.27-2.095.05-4.188.128-6.279.271-1.38.094-2.749.325-4.123.495m11.767-35.036c2.557-.245 5.038-.56 7.531-.7q6.081-.352 12.175-.516c4.877-.137 9.756-.214 14.635-.272 8.639-.1 17.279-.151 25.918-.257 3.458-.042 6.916-.158 10.373-.27 1.6-.053 3.2-.157 4.8-.274a2.619 2.619 0 002.643-1.971c.266-2.406.487-4.815.761-7.22q.642-5.636 1.333-11.267c.488-4.008 1.031-8.01 1.484-12.022.482-4.278.976-8.559 1.3-12.851.353-4.632.58-9.275.739-13.918.066-1.931-.814-2.962-2.367-3.22a16.133 16.133 0 00-2.791-.284q-8.732.088-17.468.258c-1.537.031-3.074.174-4.608.3-3.741.312-7.482.619-11.219.976-3.4.324-6.79.659-10.172 1.084-3.459.434-6.9.986-10.351 1.482-3.2.46-6.405.833-9.584 1.391s-6.322 1.245-9.46 1.97a47.365 47.365 0 00-11.6 4.034c-1.372.726-2.705 1.632-2.752 3.409s.007 3.587.123 5.374c.169 2.587.416 5.17.665 7.75.167 1.73.279 3.476.616 5.175 1.13 5.664 2.276 11.327 3.56 16.958 1.135 4.972 2.465 9.9 3.716 14.882m92.766 17.288a3.49 3.49 0 00-.224-.728c-2.438-3-4.85-6.013-7.34-8.964-1.251-1.483-2.633-2.859-3.985-4.253-.931-.961-1.625-1.739-3.459-1.38a70.665 70.665 0 01-10.935.888c-4.96.185-9.926.235-14.889.276q-19.347.161-38.7.266c-.342 0-.686.007-1.027.034-3.982.328-7.967.632-11.941 1.026a2.619 2.619 0 00-1.667.869c-3.525 4.621-6.989 9.282-10.585 14.089.549 0 1 .016 1.453 0 4.268-.173 8.537-.364 12.806-.523 2.126-.079 4.255-.059 6.381-.158 4.139-.191 8.275-.527 12.417-.634 4.637-.119 9.277-.023 13.918-.067 4.849-.046 9.7-.156 14.546-.223 6.721-.093 13.443-.163 20.164-.258 5.136-.073 10.272-.185 15.409-.253 2.5-.034 5.007-.006 7.659-.006M5.556 100.674c-.781 2.644.027 5.166-.062 7.786 2.434-.183 4.721-.432 7.014-.51 3.1-.106 6.2-.017 9.3-.128 4.214-.152 8.422-.438 12.633-.62 2.6-.113 5.207-.11 7.809-.208 7.121-.268 14.241-.6 21.366-.831 5.07-.162 10.147-.221 15.22-.274 4.857-.052 9.725.155 14.57-.1 6.711-.348 13.407-1 20.1-1.593a1.692 1.692 0 001.173-1.051 38.375 38.375 0 00.477-4.021c-2.066.109-3.935.253-5.8.3-3.293.078-6.588.077-9.882.146-5.214.109-10.427.28-15.642.37-6.766.117-13.534.215-20.3.257-7.037.044-14.077.006-21.117.016-1.021 0-2.042.093-3.065.117-2.852.066-5.7.079-8.555.188s-5.714.452-8.57.43c-5.531-.042-11.074.873-16.662-.273"/><path data-name="パス 855" d="M19.805 77.515c-1.251-4.981-2.581-9.909-3.716-14.883-1.285-5.63-2.43-11.294-3.559-16.958a52.084 52.084 0 01-.617-5.174c-.248-2.581-.5-5.163-.665-7.75-.115-1.787-.168-3.585-.122-5.374s1.38-2.683 2.751-3.409a47.374 47.374 0 0111.6-4.035c3.138-.726 6.289-1.412 9.46-1.969s6.388-.931 9.584-1.391c3.45-.5 6.892-1.048 10.35-1.482 3.382-.425 6.777-.76 10.173-1.085 3.741-.361 7.481-.661 11.223-.976 1.535-.128 3.07-.271 4.608-.3q8.735-.172 17.469-.258a16.133 16.133 0 012.791.284c1.553.258 2.432 1.29 2.367 3.22-.159 4.642-.386 9.286-.74 13.918-.325 4.292-.819 8.573-1.3 12.851-.452 4.012-1 8.014-1.483 12.022q-.686 5.631-1.334 11.267c-.273 2.4-.495 4.814-.761 7.22a2.62 2.62 0 01-2.643 1.971c-1.6.117-3.2.221-4.8.273-3.457.113-6.914.229-10.373.271-8.639.105-17.278.155-25.918.257-4.879.057-9.758.135-14.636.272q-6.091.171-12.174.516c-2.493.144-4.974.459-7.531.7m56.761-7.549l.014.236c2-.121 4-.193 6-.375 2.274-.208 4.551-.427 6.8-.8a4.123 4.123 0 003.3-3.486c.052-1.125-.023-2.257.054-3.38q.359-5.3.8-10.6c.3-3.639.662-7.273.991-10.91.2-2.2.37-4.4.579-6.594.31-3.292.71-6.578.947-9.876.244-3.4-2.572-6.248-6.466-5.969-1.731.124-3.465.244-5.19.43q-8.564.922-17.127 1.9c-4.811.555-9.617 1.13-14.417 1.765-2.45.324-4.872.861-7.319 1.195-3.158.431-6.349.645-9.493 1.153-3.857.622-7.687 1.424-11.52 2.2a5.144 5.144 0 00-3.688 2.686c-1.21 2.2-.768 4.491-.643 6.748.248 4.545.607 9.087 1 13.623.236 2.709.536 5.419.973 8.1.617 3.776 1.487 7.512 2.039 11.3a2.573 2.573 0 001.835 2.313 6.9 6.9 0 002.571.509c3.531-.181 7.053-.6 10.585-.712 5.815-.185 11.634-.185 17.452-.293 1.96-.036 3.92-.142 5.877-.259 4.683-.283 9.365-.594 14.046-.893" fill="#fff"/><path data-name="パス 856" d="M112.57 94.803c-2.651 0-5.155-.028-7.659.006-5.136.068-10.272.18-15.408.253-6.721.1-13.443.166-20.164.258-4.849.067-9.7.177-14.547.223-4.639.044-9.28-.052-13.917.067-4.142.106-8.277.441-12.417.634-2.124.1-4.254.079-6.38.158-4.27.159-8.538.349-12.807.523-.451.018-.9 0-1.453 0 3.6-4.807 7.06-9.473 10.588-14.089a2.627 2.627 0 011.667-.869c3.975-.394 7.959-.7 11.941-1.026.342-.028.685-.033 1.028-.034q19.349-.131 38.7-.266c4.965-.041 9.93-.091 14.891-.276a70.68 70.68 0 0010.934-.888c1.834-.359 2.528.419 3.459 1.38 1.353 1.395 2.733 2.77 3.984 4.253 2.491 2.951 4.9 5.969 7.342 8.964a3.563 3.563 0 01.222.728" fill="#fff"/><path data-name="パス 857" d="M5.557 100.673c5.588 1.146 11.131.231 16.662.273 2.856.022 5.711-.323 8.57-.43s5.7-.122 8.555-.188c1.023-.024 2.045-.116 3.065-.117 7.04-.011 14.079.028 21.117-.016 6.768-.041 13.536-.14 20.3-.257 5.215-.09 10.428-.26 15.642-.37 3.294-.069 6.589-.067 9.882-.146 1.87-.044 3.738-.188 5.8-.3a38.375 38.375 0 01-.477 4.021 1.692 1.692 0 01-1.173 1.051c-6.7.593-13.393 1.245-20.1 1.593-4.844.251-9.713.044-14.57.1-5.073.053-10.15.112-15.22.274-7.124.228-14.245.563-21.366.831-2.6.1-5.207.095-7.809.208-4.211.182-8.419.468-12.633.62-3.1.111-6.2.022-9.3.128-2.294.078-4.581.327-7.014.51.089-2.62-.719-5.142.062-7.786" fill="#fff"/><path data-name="パス 858" d="M76.566 69.966c-4.681.3-9.363.609-14.047.892-1.957.119-3.916.224-5.876.26-5.818.108-11.638.108-17.452.292-3.533.113-7.055.532-10.586.713a6.88 6.88 0 01-2.57-.51A2.571 2.571 0 0124.2 69.3c-.552-3.783-1.423-7.52-2.039-11.3-.438-2.683-.737-5.395-.973-8.1-.4-4.536-.756-9.076-1-13.622-.124-2.257-.568-4.553.642-6.748a5.143 5.143 0 013.69-2.686c3.83-.779 7.661-1.581 11.519-2.2 3.144-.507 6.335-.722 9.493-1.153 2.447-.334 4.868-.871 7.319-1.2 4.8-.635 9.607-1.209 14.417-1.764q8.559-.988 17.127-1.9c1.725-.186 3.458-.305 5.19-.43 3.894-.28 6.711 2.571 6.466 5.969-.236 3.3-.637 6.583-.947 9.876-.209 2.2-.381 4.4-.579 6.594-.327 3.637-.686 7.271-.991 10.91q-.447 5.3-.8 10.6c-.077 1.123 0 2.255-.054 3.38a4.124 4.124 0 01-3.3 3.486c-2.25.376-4.527.6-6.8.8-1.994.182-4 .255-6 .375l-.014-.236m-47.35-2.189c.406 0 .791.019 1.171 0 2.8-.165 5.606-.384 8.412-.492 2.329-.089 4.666-.006 7-.075 4-.121 8.007-.3 12.01-.456 2.238-.087 4.48-.156 6.717-.28 2.463-.136 4.922-.364 7.387-.481 2.8-.132 5.6-.148 8.4-.287 1.605-.079 3.2-.333 4.8-.454 1.368-.1 2.32-.209 2.122-2.165a39.282 39.282 0 01.344-6.615c.2-2.758.4-5.516.652-8.269.266-2.928.594-5.852.888-8.779.239-2.376.482-4.752.7-7.13.28-3.136.534-6.274.8-9.452-3.229.237-6.233.442-9.234.684-2.075.168-4.149.358-6.219.592-3.339.378-6.669.832-10.011 1.194-2.833.308-5.684.46-8.511.812-3.491.433-6.965 1.021-10.451 1.5-3.9.54-7.83.927-11.712 1.591-2.912.5-5.762 1.348-8.649 2-.729.165-.94.552-.741 1.187a38.365 38.365 0 011.237 9.713c.153 2.982.23 5.975.559 8.938.371 3.331 1.01 6.629 1.487 9.95.321 2.231.561 4.472.846 6.774"/><path data-name="パス 859" d="M29.216 67.777c-.285-2.3-.526-4.543-.846-6.774-.477-3.321-1.116-6.621-1.485-9.95-.329-2.963-.406-5.956-.559-8.938a38.365 38.365 0 00-1.241-9.712c-.2-.635.012-1.022.741-1.187 2.887-.65 5.737-1.5 8.649-2 3.882-.664 7.81-1.051 11.712-1.591 3.487-.483 6.96-1.072 10.451-1.5 2.827-.351 5.678-.5 8.511-.812 3.342-.362 6.672-.816 10.011-1.194 2.07-.234 4.143-.423 6.219-.592 3-.242 6.005-.447 9.234-.684-.269 3.177-.523 6.315-.8 9.452-.213 2.378-.457 4.754-.7 7.13-.294 2.927-.622 5.85-.888 8.779a447.628 447.628 0 00-.652 8.269 39.283 39.283 0 00-.344 6.615c.2 1.957-.754 2.062-2.122 2.165-1.6.121-3.2.374-4.8.454-2.8.139-5.6.155-8.4.287-2.465.117-4.924.345-7.387.481-2.236.123-4.478.192-6.717.28-4 .157-8.005.335-12.01.456-2.331.069-4.668-.014-7 .075-2.806.108-5.608.327-8.412.492-.38.022-.765 0-1.171 0" fill="#ffd200"/><path data-name="パス 860" d="M84.057 45.497c-2.381 3.1-5.737 5.027-8.852 7.239-1.031.731-2.074 1.457-3.172 2.081a3.788 3.788 0 01-1.982.625c-.7-.055-1.9-.5-1.943-.879a3.232 3.232 0 01.712-2.522c1.674-1.439 3.6-2.587 5.4-3.88 1.652-1.187 3.274-2.416 4.963-3.666-3.4-2.207-7.254-3.177-10.581-5.4.417-.476.7-.674.805-.942.518-1.326 1.073-1.736 2.376-1.153 3.423 1.531 6.825 3.124 10.136 4.876.894.473 1.436 1.6 2.139 2.429z"/><path data-name="パス 861" d="M38.89 47.825c2.733 1.541 5.425 3.032 8.084 4.579a5.692 5.692 0 011.677 1.409 1.066 1.066 0 01-.653 1.77 4.754 4.754 0 01-2.94-.077c-3.284-1.731-6.494-3.614-9.649-5.571-1.948-1.209-1.953-3.152.048-4.885a171.144 171.144 0 018.86-7.15c.7-.525 1.813-.5 2.737-.722l-.041.35c.381.456.766.909 1.143 1.368.7.858.026 1.326-.542 1.784q-4.155 3.351-8.325 6.683a4.019 4.019 0 00-.4.463"/><path data-name="パス 862" d="M64.923 35.187c-.781 2.1-1.473 4.15-2.3 6.143-2.116 5.117-4.33 10.195-6.411 15.327a2.6 2.6 0 01-2.441 1.7c-1.177.113-1.871-.687-1.5-1.8.849-2.517 1.788-5.005 2.76-7.478a537.502 537.502 0 014.633-11.456 26.83 26.83 0 011.96-3.635c.786-1.275 1.822-1.171 2.6.179.183.318.412.61.693 1.023"/></g></g></svg>