<svg xmlns="http://www.w3.org/2000/svg" width="120" height="120"><defs><clipPath id="a"><path data-name="長方形 1164" d="M0 0h120v120H0z" fill="none"/></clipPath></defs><g data-name="グループ 700"><g data-name="グループ 699"><g data-name="グループ 702"><g data-name="グループ 735" clip-path="url(#a)"><path data-name="パス 942" d="M61.225 3.999h2.908c1.3.243 2.6.518 3.914.719 3.515.539 7.03 1.091 10.557 1.552 2.721.356 5.463.551 8.188.877q5.614.669 11.215 1.43c3.461.469 6.908 1.041 10.371 1.476a41.486 41.486 0 006.861.542 5.46 5.46 0 014.759 2.957V30.79c-.08.842-.17 1.684-.235 2.53-.212 2.741-.438 5.481-.618 8.223-.226 3.474-.354 6.956-.627 10.426-.354 4.518-.827 9.026-1.21 13.543-.1 1.213.063 2.456-.11 3.654a10.136 10.136 0 01-3.2 5.484c-2.275 2.35-4.658 4.6-7.036 6.846a3.554 3.554 0 01-3.607.875 1.949 1.949 0 00-.786 0 44.528 44.528 0 01-4.946.71c-2.444.077-4.895-.107-7.343-.169-3-.075-6-.14-8.994-.211-.139 0-.276-.015-.414-.029-2.9-.267-5.8-.541-8.705-.8-2.528-.223-5.067-.356-7.586-.651-3.559-.417-7.12-.845-10.647-1.457a87.572 87.572 0 01-9.529-2.1c-3.857-1.124-4.625-2.323-4.5-6.4.13-4.219.553-8.432.982-12.634.285-2.784.789-5.546 1.226-8.312.38-2.406.8-4.806 1.208-7.206.6-3.5 1.211-7.006 1.809-10.509.387-2.266.8-4.529 1.127-6.8.3-2.032.446-4.086.759-6.115.309-2 .774-3.974 1.109-5.971a4.462 4.462 0 012.2-3.432c.9-.5 1.821-.976 2.713-1.5 2.741-1.586 5.462-3.186 8.187-4.786m-9.847 10.307a4.3 4.3 0 00-.125.612c-.09 1.27-.087 2.552-.264 3.81-.42 3.012-.93 6.01-1.389 9.017-.521 3.419-1.021 6.842-1.538 10.262-.384 2.537-.8 5.07-1.16 7.611q-.68 4.838-1.279 9.689c-.306 2.513-.551 5.034-.8 7.553a56.82 56.82 0 00-.249 3.5c-.08 2.188-.158 4.377-.13 6.564a1.737 1.737 0 00.792 1.216 6.627 6.627 0 002.029.666c3.343.655 6.685 1.318 10.043 1.886 2.456.417 4.931.731 7.406 1.02 2.314.271 4.64.447 6.961.667 2.8.265 5.593.627 8.4.773 3.337.175 6.683.164 10.026.235 3.1.068 6.2.154 9.3.2 1.458.02 2.133-.457 2.34-1.834.291-1.936.429-3.895.64-5.844.4-3.687.851-7.369 1.192-11.062.279-3.016.461-6.043.622-9.068.229-4.27.408-8.541.591-12.814.166-3.895.333-7.791.444-11.687a24.258 24.258 0 00-.2-3.605 1.183 1.183 0 00-.791-.746c-2.576-.53-5.156-1.068-7.756-1.461-4.936-.749-9.894-1.342-14.825-2.114-4.179-.654-8.33-1.487-12.5-2.2-3.14-.538-6.289-1.018-9.433-1.52-2.73-.435-5.461-.866-8.347-1.323m3.551-2.487c2.864.426 5.87.866 8.874 1.32 3.349.5 6.741.82 10.033 1.57 6.45 1.469 13.032 1.972 19.541 3 3.735.589 7.474 1.159 11.2 1.829 2.649.479 2.638.55 4.667-1.252 1.629-1.445 3.256-2.9 4.976-4.426-1.47-.111-2.742-.167-4-.313a240.606 240.606 0 01-7.431-.957c-3.179-.473-6.338-1.074-9.523-1.507-2.716-.371-5.461-.532-8.184-.871a465.4 465.4 0 01-10.367-1.443c-3.409-.509-6.805-1.113-10.218-1.6a4.288 4.288 0 00-2.513.119c-2.451 1.421-4.783 3.048-7.058 4.532m51.37 65.031l.194.115c1-1.076 2.05-2.1 2.976-3.238 1.757-2.153 3.736-4.071 3.761-7.292.032-4.041.631-8.077.943-12.119.241-3.105.42-6.213.621-9.32.22-3.426.426-6.852.646-10.277.172-2.68.384-5.358.523-8.038.158-3.055.256-6.114.383-9.252-2.133 1.883-4.25 3.732-6.331 5.623-.2.179-.215.618-.223.939-.077 3.349-.083 6.7-.209 10.048-.13 3.4-.384 6.805-.56 10.207-.166 3.235-.235 6.475-.466 9.706-.273 3.83-.646 7.655-1.026 11.477-.212 2.142-.551 4.273-.788 6.414-.184 1.665-.3 3.339-.443 5.008"/><path data-name="パス 943" d="M51.378 14.305c2.885.458 5.617.887 8.347 1.324 3.146.5 6.295.982 9.433 1.52 4.169.716 8.319 1.549 12.5 2.2 4.93.773 9.885 1.368 14.825 2.116 2.6.395 5.178.931 7.755 1.461a1.188 1.188 0 01.791.747 24.049 24.049 0 01.2 3.6c-.111 3.9-.279 7.792-.444 11.688-.182 4.271-.362 8.544-.589 12.814-.163 3.025-.345 6.052-.624 9.068-.34 3.693-.792 7.373-1.192 11.062-.211 1.948-.348 3.908-.64 5.844-.206 1.377-.881 1.853-2.34 1.832-3.1-.044-6.2-.131-9.3-.2-3.342-.072-6.689-.06-10.026-.235-2.805-.146-5.6-.509-8.4-.774-2.32-.218-4.646-.4-6.961-.666-2.475-.289-4.951-.6-7.406-1.02-3.357-.57-6.7-1.232-10.042-1.888a6.543 6.543 0 01-2.031-.666 1.731 1.731 0 01-.792-1.214c-.029-2.188.05-4.378.13-6.566a56.21 56.21 0 01.249-3.5c.249-2.519.494-5.04.8-7.551q.592-4.852 1.279-9.691c.357-2.54.776-5.073 1.16-7.61.517-3.42 1.017-6.843 1.538-10.263.46-3.006.969-6.005 1.391-9.016.175-1.258.172-2.54.262-3.81a4.372 4.372 0 01.125-.613m4.375 49.906c-.27-1.183-.432-2.093-.69-2.976a25.867 25.867 0 00-.916-2.524c-.083-.2-.339-.475-.512-.472-.553.009-1.294-.057-1.609.258a2.779 2.779 0 00-.541 1.707c-.069 1.234-.032 2.477.015 3.714a3.417 3.417 0 003.945 3.427 43.774 43.774 0 005.627-1.439c1.174-.345 2.3-.854 3.458-1.263a2.287 2.287 0 011.116-.215c3.37.707 6.724 1.487 10.1 2.186 1.409.291 2.847.438 4.52.687-1.6 1.076-3 2.073-4.451 2.979-2.125 1.321-2.14 1.292-3.87-.541-.234-.247-.53-.437-.755-.693-.994-1.134-1.995-1.1-2.857.107a4.542 4.542 0 01-.615.586c.785 2.249 3.619 4.842 5.8 5.267a2.777 2.777 0 001.026-.048 15.4 15.4 0 007.26-4.026 18.683 18.683 0 003.66-4.53c.963-1.635 2.221-3.093 2.841-4.942 1.1-3.286 2.231-6.563 3.333-9.793.857-.169 1.7-.28 2.515-.508 3.911-1.1 6.191-3.809 7.271-7.6.3-1.034.594-2.109-.313-3.137-.624-.708-1.341-.922-1.883-.148a35.9 35.9 0 00-2 3.22 8.75 8.75 0 01-4.137 3.952 4.754 4.754 0 01-.669.179 3.443 3.443 0 01.167-.321 13.933 13.933 0 002.556-8.915 12.393 12.393 0 00-2.572-6.953A17.056 17.056 0 0081.919 24.5a37.863 37.863 0 00-6.976-.547 16.922 16.922 0 00-4.487.453c-4.408 1.124-7.42 4.188-10.026 7.693a14.878 14.878 0 00-2.691 7.9 14.014 14.014 0 01-1.469-2.757c-.446-1.237-.729-2.531-1.147-4.033-.646.36-1.267.5-1.547.893-1.232 1.712-.961 3.569-.3 5.413a9.563 9.563 0 005.531 5.623 1.448 1.448 0 011.048 1.327c.151 2.114.325 4.232.642 6.326.351 2.316.86 4.609 1.318 6.909.137.695.331 1.379.515 2.127l-6.576 2.379" fill="#fff"/><path data-name="パス 944" d="M54.93 11.822c2.275-1.484 4.607-3.113 7.058-4.533a4.288 4.288 0 012.513-.119c3.412.493 6.808 1.1 10.218 1.606a457 457 0 0010.358 1.436c2.722.339 5.467.5 8.184.871 3.185.432 6.344 1.035 9.523 1.507 2.469.368 4.949.669 7.431.958 1.26.146 2.531.2 4 .312-1.722 1.532-3.348 2.982-4.976 4.428-2.029 1.8-2.019 1.73-4.667 1.252-3.721-.672-7.461-1.24-11.2-1.829-6.509-1.026-13.091-1.529-19.541-3-3.292-.749-6.683-1.065-10.033-1.57-3-.452-6.01-.893-8.874-1.318" fill="#fff"/><path data-name="パス 945" d="M106.296 76.855c.145-1.669.259-3.343.443-5.008.237-2.141.576-4.271.788-6.414.38-3.822.753-7.648 1.026-11.477.23-3.23.3-6.471.466-9.706.176-3.4.431-6.8.56-10.207.127-3.348.133-6.7.209-10.048.008-.321.026-.759.223-.939 2.081-1.891 4.2-3.739 6.331-5.623-.127 3.138-.224 6.2-.383 9.252-.139 2.68-.351 5.358-.523 8.038-.22 3.425-.426 6.851-.646 10.277-.2 3.107-.38 6.215-.621 9.32-.312 4.042-.911 8.078-.943 12.119-.024 3.221-2 5.139-3.76 7.292-.925 1.133-1.98 2.162-2.976 3.238l-.194-.115" fill="#fff"/><path data-name="パス 946" d="M55.753 64.208l6.576-2.379c-.184-.749-.378-1.433-.517-2.127-.457-2.3-.966-4.592-1.317-6.909-.316-2.094-.493-4.212-.642-6.325a1.448 1.448 0 00-1.043-1.336 9.558 9.558 0 01-5.529-5.624c-.664-1.844-.936-3.7.3-5.412.28-.39.9-.535 1.547-.893.417 1.5.7 2.8 1.145 4.032a14.113 14.113 0 001.47 2.759 14.878 14.878 0 012.691-7.9c2.606-3.5 5.617-6.569 10.026-7.693a16.921 16.921 0 014.487-.452 37.872 37.872 0 016.974.545 17.066 17.066 0 0110.652 6.929 12.415 12.415 0 012.572 6.953 13.94 13.94 0 01-2.554 8.918 3.133 3.133 0 00-.167.319 4.754 4.754 0 00.669-.179 8.743 8.743 0 004.137-3.952 35.9 35.9 0 012-3.22c.541-.774 1.258-.56 1.883.149.907 1.028.607 2.1.313 3.135-1.082 3.792-3.36 6.5-7.271 7.6-.812.227-1.657.339-2.515.509-1.1 3.23-2.23 6.506-3.333 9.791-.621 1.849-1.879 3.309-2.841 4.942a18.756 18.756 0 01-3.66 4.532 15.409 15.409 0 01-7.26 4.024 2.747 2.747 0 01-1.026.048c-2.18-.425-5.014-3.016-5.8-5.267a4.537 4.537 0 00.615-.585c.863-1.2 1.864-1.243 2.858-.108.223.256.521.446.755.693 1.731 1.832 1.746 1.862 3.869.541 1.454-.9 2.851-1.9 4.451-2.977-1.674-.25-3.111-.4-4.52-.689-3.372-.7-6.727-1.479-10.1-2.186a2.266 2.266 0 00-1.115.217c-1.159.407-2.284.918-3.459 1.263a44.059 44.059 0 01-5.626 1.437 3.418 3.418 0 01-3.949-3.412c-.047-1.237-.083-2.48-.015-3.714a2.781 2.781 0 01.541-1.705c.315-.316 1.056-.25 1.611-.258.173 0 .429.268.512.47a26.012 26.012 0 01.916 2.524c.258.883.42 1.793.69 2.976m19.392-37.228a32.574 32.574 0 00-3.727.69 16 16 0 00-8.561 6.493c-1.3 1.838-2.114 3.883-1.228 6.266.678 1.831 1.74 3.247 3.685 3.61 1.615.3 3.292.255 4.939.395 2.813.24 5.635.422 8.434.783 3.212.413 6.4 1.023 9.608 1.467a1.746 1.746 0 001.4-.548 10.982 10.982 0 00-.824-14.106c-3.679-3.694-8.324-4.806-13.725-5.05m-11.639 20.04c.169 1.382.291 2.7.5 4.009.419 2.673.817 5.353 1.367 8a3.786 3.786 0 001.273 2.258 10.73 10.73 0 003.107.91l1.125-14.275-7.367-.9m18.422 1.932c-.9 5.151-.948 10.255-2.9 15.227 1.234-.14 2.38-.226 3.506-.429.262-.048.55-.46.66-.764.265-.734.374-1.525.649-2.252.943-2.495 1.962-4.963 2.888-7.465.387-1.044.613-2.147.952-3.367-2.023-.334-3.867-.639-5.758-.949m-7.342-.868l-1.479 15.054 3.375.642a9.246 9.246 0 01-.217-2.209c.473-3.129 1.037-6.245 1.574-9.365.208-1.2.432-2.4.67-3.72l-3.923-.4"/><path data-name="パス 947" d="M75.147 26.984c5.4.244 10.046 1.356 13.725 5.05a10.982 10.982 0 01.827 14.107 1.751 1.751 0 01-1.4.548c-3.209-.444-6.4-1.055-9.608-1.469-2.8-.36-5.621-.542-8.434-.782-1.647-.14-3.324-.093-4.939-.395-1.945-.363-3.007-1.779-3.685-3.61-.886-2.385-.075-4.428 1.228-6.266a16 16 0 018.561-6.493 32.574 32.574 0 013.727-.69m.75 11.852a5.735 5.735 0 008.276 1.553c2.584-2.2 2.054-5.056.017-7.821a4.348 4.348 0 00-2.8-1.525 4.938 4.938 0 00-5.122 2.368c-.744-1.565-1.614-2.81-3.262-3.137a5.26 5.26 0 00-5.535 8.282 5.7 5.7 0 008.429.279" fill="#ffcf00"/><path data-name="パス 948" d="M63.508 46.024l7.367.9c-.369 4.693-.743 9.412-1.125 14.275a10.752 10.752 0 01-3.105-.91 3.792 3.792 0 01-1.275-2.258c-.551-2.647-.948-5.326-1.367-8-.2-1.308-.327-2.628-.5-4.009" fill="#ff1d8f"/><path data-name="パス 949" d="M81.936 48.958l5.758.949c-.339 1.22-.565 2.325-.952 3.369-.927 2.5-1.945 4.969-2.89 7.464-.276.728-.384 1.519-.648 2.252-.111.3-.4.716-.661.764-1.125.2-2.272.291-3.506.431 1.95-4.973 2-10.076 2.9-15.229" fill="#ff1d8f"/><path data-name="パス 950" d="M74.593 48.09l3.923.4c-.238 1.315-.463 2.516-.67 3.72-.538 3.12-1.1 6.236-1.574 9.365a9.246 9.246 0 00.217 2.209l-3.375-.642 1.479-15.054" fill="#ff1d8f"/><path data-name="パス 951" d="M75.903 38.835a5.694 5.694 0 01-8.429-.277 5.26 5.26 0 015.534-8.283c1.65.328 2.519 1.571 3.263 3.138a4.937 4.937 0 015.122-2.37 4.354 4.354 0 012.8 1.525c2.037 2.766 2.567 5.621-.017 7.822a5.735 5.735 0 01-8.276-1.555m7.553-2.278c-.032-1.662-1.516-3.544-2.753-3.494a3.341 3.341 0 00-3.024 3.452c.006 1.338 1.728 2.674 3.426 2.659a2.477 2.477 0 002.35-2.617m-9.037-1.056c-.095-1.63-1.582-3.453-2.742-3.361a3.362 3.362 0 00-2.973 3.488c.059 1.32 1.9 2.689 3.5 2.6a2.5 2.5 0 002.218-2.728"/><path data-name="パス 952" d="M83.455 36.557a2.476 2.476 0 01-2.35 2.617c-1.7.015-3.42-1.32-3.426-2.658a3.341 3.341 0 013.024-3.453c1.237-.05 2.721 1.832 2.753 3.494m-2.236 1.058c.261-.256.946-.642 1.147-1.2a1.932 1.932 0 00-1.285-2.043 1.891 1.891 0 00-1.989 1.687c-.026.893.663 1.519 2.123 1.552" fill="#fff"/><path data-name="パス 953" d="M74.419 35.501a2.5 2.5 0 01-2.218 2.729c-1.6.087-3.438-1.282-3.5-2.6a3.361 3.361 0 012.973-3.488c1.16-.092 2.647 1.731 2.742 3.361m-2.584 1.147c.776-.011 1.552-.631 1.55-1.241 0-1.014-.687-1.941-1.43-1.928a1.866 1.866 0 00-1.87 1.678 1.566 1.566 0 001.749 1.492" fill="#fff"/><path data-name="パス 954" d="M81.217 37.613c-1.46-.033-2.148-.658-2.123-1.552a1.891 1.891 0 011.989-1.687 1.932 1.932 0 011.281 2.039c-.2.559-.886.945-1.147 1.2"/><path data-name="パス 955" d="M71.835 36.648a1.566 1.566 0 01-1.749-1.492 1.866 1.866 0 011.87-1.678c.743-.012 1.43.915 1.43 1.928 0 .61-.774 1.231-1.55 1.241"/><path data-name="パス 956" d="M42.194 36.966v.206a14.353 14.353 0 01-1.134 2.035 92.175 92.175 0 01-3.88 4.672c-1.764 1.975-3.583 3.9-5.416 5.811a233.23 233.23 0 01-4.714 4.723 2.213 2.213 0 01-.949.545 16.929 16.929 0 01-7.629.134 14.948 14.948 0 01-9.965-7.174 19.267 19.267 0 01-3.017-12.35 17.261 17.261 0 013.776-9.8c4.832-5.65 10.953-8.02 18.361-6.555a20.18 20.18 0 019.674 5.076c3.112 2.829 4.261 6.679 4.686 10.767.066.636.137 1.273.206 1.91m-20.054 10.2a15.964 15.964 0 012.988-8.363 14.009 14.009 0 017.411-5.306 23.269 23.269 0 00-2.8-3.345 7.979 7.979 0 00-7.473-1.472c-4.185 1.125-7.4 4.886-7.366 8.872a10.126 10.126 0 002.044 5.883 8.616 8.616 0 005.2 3.73m.1 2.653a8.048 8.048 0 01-5.787-2.6 12.9 12.9 0 01-4.353-10.656 11.125 11.125 0 014.755-8.286c4.02-3.04 8.381-4 13.117-1.665 2.495 1.232 3.9 3.44 5.168 5.779a1.966 1.966 0 00.964.874 7.556 7.556 0 001.748.182c-.08-.443-.118-.847-.224-1.229-.588-2.084-1.2-4.2-2.9-5.668-3.85-3.305-8.218-5.074-13.393-4.125a15.879 15.879 0 00-8.564 4.5 13.888 13.888 0 00-3.821 10.125 16.7 16.7 0 003.352 10.057c2.549 3.449 6.1 4.557 10.222 4.722-.1-.717-.187-1.317-.286-2.011m15.318-12.465c-4.7-1.85-13.053 3.782-11.595 12.5l11.595-12.5"/><path data-name="パス 957" d="M22.14 47.163a8.616 8.616 0 01-5.2-3.73 10.114 10.114 0 01-2.043-5.883c-.038-3.986 3.179-7.747 7.366-8.872a7.981 7.981 0 017.473 1.472 23.364 23.364 0 012.8 3.345 14.009 14.009 0 00-7.411 5.306 15.964 15.964 0 00-2.988 8.363" fill="#ff5441"/><path data-name="パス 958" d="M22.242 49.818c.1.693.184 1.294.286 2.011-4.117-.164-7.673-1.273-10.223-4.722a16.708 16.708 0 01-3.351-10.058 13.878 13.878 0 013.821-10.124 15.881 15.881 0 018.564-4.5c5.175-.949 9.543.818 13.391 4.128 1.705 1.467 2.314 3.584 2.9 5.666.108.384.146.788.224 1.231a7.539 7.539 0 01-1.746-.184 1.959 1.959 0 01-.966-.872c-1.269-2.34-2.671-4.547-5.168-5.779-4.735-2.337-9.1-1.376-13.115 1.663a11.119 11.119 0 00-4.755 8.286 12.9 12.9 0 004.353 10.658 8.053 8.053 0 005.785 2.594" fill="#fff"/><path data-name="パス 959" d="M37.56 37.351l-11.595 12.5c-1.458-8.722 6.9-14.353 11.595-12.5" fill="#fff"/><path data-name="パス 960" d="M55.895 58.981l1.492 4.316a1.012 1.012 0 00-.075.372c.411 1.873.93 3.726 1.238 5.615.8 4.884 1.523 9.782 2.252 14.677.714 4.783 1.4 9.571 2.1 14.358a14.687 14.687 0 00.568 3.2 3.516 3.516 0 01-.788 4.092c-.687.592-1.454 1.094-2.186 1.638q-.979.339-1.96.676a2.971 2.971 0 00-.6 0c-1.6.324-3.2.726-4.811.979-3.223.506-6.46.915-9.686 1.4a27.149 27.149 0 00-5.106.943 36.418 36.418 0 00-4.75 2.549c-1.794.969-3.56 2.013-5.419 2.835a3.737 3.737 0 01-4.4-1.264c-.892-1.287-1.537-2.742-2.325-4.1-2.147-3.709-4.332-7.4-6.462-11.116-1.937-3.381-3.956-6.722-5.695-10.2-2.366-4.74-5.469-9.039-7.563-13.941C.414 72.954.8 70.422 3.6 68.764c3.418-2.011 6.834-4.05 10.384-5.808 3.807-1.885 7.767-3.459 11.663-5.163a18.764 18.764 0 012.109-.844c1.428-.425 2.829-.985 4.395-.479a6.7 6.7 0 013.428 2.977 1.181 1.181 0 001.546.527c.994-.271 1.978-.586 2.983-.8 3.009-.63 6.049-1.125 9.034-1.85 2.594-.63 4.848-.325 6.75 1.653m-5.013 39.391c-.695-1.339-1.394-2.676-2.081-4.018q-1.921-3.747-3.828-7.5-1.846-3.62-3.684-7.244c-1.131-2.231-2.239-4.475-3.394-6.694-.758-1.454-1.577-2.876-2.38-4.306-1.507-2.682-3.028-5.354-4.526-8.042a1.085 1.085 0 00-1.588-.573c-1.651.693-3.343 1.287-5 1.971-1.841.761-3.688 1.52-5.484 2.382-2.087 1-4.149 2.06-6.17 3.189q-3.589 2.007-7.078 4.2a1.73 1.73 0 00-.55 2.689c.223.38.582.675.827 1.044.713 1.07 1.467 2.121 2.084 3.245 1.353 2.463 2.572 5 3.95 7.447 1.879 3.333 3.949 6.558 5.767 9.923 2.724 5.043 5.273 10.179 7.97 15.236a4.907 4.907 0 001.817 1.754c.259.154.951-.372 1.421-.631 1.7-.94 3.375-1.915 5.076-2.849 2.117-1.16 4.262-2.267 6.371-3.444q3.026-1.69 6-3.482c1.278-.767 2.542-1.567 3.748-2.441.566-.411 1.136-.973.734-1.855m-3.315 7.8c.99-.145 2.1-.271 3.2-.475 2.581-.472 5.154-.992 7.734-1.487a1.214 1.214 0 001.061-1.57q-.4-2.789-.824-5.574c-.228-1.52-.444-3.042-.7-4.557-.4-2.392-.842-4.777-1.237-7.17-.479-2.909-.9-5.826-1.4-8.732-.452-2.667-.908-5.335-1.466-7.981a93.757 93.757 0 00-1.695-6.789c-.359-1.235-.943-1.5-2.162-1.276q-3.577.664-7.145 1.394c-1.693.348-3.376.75-5.186 1.157a15.771 15.771 0 011.071 2.013 2.73 2.73 0 002.736 2.052 11.413 11.413 0 017.485 3.9 12.429 12.429 0 013.487 7.048 16.252 16.252 0 01-1.689 9.251 1.152 1.152 0 00.008.875c.491 1.089 1.037 2.154 1.57 3.226.67 1.342 1.394 2.661 2.013 4.027 1.261 2.784 1.541 4.658-1.26 6.79-1.828 1.392-3.779 2.623-5.6 3.878m1.089-21.906c.086-.021.172-.042.258-.065a2.42 2.42 0 00.1-.392c.46-5.079-1.418-9.309-4.857-12.894a9.31 9.31 0 00-2.59-1.359l-.224.319 7.312 14.39"/><path data-name="パス 961" d="M50.879 98.368c.4.881-.167 1.443-.735 1.855-1.207.872-2.471 1.672-3.748 2.441q-2.972 1.785-6 3.48c-2.106 1.181-4.248 2.281-6.369 3.445-1.7.933-3.379 1.907-5.076 2.847-.469.261-1.16.786-1.419.631a4.9 4.9 0 01-1.817-1.754c-2.697-5.055-5.246-10.188-7.967-15.233-1.817-3.364-3.889-6.59-5.766-9.923-1.38-2.448-2.6-4.984-3.95-7.447-.618-1.125-1.371-2.176-2.084-3.247-.246-.368-.606-.664-.827-1.043a1.732 1.732 0 01.55-2.689q3.485-2.188 7.08-4.2a110.939 110.939 0 016.168-3.189c1.8-.862 3.643-1.62 5.486-2.38 1.654-.684 3.348-1.278 5-1.972a1.086 1.086 0 011.588.574c1.5 2.686 3.019 5.359 4.526 8.041.8 1.431 1.623 2.854 2.38 4.307 1.157 2.218 2.263 4.463 3.394 6.694q1.84 3.623 3.684 7.242 1.912 3.751 3.828 7.5c.689 1.342 1.388 2.679 2.082 4.018m-11-6.226a4.588 4.588 0 00.221-5.84c-1.306-1.612-2.466-3.342-3.712-5-1.582-2.1-3.2-4.179-4.761-6.3-.241-.328-.214-.845-.35-1.264a15.532 15.532 0 00-.9-2.536c-.252-.473-.886-.726-1.261-1.154a32.613 32.613 0 00-2.176-2.613 6.468 6.468 0 00-3.961-1.959c-3.289-.247-6.591 3.209-7.045 5.558a49.4 49.4 0 00-.854 7.821c-.051 1.7.221 2.45 2.328 2.5.259.008.517.041.643.05.319 2.147.633 4.2.928 6.248a30.823 30.823 0 003.841 10.731c1.272 2.26 1.722 2.31 3.676 1.493 1.216-.508 2.4-1.089 3.309-1.507 1.321 1.35 2.524 2.637 3.8 3.849.511.487.592.8-.127.978-1.035.258-1.223.856-.905 1.778a6.189 6.189 0 01.176.951 4.419 4.419 0 003.751-2.982 1.552 1.552 0 00-.1-1.086c-.648-.954-1.394-1.843-2.094-2.762-.586-.768-1.162-1.547-1.739-2.319l4.089-2.224 3.271 3.544c-.374.452-.925.863-1.1 1.4a6.142 6.142 0 000 1.916c.526-.063 1.061-.095 1.577-.2a1.745 1.745 0 00.592-.4c1.332-1.021 1.862-2.487 1.321-3.566-.322-.64-.592-1.308-.9-1.954-.485-1.011-.984-2.016-1.537-3.146" fill="#00acfd"/><path data-name="パス 962" d="M47.565 106.169c1.823-1.254 3.774-2.486 5.6-3.877 2.8-2.132 2.521-4.006 1.26-6.792-.619-1.365-1.342-2.683-2.013-4.027-.533-1.07-1.079-2.135-1.57-3.224a1.156 1.156 0 01-.008-.877 16.25 16.25 0 001.689-9.251 12.429 12.429 0 00-3.486-7.052 11.419 11.419 0 00-7.485-3.9 2.728 2.728 0 01-2.736-2.052 15.771 15.771 0 00-1.071-2.013c1.809-.405 3.492-.809 5.186-1.157q3.566-.732 7.147-1.392c1.219-.226 1.8.041 2.162 1.276a93.445 93.445 0 011.695 6.787c.557 2.646 1.014 5.314 1.466 7.981.494 2.906.919 5.825 1.4 8.732.395 2.394.838 4.779 1.237 7.171.253 1.516.47 3.037.7 4.556q.418 2.792.818 5.582a1.213 1.213 0 01-1.061 1.568c-2.578.5-5.151 1.011-7.732 1.487-1.1.2-2.212.33-3.2.475" fill="#ff1d8f"/><path data-name="パス 963" d="M48.655 84.263l-7.312-14.39.223-.319a9.31 9.31 0 012.59 1.359c3.44 3.584 5.317 7.815 4.857 12.894a2.42 2.42 0 01-.1.392c-.086.023-.172.044-.258.065" fill="#fff"/><path data-name="パス 964" d="M39.888 92.141c.553 1.13 1.052 2.135 1.537 3.146.309.646.58 1.314.9 1.954.541 1.079.011 2.545-1.321 3.566a1.767 1.767 0 01-.592.4c-.517.11-1.05.142-1.577.2a6.142 6.142 0 010-1.916c.172-.533.723-.945 1.1-1.4l-3.272-3.538-4.09 2.224c.577.771 1.153 1.55 1.739 2.319.7.919 1.446 1.808 2.094 2.762a1.552 1.552 0 01.1 1.086 4.419 4.419 0 01-3.751 2.982 6.189 6.189 0 00-.176-.951c-.318-.922-.13-1.52.905-1.778.719-.181.637-.493.127-.978-1.273-1.213-2.475-2.5-3.8-3.849-.908.416-2.093 1-3.309 1.507-1.954.817-2.4.767-3.676-1.495a30.831 30.831 0 01-3.835-10.729c-.3-2.05-.609-4.1-.928-6.246-.127-.011-.384-.044-.643-.05-2.106-.053-2.377-.8-2.328-2.5a49.231 49.231 0 01.856-7.821c.452-2.349 3.756-5.8 7.043-5.558a6.468 6.468 0 013.961 1.959 32.3 32.3 0 012.171 2.609c.375.428 1.009.681 1.261 1.154a15.532 15.532 0 01.9 2.536c.136.419.108.936.35 1.264 1.558 2.123 3.179 4.2 4.761 6.3 1.246 1.66 2.406 3.39 3.712 5a4.588 4.588 0 01-.221 5.84M20.868 81.07c.556 2.552 1.127 5.326 1.773 8.083.44 1.873 1.02 3.711 1.473 5.58.574 2.359 1.4 2.742 3.48 1.559 2.142-1.217 4.335-2.355 6.432-3.646a39.521 39.521 0 003.947-2.9.982.982 0 00.054-1.648 34.776 34.776 0 01-2.469-2.885 527.768 527.768 0 01-6.042-7.773.921.921 0 00-1.391-.279c-2.331 1.269-4.67 2.518-7.257 3.908m4.347-10.623a4.507 4.507 0 00-5.293-1.009c-.991.538-1.815 3.312-1.464 4.663l6.757-3.654m-7.584 7.78l.224.166 10.588-4.74.068-.354c-.44-.163-.928-.535-1.309-.446a11.973 11.973 0 00-2.811 1.024c-2.044 1.065-4.048 2.207-6.038 3.372-.321.188-.485.645-.722.978"/><path data-name="パス 965" d="M20.868 81.07c2.587-1.391 4.928-2.64 7.257-3.908a.921.921 0 011.391.279 522.53 522.53 0 006.042 7.773 34.508 34.508 0 002.472 2.885.982.982 0 01-.056 1.648 39.521 39.521 0 01-3.947 2.9c-2.1 1.29-4.288 2.429-6.432 3.646-2.084 1.183-2.9.8-3.48-1.559-.453-1.87-1.034-3.708-1.473-5.58-.646-2.757-1.217-5.531-1.773-8.083" fill="#fff"/><path data-name="パス 966" d="M25.214 70.447l-6.757 3.654c-.351-1.351.475-4.125 1.464-4.663a4.507 4.507 0 015.293 1.009" fill="#fff"/><path data-name="パス 967" d="M17.63 78.228c.237-.333.4-.789.722-.978 1.99-1.165 3.994-2.307 6.038-3.372a11.973 11.973 0 012.811-1.024c.381-.089.869.283 1.309.446l-.068.354q-5.295 2.368-10.588 4.74l-.224-.166" fill="#fff"/></g></g></g></g></svg>