<svg xmlns="http://www.w3.org/2000/svg" width="290" height="30.062"><g data-name="グループ 10"><path data-name="パス 21" d="M81.164 15.04a.291.291 0 01-.008-.373l6.629-8.321a1.814 1.814 0 00-1.419-2.943h-1.747a1.8 1.8 0 00-1.418.684l-6.353 7.981V5.216a1.815 1.815 0 00-1.813-1.812h-1.451a1.815 1.815 0 00-1.812 1.812v19.693a1.814 1.814 0 001.812 1.812h1.451a1.814 1.814 0 001.813-1.812v-7.037l7.158 8.226a1.812 1.812 0 001.368.622h1.931a1.812 1.812 0 001.371-3z"/><path data-name="パス 22" d="M109.706 4.559a1.8 1.8 0 00-1.689-1.156h-2.248a1.8 1.8 0 00-1.689 1.156l-7.652 19.692a1.813 1.813 0 001.69 2.47h1.31a1.822 1.822 0 001.692-1.16l1.44-3.734a.514.514 0 01.475-.326h7.715a.514.514 0 01.476.326l1.439 3.735a1.824 1.824 0 001.692 1.159h1.311a1.811 1.811 0 001.689-2.468zm-2.813 6.059l2.354 6.12h-4.707z"/><path data-name="パス 23" d="M146.517 3.403h-1.7a1.8 1.8 0 00-1.519.826l-6.281 9.7-6.281-9.7a1.807 1.807 0 00-1.521-.827h-1.7a1.815 1.815 0 00-1.812 1.812v19.695a1.814 1.814 0 001.812 1.812h1.452a1.814 1.814 0 001.812-1.812V13.464l4.722 7.178a1.806 1.806 0 001.514.816 1.809 1.809 0 001.515-.816l4.722-7.178v11.445a1.814 1.814 0 001.812 1.812h1.452a1.814 1.814 0 001.812-1.812V5.215a1.815 1.815 0 00-1.811-1.812z"/><path data-name="パス 24" d="M171.355 21.829h-7.937V17.22h6.994a1.815 1.815 0 001.813-1.813v-1.262a1.816 1.816 0 00-1.813-1.813h-6.994V8.289h7.748a1.815 1.815 0 001.812-1.813V5.214a1.814 1.814 0 00-1.812-1.811h-11.013a1.815 1.815 0 00-1.812 1.812v19.694a1.814 1.814 0 001.812 1.812h11.2a1.814 1.814 0 001.813-1.812v-1.263a1.815 1.815 0 00-1.811-1.817z"/><path data-name="パス 25" d="M201.202 3.403h-1.451a1.814 1.814 0 00-1.812 1.812v11.992L188.457 4.15a1.821 1.821 0 00-1.467-.748h-1.644a1.815 1.815 0 00-1.812 1.812v19.695a1.814 1.814 0 001.812 1.812h1.451a1.814 1.814 0 001.812-1.812V12.944l9.482 13.032a1.82 1.82 0 001.466.744h1.644a1.815 1.815 0 001.813-1.812V5.215a1.816 1.816 0 00-1.812-1.812z"/><path data-name="パス 26" d="M222.623 3.023a12.039 12.039 0 1011.786 12.038 11.652 11.652 0 00-11.786-12.038zm6.646 12.038c0 4.141-2.8 7.147-6.646 7.147s-6.645-3.006-6.645-7.147 2.795-7.15 6.645-7.15 6.646 3.012 6.646 7.152z"/><path data-name="パス 27" d="M259.664 20.57a1.81 1.81 0 00-2.451-.086 7.184 7.184 0 01-4.774 1.79c-3.807 0-6.677-3.1-6.677-7.211s2.871-7.212 6.677-7.212a6.985 6.985 0 014.452 1.572 1.809 1.809 0 002.4-.114l.891-.869a1.824 1.824 0 00.549-1.373 1.8 1.8 0 00-.648-1.315 11.968 11.968 0 00-7.641-2.728 12.039 12.039 0 000 24.073 12 12 0 008.033-3.021 1.812 1.812 0 00.065-2.644z"/><path data-name="パス 28" d="M278.216 3.023a12.039 12.039 0 1011.785 12.038 11.652 11.652 0 00-11.785-12.038zm0 19.185c-3.851 0-6.645-3.006-6.645-7.147s2.795-7.15 6.645-7.15 6.645 3.007 6.645 7.15-2.795 7.149-6.645 7.149z"/></g><g data-name="グループ 11"><path data-name="パス 29" d="M20.323 19.95a3.418 3.418 0 002.718 1.111 11.32 11.32 0 005.118-1.646 19.188 19.188 0 015.619-2.382 15.341 15.341 0 013.625-.453 11.885 11.885 0 017.379 2.422 15.4 15.4 0 003.138 2.148c.754.349 2.947.748 3.743-.552.483-.79-.37-2.689-.622-3.447a26.923 26.923 0 00-9.433-13.408A20.821 20.821 0 0026.615.297c-5.1.773-9.6 4.115-12.972 7.857a32.028 32.028 0 00-3.189 4.176 19.8 19.8 0 00-1.187 2.127c-.5 1.038-1.3 3.064.736 2.772a13.4 13.4 0 015.473-.152 9.73 9.73 0 014.847 2.873z"/><path data-name="パス 30" d="M60.321 21.898c-.768-1.4-2.654-1.508-3.968-.869l-.09.042c-.988.461-1.908 1.132-2.976 1.52a11.178 11.178 0 01-3.467.7 8.1 8.1 0 01-3.4-.6 16.6 16.6 0 01-3.125-2.171 9.749 9.749 0 00-3.007-1.45c-3.7-1.05-7.824.147-10.987 2.106a12.771 12.771 0 01-5.515 1.946 6.18 6.18 0 01-5.076-1.836c-4.18-3.81-9.984-2.472-14.545-.177-1.738.82-4.309 2.25-4.158 4.492a3.215 3.215 0 004.4 2.458c.851-.3 1.593-.829 2.43-1.163a17.472 17.472 0 014.391-1.2 7.078 7.078 0 015.6 1.506 28.56 28.56 0 002.418 1.808c2.708 1.644 6.455.859 9.177-.36 2.759-1.236 5.192-2.96 8.3-3.169 2.822-.191 4.69 1.027 6.845 2.642 4.1 3.07 9.806 2.191 13.835-.58 1.793-1.144 4.223-3.317 2.918-5.645z"/></g><path data-name="長方形 1006" fill="none" d="M0 0h290v30H0z"/></svg>