<svg xmlns="http://www.w3.org/2000/svg" width="100" height="65"><g data-name="グループ 6"><path data-name="長方形 1" fill="none" d="M0 0h100v65H0z"/><g data-name="グループ 1"><path data-name="パス 1" d="M4.3 58.758a.134.134 0 010-.171l3.035-3.81a.83.83 0 00-.649-1.347h-.8a.825.825 0 00-.649.313l-2.909 3.654V54.26a.831.831 0 00-.83-.83H.833a.83.83 0 00-.83.83v9.016a.831.831 0 00.83.83h.665a.831.831 0 00.83-.83v-3.222l3.277 3.767a.828.828 0 00.626.285h.884a.83.83 0 00.628-1.373z"/><path data-name="パス 2" d="M17.369 53.959a.825.825 0 00-.774-.529h-1.029a.824.824 0 00-.773.529l-3.5 9.016a.83.83 0 00.773 1.131h.6a.835.835 0 00.774-.531l.66-1.71a.234.234 0 01.218-.149h3.532a.235.235 0 01.218.149l.659 1.71a.835.835 0 00.774.531h.6a.829.829 0 00.774-1.13zm-1.288 2.774l1.078 2.8h-2.155z"/><path data-name="パス 3" d="M34.222 53.43h-.777a.825.825 0 00-.7.379l-2.876 4.44-2.875-4.44a.826.826 0 00-.7-.379h-.777a.831.831 0 00-.83.83v9.016a.831.831 0 00.83.83h.665a.831.831 0 00.83-.83v-5.24l2.162 3.287a.827.827 0 00.693.374.829.829 0 00.694-.374l2.161-3.287v5.24a.831.831 0 00.83.83h.665a.831.831 0 00.83-.83V54.26a.831.831 0 00-.825-.83z"/><path data-name="パス 4" d="M45.594 61.867H41.96v-2.11h3.2a.831.831 0 00.83-.83v-.578a.831.831 0 00-.83-.83h-3.2v-1.851h3.548a.831.831 0 00.83-.83v-.578a.831.831 0 00-.83-.83h-5.042a.831.831 0 00-.83.83v9.016a.831.831 0 00.83.83h5.128a.831.831 0 00.83-.83V62.7a.831.831 0 00-.83-.833z"/><path data-name="パス 5" d="M59.26 53.43h-.665a.83.83 0 00-.83.83v5.491l-4.341-5.978a.833.833 0 00-.672-.342H52a.831.831 0 00-.83.83v9.016a.831.831 0 00.83.83h.664a.831.831 0 00.83-.83V57.8l4.341 5.967a.835.835 0 00.671.341h.752a.831.831 0 00.83-.83V54.26a.831.831 0 00-.828-.83z"/><path data-name="パス 6" d="M69.067 53.257a5.512 5.512 0 105.4 5.511 5.335 5.335 0 00-5.4-5.511zm3.042 5.511a3.051 3.051 0 11-3.042-3.273 3.06 3.06 0 013.042 3.277z"/><path data-name="パス 7" d="M86.027 61.29a.829.829 0 00-1.122-.039 3.288 3.288 0 01-2.186.819 3.312 3.312 0 010-6.6 3.2 3.2 0 012.037.72.828.828 0 001.1-.052l.408-.4a.828.828 0 00-.045-1.23 5.48 5.48 0 00-3.5-1.249 5.512 5.512 0 000 11.022 5.494 5.494 0 003.678-1.384.83.83 0 00.03-1.211z"/><path data-name="パス 8" d="M94.522 53.257a5.512 5.512 0 105.4 5.511 5.335 5.335 0 00-5.4-5.511zm0 8.784a3.281 3.281 0 113.043-3.272 3.06 3.06 0 01-3.043 3.272z"/></g><g data-name="グループ 2"><path data-name="パス 9" d="M35.456 29.498a4.942 4.942 0 003.933 1.609c3.5 0 7.164-2.231 7.406-2.382a27.758 27.758 0 018.13-3.447 22.224 22.224 0 015.246-.656 17.2 17.2 0 0110.677 3.5 22.274 22.274 0 004.541 3.108c1.091.506 4.264 1.082 5.416-.8.7-1.143-.534-3.89-.9-4.987-2.494-7.486-7.148-14.793-13.649-19.4a30.123 30.123 0 00-21.7-4.987C37.18 2.175 30.665 7.01 25.785 12.426a46.36 46.36 0 00-4.615 6.043 28.716 28.716 0 00-1.718 3.078c-.719 1.5-1.886 4.435 1.065 4.012 2.762-.4 5.121-.916 7.92-.22a14.082 14.082 0 017.019 4.159z"/><path data-name="パス 10" d="M93.333 32.32c-1.111-2.031-3.84-2.183-5.743-1.257l-.129.06c-1.43.667-2.76 1.637-4.307 2.2a16.18 16.18 0 01-5.017 1.01 11.74 11.74 0 01-4.92-.867c-1.753-.74-3-2.044-4.521-3.134a14.1 14.1 0 00-4.35-2.1c-5.354-1.519-11.323.212-15.9 3.047a18.474 18.474 0 01-7.979 2.817 8.94 8.94 0 01-7.346-2.653c-6.049-5.512-14.446-3.577-21.047-.256-2.514 1.187-6.235 3.257-6.016 6.5.343 3.1 3.658 4.523 6.366 3.558 1.231-.439 2.305-1.2 3.517-1.684a25.257 25.257 0 016.353-1.738 10.241 10.241 0 018.105 2.179 41.273 41.273 0 003.5 2.617c3.919 2.379 9.341 1.242 13.28-.521 3.993-1.788 7.513-4.283 12.008-4.586 4.083-.276 6.786 1.486 9.905 3.822 5.934 4.443 14.19 3.172 20.02-.839 2.593-1.663 6.109-4.808 4.221-8.175z"/></g></g></svg>