<svg xmlns="http://www.w3.org/2000/svg" width="70" height="75"><g data-name="グループ 611" fill="#fff"><path data-name="パス 550" d="M57.725 46.553c.1-2.98.527-3.562 3.645-4.26 5.753-1.288 10.71-8.068 7.743-14.348a14.217 14.217 0 00-8.252-7.442c-1.7-.633-2.129-1.311-2.025-3 .065-1.065.2-2.127.244-3.192a7.806 7.806 0 00-10.392-7.51c-2.369.605-5.5 1.569-7.206-.681-.421-.532-.779-1.106-1.2-1.639-1.681-2.137-3.519-4.059-6.643-4.4a12.443 12.443 0 00-13.261 7.814 14.121 14.121 0 01-2.014 3.381 4.2 4.2 0 01-2.851 1.585 21.117 21.117 0 00-7.966 2.461 9.1 9.1 0 00-3.824 12.357c.68 1.209 1.468 2.367 2.224 3.538a3.19 3.19 0 01-.07 3.967c-1.063 1.395-2.333 2.649-3.463 4a9.713 9.713 0 00-.068 12.729c2.006 2.423 4.5 4.119 8.009 4.009a43.694 43.694 0 006.749-1.276 3.949 3.949 0 014.336 2.053 5.491 5.491 0 01.677 3.167l-.371 4.26a16.972 16.972 0 00.737 4.245c2 6.375 11.588 9.048 16.869 3.984 3.883-3.694 3.444-7.5 3.426-12.179a3.453 3.453 0 011.382-2.62 6.4 6.4 0 013.981-1.466c5.797-.156 9.621-4.363 9.584-9.537z"/><path data-name="パス 551" d="M65.713 62.674c-3.645-1.239-8.686.375-9.609 4.306-1.321 4.48 3.012 8.086 7.367 8.018 6.923.191 9.358-9.845 2.242-12.324z"/></g></svg>